M48
METRIC,TZ
T01C.2
T02C.8
T03C.9
T04C3.
;LEADER: 12 
;HEADER: 
;CODE  : ASCII 
;FILE  : 4CH-OEI-A2-1-4.drl for board F:/3-MyLaptopDIR/4CH-OEInterface_x86/PCB/#Taaaacd13664.tmp ... layers TOP and BOTTOM
;T01 Holesize 1. = 0.200000 Tolerance = +0.000000/-0.000000 PLATED MM Quantity = 267
;T03 Holesize 2. = 0.900000 Tolerance = +0.000000/-0.000000 PLATED MM Quantity = 24
;T04 Holesize 3. = 3.000000 Tolerance = +0.000000/-0.000000 NON_PLATED MM Quantity = 1
%
G90
T01
X142700Y142700
Y240000
Y320000
X200000Y190000
X257300Y142700
Y240000
X681210Y490330
X764060Y410000
X780000Y487300
X840000Y180000
X860000Y487300
X890000Y142700
X930000Y190000
Y270000
Y410000
X950000Y487300
X980000Y142700
X1030000Y180000
Y487300
X1982700Y300000
X2120000
X2480000
X2617300
X3500000Y210000
Y400000
X3992700Y210000
Y305000
X4290000Y170000
X4458500Y498500
X4550000Y130000
X4577300Y200000
R02Y95000
X4758560Y500000
X4980000Y480000
X5060000Y295000
X5070000Y200000
X5160500Y310000
X5260000Y290000
X5320000Y390000
X5430000Y490000
X5690000Y260000
X5740000Y130000
X5820000Y170000
X5910000Y305830
X6290000Y370000
X6820000Y700000
X6360000Y800000
X6087600Y697600
X5790000Y942400
X5747600Y697600
X5665830Y906700
X5550000Y660000
X5532700Y790000
X5107300Y600000
X5070000Y1010000
Y820000
X4560000Y960000
X4530000Y600000
X4522700Y695000
X4280000Y740000
X4057300Y695000
X4000000Y1010000
X3929000Y859000
X3500000Y1010000
Y760000
Y610000
X3470000Y680000
X3070000Y850000
X2890000Y690000
X2820000Y780000
X2650000Y590000
X2480000Y930000
X2330000Y940000
X2100000Y810000
X1930000Y990000
X1820000Y970000
X1440000Y760000
X1100000Y610000
X970000Y880000
X800000
X710000Y1000000
X657300Y537300
X580000Y999000
X490000Y1000000
X200000Y602700
X142700Y637300
X1230000Y1190000
X1300000Y1170000
X1360000Y1120000
X1440000Y1090000
X1512030Y1512030
X1520000Y1072700
X1760000Y1520000
X1895000Y1492700
X2195000
X2710000Y1460000
X2975000Y1060000
Y1417600
X3070000Y1470000
X3340000Y1400000
X3500000Y1200000
Y1400000
X3992700Y1105000
X4020000Y1190000
X4040000Y1495000
X4458500Y1270000
X4530000Y1495000
X4540000Y1040000
Y1400000
X4577300Y1200000
X4790000Y1300000
X4990000Y1290000
X5060000Y1110000
X5160500
X5260000Y1090000
X5330000Y1190000
X5490000Y1090000
X5490500Y1280000
X5532700Y1400000
X5690000Y1120000
X5747600Y1507600
X5910000Y1125830
X6187450Y1467450
X6290000Y1180000
X6820000Y1500000
X6360000Y1600000
X6280000Y1990000
X6040000Y1590000
X5899700Y1925830
X5690000Y1920000
X5532700Y1990000
X5531860Y1552600
X5530000Y1850000
X5107300Y1800000
X5080000Y1620000
X5070000Y2010000
X4890000Y1820000
X4880000Y1720000
X4810000Y2010000
X4530000Y1895000
Y1800000
X4280000Y1940000
X4260000Y1540000
X4057300Y1895000
X3929000Y1639000
X3500000Y2030000
X3500500Y1789500
X3500000Y1550000
X3370000Y1725000
X3360000Y1550000
X3280000Y1775000
Y1675000
X3220000Y1625000
X3210000Y1825000
X3160000Y1575000
X3136700Y1875000
X3030000Y1940000
X2950000Y1800000
X2940000Y1590000
X2900000Y1700000
X2871700Y1915800
X2850000Y1800000
Y1590000
X2247300Y1945000
Y1695000
Y1595000
X1590000Y2010000
X1570000Y1580000
X1520000Y1960000
Y1885940
X1510000Y1645000
X1507030Y1722970
X1492700Y1795000
X1230000Y1980000
X1220000Y1860000
X1010000Y1700000
X930000
X851000
X658300Y2261000
X1110000Y2160000
X1420000Y2300000
X1492700Y2095000
X1495000Y2420000
X1895000Y2247300
X2145000
X2195000Y2420000
X2247300Y2195000
X2340000Y2340000
X2830000Y2360000
X2920000Y2420000
X3500000Y2210000
Y2400000
X3760000Y2110000
X3997940Y2305000
X4000000Y2210000
X4540000Y2200000
Y2390000
X4577300Y2305000
X4630000Y2150000
X4762700Y2400000
X5042700Y2305000
X5070000Y2210000
X5087300Y2430000
X5340000Y2190000
X5382700Y2429000
X5747600Y2300000
X5890000Y2490000
X6030000Y2390000
X6087600Y2300000
X6370000Y2390000
X6820000Y2290000
X6300000Y2810000
X5900000Y2745830
X5700000Y2740000
X5550000Y2800000
X5540000Y2610000
X5350000Y3000000
X5100000Y2610000
X5070000Y2820000
X5042700Y3000000
X4890000Y2580000
X4820000Y2820000
X4640000Y2920000
X4540000Y3000000
X4530000Y2610000
X4522700Y2705000
X4280000Y2740000
X4050000Y2705000
X4000000Y3000000
X3760000Y2910000
X3500000Y3000000
Y2830000
Y2590000
X2830000Y2660000
X2660000Y2650000
X2640000Y2800000
X1970000
X1572700Y2570000
X1440000Y2980000
X1110000Y2820000
X1090000Y2922300
X658300Y2741000
X590000Y3150000
X970000Y3075000
X980000Y3170000
X1330000Y3270000
X1445000Y3075000
X2000000Y3110000
X2100000
X2210000
X2330000
X2450000
X2580000
X3500000Y3190000
X4000000Y3095000
X4540000Y3191000
X4577300Y3095000
X4762700Y3190000
X5042700Y3095000
X5070000Y3230000
X5410000
X5680000Y3219500
X5747600Y3112800
X6087600Y3120000
X6400000Y3220000
X6820000Y3130000
T03
X3210000Y236000
Y490000
Y906000
Y1160000
Y2246000
Y2500000
Y2926000
Y3180000
X6620000Y3040000
X6780000Y2880000
X6460000
X6620000Y2720000
Y2200000
X6780000Y2040000
X6460000
X6620000Y1880000
Y1410000
X6780000Y1250000
X6460000
X6620000Y1090000
Y590000
X6780000Y430000
X6460000
X6620000Y270000
T04
X1370000Y300000
M30
