G04 ================== begin FILE IDENTIFICATION RECORD ==================*
G04 Layout Name:  F:/3-MyLaptopDIR/4CH-OEInterface_x86/PCB/4CH-OEI-A2.brd*
G04 Film Name:    DRILL_DETAIL*
G04 File Format:  Gerber RS274X*
G04 File Origin:  Cadence Allegro 22.1-P001*
G04 Origin Date:  Tue Jun 10 16:08:45 2025*
G04 *
G04 Layer:  MANUFACTURING/PHOTOPLOT_OUTLINE*
G04 Layer:  MANUFACTURING/NO_GLOSS_ALL*
G04 Layer:  MANUFACTURING/NO_GLOSS_TOP*
G04 Layer:  MANUFACTURING/NO_GLOSS_BOTTOM*
G04 Layer:  MANUFACTURING/NO_GLOSS_INTERNAL*
G04 Layer:  MANUFACTURING/NCDRILL_LEGEND*
G04 Layer:  MANUFACTURING/NCDRILL_FIGURE*
G04 Layer:  MANUFACTURING/PROBE_TOP*
G04 Layer:  MANUFACTURING/PROBE_BOTTOM*
G04 Layer:  MANUFACTURING/AUTOSILK_TOP*
G04 Layer:  MANUFACTURING/AUTOSILK_BOTTOM*
G04 Layer:  MANUFACTURING/NO_PROBE_TOP*
G04 Layer:  MANUFACTURING/NO_PROBE_BOTTOM*
G04 Layer:  MANUFACTURING/XSECTION_CHART*
G04 Layer:  MANUFACTURING/NCLEGEND-1-4*
G04 Layer:  BOARD GEOMETRY/OUTLINE*
G04 Layer:  BOARD GEOMETRY/DIMENSION*
G04 *
G04 Offset:    (0.0000 0.0000)*
G04 Mirror:    No*
G04 Mode:      Positive*
G04 Rotation:  0*
G04 FullContactRelief:  No*
G04 UndefLineWidth:     0.0254*
G04 ================== end FILE IDENTIFICATION RECORD ====================*
%FSLAX25Y25*MOIN*%
%IR0*IPPOS*OFA0.00000B0.00000*MIA0B0*SFA1.00000B1.00000*%
%AMMACRO15*
1,1,.001,.059055,0.0*
20,1,.001,.059055,0.0,0.0,-.059055,0.0*
1,1,.001,0.0,-.059055*
20,1,.001,0.0,-.059055,-.059055,0.0,0.0*
1,1,.001,-.059055,0.0*
20,1,.001,-.059055,0.0,0.0,.059055,0.0*
1,1,.001,0.0,.059055*
20,1,.001,0.0,.059055,.059055,0.0,0.0*
1,1,.001,.059055,0.0*
%
%ADD15MACRO15*%
%AMMACRO13*
1,1,.001,.019685,.019685*
20,1,.001,.019685,.019685,.019685,-.019685,0.0*
1,1,.001,.019685,-.019685*
20,1,.001,.019685,-.019685,-.019685,-.019685,0.0*
1,1,.001,-.019685,-.019685*
20,1,.001,-.019685,-.019685,-.019685,.019685,0.0*
1,1,.001,-.019685,.019685*
20,1,.001,-.019685,.019685,.019685,.019685,0.0*
1,1,.001,.019685,.019685*
1,1,.001,-.007217,-.009843*
20,1,.001,-.007217,-.009843,-.007217,.009843,0.0*
1,1,.001,-.007217,.009843*
20,1,.001,-.007217,.009843,-.000657,.009843,0.0*
1,1,.001,-.000657,.009843*
20,1,.001,-.000657,.009843,.001969,.008858,0.0*
1,1,.001,.001969,.008858*
20,1,.001,.001969,.008858,.003937,.007547,0.0*
1,1,.001,.003937,.007547*
20,1,.001,.003937,.007547,.005579,.005579,0.0*
1,1,.001,.005579,.005579*
20,1,.001,.005579,.005579,.00689,.00328,0.0*
1,1,.001,.00689,.00328*
20,1,.001,.00689,.00328,.007217,0.0,0.0*
1,1,.001,.007217,0.0*
20,1,.001,.007217,0.0,.00689,-.00328,0.0*
1,1,.001,.00689,-.00328*
20,1,.001,.00689,-.00328,.005579,-.005579,0.0*
1,1,.001,.005579,-.005579*
20,1,.001,.005579,-.005579,.003937,-.007547,0.0*
1,1,.001,.003937,-.007547*
20,1,.001,.003937,-.007547,.001969,-.008858,0.0*
1,1,.001,.001969,-.008858*
20,1,.001,.001969,-.008858,-.000657,-.009843,0.0*
1,1,.001,-.000657,-.009843*
20,1,.001,-.000657,-.009843,-.007217,-.009843,0.0*
1,1,.001,-.007217,-.009843*
%
%ADD13MACRO13*%
%AMMACRO12*
1,1,.001,0.0,.019685*
20,1,.001,0.0,.019685,.017048,-.009843,0.0*
1,1,.001,.017048,-.009843*
20,1,.001,.017048,-.009843,-.017048,-.009843,0.0*
1,1,.001,-.017048,-.009843*
20,1,.001,-.017048,-.009843,0.0,.019685,0.0*
1,1,.001,0.0,.019685*
%
%ADD12MACRO12*%
%AMMACRO16*
1,1,.001,0.0,.023622*
20,1,.001,0.0,.023622,.020457,-.011811,0.0*
1,1,.001,.020457,-.011811*
20,1,.001,.020457,-.011811,-.020457,-.011811,0.0*
1,1,.001,-.020457,-.011811*
20,1,.001,-.020457,-.011811,0.0,.023622,0.0*
1,1,.001,0.0,.023622*
%
%ADD16MACRO16*%
%AMMACRO14*
1,1,.001,0.0,.061024*
20,1,.001,0.0,.061024,.052848,-.030512,0.0*
1,1,.001,.052848,-.030512*
20,1,.001,.052848,-.030512,-.052848,-.030512,0.0*
1,1,.001,-.052848,-.030512*
20,1,.001,-.052848,-.030512,0.0,.061024,0.0*
1,1,.001,0.0,.061024*
%
%ADD14MACRO14*%
%AMMACRO10*
1,1,.001,0.0,.007874*
20,1,.001,0.0,.007874,.006819,-.003937,0.0*
1,1,.001,.006819,-.003937*
20,1,.001,.006819,-.003937,-.006819,-.003937,0.0*
1,1,.001,-.006819,-.003937*
20,1,.001,-.006819,-.003937,0.0,.007874,0.0*
1,1,.001,0.0,.007874*
%
%ADD10MACRO10*%
%AMMACRO11*
1,1,.001,.002953,0.0*
20,1,.001,.002953,0.0,.002908,-.000513,0.0*
1,1,.001,.002908,-.000513*
20,1,.001,.002908,-.000513,.002775,-.00101,0.0*
1,1,.001,.002775,-.00101*
20,1,.001,.002775,-.00101,.002557,-.001476,0.0*
1,1,.001,.002557,-.001476*
20,1,.001,.002557,-.001476,.002262,-.001898,0.0*
1,1,.001,.002262,-.001898*
20,1,.001,.002262,-.001898,.001898,-.002262,0.0*
1,1,.001,.001898,-.002262*
20,1,.001,.001898,-.002262,.001476,-.002557,0.0*
1,1,.001,.001476,-.002557*
20,1,.001,.001476,-.002557,.00101,-.002775,0.0*
1,1,.001,.00101,-.002775*
20,1,.001,.00101,-.002775,.000513,-.002908,0.0*
1,1,.001,.000513,-.002908*
20,1,.001,.000513,-.002908,0.0,-.002953,0.0*
1,1,.001,0.0,-.002953*
20,1,.001,0.0,-.002953,-.000513,-.002908,0.0*
1,1,.001,-.000513,-.002908*
20,1,.001,-.000513,-.002908,-.00101,-.002775,0.0*
1,1,.001,-.00101,-.002775*
20,1,.001,-.00101,-.002775,-.001476,-.002557,0.0*
1,1,.001,-.001476,-.002557*
20,1,.001,-.001476,-.002557,-.001898,-.002262,0.0*
1,1,.001,-.001898,-.002262*
20,1,.001,-.001898,-.002262,-.002262,-.001898,0.0*
1,1,.001,-.002262,-.001898*
20,1,.001,-.002262,-.001898,-.002557,-.001476,0.0*
1,1,.001,-.002557,-.001476*
20,1,.001,-.002557,-.001476,-.002775,-.00101,0.0*
1,1,.001,-.002775,-.00101*
20,1,.001,-.002775,-.00101,-.002908,-.000513,0.0*
1,1,.001,-.002908,-.000513*
20,1,.001,-.002908,-.000513,-.002953,0.0,0.0*
1,1,.001,-.002953,0.0*
20,1,.001,-.002953,0.0,-.002908,.000513,0.0*
1,1,.001,-.002908,.000513*
20,1,.001,-.002908,.000513,-.002775,.00101,0.0*
1,1,.001,-.002775,.00101*
20,1,.001,-.002775,.00101,-.002557,.001476,0.0*
1,1,.001,-.002557,.001476*
20,1,.001,-.002557,.001476,-.002262,.001898,0.0*
1,1,.001,-.002262,.001898*
20,1,.001,-.002262,.001898,-.001898,.002262,0.0*
1,1,.001,-.001898,.002262*
20,1,.001,-.001898,.002262,-.001476,.002557,0.0*
1,1,.001,-.001476,.002557*
20,1,.001,-.001476,.002557,-.00101,.002775,0.0*
1,1,.001,-.00101,.002775*
20,1,.001,-.00101,.002775,-.000513,.002908,0.0*
1,1,.001,-.000513,.002908*
20,1,.001,-.000513,.002908,0.0,.002953,0.0*
1,1,.001,0.0,.002953*
20,1,.001,0.0,.002953,.000513,.002908,0.0*
1,1,.001,.000513,.002908*
20,1,.001,.000513,.002908,.00101,.002775,0.0*
1,1,.001,.00101,.002775*
20,1,.001,.00101,.002775,.001476,.002557,0.0*
1,1,.001,.001476,.002557*
20,1,.001,.001476,.002557,.001898,.002262,0.0*
1,1,.001,.001898,.002262*
20,1,.001,.001898,.002262,.002262,.001898,0.0*
1,1,.001,.002262,.001898*
20,1,.001,.002262,.001898,.002557,.001476,0.0*
1,1,.001,.002557,.001476*
20,1,.001,.002557,.001476,.002775,.00101,0.0*
1,1,.001,.002775,.00101*
20,1,.001,.002775,.00101,.002908,.000513,0.0*
1,1,.001,.002908,.000513*
20,1,.001,.002908,.000513,.002953,0.0,0.0*
1,1,.001,.002953,0.0*
1,1,.001,-.001232,.001476*
20,1,.001,-.001232,.001476,0.0,-.001476,0.0*
1,1,.001,0.0,-.001476*
20,1,.001,0.0,-.001476,.001232,.001476,0.0*
1,1,.001,.001232,.001476*
%
%ADD11MACRO11*%
%AMMACRO17*
1,1,.001,.016732,0.0*
20,1,.001,.016732,0.0,.016478,-.002906,0.0*
1,1,.001,.016478,-.002906*
20,1,.001,.016478,-.002906,.015723,-.005723,0.0*
1,1,.001,.015723,-.005723*
20,1,.001,.015723,-.005723,.014491,-.008366,0.0*
1,1,.001,.014491,-.008366*
20,1,.001,.014491,-.008366,.012818,-.010755,0.0*
1,1,.001,.012818,-.010755*
20,1,.001,.012818,-.010755,.010755,-.012818,0.0*
1,1,.001,.010755,-.012818*
20,1,.001,.010755,-.012818,.008366,-.014491,0.0*
1,1,.001,.008366,-.014491*
20,1,.001,.008366,-.014491,.005723,-.015723,0.0*
1,1,.001,.005723,-.015723*
20,1,.001,.005723,-.015723,.002906,-.016478,0.0*
1,1,.001,.002906,-.016478*
20,1,.001,.002906,-.016478,0.0,-.016732,0.0*
1,1,.001,0.0,-.016732*
20,1,.001,0.0,-.016732,-.002906,-.016478,0.0*
1,1,.001,-.002906,-.016478*
20,1,.001,-.002906,-.016478,-.005723,-.015723,0.0*
1,1,.001,-.005723,-.015723*
20,1,.001,-.005723,-.015723,-.008366,-.014491,0.0*
1,1,.001,-.008366,-.014491*
20,1,.001,-.008366,-.014491,-.010755,-.012818,0.0*
1,1,.001,-.010755,-.012818*
20,1,.001,-.010755,-.012818,-.012818,-.010755,0.0*
1,1,.001,-.012818,-.010755*
20,1,.001,-.012818,-.010755,-.014491,-.008366,0.0*
1,1,.001,-.014491,-.008366*
20,1,.001,-.014491,-.008366,-.015723,-.005723,0.0*
1,1,.001,-.015723,-.005723*
20,1,.001,-.015723,-.005723,-.016478,-.002906,0.0*
1,1,.001,-.016478,-.002906*
20,1,.001,-.016478,-.002906,-.016732,0.0,0.0*
1,1,.001,-.016732,0.0*
20,1,.001,-.016732,0.0,-.016478,.002906,0.0*
1,1,.001,-.016478,.002906*
20,1,.001,-.016478,.002906,-.015723,.005723,0.0*
1,1,.001,-.015723,.005723*
20,1,.001,-.015723,.005723,-.014491,.008366,0.0*
1,1,.001,-.014491,.008366*
20,1,.001,-.014491,.008366,-.012818,.010755,0.0*
1,1,.001,-.012818,.010755*
20,1,.001,-.012818,.010755,-.010755,.012818,0.0*
1,1,.001,-.010755,.012818*
20,1,.001,-.010755,.012818,-.008366,.014491,0.0*
1,1,.001,-.008366,.014491*
20,1,.001,-.008366,.014491,-.005723,.015723,0.0*
1,1,.001,-.005723,.015723*
20,1,.001,-.005723,.015723,-.002906,.016478,0.0*
1,1,.001,-.002906,.016478*
20,1,.001,-.002906,.016478,0.0,.016732,0.0*
1,1,.001,0.0,.016732*
20,1,.001,0.0,.016732,.002906,.016478,0.0*
1,1,.001,.002906,.016478*
20,1,.001,.002906,.016478,.005723,.015723,0.0*
1,1,.001,.005723,.015723*
20,1,.001,.005723,.015723,.008366,.014491,0.0*
1,1,.001,.008366,.014491*
20,1,.001,.008366,.014491,.010755,.012818,0.0*
1,1,.001,.010755,.012818*
20,1,.001,.010755,.012818,.012818,.010755,0.0*
1,1,.001,.012818,.010755*
20,1,.001,.012818,.010755,.014491,.008366,0.0*
1,1,.001,.014491,.008366*
20,1,.001,.014491,.008366,.015723,.005723,0.0*
1,1,.001,.015723,.005723*
20,1,.001,.015723,.005723,.016478,.002906,0.0*
1,1,.001,.016478,.002906*
20,1,.001,.016478,.002906,.016732,0.0,0.0*
1,1,.001,.016732,0.0*
1,1,.001,-.007252,-.008366*
20,1,.001,-.007252,-.008366,-.007252,.008366,0.0*
1,1,.001,-.007252,.008366*
20,1,.001,-.007252,.008366,0.0,-.005579,0.0*
1,1,.001,0.0,-.005579*
20,1,.001,0.0,-.005579,.007252,.008366,0.0*
1,1,.001,.007252,.008366*
20,1,.001,.007252,.008366,.007252,-.008366,0.0*
1,1,.001,.007252,-.008366*
%
%ADD17MACRO17*%
%ADD18C,.001969*%
%ADD19C,.001*%
G75*
%LPD*%
G75*
G36*
G01X1062539Y199780D02*
Y195370D01*
X1065039D01*
Y7124D01*
X1062539D01*
Y2715D01*
X1077539D01*
Y7124D01*
X1075039D01*
Y195370D01*
X1077539D01*
Y199780D01*
X1062539D01*
G37*
G36*
G01X1042539Y2716D02*
Y7125D01*
X1102539D01*
Y2716D01*
X1042539D01*
G37*
G36*
G01Y19648D02*
Y21563D01*
X1102539D01*
Y19648D01*
X1042539D01*
G37*
G36*
G01Y180933D02*
Y182848D01*
X1102539D01*
Y180933D01*
X1042539D01*
G37*
G36*
G01Y195370D02*
Y199780D01*
X1102539D01*
Y195370D01*
X1042539D01*
G37*
G54D10*
X5618Y5618D03*
D03*
Y9449D03*
D03*
Y12598D03*
D03*
Y25091D03*
D03*
X7874Y7480D03*
D03*
Y23728D03*
D03*
X10130Y5618D03*
D03*
Y9449D03*
D03*
X19291Y39370D03*
D03*
X22835Y39331D03*
D03*
X23228Y124016D03*
D03*
X25878Y21154D03*
D03*
X25917Y89016D03*
D03*
Y107913D03*
D03*
X26819Y19304D03*
D03*
X27953Y39370D03*
D03*
X30081Y16142D03*
D03*
X30709Y19185D03*
D03*
X31496Y34646D03*
D03*
X33071Y7087D03*
D03*
X33858Y19185D03*
D03*
X33504Y66929D03*
D03*
X35039Y5618D03*
D03*
X36614Y7480D03*
D03*
Y10630D03*
D03*
Y16142D03*
D03*
Y66929D03*
D03*
X38583Y5618D03*
D03*
X37402Y19185D03*
D03*
X38189Y34646D03*
D03*
Y121063D03*
D03*
X38583Y124803D03*
D03*
X40551Y7087D03*
D03*
Y19185D03*
D03*
X39764Y66929D03*
D03*
X42913Y115051D03*
D03*
X43307Y24016D03*
D03*
X43701Y85039D03*
D03*
Y111024D03*
D03*
X48425Y46850D03*
D03*
X48031Y73228D03*
D03*
X48425Y77953D03*
D03*
X51181Y46063D03*
D03*
X52362Y128740D03*
D03*
X53543Y44094D03*
D03*
X56693Y29921D03*
D03*
Y42913D03*
D03*
X55906Y90551D03*
D03*
X56693Y117323D03*
D03*
X56890Y121063D03*
D03*
X59449Y64764D03*
D03*
X59332Y67833D03*
D03*
X58768Y70669D03*
D03*
Y82480D03*
D03*
X58858Y95276D03*
D03*
X59843Y42232D03*
D03*
X59529Y59529D03*
D03*
X59843Y74250D03*
D03*
Y77165D03*
D03*
X61811Y62205D03*
D03*
X62598Y79134D03*
D03*
X61917Y101181D03*
D03*
X69291Y59843D03*
D03*
X71654Y38189D03*
D03*
X74606Y58768D03*
D03*
Y88476D03*
D03*
X75984Y38976D03*
D03*
X77559Y110236D03*
D03*
X78059Y11811D03*
D03*
X78740Y122441D03*
D03*
X83465Y11811D03*
D03*
X82677Y31890D03*
D03*
Y122441D03*
D03*
X84449Y88476D03*
D03*
X86417Y58768D03*
D03*
Y95276D03*
D03*
X87008Y122441D03*
D03*
X88476Y62795D03*
D03*
Y66732D03*
D03*
Y76575D03*
D03*
Y86417D03*
D03*
X91732Y37008D03*
D03*
X92126Y92126D03*
D03*
X91732Y122441D03*
D03*
X96457D03*
D03*
X97638Y11811D03*
D03*
Y36614D03*
D03*
X101575Y122441D03*
D03*
X103043Y11811D03*
D03*
X104331Y23228D03*
D03*
X104724Y104331D03*
D03*
X103937Y110236D03*
D03*
X106693Y57480D03*
D03*
X111024Y30709D03*
D03*
X112205Y62598D03*
D03*
Y70866D03*
D03*
X111417Y92913D03*
D03*
Y104724D03*
D03*
X113780Y27165D03*
D03*
X114173Y66929D03*
D03*
X113059Y75425D03*
D03*
X114961Y95276D03*
D03*
X115748Y62598D03*
D03*
X116142Y70866D03*
D03*
X117126Y41732D03*
D03*
Y55811D03*
D03*
X120866Y33465D03*
D03*
Y57874D03*
D03*
X119291Y76378D03*
D03*
X124409Y62008D03*
D03*
X123492Y73819D03*
D03*
X126772Y63976D03*
D03*
X126378Y71850D03*
D03*
X129134Y65945D03*
D03*
Y69882D03*
D03*
X131496Y55118D03*
D03*
X132283Y61024D03*
D03*
X132677Y67913D03*
D03*
X136614Y26772D03*
D03*
X137795Y8268D03*
D03*
Y15748D03*
D03*
Y24016D03*
D03*
Y29921D03*
D03*
Y39764D03*
D03*
Y47244D03*
D03*
Y55118D03*
D03*
Y61024D03*
D03*
X137815Y70453D03*
D03*
X137795Y79921D03*
D03*
Y87008D03*
D03*
Y94488D03*
D03*
Y101969D03*
D03*
Y111417D03*
D03*
Y118110D03*
D03*
Y125591D03*
D03*
X148031Y83071D03*
D03*
Y114567D03*
D03*
X154685Y33819D03*
D03*
Y64528D03*
D03*
X157193Y8268D03*
D03*
Y12008D03*
D03*
X157480Y39764D03*
D03*
X157193Y43504D03*
D03*
X158268Y46850D03*
D03*
X157480Y87008D03*
D03*
X157399Y90748D03*
D03*
X157480Y118110D03*
D03*
Y121850D03*
D03*
X159736Y27362D03*
D03*
X159055Y58858D03*
D03*
X159736Y74606D03*
D03*
X159449Y106496D03*
D03*
X168504Y29134D03*
D03*
X167717Y60630D03*
D03*
X168504Y76378D03*
D03*
Y107874D03*
D03*
X168898Y6693D03*
D03*
X175531Y19626D03*
D03*
Y50000D03*
D03*
X178346Y23622D03*
D03*
X178059Y27362D03*
D03*
X178740Y40945D03*
D03*
Y55118D03*
D03*
X178346Y58858D03*
D03*
Y70866D03*
D03*
Y74606D03*
D03*
X178740Y86614D03*
D03*
Y94094D03*
D03*
X178346Y102756D03*
D03*
X178059Y106496D03*
D03*
X178740Y118110D03*
D03*
Y125630D03*
D03*
X179134Y5118D03*
D03*
X180209Y7874D03*
D03*
Y11614D03*
D03*
Y15354D03*
D03*
X179528Y37795D03*
D03*
X180209Y47244D03*
D03*
Y90748D03*
D03*
Y121850D03*
D03*
X182283Y84646D03*
D03*
X182677Y114961D03*
D03*
X187345Y19685D03*
D03*
X188583Y51181D03*
D03*
X187508Y94488D03*
D03*
Y125591D03*
D03*
X189370Y79134D03*
D03*
X189764Y111024D03*
D03*
X192126Y67717D03*
D03*
X192520Y71654D03*
D03*
Y101575D03*
D03*
X196063Y18898D03*
D03*
X196457Y50787D03*
D03*
X199213Y11614D03*
D03*
Y43701D03*
D03*
X198531Y90748D03*
D03*
Y118110D03*
D03*
Y121850D03*
D03*
X199606Y7874D03*
D03*
X201075Y23622D03*
D03*
X199606Y32283D03*
D03*
Y39764D03*
D03*
X200000Y63780D03*
D03*
X201075Y70866D03*
D03*
X199606Y79134D03*
D03*
Y87008D03*
D03*
X200287Y95669D03*
D03*
X200787Y102756D03*
D03*
X199606Y111024D03*
D03*
Y127165D03*
D03*
X203169Y12205D03*
D03*
Y43701D03*
D03*
X207087Y11417D03*
D03*
Y42913D03*
D03*
X209449Y15354D03*
D03*
X209843Y46850D03*
D03*
X210236Y86220D03*
D03*
X210630Y118110D03*
D03*
X213780Y19291D03*
D03*
X211917Y95630D03*
D03*
X212992Y127165D03*
D03*
X217823Y31102D03*
D03*
X216142Y42913D03*
D03*
X216161Y50394D03*
D03*
X217823Y55118D03*
D03*
X217790Y61126D03*
D03*
X217717Y72835D03*
D03*
X217823Y78346D03*
D03*
X218504Y25984D03*
D03*
X218110Y102756D03*
D03*
X218504Y110236D03*
D03*
X224016Y10236D03*
D03*
X223064Y35697D03*
D03*
X224016Y44094D03*
D03*
Y75591D03*
D03*
X223622Y126752D03*
D03*
X225984Y5118D03*
D03*
X224409Y107874D03*
D03*
X226283Y27465D03*
D03*
X227953Y37102D03*
D03*
X226283Y59354D03*
D03*
Y90551D03*
D03*
Y122551D03*
D03*
X229134Y6693D03*
D03*
X232272Y75820D03*
D03*
X231890Y98031D03*
D03*
X232283Y108104D03*
D03*
X232677Y12041D03*
D03*
Y44324D03*
D03*
X237795Y62598D03*
D03*
X237402Y94094D03*
D03*
X239669Y27465D03*
D03*
Y90551D03*
D03*
Y122835D03*
D03*
X243600Y57774D03*
D03*
X247638Y14567D03*
D03*
Y46457D03*
D03*
X247244Y78346D03*
D03*
X248031Y110630D03*
D03*
X250394Y31496D03*
D03*
Y62992D03*
D03*
X250787Y94094D03*
D03*
X251969Y126772D03*
D03*
X268504Y27559D03*
D03*
Y59055D03*
D03*
Y90157D03*
D03*
Y123228D03*
D03*
G54D11*
X5618Y5618D03*
Y9449D03*
Y12598D03*
Y25091D03*
X7874Y7480D03*
Y23728D03*
X10130Y5618D03*
Y9449D03*
X19291Y39370D03*
X22835Y39331D03*
X23228Y124016D03*
X25878Y21154D03*
X25917Y89016D03*
Y107913D03*
X26819Y19304D03*
X27953Y39370D03*
X30081Y16142D03*
X30709Y19185D03*
X31496Y34646D03*
X33071Y7087D03*
X33858Y19185D03*
X33504Y66929D03*
X35039Y5618D03*
X36614Y7480D03*
Y10630D03*
Y16142D03*
Y66929D03*
X38583Y5618D03*
X37402Y19185D03*
X38189Y34646D03*
Y121063D03*
X38583Y124803D03*
X40551Y7087D03*
Y19185D03*
X39764Y66929D03*
X42913Y115051D03*
X43307Y24016D03*
X43701Y85039D03*
Y111024D03*
X48425Y46850D03*
X48031Y73228D03*
X48425Y77953D03*
X51181Y46063D03*
X52362Y128740D03*
X53543Y44094D03*
X56693Y29921D03*
Y42913D03*
X55906Y90551D03*
X56693Y117323D03*
X56890Y121063D03*
X59449Y64764D03*
X59332Y67833D03*
X58768Y70669D03*
Y82480D03*
X58858Y95276D03*
X59843Y42232D03*
X59529Y59529D03*
X59843Y74250D03*
Y77165D03*
X61811Y62205D03*
X62598Y79134D03*
X61917Y101181D03*
X69291Y59843D03*
X71654Y38189D03*
X74606Y58768D03*
Y88476D03*
X75984Y38976D03*
X77559Y110236D03*
X78059Y11811D03*
X78740Y122441D03*
X83465Y11811D03*
X82677Y31890D03*
Y122441D03*
X84449Y88476D03*
X86417Y58768D03*
Y95276D03*
X87008Y122441D03*
X88476Y62795D03*
Y66732D03*
Y76575D03*
Y86417D03*
X91732Y37008D03*
X92126Y92126D03*
X91732Y122441D03*
X96457D03*
X97638Y11811D03*
Y36614D03*
X101575Y122441D03*
X103043Y11811D03*
X104331Y23228D03*
X104724Y104331D03*
X103937Y110236D03*
X106693Y57480D03*
X111024Y30709D03*
X112205Y62598D03*
Y70866D03*
X111417Y92913D03*
Y104724D03*
X113780Y27165D03*
X114173Y66929D03*
X113059Y75425D03*
X114961Y95276D03*
X115748Y62598D03*
X116142Y70866D03*
X117126Y41732D03*
Y55811D03*
X120866Y33465D03*
Y57874D03*
X119291Y76378D03*
X124409Y62008D03*
X123492Y73819D03*
X126772Y63976D03*
X126378Y71850D03*
X129134Y65945D03*
Y69882D03*
X131496Y55118D03*
X132283Y61024D03*
X132677Y67913D03*
X136614Y26772D03*
X137795Y8268D03*
Y15748D03*
Y24016D03*
Y29921D03*
Y39764D03*
Y47244D03*
Y55118D03*
Y61024D03*
X137815Y70453D03*
X137795Y79921D03*
Y87008D03*
Y94488D03*
Y101969D03*
Y111417D03*
Y118110D03*
Y125591D03*
X148031Y83071D03*
Y114567D03*
X154685Y33819D03*
Y64528D03*
X157193Y8268D03*
Y12008D03*
X157480Y39764D03*
X157193Y43504D03*
X158268Y46850D03*
X157480Y87008D03*
X157399Y90748D03*
X157480Y118110D03*
Y121850D03*
X159736Y27362D03*
X159055Y58858D03*
X159736Y74606D03*
X159449Y106496D03*
X168504Y29134D03*
X167717Y60630D03*
X168504Y76378D03*
Y107874D03*
X168898Y6693D03*
X175531Y19626D03*
Y50000D03*
X178346Y23622D03*
X178059Y27362D03*
X178740Y40945D03*
Y55118D03*
X178346Y58858D03*
Y70866D03*
Y74606D03*
X178740Y86614D03*
Y94094D03*
X178346Y102756D03*
X178059Y106496D03*
X178740Y118110D03*
Y125630D03*
X179134Y5118D03*
X180209Y7874D03*
Y11614D03*
Y15354D03*
X179528Y37795D03*
X180209Y47244D03*
Y90748D03*
Y121850D03*
X182283Y84646D03*
X182677Y114961D03*
X187345Y19685D03*
X188583Y51181D03*
X187508Y94488D03*
Y125591D03*
X189370Y79134D03*
X189764Y111024D03*
X192126Y67717D03*
X192520Y71654D03*
Y101575D03*
X196063Y18898D03*
X196457Y50787D03*
X199213Y11614D03*
Y43701D03*
X198531Y90748D03*
Y118110D03*
Y121850D03*
X199606Y7874D03*
X201075Y23622D03*
X199606Y32283D03*
Y39764D03*
X200000Y63780D03*
X201075Y70866D03*
X199606Y79134D03*
Y87008D03*
X200287Y95669D03*
X200787Y102756D03*
X199606Y111024D03*
Y127165D03*
X203169Y12205D03*
Y43701D03*
X207087Y11417D03*
Y42913D03*
X209449Y15354D03*
X209843Y46850D03*
X210236Y86220D03*
X210630Y118110D03*
X213780Y19291D03*
X211917Y95630D03*
X212992Y127165D03*
X217823Y31102D03*
X216142Y42913D03*
X216161Y50394D03*
X217823Y55118D03*
X217790Y61126D03*
X217717Y72835D03*
X217823Y78346D03*
X218504Y25984D03*
X218110Y102756D03*
X218504Y110236D03*
X224016Y10236D03*
X223064Y35697D03*
X224016Y44094D03*
Y75591D03*
X223622Y126752D03*
X225984Y5118D03*
X224409Y107874D03*
X226283Y27465D03*
X227953Y37102D03*
X226283Y59354D03*
Y90551D03*
Y122551D03*
X229134Y6693D03*
X232272Y75820D03*
X231890Y98031D03*
X232283Y108104D03*
X232677Y12041D03*
Y44324D03*
X237795Y62598D03*
X237402Y94094D03*
X239669Y27465D03*
Y90551D03*
Y122835D03*
X243600Y57774D03*
X247638Y14567D03*
Y46457D03*
X247244Y78346D03*
X248031Y110630D03*
X250394Y31496D03*
Y62992D03*
X250787Y94094D03*
X251969Y126772D03*
X268504Y27559D03*
Y59055D03*
Y90157D03*
Y123228D03*
X357548Y97736D03*
G54D12*
X10669Y81437D03*
D03*
Y115492D03*
D03*
X27205Y81437D03*
D03*
Y115492D03*
D03*
G54D13*
X10669Y81437D03*
Y115492D03*
X27205Y81437D03*
Y115492D03*
X357548Y72736D03*
G54D14*
X53937Y11811D03*
D03*
G54D15*
D03*
X357548Y22736D03*
G54D16*
X126378Y9291D03*
D03*
Y19291D03*
D03*
Y35669D03*
D03*
Y45669D03*
D03*
Y88425D03*
D03*
Y98425D03*
D03*
Y115197D03*
D03*
Y125197D03*
D03*
X254331Y16929D03*
D03*
Y49213D03*
D03*
Y80315D03*
D03*
Y113386D03*
D03*
X260630Y10630D03*
D03*
Y23228D03*
D03*
Y42913D03*
D03*
Y55512D03*
D03*
Y74016D03*
D03*
Y86614D03*
D03*
Y107087D03*
D03*
Y119685D03*
D03*
X266929Y16929D03*
D03*
Y49213D03*
D03*
Y80315D03*
D03*
Y113386D03*
D03*
G54D17*
X126378Y9291D03*
Y19291D03*
Y35669D03*
Y45669D03*
Y88425D03*
Y98425D03*
Y115197D03*
Y125197D03*
X254331Y16929D03*
Y49213D03*
Y80315D03*
Y113386D03*
X260630Y10630D03*
Y23228D03*
Y42913D03*
Y55512D03*
Y74016D03*
Y86614D03*
Y107087D03*
Y119685D03*
X266929Y16929D03*
Y49213D03*
Y80315D03*
Y113386D03*
X357548Y47736D03*
G54D18*
G01X1042434Y-8931D02*
Y-5781D01*
X1042959D01*
X1043169Y-5939D01*
X1043327Y-6148D01*
X1043458Y-6463D01*
X1043563Y-6831D01*
X1043589Y-7356D01*
X1043563Y-7881D01*
X1043458Y-8248D01*
X1043327Y-8563D01*
X1043169Y-8773D01*
X1042959Y-8931D01*
X1042434D01*
G01X1045899D02*
X1044849D01*
Y-5781D01*
X1045899D01*
G01X1045479Y-7304D02*
X1044849D01*
G01X1047185Y-8511D02*
X1047395Y-8773D01*
X1047631Y-8931D01*
X1047841D01*
X1048051Y-8773D01*
X1048209Y-8511D01*
X1048287Y-8143D01*
X1048235Y-7776D01*
X1048104Y-7461D01*
X1047867Y-7251D01*
X1047552Y-7146D01*
X1047369Y-6936D01*
X1047290Y-6569D01*
X1047343Y-6201D01*
X1047474Y-5939D01*
X1047657Y-5781D01*
X1047841D01*
X1048025Y-5886D01*
X1048182Y-6148D01*
G01X1049783Y-5781D02*
X1050413D01*
G01X1050098D02*
Y-8931D01*
G01X1049783D02*
X1050413D01*
G01X1052618Y-7356D02*
X1053143D01*
Y-8301D01*
X1052985Y-8616D01*
X1052802Y-8826D01*
X1052539Y-8931D01*
X1052277Y-8826D01*
X1052093Y-8616D01*
X1051936Y-8301D01*
X1051831Y-7933D01*
X1051778Y-7513D01*
Y-7146D01*
X1051831Y-6831D01*
X1051936Y-6463D01*
X1052093Y-6148D01*
X1052251Y-5939D01*
X1052461Y-5781D01*
X1052644D01*
X1052854Y-5886D01*
X1053012Y-6096D01*
G01X1054219Y-8931D02*
Y-5781D01*
X1055426Y-8931D01*
Y-5781D01*
G01X1060125Y-6044D02*
X1059967Y-5886D01*
X1059783Y-5781D01*
X1059574D01*
X1059337Y-5939D01*
X1059154Y-6201D01*
X1059022Y-6516D01*
X1058917Y-7041D01*
X1058891Y-7513D01*
X1058944Y-7986D01*
X1059022Y-8301D01*
X1059180Y-8616D01*
X1059363Y-8826D01*
X1059547Y-8931D01*
X1059731D01*
X1059915Y-8826D01*
X1060072Y-8668D01*
X1060204Y-8458D01*
G01X1061385Y-8931D02*
Y-5781D01*
X1062041D01*
X1062251Y-5939D01*
X1062382Y-6148D01*
X1062434Y-6569D01*
X1062382Y-6989D01*
X1062224Y-7251D01*
X1062041Y-7408D01*
X1061385D01*
G01X1062041D02*
X1062434Y-8931D01*
G01X1064272D02*
X1064062Y-8878D01*
X1063878Y-8668D01*
X1063720Y-8353D01*
X1063615Y-7986D01*
X1063563Y-7566D01*
Y-7146D01*
X1063615Y-6726D01*
X1063720Y-6359D01*
X1063878Y-6044D01*
X1064062Y-5833D01*
X1064272Y-5781D01*
X1064481Y-5833D01*
X1064665Y-6044D01*
X1064823Y-6359D01*
X1064928Y-6726D01*
X1064980Y-7146D01*
Y-7566D01*
X1064928Y-7986D01*
X1064823Y-8353D01*
X1064665Y-8668D01*
X1064481Y-8878D01*
X1064272Y-8931D01*
G01X1066083Y-8511D02*
X1066293Y-8773D01*
X1066529Y-8931D01*
X1066739D01*
X1066949Y-8773D01*
X1067106Y-8511D01*
X1067185Y-8143D01*
X1067133Y-7776D01*
X1067001Y-7461D01*
X1066765Y-7251D01*
X1066450Y-7146D01*
X1066267Y-6936D01*
X1066188Y-6569D01*
X1066240Y-6201D01*
X1066371Y-5939D01*
X1066555Y-5781D01*
X1066739D01*
X1066922Y-5886D01*
X1067080Y-6148D01*
G01X1068445Y-8511D02*
X1068655Y-8773D01*
X1068891Y-8931D01*
X1069101D01*
X1069311Y-8773D01*
X1069469Y-8511D01*
X1069547Y-8143D01*
X1069495Y-7776D01*
X1069363Y-7461D01*
X1069127Y-7251D01*
X1068812Y-7146D01*
X1068629Y-6936D01*
X1068550Y-6569D01*
X1068602Y-6201D01*
X1068733Y-5939D01*
X1068917Y-5781D01*
X1069101D01*
X1069285Y-5886D01*
X1069442Y-6148D01*
G01X1073169Y-8511D02*
X1073379Y-8773D01*
X1073615Y-8931D01*
X1073826D01*
X1074035Y-8773D01*
X1074193Y-8511D01*
X1074272Y-8143D01*
X1074219Y-7776D01*
X1074088Y-7461D01*
X1073852Y-7251D01*
X1073537Y-7146D01*
X1073353Y-6936D01*
X1073274Y-6569D01*
X1073327Y-6201D01*
X1073458Y-5939D01*
X1073642Y-5781D01*
X1073826D01*
X1074009Y-5886D01*
X1074167Y-6148D01*
G01X1076607Y-8931D02*
X1075558D01*
Y-5781D01*
X1076607D01*
G01X1076188Y-7304D02*
X1075558D01*
G01X1079022Y-6044D02*
X1078865Y-5886D01*
X1078681Y-5781D01*
X1078471D01*
X1078235Y-5939D01*
X1078051Y-6201D01*
X1077920Y-6516D01*
X1077815Y-7041D01*
X1077789Y-7513D01*
X1077841Y-7986D01*
X1077920Y-8301D01*
X1078078Y-8616D01*
X1078261Y-8826D01*
X1078445Y-8931D01*
X1078629D01*
X1078812Y-8826D01*
X1078970Y-8668D01*
X1079101Y-8458D01*
G01X1080807Y-5781D02*
Y-8931D01*
G01X1080204Y-5781D02*
X1081411D01*
G01X1082854D02*
X1083484D01*
G01X1083169D02*
Y-8931D01*
G01X1082854D02*
X1083484D01*
G01X1085531D02*
X1085322Y-8878D01*
X1085138Y-8668D01*
X1084980Y-8353D01*
X1084875Y-7986D01*
X1084823Y-7566D01*
Y-7146D01*
X1084875Y-6726D01*
X1084980Y-6359D01*
X1085138Y-6044D01*
X1085322Y-5833D01*
X1085531Y-5781D01*
X1085741Y-5833D01*
X1085925Y-6044D01*
X1086083Y-6359D01*
X1086188Y-6726D01*
X1086240Y-7146D01*
Y-7566D01*
X1086188Y-7986D01*
X1086083Y-8353D01*
X1085925Y-8668D01*
X1085741Y-8878D01*
X1085531Y-8931D01*
G01X1087290D02*
Y-5781D01*
X1088497Y-8931D01*
Y-5781D01*
G01X1093196Y-6044D02*
X1093038Y-5886D01*
X1092854Y-5781D01*
X1092644D01*
X1092408Y-5939D01*
X1092224Y-6201D01*
X1092093Y-6516D01*
X1091988Y-7041D01*
X1091962Y-7513D01*
X1092015Y-7986D01*
X1092093Y-8301D01*
X1092251Y-8616D01*
X1092434Y-8826D01*
X1092618Y-8931D01*
X1092802D01*
X1092985Y-8826D01*
X1093143Y-8668D01*
X1093274Y-8458D01*
G01X1094429Y-8931D02*
Y-5781D01*
G01X1095531D02*
Y-8931D01*
G01Y-7356D02*
X1094429D01*
G01X1096686Y-8931D02*
X1097343Y-5781D01*
X1097999Y-8931D01*
G01X1097763Y-7828D02*
X1096922D01*
G01X1099180Y-8931D02*
Y-5781D01*
X1099836D01*
X1100046Y-5939D01*
X1100177Y-6148D01*
X1100230Y-6569D01*
X1100177Y-6989D01*
X1100020Y-7251D01*
X1099836Y-7408D01*
X1099180D01*
G01X1099836D02*
X1100230Y-8931D01*
G01X1102067Y-5781D02*
Y-8931D01*
G01X1101463Y-5781D02*
X1102670D01*
G01X1041043Y-9981D02*
X1042618D01*
G01X1043406D02*
X1044980D01*
G01X1045768D02*
X1047343D01*
G01X1048130D02*
X1049705D01*
G01X1050492D02*
X1052067D01*
G01X1052854D02*
X1054429D01*
G01X1055217D02*
X1056791D01*
G01X1057579D02*
X1059154D01*
G01X1059941D02*
X1061516D01*
G01X1062303D02*
X1063878D01*
G01X1064665D02*
X1066240D01*
G01X1067028D02*
X1068602D01*
G01X1069390D02*
X1070965D01*
G01X1071752D02*
X1073327D01*
G01X1074114D02*
X1075689D01*
G01X1076476D02*
X1078051D01*
G01X1078839D02*
X1080413D01*
G01X1081201D02*
X1082776D01*
G01X1083563D02*
X1085138D01*
G01X1085925D02*
X1087500D01*
G01X1088287D02*
X1089862D01*
G01X1090650D02*
X1092224D01*
G01X1093012D02*
X1094587D01*
G01X1095374D02*
X1096949D01*
G01X1097736D02*
X1099311D01*
G01X1100098D02*
X1101673D01*
G01X1102461D02*
X1104035D01*
G01X1044193Y-11450D02*
Y-14600D01*
G01X1043589Y-11450D02*
X1044796D01*
G01X1046555Y-14600D02*
X1046345Y-14548D01*
X1046161Y-14337D01*
X1046004Y-14022D01*
X1045899Y-13655D01*
X1045846Y-13235D01*
Y-12815D01*
X1045899Y-12395D01*
X1046004Y-12028D01*
X1046161Y-11713D01*
X1046345Y-11503D01*
X1046555Y-11450D01*
X1046765Y-11503D01*
X1046949Y-11713D01*
X1047106Y-12028D01*
X1047211Y-12395D01*
X1047264Y-12815D01*
Y-13235D01*
X1047211Y-13655D01*
X1047106Y-14022D01*
X1046949Y-14337D01*
X1046765Y-14548D01*
X1046555Y-14600D01*
G01X1048917Y-11450D02*
Y-14600D01*
G01X1048314Y-11450D02*
X1049521D01*
G01X1050623Y-14600D02*
X1051280Y-11450D01*
X1051936Y-14600D01*
G01X1051700Y-13498D02*
X1050859D01*
G01X1053117Y-11450D02*
Y-14600D01*
X1054167D01*
G01X1058366Y-11450D02*
Y-14600D01*
G01X1057763Y-11450D02*
X1058970D01*
G01X1060177Y-14600D02*
Y-11450D01*
G01X1061280D02*
Y-14600D01*
G01Y-13025D02*
X1060177D01*
G01X1062776Y-11450D02*
X1063406D01*
G01X1063091D02*
Y-14600D01*
G01X1062776D02*
X1063406D01*
G01X1066030Y-11713D02*
X1065873Y-11556D01*
X1065689Y-11450D01*
X1065479D01*
X1065243Y-11608D01*
X1065059Y-11870D01*
X1064928Y-12185D01*
X1064823Y-12710D01*
X1064796Y-13183D01*
X1064849Y-13655D01*
X1064928Y-13970D01*
X1065085Y-14285D01*
X1065269Y-14495D01*
X1065453Y-14600D01*
X1065637D01*
X1065820Y-14495D01*
X1065978Y-14337D01*
X1066109Y-14128D01*
G01X1067237Y-14600D02*
Y-11450D01*
G01X1068235D02*
X1067237Y-13393D01*
G01X1068393Y-14600D02*
X1067684Y-12500D01*
G01X1069574Y-14600D02*
Y-11450D01*
X1070781Y-14600D01*
Y-11450D01*
G01X1073064Y-14600D02*
X1072015D01*
Y-11450D01*
X1073064D01*
G01X1072644Y-12973D02*
X1072015D01*
G01X1074350Y-14180D02*
X1074560Y-14443D01*
X1074796Y-14600D01*
X1075007D01*
X1075217Y-14443D01*
X1075374Y-14180D01*
X1075453Y-13813D01*
X1075400Y-13445D01*
X1075269Y-13130D01*
X1075033Y-12920D01*
X1074718Y-12815D01*
X1074534Y-12605D01*
X1074456Y-12238D01*
X1074508Y-11870D01*
X1074639Y-11608D01*
X1074823Y-11450D01*
X1075007D01*
X1075190Y-11556D01*
X1075348Y-11818D01*
G01X1076713Y-14180D02*
X1076922Y-14443D01*
X1077159Y-14600D01*
X1077369D01*
X1077579Y-14443D01*
X1077736Y-14180D01*
X1077815Y-13813D01*
X1077763Y-13445D01*
X1077631Y-13130D01*
X1077395Y-12920D01*
X1077080Y-12815D01*
X1076896Y-12605D01*
X1076818Y-12238D01*
X1076870Y-11870D01*
X1077001Y-11608D01*
X1077185Y-11450D01*
X1077369D01*
X1077552Y-11556D01*
X1077710Y-11818D01*
G01X1081988Y-14600D02*
Y-11450D01*
X1081673Y-12080D01*
G01Y-14600D02*
X1082303D01*
G01X1084350Y-14705D02*
X1084298Y-14652D01*
Y-14548D01*
X1084350Y-14495D01*
X1084403Y-14548D01*
Y-14652D01*
X1084350Y-14705D01*
G01X1086135Y-14128D02*
X1086293Y-14390D01*
X1086476Y-14548D01*
X1086713Y-14600D01*
X1086949Y-14495D01*
X1087133Y-14285D01*
X1087264Y-13918D01*
X1087290Y-13498D01*
X1087237Y-13078D01*
X1087106Y-12815D01*
X1086922Y-12605D01*
X1086739Y-12553D01*
X1086555Y-12605D01*
X1086319Y-12815D01*
X1086398Y-11450D01*
X1087106D01*
G01X1088576Y-13288D02*
X1088760Y-12920D01*
X1088917Y-12710D01*
X1089127Y-12605D01*
X1089311Y-12710D01*
X1089442Y-12920D01*
X1089547Y-13235D01*
X1089574Y-13603D01*
X1089547Y-13918D01*
X1089442Y-14233D01*
X1089285Y-14495D01*
X1089101Y-14600D01*
X1088891Y-14495D01*
X1088707Y-14180D01*
X1088602Y-13707D01*
X1088576Y-13183D01*
X1088629Y-12500D01*
X1088707Y-12133D01*
X1088839Y-11765D01*
X1089022Y-11503D01*
X1089206Y-11450D01*
X1089390Y-11556D01*
X1089521Y-11818D01*
G01X1091752Y-14600D02*
Y-11450D01*
X1090781Y-13707D01*
X1092093D01*
G01X1093300Y-11975D02*
X1093458Y-11660D01*
X1093642Y-11503D01*
X1093852Y-11450D01*
X1094114Y-11556D01*
X1094298Y-11818D01*
X1094350Y-12133D01*
X1094324Y-12448D01*
X1094219Y-12710D01*
X1093694Y-13235D01*
X1093458Y-13603D01*
X1093300Y-14128D01*
X1093248Y-14600D01*
X1094350D01*
G01X1097841D02*
Y-11450D01*
X1098524Y-14075D01*
X1099206Y-11450D01*
Y-14600D01*
G01X1100204D02*
Y-11450D01*
X1100886Y-14075D01*
X1101568Y-11450D01*
Y-14600D01*
G01X1070039Y203717D02*
X1066890D01*
X1067520Y203402D01*
G01X1070039D02*
Y204031D01*
G01X1068989Y205737D02*
Y206420D01*
G01X1070039Y208756D02*
X1066890D01*
X1069147Y207785D01*
Y209097D01*
G01X1109836Y-1589D02*
X1110991Y721D01*
G01X1110413Y1141D02*
Y-2008D01*
G01X1110991Y-1589D02*
X1109836Y721D01*
G01X1109626Y-433D02*
X1111201D01*
G01X1116949Y-1064D02*
X1117159Y-1326D01*
X1117395Y-1483D01*
X1117605D01*
X1117815Y-1326D01*
X1117972Y-1064D01*
X1118051Y-696D01*
X1117999Y-329D01*
X1117867Y-14D01*
X1117631Y196D01*
X1117316Y301D01*
X1117133Y511D01*
X1117054Y879D01*
X1117106Y1246D01*
X1117237Y1509D01*
X1117421Y1666D01*
X1117605D01*
X1117789Y1561D01*
X1117946Y1299D01*
G01X1119285Y1666D02*
Y-591D01*
X1119390Y-1064D01*
X1119600Y-1378D01*
X1119862Y-1483D01*
X1120125Y-1378D01*
X1120335Y-1064D01*
X1120440Y-591D01*
Y1666D01*
G01X1121700Y-1483D02*
Y1666D01*
X1122356D01*
X1122566Y1509D01*
X1122697Y1299D01*
X1122749Y879D01*
X1122697Y459D01*
X1122539Y196D01*
X1122356Y39D01*
X1121700D01*
G01X1122356D02*
X1122749Y-1483D01*
G01X1124088D02*
Y1666D01*
X1125085D01*
G01X1124718Y144D02*
X1124088D01*
G01X1126293Y-1483D02*
X1126949Y1666D01*
X1127605Y-1483D01*
G01X1127369Y-381D02*
X1126529D01*
G01X1129889Y1404D02*
X1129731Y1561D01*
X1129547Y1666D01*
X1129337D01*
X1129101Y1509D01*
X1128917Y1246D01*
X1128786Y931D01*
X1128681Y406D01*
X1128655Y-66D01*
X1128707Y-539D01*
X1128786Y-854D01*
X1128944Y-1169D01*
X1129127Y-1378D01*
X1129311Y-1483D01*
X1129495D01*
X1129678Y-1378D01*
X1129836Y-1221D01*
X1129967Y-1011D01*
G01X1132198Y-1483D02*
X1131148D01*
Y1666D01*
X1132198D01*
G01X1131778Y144D02*
X1131148D01*
G01X1136056Y-433D02*
X1136739D01*
G01X1140466Y-1483D02*
X1141122Y1666D01*
X1141778Y-1483D01*
G01X1141542Y-381D02*
X1140702D01*
G01X1143169Y1666D02*
X1143799D01*
G01X1143484D02*
Y-1483D01*
G01X1143169D02*
X1143799D01*
G01X1145322D02*
Y1666D01*
X1145978D01*
X1146188Y1509D01*
X1146319Y1299D01*
X1146371Y879D01*
X1146319Y459D01*
X1146161Y196D01*
X1145978Y39D01*
X1145322D01*
G01X1145978D02*
X1146371Y-1483D01*
G01X1150571Y1666D02*
X1150361Y1561D01*
X1150204Y1299D01*
X1150098Y984D01*
X1150020Y564D01*
X1149993Y91D01*
X1150020Y-381D01*
X1150098Y-801D01*
X1150204Y-1116D01*
X1150361Y-1378D01*
X1150571Y-1483D01*
X1150781Y-1378D01*
X1150938Y-1116D01*
X1151043Y-801D01*
X1151122Y-381D01*
X1151148Y91D01*
X1151122Y564D01*
X1151043Y984D01*
X1150938Y1299D01*
X1150781Y1561D01*
X1150571Y1666D01*
G01X1154613Y-1483D02*
Y1666D01*
X1155295Y-959D01*
X1155978Y1666D01*
Y-1483D01*
G01X1156975D02*
Y1666D01*
X1157657Y-959D01*
X1158340Y1666D01*
Y-1483D01*
G01X1105164Y6076D02*
Y2926D01*
X1106214D01*
G01X1108366D02*
Y6076D01*
X1107395Y3819D01*
X1108707D01*
G01X1112985Y4606D02*
X1113091Y4763D01*
X1113169Y5026D01*
X1113222Y5393D01*
X1113169Y5708D01*
X1113064Y5918D01*
X1112881Y6076D01*
X1112172D01*
Y2926D01*
X1113038D01*
X1113222Y3136D01*
X1113327Y3451D01*
X1113379Y3819D01*
X1113327Y4186D01*
X1113169Y4501D01*
X1112985Y4606D01*
X1112172D01*
G01X1115138Y2926D02*
X1114928Y2978D01*
X1114744Y3189D01*
X1114587Y3504D01*
X1114481Y3871D01*
X1114429Y4291D01*
Y4711D01*
X1114481Y5131D01*
X1114587Y5498D01*
X1114744Y5813D01*
X1114928Y6023D01*
X1115138Y6076D01*
X1115348Y6023D01*
X1115531Y5813D01*
X1115689Y5498D01*
X1115794Y5131D01*
X1115846Y4711D01*
Y4291D01*
X1115794Y3871D01*
X1115689Y3504D01*
X1115531Y3189D01*
X1115348Y2978D01*
X1115138Y2926D01*
G01X1117500Y6076D02*
Y2926D01*
G01X1116896Y6076D02*
X1118104D01*
G01X1119862D02*
Y2926D01*
G01X1119259Y6076D02*
X1120466D01*
G01X1122224Y2926D02*
X1122015Y2978D01*
X1121831Y3189D01*
X1121673Y3504D01*
X1121568Y3871D01*
X1121516Y4291D01*
Y4711D01*
X1121568Y5131D01*
X1121673Y5498D01*
X1121831Y5813D01*
X1122015Y6023D01*
X1122224Y6076D01*
X1122434Y6023D01*
X1122618Y5813D01*
X1122776Y5498D01*
X1122881Y5131D01*
X1122933Y4711D01*
Y4291D01*
X1122881Y3871D01*
X1122776Y3504D01*
X1122618Y3189D01*
X1122434Y2978D01*
X1122224Y2926D01*
G01X1123904D02*
Y6076D01*
X1124587Y3451D01*
X1125269Y6076D01*
Y2926D01*
G01X1129889Y5813D02*
X1129731Y5970D01*
X1129547Y6076D01*
X1129337D01*
X1129101Y5918D01*
X1128917Y5656D01*
X1128786Y5341D01*
X1128681Y4816D01*
X1128655Y4343D01*
X1128707Y3871D01*
X1128786Y3556D01*
X1128944Y3241D01*
X1129127Y3031D01*
X1129311Y2926D01*
X1129495D01*
X1129678Y3031D01*
X1129836Y3189D01*
X1129967Y3398D01*
G01X1131673Y2926D02*
X1131463Y2978D01*
X1131280Y3189D01*
X1131122Y3504D01*
X1131017Y3871D01*
X1130965Y4291D01*
Y4711D01*
X1131017Y5131D01*
X1131122Y5498D01*
X1131280Y5813D01*
X1131463Y6023D01*
X1131673Y6076D01*
X1131883Y6023D01*
X1132067Y5813D01*
X1132224Y5498D01*
X1132330Y5131D01*
X1132382Y4711D01*
Y4291D01*
X1132330Y3871D01*
X1132224Y3504D01*
X1132067Y3189D01*
X1131883Y2978D01*
X1131673Y2926D01*
G01X1133432D02*
Y6076D01*
X1134639Y2926D01*
Y6076D01*
G01X1135820Y2926D02*
Y6076D01*
X1136345D01*
X1136555Y5918D01*
X1136713Y5708D01*
X1136844Y5393D01*
X1136949Y5026D01*
X1136975Y4501D01*
X1136949Y3976D01*
X1136844Y3608D01*
X1136713Y3293D01*
X1136555Y3083D01*
X1136345Y2926D01*
X1135820D01*
G01X1138182Y6076D02*
Y3819D01*
X1138287Y3346D01*
X1138497Y3031D01*
X1138760Y2926D01*
X1139022Y3031D01*
X1139232Y3346D01*
X1139337Y3819D01*
Y6076D01*
G01X1141700Y5813D02*
X1141542Y5970D01*
X1141358Y6076D01*
X1141148D01*
X1140912Y5918D01*
X1140728Y5656D01*
X1140597Y5341D01*
X1140492Y4816D01*
X1140466Y4343D01*
X1140519Y3871D01*
X1140597Y3556D01*
X1140755Y3241D01*
X1140938Y3031D01*
X1141122Y2926D01*
X1141306D01*
X1141489Y3031D01*
X1141647Y3189D01*
X1141778Y3398D01*
G01X1143484Y6076D02*
Y2926D01*
G01X1142881Y6076D02*
X1144088D01*
G01X1145846Y2926D02*
X1145637Y2978D01*
X1145453Y3189D01*
X1145295Y3504D01*
X1145190Y3871D01*
X1145138Y4291D01*
Y4711D01*
X1145190Y5131D01*
X1145295Y5498D01*
X1145453Y5813D01*
X1145637Y6023D01*
X1145846Y6076D01*
X1146056Y6023D01*
X1146240Y5813D01*
X1146398Y5498D01*
X1146503Y5131D01*
X1146555Y4711D01*
Y4291D01*
X1146503Y3871D01*
X1146398Y3504D01*
X1146240Y3189D01*
X1146056Y2978D01*
X1145846Y2926D01*
G01X1147684D02*
Y6076D01*
X1148340D01*
X1148550Y5918D01*
X1148681Y5708D01*
X1148733Y5288D01*
X1148681Y4868D01*
X1148524Y4606D01*
X1148340Y4448D01*
X1147684D01*
G01X1148340D02*
X1148733Y2926D01*
G01X1152592Y3976D02*
X1153274D01*
G01X1158235Y5813D02*
X1158078Y5970D01*
X1157894Y6076D01*
X1157684D01*
X1157448Y5918D01*
X1157264Y5656D01*
X1157133Y5341D01*
X1157028Y4816D01*
X1157001Y4343D01*
X1157054Y3871D01*
X1157133Y3556D01*
X1157290Y3241D01*
X1157474Y3031D01*
X1157657Y2926D01*
X1157841D01*
X1158025Y3031D01*
X1158182Y3189D01*
X1158314Y3398D01*
G01X1160020Y2926D02*
X1159810Y2978D01*
X1159626Y3189D01*
X1159469Y3504D01*
X1159363Y3871D01*
X1159311Y4291D01*
Y4711D01*
X1159363Y5131D01*
X1159469Y5498D01*
X1159626Y5813D01*
X1159810Y6023D01*
X1160020Y6076D01*
X1160230Y6023D01*
X1160413Y5813D01*
X1160571Y5498D01*
X1160676Y5131D01*
X1160728Y4711D01*
Y4291D01*
X1160676Y3871D01*
X1160571Y3504D01*
X1160413Y3189D01*
X1160230Y2978D01*
X1160020Y2926D01*
G01X1161857D02*
Y6076D01*
X1162487D01*
X1162697Y5918D01*
X1162854Y5551D01*
X1162907Y5131D01*
X1162854Y4711D01*
X1162723Y4396D01*
X1162487Y4238D01*
X1161857D01*
G01X1164219Y2926D02*
Y6076D01*
X1164849D01*
X1165059Y5918D01*
X1165217Y5551D01*
X1165269Y5131D01*
X1165217Y4711D01*
X1165085Y4396D01*
X1164849Y4238D01*
X1164219D01*
G01X1167631Y2926D02*
X1166581D01*
Y6076D01*
X1167631D01*
G01X1167211Y4553D02*
X1166581D01*
G01X1168944Y2926D02*
Y6076D01*
X1169600D01*
X1169810Y5918D01*
X1169941Y5708D01*
X1169993Y5288D01*
X1169941Y4868D01*
X1169783Y4606D01*
X1169600Y4448D01*
X1168944D01*
G01X1169600D02*
X1169993Y2926D01*
G01X1174193Y6076D02*
X1173983Y5970D01*
X1173826Y5708D01*
X1173720Y5393D01*
X1173642Y4973D01*
X1173615Y4501D01*
X1173642Y4028D01*
X1173720Y3608D01*
X1173826Y3293D01*
X1173983Y3031D01*
X1174193Y2926D01*
X1174403Y3031D01*
X1174560Y3293D01*
X1174665Y3608D01*
X1174744Y4028D01*
X1174770Y4501D01*
X1174744Y4973D01*
X1174665Y5393D01*
X1174560Y5708D01*
X1174403Y5970D01*
X1174193Y6076D01*
G01X1176555Y2821D02*
X1176503Y2874D01*
Y2978D01*
X1176555Y3031D01*
X1176607Y2978D01*
Y2874D01*
X1176555Y2821D01*
G01X1178917Y6076D02*
X1178707Y5970D01*
X1178550Y5708D01*
X1178445Y5393D01*
X1178366Y4973D01*
X1178340Y4501D01*
X1178366Y4028D01*
X1178445Y3608D01*
X1178550Y3293D01*
X1178707Y3031D01*
X1178917Y2926D01*
X1179127Y3031D01*
X1179285Y3293D01*
X1179390Y3608D01*
X1179469Y4028D01*
X1179495Y4501D01*
X1179469Y4973D01*
X1179390Y5393D01*
X1179285Y5708D01*
X1179127Y5970D01*
X1178917Y6076D01*
G01X1180702Y3556D02*
X1180859Y3189D01*
X1181070Y2978D01*
X1181306Y2926D01*
X1181516Y2978D01*
X1181726Y3241D01*
X1181857Y3556D01*
X1181883Y3871D01*
X1181831Y4238D01*
X1181647Y4501D01*
X1181463Y4606D01*
X1181227D01*
G01X1181463D02*
X1181621Y4763D01*
X1181752Y5026D01*
X1181804Y5341D01*
X1181752Y5656D01*
X1181621Y5918D01*
X1181385Y6076D01*
X1181148Y6023D01*
X1180912Y5813D01*
G01X1183064Y3398D02*
X1183222Y3136D01*
X1183406Y2978D01*
X1183642Y2926D01*
X1183878Y3031D01*
X1184062Y3241D01*
X1184193Y3608D01*
X1184219Y4028D01*
X1184167Y4448D01*
X1184035Y4711D01*
X1183852Y4921D01*
X1183668Y4973D01*
X1183484Y4921D01*
X1183248Y4711D01*
X1183327Y6076D01*
X1184035D01*
G01X1187684Y2926D02*
Y6076D01*
X1188366Y3451D01*
X1189048Y6076D01*
Y2926D01*
G01X1190046D02*
Y6076D01*
X1190728Y3451D01*
X1191411Y6076D01*
Y2926D01*
G01X1109836Y13059D02*
X1110991Y15369D01*
G01X1110413Y15789D02*
Y12639D01*
G01X1110991Y13059D02*
X1109836Y15369D01*
G01X1109626Y14214D02*
X1111201D01*
G01X1116922Y13164D02*
Y16314D01*
X1117448D01*
X1117657Y16156D01*
X1117815Y15946D01*
X1117946Y15631D01*
X1118051Y15264D01*
X1118078Y14739D01*
X1118051Y14214D01*
X1117946Y13846D01*
X1117815Y13531D01*
X1117657Y13322D01*
X1117448Y13164D01*
X1116922D01*
G01X1119547Y16314D02*
X1120177D01*
G01X1119862D02*
Y13164D01*
G01X1119547D02*
X1120177D01*
G01X1122749D02*
X1121700D01*
Y16314D01*
X1122749D01*
G01X1122330Y14791D02*
X1121700D01*
G01X1124062Y16314D02*
Y13164D01*
X1125111D01*
G01X1127474D02*
X1126424D01*
Y16314D01*
X1127474D01*
G01X1127054Y14791D02*
X1126424D01*
G01X1129889Y16051D02*
X1129731Y16209D01*
X1129547Y16314D01*
X1129337D01*
X1129101Y16156D01*
X1128917Y15894D01*
X1128786Y15579D01*
X1128681Y15054D01*
X1128655Y14581D01*
X1128707Y14109D01*
X1128786Y13794D01*
X1128944Y13479D01*
X1129127Y13269D01*
X1129311Y13164D01*
X1129495D01*
X1129678Y13269D01*
X1129836Y13427D01*
X1129967Y13637D01*
G01X1131673Y16314D02*
Y13164D01*
G01X1131070Y16314D02*
X1132277D01*
G01X1133511Y13164D02*
Y16314D01*
X1134167D01*
X1134377Y16156D01*
X1134508Y15946D01*
X1134560Y15526D01*
X1134508Y15106D01*
X1134350Y14844D01*
X1134167Y14687D01*
X1133511D01*
G01X1134167D02*
X1134560Y13164D01*
G01X1136083Y16314D02*
X1136713D01*
G01X1136398D02*
Y13164D01*
G01X1136083D02*
X1136713D01*
G01X1139337Y16051D02*
X1139180Y16209D01*
X1138996Y16314D01*
X1138786D01*
X1138550Y16156D01*
X1138366Y15894D01*
X1138235Y15579D01*
X1138130Y15054D01*
X1138104Y14581D01*
X1138156Y14109D01*
X1138235Y13794D01*
X1138393Y13479D01*
X1138576Y13269D01*
X1138760Y13164D01*
X1138944D01*
X1139127Y13269D01*
X1139285Y13427D01*
X1139416Y13637D01*
G01X1143143Y14214D02*
X1143826D01*
G01X1147710Y13164D02*
Y16314D01*
X1148707D01*
G01X1148340Y14791D02*
X1147710D01*
G01X1150046Y13164D02*
Y16314D01*
X1150702D01*
X1150912Y16156D01*
X1151043Y15946D01*
X1151096Y15526D01*
X1151043Y15106D01*
X1150886Y14844D01*
X1150702Y14687D01*
X1150046D01*
G01X1150702D02*
X1151096Y13164D01*
G01X1152592Y14214D02*
X1153274D01*
G01X1155610Y13164D02*
Y16314D01*
X1154639Y14057D01*
X1155952D01*
G01X1160020Y16314D02*
X1159810Y16209D01*
X1159652Y15946D01*
X1159547Y15631D01*
X1159469Y15211D01*
X1159442Y14739D01*
X1159469Y14267D01*
X1159547Y13846D01*
X1159652Y13531D01*
X1159810Y13269D01*
X1160020Y13164D01*
X1160230Y13269D01*
X1160387Y13531D01*
X1160492Y13846D01*
X1160571Y14267D01*
X1160597Y14739D01*
X1160571Y15211D01*
X1160492Y15631D01*
X1160387Y15946D01*
X1160230Y16209D01*
X1160020Y16314D01*
G01X1162382Y13059D02*
X1162330Y13112D01*
Y13217D01*
X1162382Y13269D01*
X1162434Y13217D01*
Y13112D01*
X1162382Y13059D01*
G01X1164744Y16314D02*
X1164534Y16209D01*
X1164377Y15946D01*
X1164272Y15631D01*
X1164193Y15211D01*
X1164167Y14739D01*
X1164193Y14267D01*
X1164272Y13846D01*
X1164377Y13531D01*
X1164534Y13269D01*
X1164744Y13164D01*
X1164954Y13269D01*
X1165111Y13531D01*
X1165217Y13846D01*
X1165295Y14267D01*
X1165322Y14739D01*
X1165295Y15211D01*
X1165217Y15631D01*
X1165111Y15946D01*
X1164954Y16209D01*
X1164744Y16314D01*
G01X1166660Y13531D02*
X1166844Y13269D01*
X1167054Y13164D01*
X1167264Y13269D01*
X1167448Y13584D01*
X1167579Y14057D01*
X1167631Y14529D01*
Y15106D01*
X1167579Y15579D01*
X1167448Y15999D01*
X1167290Y16209D01*
X1167106Y16314D01*
X1166896Y16209D01*
X1166739Y15999D01*
X1166634Y15684D01*
X1166581Y15264D01*
X1166634Y14896D01*
X1166765Y14529D01*
X1166922Y14319D01*
X1167106Y14267D01*
X1167316Y14371D01*
X1167474Y14634D01*
X1167631Y15106D01*
G01X1169022Y13531D02*
X1169206Y13269D01*
X1169416Y13164D01*
X1169626Y13269D01*
X1169810Y13584D01*
X1169941Y14057D01*
X1169993Y14529D01*
Y15106D01*
X1169941Y15579D01*
X1169810Y15999D01*
X1169652Y16209D01*
X1169469Y16314D01*
X1169259Y16209D01*
X1169101Y15999D01*
X1168996Y15684D01*
X1168944Y15264D01*
X1168996Y14896D01*
X1169127Y14529D01*
X1169285Y14319D01*
X1169469Y14267D01*
X1169678Y14371D01*
X1169836Y14634D01*
X1169993Y15106D01*
G01X1172146Y13164D02*
Y16314D01*
X1171174Y14057D01*
X1172487D01*
G01X1175873Y13164D02*
Y16314D01*
X1176555Y13689D01*
X1177237Y16314D01*
Y13164D01*
G01X1178235D02*
Y16314D01*
X1178917Y13689D01*
X1179600Y16314D01*
Y13164D01*
G01X1105164Y20513D02*
Y17363D01*
X1106214D01*
G01X1107474Y17993D02*
X1107631Y17626D01*
X1107841Y17416D01*
X1108078Y17363D01*
X1108287Y17416D01*
X1108497Y17678D01*
X1108629Y17993D01*
X1108655Y18308D01*
X1108602Y18676D01*
X1108419Y18938D01*
X1108235Y19043D01*
X1107999D01*
G01X1108235D02*
X1108393Y19201D01*
X1108524Y19463D01*
X1108576Y19778D01*
X1108524Y20093D01*
X1108393Y20356D01*
X1108156Y20513D01*
X1107920Y20461D01*
X1107684Y20250D01*
G01X1112119Y20513D02*
X1112776Y17363D01*
X1113432Y20513D01*
G01X1115715Y20250D02*
X1115558Y20408D01*
X1115374Y20513D01*
X1115164D01*
X1114928Y20356D01*
X1114744Y20093D01*
X1114613Y19778D01*
X1114508Y19253D01*
X1114481Y18781D01*
X1114534Y18308D01*
X1114613Y17993D01*
X1114770Y17678D01*
X1114954Y17469D01*
X1115138Y17363D01*
X1115322D01*
X1115505Y17469D01*
X1115663Y17626D01*
X1115794Y17836D01*
G01X1118078Y20250D02*
X1117920Y20408D01*
X1117736Y20513D01*
X1117526D01*
X1117290Y20356D01*
X1117106Y20093D01*
X1116975Y19778D01*
X1116870Y19253D01*
X1116844Y18781D01*
X1116896Y18308D01*
X1116975Y17993D01*
X1117133Y17678D01*
X1117316Y17469D01*
X1117500Y17363D01*
X1117684D01*
X1117867Y17469D01*
X1118025Y17626D01*
X1118156Y17836D01*
G01X1119521Y18413D02*
X1120204D01*
G01X1121647Y17993D02*
X1121804Y17626D01*
X1122015Y17416D01*
X1122251Y17363D01*
X1122461Y17416D01*
X1122670Y17678D01*
X1122802Y17993D01*
X1122828Y18308D01*
X1122776Y18676D01*
X1122592Y18938D01*
X1122408Y19043D01*
X1122172D01*
G01X1122408D02*
X1122566Y19201D01*
X1122697Y19463D01*
X1122749Y19778D01*
X1122697Y20093D01*
X1122566Y20356D01*
X1122330Y20513D01*
X1122093Y20461D01*
X1121857Y20250D01*
G01X1127526D02*
X1127369Y20408D01*
X1127185Y20513D01*
X1126975D01*
X1126739Y20356D01*
X1126555Y20093D01*
X1126424Y19778D01*
X1126319Y19253D01*
X1126293Y18781D01*
X1126345Y18308D01*
X1126424Y17993D01*
X1126581Y17678D01*
X1126765Y17469D01*
X1126949Y17363D01*
X1127133D01*
X1127316Y17469D01*
X1127474Y17626D01*
X1127605Y17836D01*
G01X1129311Y17363D02*
X1129101Y17416D01*
X1128917Y17626D01*
X1128760Y17941D01*
X1128655Y18308D01*
X1128602Y18728D01*
Y19148D01*
X1128655Y19568D01*
X1128760Y19935D01*
X1128917Y20250D01*
X1129101Y20461D01*
X1129311Y20513D01*
X1129521Y20461D01*
X1129705Y20250D01*
X1129862Y19935D01*
X1129967Y19568D01*
X1130020Y19148D01*
Y18728D01*
X1129967Y18308D01*
X1129862Y17941D01*
X1129705Y17626D01*
X1129521Y17416D01*
X1129311Y17363D01*
G01X1131070D02*
Y20513D01*
X1132277Y17363D01*
Y20513D01*
G01X1133458Y17363D02*
Y20513D01*
X1133983D01*
X1134193Y20356D01*
X1134350Y20146D01*
X1134481Y19831D01*
X1134587Y19463D01*
X1134613Y18938D01*
X1134587Y18413D01*
X1134481Y18046D01*
X1134350Y17731D01*
X1134193Y17521D01*
X1133983Y17363D01*
X1133458D01*
G01X1135820Y20513D02*
Y18256D01*
X1135925Y17783D01*
X1136135Y17469D01*
X1136398Y17363D01*
X1136660Y17469D01*
X1136870Y17783D01*
X1136975Y18256D01*
Y20513D01*
G01X1139337Y20250D02*
X1139180Y20408D01*
X1138996Y20513D01*
X1138786D01*
X1138550Y20356D01*
X1138366Y20093D01*
X1138235Y19778D01*
X1138130Y19253D01*
X1138104Y18781D01*
X1138156Y18308D01*
X1138235Y17993D01*
X1138393Y17678D01*
X1138576Y17469D01*
X1138760Y17363D01*
X1138944D01*
X1139127Y17469D01*
X1139285Y17626D01*
X1139416Y17836D01*
G01X1141122Y20513D02*
Y17363D01*
G01X1140519Y20513D02*
X1141726D01*
G01X1143484Y17363D02*
X1143274Y17416D01*
X1143091Y17626D01*
X1142933Y17941D01*
X1142828Y18308D01*
X1142776Y18728D01*
Y19148D01*
X1142828Y19568D01*
X1142933Y19935D01*
X1143091Y20250D01*
X1143274Y20461D01*
X1143484Y20513D01*
X1143694Y20461D01*
X1143878Y20250D01*
X1144035Y19935D01*
X1144141Y19568D01*
X1144193Y19148D01*
Y18728D01*
X1144141Y18308D01*
X1144035Y17941D01*
X1143878Y17626D01*
X1143694Y17416D01*
X1143484Y17363D01*
G01X1145322D02*
Y20513D01*
X1145978D01*
X1146188Y20356D01*
X1146319Y20146D01*
X1146371Y19726D01*
X1146319Y19306D01*
X1146161Y19043D01*
X1145978Y18886D01*
X1145322D01*
G01X1145978D02*
X1146371Y17363D01*
G01X1150230Y18413D02*
X1150912D01*
G01X1155873Y20250D02*
X1155715Y20408D01*
X1155531Y20513D01*
X1155322D01*
X1155085Y20356D01*
X1154902Y20093D01*
X1154770Y19778D01*
X1154665Y19253D01*
X1154639Y18781D01*
X1154692Y18308D01*
X1154770Y17993D01*
X1154928Y17678D01*
X1155111Y17469D01*
X1155295Y17363D01*
X1155479D01*
X1155663Y17469D01*
X1155820Y17626D01*
X1155952Y17836D01*
G01X1157657Y17363D02*
X1157448Y17416D01*
X1157264Y17626D01*
X1157106Y17941D01*
X1157001Y18308D01*
X1156949Y18728D01*
Y19148D01*
X1157001Y19568D01*
X1157106Y19935D01*
X1157264Y20250D01*
X1157448Y20461D01*
X1157657Y20513D01*
X1157867Y20461D01*
X1158051Y20250D01*
X1158209Y19935D01*
X1158314Y19568D01*
X1158366Y19148D01*
Y18728D01*
X1158314Y18308D01*
X1158209Y17941D01*
X1158051Y17626D01*
X1157867Y17416D01*
X1157657Y17363D01*
G01X1159495D02*
Y20513D01*
X1160125D01*
X1160335Y20356D01*
X1160492Y19988D01*
X1160544Y19568D01*
X1160492Y19148D01*
X1160361Y18833D01*
X1160125Y18676D01*
X1159495D01*
G01X1161857Y17363D02*
Y20513D01*
X1162487D01*
X1162697Y20356D01*
X1162854Y19988D01*
X1162907Y19568D01*
X1162854Y19148D01*
X1162723Y18833D01*
X1162487Y18676D01*
X1161857D01*
G01X1165269Y17363D02*
X1164219D01*
Y20513D01*
X1165269D01*
G01X1164849Y18991D02*
X1164219D01*
G01X1166581Y17363D02*
Y20513D01*
X1167237D01*
X1167448Y20356D01*
X1167579Y20146D01*
X1167631Y19726D01*
X1167579Y19306D01*
X1167421Y19043D01*
X1167237Y18886D01*
X1166581D01*
G01X1167237D02*
X1167631Y17363D01*
G01X1171831Y20513D02*
X1171621Y20408D01*
X1171463Y20146D01*
X1171358Y19831D01*
X1171280Y19411D01*
X1171253Y18938D01*
X1171280Y18466D01*
X1171358Y18046D01*
X1171463Y17731D01*
X1171621Y17469D01*
X1171831Y17363D01*
X1172041Y17469D01*
X1172198Y17731D01*
X1172303Y18046D01*
X1172382Y18466D01*
X1172408Y18938D01*
X1172382Y19411D01*
X1172303Y19831D01*
X1172198Y20146D01*
X1172041Y20408D01*
X1171831Y20513D01*
G01X1174193Y17258D02*
X1174141Y17311D01*
Y17416D01*
X1174193Y17469D01*
X1174245Y17416D01*
Y17311D01*
X1174193Y17258D01*
G01X1176555Y20513D02*
X1176345Y20408D01*
X1176188Y20146D01*
X1176083Y19831D01*
X1176004Y19411D01*
X1175978Y18938D01*
X1176004Y18466D01*
X1176083Y18046D01*
X1176188Y17731D01*
X1176345Y17469D01*
X1176555Y17363D01*
X1176765Y17469D01*
X1176922Y17731D01*
X1177028Y18046D01*
X1177106Y18466D01*
X1177133Y18938D01*
X1177106Y19411D01*
X1177028Y19831D01*
X1176922Y20146D01*
X1176765Y20408D01*
X1176555Y20513D01*
G01X1178917Y17363D02*
Y20513D01*
X1178602Y19883D01*
G01Y17363D02*
X1179232D01*
G01X1180702Y17836D02*
X1180859Y17573D01*
X1181043Y17416D01*
X1181280Y17363D01*
X1181516Y17469D01*
X1181700Y17678D01*
X1181831Y18046D01*
X1181857Y18466D01*
X1181804Y18886D01*
X1181673Y19148D01*
X1181489Y19358D01*
X1181306Y19411D01*
X1181122Y19358D01*
X1180886Y19148D01*
X1180965Y20513D01*
X1181673D01*
G01X1183143Y19988D02*
X1183300Y20303D01*
X1183484Y20461D01*
X1183694Y20513D01*
X1183957Y20408D01*
X1184141Y20146D01*
X1184193Y19831D01*
X1184167Y19515D01*
X1184062Y19253D01*
X1183537Y18728D01*
X1183300Y18361D01*
X1183143Y17836D01*
X1183091Y17363D01*
X1184193D01*
G01X1187684D02*
Y20513D01*
X1188366Y17888D01*
X1189048Y20513D01*
Y17363D01*
G01X1190046D02*
Y20513D01*
X1190728Y17888D01*
X1191411Y20513D01*
Y17363D01*
G01X1109836Y101143D02*
X1110991Y103452D01*
G01X1110413Y103872D02*
Y100723D01*
G01X1110991Y101143D02*
X1109836Y103452D01*
G01X1109626Y102298D02*
X1111201D01*
G01X1116922Y101248D02*
Y104397D01*
X1117448D01*
X1117657Y104240D01*
X1117815Y104030D01*
X1117946Y103715D01*
X1118051Y103347D01*
X1118078Y102822D01*
X1118051Y102298D01*
X1117946Y101930D01*
X1117815Y101615D01*
X1117657Y101405D01*
X1117448Y101248D01*
X1116922D01*
G01X1119547Y104397D02*
X1120177D01*
G01X1119862D02*
Y101248D01*
G01X1119547D02*
X1120177D01*
G01X1122749D02*
X1121700D01*
Y104397D01*
X1122749D01*
G01X1122330Y102875D02*
X1121700D01*
G01X1124062Y104397D02*
Y101248D01*
X1125111D01*
G01X1127474D02*
X1126424D01*
Y104397D01*
X1127474D01*
G01X1127054Y102875D02*
X1126424D01*
G01X1129889Y104135D02*
X1129731Y104292D01*
X1129547Y104397D01*
X1129337D01*
X1129101Y104240D01*
X1128917Y103977D01*
X1128786Y103662D01*
X1128681Y103137D01*
X1128655Y102665D01*
X1128707Y102193D01*
X1128786Y101878D01*
X1128944Y101563D01*
X1129127Y101353D01*
X1129311Y101248D01*
X1129495D01*
X1129678Y101353D01*
X1129836Y101510D01*
X1129967Y101720D01*
G01X1131673Y104397D02*
Y101248D01*
G01X1131070Y104397D02*
X1132277D01*
G01X1133511Y101248D02*
Y104397D01*
X1134167D01*
X1134377Y104240D01*
X1134508Y104030D01*
X1134560Y103610D01*
X1134508Y103190D01*
X1134350Y102928D01*
X1134167Y102770D01*
X1133511D01*
G01X1134167D02*
X1134560Y101248D01*
G01X1136083Y104397D02*
X1136713D01*
G01X1136398D02*
Y101248D01*
G01X1136083D02*
X1136713D01*
G01X1139337Y104135D02*
X1139180Y104292D01*
X1138996Y104397D01*
X1138786D01*
X1138550Y104240D01*
X1138366Y103977D01*
X1138235Y103662D01*
X1138130Y103137D01*
X1138104Y102665D01*
X1138156Y102193D01*
X1138235Y101878D01*
X1138393Y101563D01*
X1138576Y101353D01*
X1138760Y101248D01*
X1138944D01*
X1139127Y101353D01*
X1139285Y101510D01*
X1139416Y101720D01*
G01X1143143Y102298D02*
X1143826D01*
G01X1147710Y101248D02*
Y104397D01*
X1148707D01*
G01X1148340Y102875D02*
X1147710D01*
G01X1150046Y101248D02*
Y104397D01*
X1150702D01*
X1150912Y104240D01*
X1151043Y104030D01*
X1151096Y103610D01*
X1151043Y103190D01*
X1150886Y102928D01*
X1150702Y102770D01*
X1150046D01*
G01X1150702D02*
X1151096Y101248D01*
G01X1152592Y102298D02*
X1153274D01*
G01X1155610Y101248D02*
Y104397D01*
X1154639Y102140D01*
X1155952D01*
G01X1160020Y101248D02*
Y104397D01*
X1159705Y103767D01*
G01Y101248D02*
X1160335D01*
G01X1162382Y101143D02*
X1162330Y101195D01*
Y101300D01*
X1162382Y101353D01*
X1162434Y101300D01*
Y101195D01*
X1162382Y101143D01*
G01X1164245Y103872D02*
X1164403Y104187D01*
X1164587Y104345D01*
X1164796Y104397D01*
X1165059Y104292D01*
X1165243Y104030D01*
X1165295Y103715D01*
X1165269Y103400D01*
X1165164Y103137D01*
X1164639Y102613D01*
X1164403Y102245D01*
X1164245Y101720D01*
X1164193Y101248D01*
X1165295D01*
G01X1166607Y102560D02*
X1166791Y102928D01*
X1166949Y103137D01*
X1167159Y103243D01*
X1167343Y103137D01*
X1167474Y102928D01*
X1167579Y102613D01*
X1167605Y102245D01*
X1167579Y101930D01*
X1167474Y101615D01*
X1167316Y101353D01*
X1167133Y101248D01*
X1166922Y101353D01*
X1166739Y101667D01*
X1166634Y102140D01*
X1166607Y102665D01*
X1166660Y103347D01*
X1166739Y103715D01*
X1166870Y104082D01*
X1167054Y104345D01*
X1167237Y104397D01*
X1167421Y104292D01*
X1167552Y104030D01*
G01X1168891Y101720D02*
X1169048Y101457D01*
X1169232Y101300D01*
X1169469Y101248D01*
X1169705Y101353D01*
X1169889Y101563D01*
X1170020Y101930D01*
X1170046Y102350D01*
X1169993Y102770D01*
X1169862Y103032D01*
X1169678Y103243D01*
X1169495Y103295D01*
X1169311Y103243D01*
X1169075Y103032D01*
X1169154Y104397D01*
X1169862D01*
G01X1173511Y101248D02*
Y104397D01*
X1174193Y101772D01*
X1174875Y104397D01*
Y101248D01*
G01X1175873D02*
Y104397D01*
X1176555Y101772D01*
X1177237Y104397D01*
Y101248D01*
G01X1105164Y181798D02*
Y178648D01*
X1106214D01*
G01X1107552Y181273D02*
X1107710Y181588D01*
X1107894Y181746D01*
X1108104Y181798D01*
X1108366Y181693D01*
X1108550Y181431D01*
X1108602Y181116D01*
X1108576Y180800D01*
X1108471Y180538D01*
X1107946Y180013D01*
X1107710Y179646D01*
X1107552Y179121D01*
X1107500Y178648D01*
X1108602D01*
G01X1112933Y180223D02*
X1113458D01*
Y179278D01*
X1113300Y178963D01*
X1113117Y178754D01*
X1112854Y178648D01*
X1112592Y178754D01*
X1112408Y178963D01*
X1112251Y179278D01*
X1112146Y179646D01*
X1112093Y180066D01*
Y180433D01*
X1112146Y180748D01*
X1112251Y181116D01*
X1112408Y181431D01*
X1112566Y181641D01*
X1112776Y181798D01*
X1112959D01*
X1113169Y181693D01*
X1113327Y181483D01*
G01X1114534Y178648D02*
Y181798D01*
X1115741Y178648D01*
Y181798D01*
G01X1116922Y178648D02*
Y181798D01*
X1117448D01*
X1117657Y181641D01*
X1117815Y181431D01*
X1117946Y181116D01*
X1118051Y180748D01*
X1118078Y180223D01*
X1118051Y179698D01*
X1117946Y179331D01*
X1117815Y179016D01*
X1117657Y178806D01*
X1117448Y178648D01*
X1116922D01*
G01X1119521Y179698D02*
X1120204D01*
G01X1121726Y181273D02*
X1121883Y181588D01*
X1122067Y181746D01*
X1122277Y181798D01*
X1122539Y181693D01*
X1122723Y181431D01*
X1122776Y181116D01*
X1122749Y180800D01*
X1122644Y180538D01*
X1122119Y180013D01*
X1121883Y179646D01*
X1121726Y179121D01*
X1121673Y178648D01*
X1122776D01*
G01X1127526Y181535D02*
X1127369Y181693D01*
X1127185Y181798D01*
X1126975D01*
X1126739Y181641D01*
X1126555Y181378D01*
X1126424Y181063D01*
X1126319Y180538D01*
X1126293Y180066D01*
X1126345Y179593D01*
X1126424Y179278D01*
X1126581Y178963D01*
X1126765Y178754D01*
X1126949Y178648D01*
X1127133D01*
X1127316Y178754D01*
X1127474Y178911D01*
X1127605Y179121D01*
G01X1129311Y178648D02*
X1129101Y178701D01*
X1128917Y178911D01*
X1128760Y179226D01*
X1128655Y179593D01*
X1128602Y180013D01*
Y180433D01*
X1128655Y180853D01*
X1128760Y181220D01*
X1128917Y181535D01*
X1129101Y181746D01*
X1129311Y181798D01*
X1129521Y181746D01*
X1129705Y181535D01*
X1129862Y181220D01*
X1129967Y180853D01*
X1130020Y180433D01*
Y180013D01*
X1129967Y179593D01*
X1129862Y179226D01*
X1129705Y178911D01*
X1129521Y178701D01*
X1129311Y178648D01*
G01X1131070D02*
Y181798D01*
X1132277Y178648D01*
Y181798D01*
G01X1133458Y178648D02*
Y181798D01*
X1133983D01*
X1134193Y181641D01*
X1134350Y181431D01*
X1134481Y181116D01*
X1134587Y180748D01*
X1134613Y180223D01*
X1134587Y179698D01*
X1134481Y179331D01*
X1134350Y179016D01*
X1134193Y178806D01*
X1133983Y178648D01*
X1133458D01*
G01X1135820Y181798D02*
Y179541D01*
X1135925Y179068D01*
X1136135Y178754D01*
X1136398Y178648D01*
X1136660Y178754D01*
X1136870Y179068D01*
X1136975Y179541D01*
Y181798D01*
G01X1139337Y181535D02*
X1139180Y181693D01*
X1138996Y181798D01*
X1138786D01*
X1138550Y181641D01*
X1138366Y181378D01*
X1138235Y181063D01*
X1138130Y180538D01*
X1138104Y180066D01*
X1138156Y179593D01*
X1138235Y179278D01*
X1138393Y178963D01*
X1138576Y178754D01*
X1138760Y178648D01*
X1138944D01*
X1139127Y178754D01*
X1139285Y178911D01*
X1139416Y179121D01*
G01X1141122Y181798D02*
Y178648D01*
G01X1140519Y181798D02*
X1141726D01*
G01X1143484Y178648D02*
X1143274Y178701D01*
X1143091Y178911D01*
X1142933Y179226D01*
X1142828Y179593D01*
X1142776Y180013D01*
Y180433D01*
X1142828Y180853D01*
X1142933Y181220D01*
X1143091Y181535D01*
X1143274Y181746D01*
X1143484Y181798D01*
X1143694Y181746D01*
X1143878Y181535D01*
X1144035Y181220D01*
X1144141Y180853D01*
X1144193Y180433D01*
Y180013D01*
X1144141Y179593D01*
X1144035Y179226D01*
X1143878Y178911D01*
X1143694Y178701D01*
X1143484Y178648D01*
G01X1145322D02*
Y181798D01*
X1145978D01*
X1146188Y181641D01*
X1146319Y181431D01*
X1146371Y181011D01*
X1146319Y180591D01*
X1146161Y180328D01*
X1145978Y180171D01*
X1145322D01*
G01X1145978D02*
X1146371Y178648D01*
G01X1150230Y179698D02*
X1150912D01*
G01X1155873Y181535D02*
X1155715Y181693D01*
X1155531Y181798D01*
X1155322D01*
X1155085Y181641D01*
X1154902Y181378D01*
X1154770Y181063D01*
X1154665Y180538D01*
X1154639Y180066D01*
X1154692Y179593D01*
X1154770Y179278D01*
X1154928Y178963D01*
X1155111Y178754D01*
X1155295Y178648D01*
X1155479D01*
X1155663Y178754D01*
X1155820Y178911D01*
X1155952Y179121D01*
G01X1157657Y178648D02*
X1157448Y178701D01*
X1157264Y178911D01*
X1157106Y179226D01*
X1157001Y179593D01*
X1156949Y180013D01*
Y180433D01*
X1157001Y180853D01*
X1157106Y181220D01*
X1157264Y181535D01*
X1157448Y181746D01*
X1157657Y181798D01*
X1157867Y181746D01*
X1158051Y181535D01*
X1158209Y181220D01*
X1158314Y180853D01*
X1158366Y180433D01*
Y180013D01*
X1158314Y179593D01*
X1158209Y179226D01*
X1158051Y178911D01*
X1157867Y178701D01*
X1157657Y178648D01*
G01X1159495D02*
Y181798D01*
X1160125D01*
X1160335Y181641D01*
X1160492Y181273D01*
X1160544Y180853D01*
X1160492Y180433D01*
X1160361Y180118D01*
X1160125Y179961D01*
X1159495D01*
G01X1161857Y178648D02*
Y181798D01*
X1162487D01*
X1162697Y181641D01*
X1162854Y181273D01*
X1162907Y180853D01*
X1162854Y180433D01*
X1162723Y180118D01*
X1162487Y179961D01*
X1161857D01*
G01X1165269Y178648D02*
X1164219D01*
Y181798D01*
X1165269D01*
G01X1164849Y180276D02*
X1164219D01*
G01X1166581Y178648D02*
Y181798D01*
X1167237D01*
X1167448Y181641D01*
X1167579Y181431D01*
X1167631Y181011D01*
X1167579Y180591D01*
X1167421Y180328D01*
X1167237Y180171D01*
X1166581D01*
G01X1167237D02*
X1167631Y178648D01*
G01X1171831Y181798D02*
X1171621Y181693D01*
X1171463Y181431D01*
X1171358Y181116D01*
X1171280Y180696D01*
X1171253Y180223D01*
X1171280Y179751D01*
X1171358Y179331D01*
X1171463Y179016D01*
X1171621Y178754D01*
X1171831Y178648D01*
X1172041Y178754D01*
X1172198Y179016D01*
X1172303Y179331D01*
X1172382Y179751D01*
X1172408Y180223D01*
X1172382Y180696D01*
X1172303Y181116D01*
X1172198Y181431D01*
X1172041Y181693D01*
X1171831Y181798D01*
G01X1174193Y178543D02*
X1174141Y178596D01*
Y178701D01*
X1174193Y178754D01*
X1174245Y178701D01*
Y178596D01*
X1174193Y178543D01*
G01X1176555Y181798D02*
X1176345Y181693D01*
X1176188Y181431D01*
X1176083Y181116D01*
X1176004Y180696D01*
X1175978Y180223D01*
X1176004Y179751D01*
X1176083Y179331D01*
X1176188Y179016D01*
X1176345Y178754D01*
X1176555Y178648D01*
X1176765Y178754D01*
X1176922Y179016D01*
X1177028Y179331D01*
X1177106Y179751D01*
X1177133Y180223D01*
X1177106Y180696D01*
X1177028Y181116D01*
X1176922Y181431D01*
X1176765Y181693D01*
X1176555Y181798D01*
G01X1178917Y178648D02*
Y181798D01*
X1178602Y181168D01*
G01Y178648D02*
X1179232D01*
G01X1180702Y179121D02*
X1180859Y178858D01*
X1181043Y178701D01*
X1181280Y178648D01*
X1181516Y178754D01*
X1181700Y178963D01*
X1181831Y179331D01*
X1181857Y179751D01*
X1181804Y180171D01*
X1181673Y180433D01*
X1181489Y180643D01*
X1181306Y180696D01*
X1181122Y180643D01*
X1180886Y180433D01*
X1180965Y181798D01*
X1181673D01*
G01X1183143Y181273D02*
X1183300Y181588D01*
X1183484Y181746D01*
X1183694Y181798D01*
X1183957Y181693D01*
X1184141Y181431D01*
X1184193Y181116D01*
X1184167Y180800D01*
X1184062Y180538D01*
X1183537Y180013D01*
X1183300Y179646D01*
X1183143Y179121D01*
X1183091Y178648D01*
X1184193D01*
G01X1187684D02*
Y181798D01*
X1188366Y179173D01*
X1189048Y181798D01*
Y178648D01*
G01X1190046D02*
Y181798D01*
X1190728Y179173D01*
X1191411Y181798D01*
Y178648D01*
G01X1109836Y189004D02*
X1110991Y191314D01*
G01X1110413Y191734D02*
Y188584D01*
G01X1110991Y189004D02*
X1109836Y191314D01*
G01X1109626Y190159D02*
X1111201D01*
G01X1116922Y189109D02*
Y192259D01*
X1117448D01*
X1117657Y192101D01*
X1117815Y191891D01*
X1117946Y191576D01*
X1118051Y191209D01*
X1118078Y190684D01*
X1118051Y190159D01*
X1117946Y189791D01*
X1117815Y189476D01*
X1117657Y189267D01*
X1117448Y189109D01*
X1116922D01*
G01X1119547Y192259D02*
X1120177D01*
G01X1119862D02*
Y189109D01*
G01X1119547D02*
X1120177D01*
G01X1122749D02*
X1121700D01*
Y192259D01*
X1122749D01*
G01X1122330Y190736D02*
X1121700D01*
G01X1124062Y192259D02*
Y189109D01*
X1125111D01*
G01X1127474D02*
X1126424D01*
Y192259D01*
X1127474D01*
G01X1127054Y190736D02*
X1126424D01*
G01X1129889Y191996D02*
X1129731Y192154D01*
X1129547Y192259D01*
X1129337D01*
X1129101Y192101D01*
X1128917Y191839D01*
X1128786Y191524D01*
X1128681Y190999D01*
X1128655Y190526D01*
X1128707Y190054D01*
X1128786Y189739D01*
X1128944Y189424D01*
X1129127Y189214D01*
X1129311Y189109D01*
X1129495D01*
X1129678Y189214D01*
X1129836Y189372D01*
X1129967Y189581D01*
G01X1131673Y192259D02*
Y189109D01*
G01X1131070Y192259D02*
X1132277D01*
G01X1133511Y189109D02*
Y192259D01*
X1134167D01*
X1134377Y192101D01*
X1134508Y191891D01*
X1134560Y191471D01*
X1134508Y191051D01*
X1134350Y190789D01*
X1134167Y190631D01*
X1133511D01*
G01X1134167D02*
X1134560Y189109D01*
G01X1136083Y192259D02*
X1136713D01*
G01X1136398D02*
Y189109D01*
G01X1136083D02*
X1136713D01*
G01X1139337Y191996D02*
X1139180Y192154D01*
X1138996Y192259D01*
X1138786D01*
X1138550Y192101D01*
X1138366Y191839D01*
X1138235Y191524D01*
X1138130Y190999D01*
X1138104Y190526D01*
X1138156Y190054D01*
X1138235Y189739D01*
X1138393Y189424D01*
X1138576Y189214D01*
X1138760Y189109D01*
X1138944D01*
X1139127Y189214D01*
X1139285Y189372D01*
X1139416Y189581D01*
G01X1143143Y190159D02*
X1143826D01*
G01X1147710Y189109D02*
Y192259D01*
X1148707D01*
G01X1148340Y190736D02*
X1147710D01*
G01X1150046Y189109D02*
Y192259D01*
X1150702D01*
X1150912Y192101D01*
X1151043Y191891D01*
X1151096Y191471D01*
X1151043Y191051D01*
X1150886Y190789D01*
X1150702Y190631D01*
X1150046D01*
G01X1150702D02*
X1151096Y189109D01*
G01X1152592Y190159D02*
X1153274D01*
G01X1155610Y189109D02*
Y192259D01*
X1154639Y190002D01*
X1155952D01*
G01X1160020Y192259D02*
X1159810Y192154D01*
X1159652Y191891D01*
X1159547Y191576D01*
X1159469Y191156D01*
X1159442Y190684D01*
X1159469Y190211D01*
X1159547Y189791D01*
X1159652Y189476D01*
X1159810Y189214D01*
X1160020Y189109D01*
X1160230Y189214D01*
X1160387Y189476D01*
X1160492Y189791D01*
X1160571Y190211D01*
X1160597Y190684D01*
X1160571Y191156D01*
X1160492Y191576D01*
X1160387Y191891D01*
X1160230Y192154D01*
X1160020Y192259D01*
G01X1162382Y189004D02*
X1162330Y189057D01*
Y189161D01*
X1162382Y189214D01*
X1162434Y189161D01*
Y189057D01*
X1162382Y189004D01*
G01X1164744Y192259D02*
X1164534Y192154D01*
X1164377Y191891D01*
X1164272Y191576D01*
X1164193Y191156D01*
X1164167Y190684D01*
X1164193Y190211D01*
X1164272Y189791D01*
X1164377Y189476D01*
X1164534Y189214D01*
X1164744Y189109D01*
X1164954Y189214D01*
X1165111Y189476D01*
X1165217Y189791D01*
X1165295Y190211D01*
X1165322Y190684D01*
X1165295Y191156D01*
X1165217Y191576D01*
X1165111Y191891D01*
X1164954Y192154D01*
X1164744Y192259D01*
G01X1166660Y189476D02*
X1166844Y189214D01*
X1167054Y189109D01*
X1167264Y189214D01*
X1167448Y189529D01*
X1167579Y190002D01*
X1167631Y190474D01*
Y191051D01*
X1167579Y191524D01*
X1167448Y191944D01*
X1167290Y192154D01*
X1167106Y192259D01*
X1166896Y192154D01*
X1166739Y191944D01*
X1166634Y191629D01*
X1166581Y191209D01*
X1166634Y190841D01*
X1166765Y190474D01*
X1166922Y190264D01*
X1167106Y190211D01*
X1167316Y190316D01*
X1167474Y190579D01*
X1167631Y191051D01*
G01X1169022Y189476D02*
X1169206Y189214D01*
X1169416Y189109D01*
X1169626Y189214D01*
X1169810Y189529D01*
X1169941Y190002D01*
X1169993Y190474D01*
Y191051D01*
X1169941Y191524D01*
X1169810Y191944D01*
X1169652Y192154D01*
X1169469Y192259D01*
X1169259Y192154D01*
X1169101Y191944D01*
X1168996Y191629D01*
X1168944Y191209D01*
X1168996Y190841D01*
X1169127Y190474D01*
X1169285Y190264D01*
X1169469Y190211D01*
X1169678Y190316D01*
X1169836Y190579D01*
X1169993Y191051D01*
G01X1172146Y189109D02*
Y192259D01*
X1171174Y190002D01*
X1172487D01*
G01X1175873Y189109D02*
Y192259D01*
X1176555Y189634D01*
X1177237Y192259D01*
Y189109D01*
G01X1178235D02*
Y192259D01*
X1178917Y189634D01*
X1179600Y192259D01*
Y189109D01*
G01X1105164Y198730D02*
Y195580D01*
X1106214D01*
G01X1108051D02*
Y198730D01*
X1107736Y198100D01*
G01Y195580D02*
X1108366D01*
G01X1112776Y198730D02*
Y195580D01*
G01X1112172Y198730D02*
X1113379D01*
G01X1115138Y195580D02*
X1114928Y195633D01*
X1114744Y195843D01*
X1114587Y196158D01*
X1114481Y196525D01*
X1114429Y196945D01*
Y197365D01*
X1114481Y197785D01*
X1114587Y198152D01*
X1114744Y198467D01*
X1114928Y198678D01*
X1115138Y198730D01*
X1115348Y198678D01*
X1115531Y198467D01*
X1115689Y198152D01*
X1115794Y197785D01*
X1115846Y197365D01*
Y196945D01*
X1115794Y196525D01*
X1115689Y196158D01*
X1115531Y195843D01*
X1115348Y195633D01*
X1115138Y195580D01*
G01X1116975D02*
Y198730D01*
X1117605D01*
X1117815Y198572D01*
X1117972Y198205D01*
X1118025Y197785D01*
X1117972Y197365D01*
X1117841Y197050D01*
X1117605Y196893D01*
X1116975D01*
G01X1122802Y198467D02*
X1122644Y198625D01*
X1122461Y198730D01*
X1122251D01*
X1122015Y198572D01*
X1121831Y198310D01*
X1121700Y197995D01*
X1121594Y197470D01*
X1121568Y196998D01*
X1121621Y196525D01*
X1121700Y196210D01*
X1121857Y195895D01*
X1122041Y195685D01*
X1122224Y195580D01*
X1122408D01*
X1122592Y195685D01*
X1122749Y195843D01*
X1122881Y196053D01*
G01X1124587Y195580D02*
X1124377Y195633D01*
X1124193Y195843D01*
X1124035Y196158D01*
X1123930Y196525D01*
X1123878Y196945D01*
Y197365D01*
X1123930Y197785D01*
X1124035Y198152D01*
X1124193Y198467D01*
X1124377Y198678D01*
X1124587Y198730D01*
X1124796Y198678D01*
X1124980Y198467D01*
X1125138Y198152D01*
X1125243Y197785D01*
X1125295Y197365D01*
Y196945D01*
X1125243Y196525D01*
X1125138Y196158D01*
X1124980Y195843D01*
X1124796Y195633D01*
X1124587Y195580D01*
G01X1126345D02*
Y198730D01*
X1127552Y195580D01*
Y198730D01*
G01X1128733Y195580D02*
Y198730D01*
X1129259D01*
X1129469Y198572D01*
X1129626Y198363D01*
X1129757Y198048D01*
X1129862Y197680D01*
X1129889Y197155D01*
X1129862Y196630D01*
X1129757Y196263D01*
X1129626Y195948D01*
X1129469Y195738D01*
X1129259Y195580D01*
X1128733D01*
G01X1131096Y198730D02*
Y196473D01*
X1131201Y196000D01*
X1131411Y195685D01*
X1131673Y195580D01*
X1131936Y195685D01*
X1132146Y196000D01*
X1132251Y196473D01*
Y198730D01*
G01X1134613Y198467D02*
X1134456Y198625D01*
X1134272Y198730D01*
X1134062D01*
X1133826Y198572D01*
X1133642Y198310D01*
X1133511Y197995D01*
X1133406Y197470D01*
X1133379Y196998D01*
X1133432Y196525D01*
X1133511Y196210D01*
X1133668Y195895D01*
X1133852Y195685D01*
X1134035Y195580D01*
X1134219D01*
X1134403Y195685D01*
X1134560Y195843D01*
X1134692Y196053D01*
G01X1136398Y198730D02*
Y195580D01*
G01X1135794Y198730D02*
X1137001D01*
G01X1138760Y195580D02*
X1138550Y195633D01*
X1138366Y195843D01*
X1138209Y196158D01*
X1138104Y196525D01*
X1138051Y196945D01*
Y197365D01*
X1138104Y197785D01*
X1138209Y198152D01*
X1138366Y198467D01*
X1138550Y198678D01*
X1138760Y198730D01*
X1138970Y198678D01*
X1139154Y198467D01*
X1139311Y198152D01*
X1139416Y197785D01*
X1139469Y197365D01*
Y196945D01*
X1139416Y196525D01*
X1139311Y196158D01*
X1139154Y195843D01*
X1138970Y195633D01*
X1138760Y195580D01*
G01X1140597D02*
Y198730D01*
X1141253D01*
X1141463Y198572D01*
X1141594Y198363D01*
X1141647Y197943D01*
X1141594Y197522D01*
X1141437Y197260D01*
X1141253Y197103D01*
X1140597D01*
G01X1141253D02*
X1141647Y195580D01*
G01X1145505Y196630D02*
X1146188D01*
G01X1151148Y198467D02*
X1150991Y198625D01*
X1150807Y198730D01*
X1150597D01*
X1150361Y198572D01*
X1150177Y198310D01*
X1150046Y197995D01*
X1149941Y197470D01*
X1149915Y196998D01*
X1149967Y196525D01*
X1150046Y196210D01*
X1150204Y195895D01*
X1150387Y195685D01*
X1150571Y195580D01*
X1150755D01*
X1150938Y195685D01*
X1151096Y195843D01*
X1151227Y196053D01*
G01X1152933Y195580D02*
X1152723Y195633D01*
X1152539Y195843D01*
X1152382Y196158D01*
X1152277Y196525D01*
X1152224Y196945D01*
Y197365D01*
X1152277Y197785D01*
X1152382Y198152D01*
X1152539Y198467D01*
X1152723Y198678D01*
X1152933Y198730D01*
X1153143Y198678D01*
X1153327Y198467D01*
X1153484Y198152D01*
X1153589Y197785D01*
X1153642Y197365D01*
Y196945D01*
X1153589Y196525D01*
X1153484Y196158D01*
X1153327Y195843D01*
X1153143Y195633D01*
X1152933Y195580D01*
G01X1154770D02*
Y198730D01*
X1155400D01*
X1155610Y198572D01*
X1155768Y198205D01*
X1155820Y197785D01*
X1155768Y197365D01*
X1155637Y197050D01*
X1155400Y196893D01*
X1154770D01*
G01X1157133Y195580D02*
Y198730D01*
X1157763D01*
X1157972Y198572D01*
X1158130Y198205D01*
X1158182Y197785D01*
X1158130Y197365D01*
X1157999Y197050D01*
X1157763Y196893D01*
X1157133D01*
G01X1160544Y195580D02*
X1159495D01*
Y198730D01*
X1160544D01*
G01X1160125Y197207D02*
X1159495D01*
G01X1161857Y195580D02*
Y198730D01*
X1162513D01*
X1162723Y198572D01*
X1162854Y198363D01*
X1162907Y197943D01*
X1162854Y197522D01*
X1162697Y197260D01*
X1162513Y197103D01*
X1161857D01*
G01X1162513D02*
X1162907Y195580D01*
G01X1167106Y198730D02*
X1166896Y198625D01*
X1166739Y198363D01*
X1166634Y198048D01*
X1166555Y197628D01*
X1166529Y197155D01*
X1166555Y196683D01*
X1166634Y196263D01*
X1166739Y195948D01*
X1166896Y195685D01*
X1167106Y195580D01*
X1167316Y195685D01*
X1167474Y195948D01*
X1167579Y196263D01*
X1167657Y196683D01*
X1167684Y197155D01*
X1167657Y197628D01*
X1167579Y198048D01*
X1167474Y198363D01*
X1167316Y198625D01*
X1167106Y198730D01*
G01X1169469Y195475D02*
X1169416Y195528D01*
Y195633D01*
X1169469Y195685D01*
X1169521Y195633D01*
Y195528D01*
X1169469Y195475D01*
G01X1171831Y198730D02*
X1171621Y198625D01*
X1171463Y198363D01*
X1171358Y198048D01*
X1171280Y197628D01*
X1171253Y197155D01*
X1171280Y196683D01*
X1171358Y196263D01*
X1171463Y195948D01*
X1171621Y195685D01*
X1171831Y195580D01*
X1172041Y195685D01*
X1172198Y195948D01*
X1172303Y196263D01*
X1172382Y196683D01*
X1172408Y197155D01*
X1172382Y197628D01*
X1172303Y198048D01*
X1172198Y198363D01*
X1172041Y198625D01*
X1171831Y198730D01*
G01X1173615Y196210D02*
X1173773Y195843D01*
X1173983Y195633D01*
X1174219Y195580D01*
X1174429Y195633D01*
X1174639Y195895D01*
X1174770Y196210D01*
X1174796Y196525D01*
X1174744Y196893D01*
X1174560Y197155D01*
X1174377Y197260D01*
X1174141D01*
G01X1174377D02*
X1174534Y197418D01*
X1174665Y197680D01*
X1174718Y197995D01*
X1174665Y198310D01*
X1174534Y198572D01*
X1174298Y198730D01*
X1174062Y198678D01*
X1173826Y198467D01*
G01X1175978Y196053D02*
X1176135Y195790D01*
X1176319Y195633D01*
X1176555Y195580D01*
X1176791Y195685D01*
X1176975Y195895D01*
X1177106Y196263D01*
X1177133Y196683D01*
X1177080Y197103D01*
X1176949Y197365D01*
X1176765Y197575D01*
X1176581Y197628D01*
X1176398Y197575D01*
X1176161Y197365D01*
X1176240Y198730D01*
X1176949D01*
G01X1180597Y195580D02*
Y198730D01*
X1181280Y196105D01*
X1181962Y198730D01*
Y195580D01*
G01X1182959D02*
Y198730D01*
X1183642Y196105D01*
X1184324Y198730D01*
Y195580D01*
G01X1109836Y200724D02*
X1110991Y203034D01*
G01X1110413Y203454D02*
Y200304D01*
G01X1110991Y200724D02*
X1109836Y203034D01*
G01X1109626Y201879D02*
X1111201D01*
G01X1116949Y201249D02*
X1117159Y200987D01*
X1117395Y200829D01*
X1117605D01*
X1117815Y200987D01*
X1117972Y201249D01*
X1118051Y201617D01*
X1117999Y201984D01*
X1117867Y202299D01*
X1117631Y202509D01*
X1117316Y202614D01*
X1117133Y202824D01*
X1117054Y203191D01*
X1117106Y203559D01*
X1117237Y203821D01*
X1117421Y203979D01*
X1117605D01*
X1117789Y203874D01*
X1117946Y203611D01*
G01X1119285Y203979D02*
Y201722D01*
X1119390Y201249D01*
X1119600Y200934D01*
X1119862Y200829D01*
X1120125Y200934D01*
X1120335Y201249D01*
X1120440Y201722D01*
Y203979D01*
G01X1121700Y200829D02*
Y203979D01*
X1122356D01*
X1122566Y203821D01*
X1122697Y203611D01*
X1122749Y203191D01*
X1122697Y202771D01*
X1122539Y202509D01*
X1122356Y202352D01*
X1121700D01*
G01X1122356D02*
X1122749Y200829D01*
G01X1124088D02*
Y203979D01*
X1125085D01*
G01X1124718Y202456D02*
X1124088D01*
G01X1126293Y200829D02*
X1126949Y203979D01*
X1127605Y200829D01*
G01X1127369Y201931D02*
X1126529D01*
G01X1129889Y203716D02*
X1129731Y203874D01*
X1129547Y203979D01*
X1129337D01*
X1129101Y203821D01*
X1128917Y203559D01*
X1128786Y203244D01*
X1128681Y202719D01*
X1128655Y202246D01*
X1128707Y201774D01*
X1128786Y201459D01*
X1128944Y201144D01*
X1129127Y200934D01*
X1129311Y200829D01*
X1129495D01*
X1129678Y200934D01*
X1129836Y201092D01*
X1129967Y201302D01*
G01X1132198Y200829D02*
X1131148D01*
Y203979D01*
X1132198D01*
G01X1131778Y202456D02*
X1131148D01*
G01X1136056Y201879D02*
X1136739D01*
G01X1140466Y200829D02*
X1141122Y203979D01*
X1141778Y200829D01*
G01X1141542Y201931D02*
X1140702D01*
G01X1143169Y203979D02*
X1143799D01*
G01X1143484D02*
Y200829D01*
G01X1143169D02*
X1143799D01*
G01X1145322D02*
Y203979D01*
X1145978D01*
X1146188Y203821D01*
X1146319Y203611D01*
X1146371Y203191D01*
X1146319Y202771D01*
X1146161Y202509D01*
X1145978Y202352D01*
X1145322D01*
G01X1145978D02*
X1146371Y200829D01*
G01X1150571Y203979D02*
X1150361Y203874D01*
X1150204Y203611D01*
X1150098Y203296D01*
X1150020Y202876D01*
X1149993Y202404D01*
X1150020Y201931D01*
X1150098Y201511D01*
X1150204Y201196D01*
X1150361Y200934D01*
X1150571Y200829D01*
X1150781Y200934D01*
X1150938Y201196D01*
X1151043Y201511D01*
X1151122Y201931D01*
X1151148Y202404D01*
X1151122Y202876D01*
X1151043Y203296D01*
X1150938Y203611D01*
X1150781Y203874D01*
X1150571Y203979D01*
G01X1154613Y200829D02*
Y203979D01*
X1155295Y201354D01*
X1155978Y203979D01*
Y200829D01*
G01X1156975D02*
Y203979D01*
X1157657Y201354D01*
X1158340Y203979D01*
Y200829D01*
G54D19*
G01X-9843Y0D02*
X-32677D01*
G01X-32444Y65541D02*
X-31515Y64083D01*
X-30275Y63250D01*
X-28880Y63041D01*
X-27639Y63250D01*
X-26400Y64291D01*
X-25625Y65541D01*
X-25470Y66791D01*
X-25780Y68249D01*
X-26865Y69291D01*
X-27950Y69708D01*
X-29345D01*
G01X-27950D02*
X-27020Y70333D01*
X-26244Y71374D01*
X-25935Y72624D01*
X-26244Y73875D01*
X-27020Y74916D01*
X-28415Y75541D01*
X-29809Y75333D01*
X-31205Y74500D01*
G01X-14775Y63041D02*
Y75541D01*
X-20510Y66583D01*
X-12759D01*
G01X-9843Y133858D02*
X-32677D01*
G01X-25295Y15748D02*
X-22835Y0D01*
X-20374Y15748D01*
X-25295D01*
G01X-20374Y118110D02*
X-22835Y133858D01*
X-25295Y118110D01*
X-20374D01*
G01X-22835Y53667D02*
Y0D01*
G01Y84916D02*
Y133858D01*
G01X0Y0D02*
Y133858D01*
X275591D01*
Y0D01*
X0D01*
G01Y143701D02*
Y167323D01*
G01X125444Y157480D02*
X0D01*
G01X15748Y159941D02*
X0Y157480D01*
X15748Y155020D01*
Y159941D01*
G01X139159Y151230D02*
X139469Y153939D01*
X139934Y156230D01*
X140554Y158314D01*
X141329Y160605D01*
X142569Y163730D01*
X136369D01*
G01X151869D02*
X150629Y163314D01*
X149699Y162272D01*
X149079Y161022D01*
X148614Y159355D01*
X148459Y157480D01*
X148614Y155605D01*
X149079Y153939D01*
X149699Y152688D01*
X150629Y151647D01*
X151869Y151230D01*
X153109Y151647D01*
X154039Y152688D01*
X154659Y153939D01*
X155124Y155605D01*
X155279Y157480D01*
X155124Y159355D01*
X154659Y161022D01*
X154039Y162272D01*
X153109Y163314D01*
X151869Y163730D01*
G01X165894Y157480D02*
X275591D01*
G01X259843Y155020D02*
X275591Y157480D01*
X259843Y159941D01*
Y155020D01*
G01X275591Y143701D02*
Y167323D01*
G01X312598Y10236D02*
Y185827D01*
X1010098D01*
Y10236D01*
X312598D01*
G01Y35236D02*
X1010098D01*
G01X312598Y60236D02*
X1010098D01*
G01X312598Y85236D02*
X1010098D01*
G01X312598Y110236D02*
X1010098D01*
G01X312598Y135236D02*
X1010098D01*
G01X312598Y160236D02*
X1010098D01*
G01X323603Y116486D02*
Y128986D01*
X329494D01*
G01X327323Y122945D02*
X323603D01*
G01X337089Y128986D02*
X340808D01*
G01X338948D02*
Y116486D01*
G01X337089D02*
X340808D01*
G01X352278Y122736D02*
X355379D01*
Y118986D01*
X354448Y117736D01*
X353363Y116903D01*
X351813Y116486D01*
X350263Y116903D01*
X349178Y117736D01*
X348248Y118986D01*
X347628Y120444D01*
X347318Y122111D01*
Y123570D01*
X347628Y124819D01*
X348248Y126278D01*
X349178Y127528D01*
X350108Y128361D01*
X351348Y128986D01*
X352433D01*
X353673Y128570D01*
X354604Y127736D01*
G01X360339Y128986D02*
Y120028D01*
X360958Y118152D01*
X362198Y116903D01*
X363748Y116486D01*
X365298Y116903D01*
X366539Y118152D01*
X367158Y120028D01*
Y128986D01*
G01X373048Y116486D02*
Y128986D01*
X376923D01*
X378163Y128361D01*
X378939Y127528D01*
X379248Y125861D01*
X378939Y124194D01*
X378008Y123153D01*
X376923Y122528D01*
X373048D01*
G01X376923D02*
X379248Y116486D01*
G01X391648D02*
X385448D01*
Y128986D01*
X391648D01*
G01X389169Y122945D02*
X385448D01*
G01X402498Y135236D02*
Y10236D01*
G01X425903Y116486D02*
Y128986D01*
X431794D01*
G01X429623Y122945D02*
X425903D01*
G01X439389Y128986D02*
X443108D01*
G01X441248D02*
Y116486D01*
G01X439389D02*
X443108D01*
G01X450083D02*
Y128986D01*
X457213Y116486D01*
Y128986D01*
G01X464189D02*
X467908D01*
G01X466048D02*
Y116486D01*
G01X464189D02*
X467908D01*
G01X475193Y118152D02*
X476433Y117111D01*
X477828Y116486D01*
X479069D01*
X480308Y117111D01*
X481239Y118152D01*
X481704Y119611D01*
X481394Y121069D01*
X480619Y122319D01*
X479223Y123153D01*
X477363Y123570D01*
X476278Y124403D01*
X475813Y125861D01*
X476124Y127320D01*
X476898Y128361D01*
X477983Y128986D01*
X479069D01*
X480154Y128570D01*
X481083Y127528D01*
G01X487593Y116486D02*
Y128986D01*
G01X494104D02*
Y116486D01*
G01Y122736D02*
X487593D01*
G01X506348Y116486D02*
X500148D01*
Y128986D01*
X506348D01*
G01X503869Y122945D02*
X500148D01*
G01X512239Y116486D02*
Y128986D01*
X515338D01*
X516578Y128361D01*
X517508Y127528D01*
X518283Y126278D01*
X518904Y124819D01*
X519058Y122736D01*
X518904Y120653D01*
X518283Y119194D01*
X517508Y117944D01*
X516578Y117111D01*
X515338Y116486D01*
X512239D01*
G01X523398Y112320D02*
X532698D01*
G01X537193Y118152D02*
X538433Y117111D01*
X539828Y116486D01*
X541069D01*
X542308Y117111D01*
X543239Y118152D01*
X543704Y119611D01*
X543394Y121069D01*
X542619Y122319D01*
X541223Y123153D01*
X539363Y123570D01*
X538278Y124403D01*
X537813Y125861D01*
X538124Y127320D01*
X538898Y128361D01*
X539983Y128986D01*
X541069D01*
X542154Y128570D01*
X543083Y127528D01*
G01X550989Y128986D02*
X554708D01*
G01X552848D02*
Y116486D01*
G01X550989D02*
X554708D01*
G01X562303Y128986D02*
X568194D01*
X562303Y116486D01*
X568194D01*
G01X580748D02*
X574548D01*
Y128986D01*
X580748D01*
G01X578269Y122945D02*
X574548D01*
G01X487439Y18986D02*
X488368Y17528D01*
X489608Y16694D01*
X491004Y16486D01*
X492244Y16694D01*
X493483Y17736D01*
X494258Y18986D01*
X494413Y20236D01*
X494104Y21694D01*
X493019Y22736D01*
X491933Y23153D01*
X490538D01*
G01X491933D02*
X492863Y23778D01*
X493639Y24819D01*
X493948Y26069D01*
X493639Y27320D01*
X492863Y28361D01*
X491469Y28986D01*
X490074Y28778D01*
X488678Y27944D01*
G01X503248Y16070D02*
X502938Y16278D01*
Y16694D01*
X503248Y16903D01*
X503559Y16694D01*
Y16278D01*
X503248Y16070D01*
G01X515648Y28986D02*
X514408Y28570D01*
X513478Y27528D01*
X512858Y26278D01*
X512393Y24611D01*
X512239Y22736D01*
X512393Y20861D01*
X512858Y19194D01*
X513478Y17944D01*
X514408Y16903D01*
X515648Y16486D01*
X516888Y16903D01*
X517819Y17944D01*
X518439Y19194D01*
X518904Y20861D01*
X519058Y22736D01*
X518904Y24611D01*
X518439Y26278D01*
X517819Y27528D01*
X516888Y28570D01*
X515648Y28986D01*
G01X490848Y53986D02*
X489608Y53570D01*
X488678Y52528D01*
X488058Y51278D01*
X487593Y49611D01*
X487439Y47736D01*
X487593Y45861D01*
X488058Y44194D01*
X488678Y42944D01*
X489608Y41903D01*
X490848Y41486D01*
X492088Y41903D01*
X493019Y42944D01*
X493639Y44194D01*
X494104Y45861D01*
X494258Y47736D01*
X494104Y49611D01*
X493639Y51278D01*
X493019Y52528D01*
X492088Y53570D01*
X490848Y53986D01*
G01X503248Y41070D02*
X502938Y41278D01*
Y41694D01*
X503248Y41903D01*
X503559Y41694D01*
Y41278D01*
X503248Y41070D01*
G01X513013Y42944D02*
X514098Y41903D01*
X515338Y41486D01*
X516578Y41903D01*
X517663Y43152D01*
X518439Y45028D01*
X518748Y46903D01*
Y49194D01*
X518439Y51069D01*
X517663Y52736D01*
X516733Y53570D01*
X515648Y53986D01*
X514408Y53570D01*
X513478Y52736D01*
X512858Y51486D01*
X512548Y49819D01*
X512858Y48361D01*
X513633Y46903D01*
X514563Y46069D01*
X515648Y45861D01*
X516888Y46278D01*
X517819Y47319D01*
X518748Y49194D01*
G01X490848Y78986D02*
X489608Y78570D01*
X488678Y77528D01*
X488058Y76278D01*
X487593Y74611D01*
X487439Y72736D01*
X487593Y70861D01*
X488058Y69194D01*
X488678Y67944D01*
X489608Y66903D01*
X490848Y66486D01*
X492088Y66903D01*
X493019Y67944D01*
X493639Y69194D01*
X494104Y70861D01*
X494258Y72736D01*
X494104Y74611D01*
X493639Y76278D01*
X493019Y77528D01*
X492088Y78570D01*
X490848Y78986D01*
G01X503248Y66070D02*
X502938Y66278D01*
Y66694D01*
X503248Y66903D01*
X503559Y66694D01*
Y66278D01*
X503248Y66070D01*
G01X515648Y66486D02*
X516733Y66694D01*
X517973Y67319D01*
X518748Y68361D01*
X519058Y69820D01*
X518748Y71278D01*
X517819Y72528D01*
X516423Y73153D01*
X514874D01*
X513943Y73570D01*
X513168Y74611D01*
X512858Y76069D01*
X513324Y77528D01*
X514408Y78570D01*
X515648Y78986D01*
X516888Y78570D01*
X517973Y77528D01*
X518439Y76069D01*
X518128Y74611D01*
X517354Y73570D01*
X516423Y73153D01*
X514874D01*
X513478Y72528D01*
X512548Y71278D01*
X512239Y69820D01*
X512548Y68361D01*
X513324Y67319D01*
X514563Y66694D01*
X515648Y66486D01*
G01X490848Y103986D02*
X489608Y103570D01*
X488678Y102528D01*
X488058Y101278D01*
X487593Y99611D01*
X487439Y97736D01*
X487593Y95861D01*
X488058Y94194D01*
X488678Y92944D01*
X489608Y91903D01*
X490848Y91486D01*
X492088Y91903D01*
X493019Y92944D01*
X493639Y94194D01*
X494104Y95861D01*
X494258Y97736D01*
X494104Y99611D01*
X493639Y101278D01*
X493019Y102528D01*
X492088Y103570D01*
X490848Y103986D01*
G01X503248Y91070D02*
X502938Y91278D01*
Y91694D01*
X503248Y91903D01*
X503559Y91694D01*
Y91278D01*
X503248Y91070D01*
G01X512703Y101903D02*
X513633Y103153D01*
X514719Y103778D01*
X515959Y103986D01*
X517508Y103570D01*
X518594Y102528D01*
X518904Y101278D01*
X518748Y100028D01*
X518128Y98986D01*
X515028Y96903D01*
X513633Y95444D01*
X512703Y93361D01*
X512393Y91486D01*
X518904D01*
G01X490073Y141486D02*
X493948Y153986D01*
X497824Y141486D01*
G01X496428Y145861D02*
X491468D01*
G01X503248Y153986D02*
Y141486D01*
X509448D01*
G01X515648Y153986D02*
Y141486D01*
X521848D01*
G01X540139Y153986D02*
Y145028D01*
X540758Y143152D01*
X541998Y141903D01*
X543548Y141486D01*
X545098Y141903D01*
X546339Y143152D01*
X546958Y145028D01*
Y153986D01*
G01X552383Y141486D02*
Y153986D01*
X559513Y141486D01*
Y153986D01*
G01X566489D02*
X570208D01*
G01X568348D02*
Y141486D01*
G01X566489D02*
X570208D01*
G01X580748Y153986D02*
Y141486D01*
G01X577183Y153986D02*
X584313D01*
G01X589893Y143152D02*
X591133Y142111D01*
X592528Y141486D01*
X593769D01*
X595008Y142111D01*
X595939Y143152D01*
X596404Y144611D01*
X596094Y146069D01*
X595319Y147319D01*
X593923Y148153D01*
X592063Y148570D01*
X590978Y149403D01*
X590513Y150861D01*
X590824Y152320D01*
X591598Y153361D01*
X592683Y153986D01*
X593769D01*
X594854Y153570D01*
X595783Y152528D01*
G01X614073Y141486D02*
X617948Y153986D01*
X621824Y141486D01*
G01X620428Y145861D02*
X615468D01*
G01X627248Y141486D02*
Y153986D01*
X631123D01*
X632363Y153361D01*
X633139Y152528D01*
X633448Y150861D01*
X633139Y149194D01*
X632208Y148153D01*
X631123Y147528D01*
X627248D01*
G01X631123D02*
X633448Y141486D01*
G01X645848D02*
X639648D01*
Y153986D01*
X645848D01*
G01X643369Y147945D02*
X639648D01*
G01X665689Y153986D02*
X669408D01*
G01X667548D02*
Y141486D01*
G01X665689D02*
X669408D01*
G01X676383D02*
Y153986D01*
X683513Y141486D01*
Y153986D01*
G01X700718Y141486D02*
Y153986D01*
X704748Y143570D01*
X708779Y153986D01*
Y141486D01*
G01X715289Y153986D02*
X719008D01*
G01X717148D02*
Y141486D01*
G01X715289D02*
X719008D01*
G01X726448Y153986D02*
Y141486D01*
X732648D01*
G01X738848Y153986D02*
Y141486D01*
X745048D01*
G01X752489Y153986D02*
X756208D01*
G01X754348D02*
Y141486D01*
G01X752489D02*
X756208D01*
G01X762718D02*
Y153986D01*
X766748Y143570D01*
X770779Y153986D01*
Y141486D01*
G01X782248D02*
X776048D01*
Y153986D01*
X782248D01*
G01X779769Y147945D02*
X776048D01*
G01X791548Y153986D02*
Y141486D01*
G01X787983Y153986D02*
X795113D01*
G01X807048Y141486D02*
X800848D01*
Y153986D01*
X807048D01*
G01X804569Y147945D02*
X800848D01*
G01X813248Y141486D02*
Y153986D01*
X817123D01*
X818363Y153361D01*
X819139Y152528D01*
X819448Y150861D01*
X819139Y149194D01*
X818208Y148153D01*
X817123Y147528D01*
X813248D01*
G01X817123D02*
X819448Y141486D01*
G01X825493Y143152D02*
X826733Y142111D01*
X828128Y141486D01*
X829369D01*
X830608Y142111D01*
X831539Y143152D01*
X832004Y144611D01*
X831694Y146069D01*
X830919Y147319D01*
X829523Y148153D01*
X827663Y148570D01*
X826578Y149403D01*
X826113Y150861D01*
X826424Y152320D01*
X827198Y153361D01*
X828283Y153986D01*
X829369D01*
X830454Y153570D01*
X831383Y152528D01*
G01X502939Y167077D02*
Y179577D01*
X506038D01*
X507278Y178952D01*
X508208Y178119D01*
X508983Y176869D01*
X509604Y175410D01*
X509758Y173327D01*
X509604Y171243D01*
X508983Y169785D01*
X508208Y168535D01*
X507278Y167702D01*
X506038Y167077D01*
X502939D01*
G01X515648D02*
Y179577D01*
X519523D01*
X520763Y178952D01*
X521539Y178119D01*
X521848Y176452D01*
X521539Y174785D01*
X520608Y173744D01*
X519523Y173118D01*
X515648D01*
G01X519523D02*
X521848Y167077D01*
G01X529289Y179577D02*
X533008D01*
G01X531148D02*
Y167077D01*
G01X529289D02*
X533008D01*
G01X540448Y179577D02*
Y167077D01*
X546648D01*
G01X552848Y179577D02*
Y167077D01*
X559048D01*
G01X584158Y178535D02*
X583228Y179160D01*
X582144Y179577D01*
X580904D01*
X579508Y178952D01*
X578424Y177910D01*
X577648Y176660D01*
X577028Y174577D01*
X576873Y172702D01*
X577183Y170827D01*
X577648Y169577D01*
X578578Y168326D01*
X579663Y167493D01*
X580748Y167077D01*
X581833D01*
X582919Y167493D01*
X583848Y168118D01*
X584624Y168951D01*
G01X589893Y167077D02*
Y179577D01*
G01X596404D02*
Y167077D01*
G01Y173327D02*
X589893D01*
G01X601673Y167077D02*
X605548Y179577D01*
X609424Y167077D01*
G01X608028Y171452D02*
X603068D01*
G01X614848Y167077D02*
Y179577D01*
X618723D01*
X619963Y178952D01*
X620739Y178119D01*
X621048Y176452D01*
X620739Y174785D01*
X619808Y173744D01*
X618723Y173118D01*
X614848D01*
G01X618723D02*
X621048Y167077D01*
G01X630348Y179577D02*
Y167077D01*
G01X626783Y179577D02*
X633913D01*
G01X642748Y166660D02*
X642438Y166869D01*
Y167285D01*
X642748Y167493D01*
X643059Y167285D01*
Y166869D01*
X642748Y166660D01*
G01Y172285D02*
X642438Y172493D01*
Y172910D01*
X642748Y173118D01*
X643059Y172910D01*
Y172493D01*
X642748Y172285D01*
G01X667548Y179577D02*
Y167077D01*
G01X663983Y179577D02*
X671113D01*
G01X679948Y167077D02*
X678708Y167285D01*
X677624Y168118D01*
X676693Y169369D01*
X676073Y170827D01*
X675763Y172493D01*
Y174160D01*
X676073Y175827D01*
X676693Y177285D01*
X677624Y178535D01*
X678708Y179369D01*
X679948Y179577D01*
X681188Y179369D01*
X682273Y178535D01*
X683204Y177285D01*
X683824Y175827D01*
X684133Y174160D01*
Y172493D01*
X683824Y170827D01*
X683204Y169369D01*
X682273Y168118D01*
X681188Y167285D01*
X679948Y167077D01*
G01X689248D02*
Y179577D01*
X692969D01*
X694208Y178952D01*
X695139Y177493D01*
X695448Y175827D01*
X695139Y174160D01*
X694363Y172910D01*
X692969Y172285D01*
X689248D01*
G01X717148Y179577D02*
Y167077D01*
G01X714978Y175410D02*
X719319D01*
G01X729548Y167077D02*
X728619Y167285D01*
X727689Y168118D01*
X727068Y169577D01*
X726758Y171243D01*
X727068Y172910D01*
X727689Y174369D01*
X728619Y175202D01*
X729548Y175410D01*
X730478Y175202D01*
X731408Y174369D01*
X732028Y172910D01*
X732183Y171243D01*
X732028Y169577D01*
X731408Y168118D01*
X730478Y167285D01*
X729548Y167077D01*
G01X755588Y173744D02*
X756208Y174369D01*
X756673Y175410D01*
X756983Y176869D01*
X756673Y178119D01*
X756054Y178952D01*
X754969Y179577D01*
X750783D01*
Y167077D01*
X755898D01*
X756983Y167910D01*
X757604Y169160D01*
X757913Y170619D01*
X757604Y172076D01*
X756673Y173327D01*
X755588Y173744D01*
X750783D01*
G01X766748Y167077D02*
X765508Y167285D01*
X764424Y168118D01*
X763493Y169369D01*
X762873Y170827D01*
X762563Y172493D01*
Y174160D01*
X762873Y175827D01*
X763493Y177285D01*
X764424Y178535D01*
X765508Y179369D01*
X766748Y179577D01*
X767988Y179369D01*
X769073Y178535D01*
X770004Y177285D01*
X770624Y175827D01*
X770933Y174160D01*
Y172493D01*
X770624Y170827D01*
X770004Y169369D01*
X769073Y168118D01*
X767988Y167285D01*
X766748Y167077D01*
G01X779148Y179577D02*
Y167077D01*
G01X775583Y179577D02*
X782713D01*
G01X791548D02*
Y167077D01*
G01X787983Y179577D02*
X795113D01*
G01X803948Y167077D02*
X802708Y167285D01*
X801624Y168118D01*
X800693Y169369D01*
X800073Y170827D01*
X799763Y172493D01*
Y174160D01*
X800073Y175827D01*
X800693Y177285D01*
X801624Y178535D01*
X802708Y179369D01*
X803948Y179577D01*
X805188Y179369D01*
X806273Y178535D01*
X807204Y177285D01*
X807824Y175827D01*
X808133Y174160D01*
Y172493D01*
X807824Y170827D01*
X807204Y169369D01*
X806273Y168118D01*
X805188Y167285D01*
X803948Y167077D01*
G01X812318D02*
Y179577D01*
X816348Y169160D01*
X820379Y179577D01*
Y167077D01*
G01X603998Y135236D02*
Y10236D01*
G01X608183Y16486D02*
Y28986D01*
X615313Y16486D01*
Y28986D01*
G01X624148Y16486D02*
X622908Y16694D01*
X621824Y17528D01*
X620893Y18778D01*
X620273Y20236D01*
X619963Y21903D01*
Y23570D01*
X620273Y25236D01*
X620893Y26694D01*
X621824Y27944D01*
X622908Y28778D01*
X624148Y28986D01*
X625388Y28778D01*
X626473Y27944D01*
X627404Y26694D01*
X628024Y25236D01*
X628333Y23570D01*
Y21903D01*
X628024Y20236D01*
X627404Y18778D01*
X626473Y17528D01*
X625388Y16694D01*
X624148Y16486D01*
G01X632983D02*
Y28986D01*
X640113Y16486D01*
Y28986D01*
G01X646933Y20653D02*
X650963D01*
G01X658248Y16486D02*
Y28986D01*
X661969D01*
X663208Y28361D01*
X664139Y26903D01*
X664448Y25236D01*
X664139Y23570D01*
X663363Y22319D01*
X661969Y21694D01*
X658248D01*
G01X670648Y28986D02*
Y16486D01*
X676848D01*
G01X682273D02*
X686148Y28986D01*
X690024Y16486D01*
G01X688628Y20861D02*
X683668D01*
G01X698548Y28986D02*
Y16486D01*
G01X694983Y28986D02*
X702113D01*
G01X714048Y16486D02*
X707848D01*
Y28986D01*
X714048D01*
G01X711569Y22945D02*
X707848D01*
G01X719939Y16486D02*
Y28986D01*
X723038D01*
X724278Y28361D01*
X725208Y27528D01*
X725983Y26278D01*
X726604Y24819D01*
X726758Y22736D01*
X726604Y20653D01*
X725983Y19194D01*
X725208Y17944D01*
X724278Y17111D01*
X723038Y16486D01*
X719939D01*
G01X633448Y41486D02*
Y53986D01*
X637169D01*
X638408Y53361D01*
X639339Y51903D01*
X639648Y50236D01*
X639339Y48570D01*
X638563Y47319D01*
X637169Y46694D01*
X633448D01*
G01X645848Y53986D02*
Y41486D01*
X652048D01*
G01X657473D02*
X661348Y53986D01*
X665224Y41486D01*
G01X663828Y45861D02*
X658868D01*
G01X673748Y53986D02*
Y41486D01*
G01X670183Y53986D02*
X677313D01*
G01X689248Y41486D02*
X683048D01*
Y53986D01*
X689248D01*
G01X686769Y47945D02*
X683048D01*
G01X695139Y41486D02*
Y53986D01*
X698238D01*
X699478Y53361D01*
X700408Y52528D01*
X701183Y51278D01*
X701804Y49819D01*
X701958Y47736D01*
X701804Y45653D01*
X701183Y44194D01*
X700408Y42944D01*
X699478Y42111D01*
X698238Y41486D01*
X695139D01*
G01X633448Y66486D02*
Y78986D01*
X637169D01*
X638408Y78361D01*
X639339Y76903D01*
X639648Y75236D01*
X639339Y73570D01*
X638563Y72319D01*
X637169Y71694D01*
X633448D01*
G01X645848Y78986D02*
Y66486D01*
X652048D01*
G01X657473D02*
X661348Y78986D01*
X665224Y66486D01*
G01X663828Y70861D02*
X658868D01*
G01X673748Y78986D02*
Y66486D01*
G01X670183Y78986D02*
X677313D01*
G01X689248Y66486D02*
X683048D01*
Y78986D01*
X689248D01*
G01X686769Y72945D02*
X683048D01*
G01X695139Y66486D02*
Y78986D01*
X698238D01*
X699478Y78361D01*
X700408Y77528D01*
X701183Y76278D01*
X701804Y74819D01*
X701958Y72736D01*
X701804Y70653D01*
X701183Y69194D01*
X700408Y67944D01*
X699478Y67111D01*
X698238Y66486D01*
X695139D01*
G01X633448Y91486D02*
Y103986D01*
X637169D01*
X638408Y103361D01*
X639339Y101903D01*
X639648Y100236D01*
X639339Y98570D01*
X638563Y97319D01*
X637169Y96694D01*
X633448D01*
G01X645848Y103986D02*
Y91486D01*
X652048D01*
G01X657473D02*
X661348Y103986D01*
X665224Y91486D01*
G01X663828Y95861D02*
X658868D01*
G01X673748Y103986D02*
Y91486D01*
G01X670183Y103986D02*
X677313D01*
G01X689248Y91486D02*
X683048D01*
Y103986D01*
X689248D01*
G01X686769Y97945D02*
X683048D01*
G01X695139Y91486D02*
Y103986D01*
X698238D01*
X699478Y103361D01*
X700408Y102528D01*
X701183Y101278D01*
X701804Y99819D01*
X701958Y97736D01*
X701804Y95653D01*
X701183Y94194D01*
X700408Y92944D01*
X699478Y92111D01*
X698238Y91486D01*
X695139D01*
G01X633448Y116486D02*
Y128986D01*
X637169D01*
X638408Y128361D01*
X639339Y126903D01*
X639648Y125236D01*
X639339Y123570D01*
X638563Y122319D01*
X637169Y121694D01*
X633448D01*
G01X645848Y128986D02*
Y116486D01*
X652048D01*
G01X657473D02*
X661348Y128986D01*
X665224Y116486D01*
G01X663828Y120861D02*
X658868D01*
G01X673748Y128986D02*
Y116486D01*
G01X670183Y128986D02*
X677313D01*
G01X689248Y116486D02*
X683048D01*
Y128986D01*
X689248D01*
G01X686769Y122945D02*
X683048D01*
G01X695139Y116486D02*
Y128986D01*
X698238D01*
X699478Y128361D01*
X700408Y127528D01*
X701183Y126278D01*
X701804Y124819D01*
X701958Y122736D01*
X701804Y120653D01*
X701183Y119194D01*
X700408Y117944D01*
X699478Y117111D01*
X698238Y116486D01*
X695139D01*
G01X731098Y135236D02*
Y10236D01*
G01X766283Y116486D02*
Y128986D01*
X773413Y116486D01*
Y128986D01*
G01X782248Y116486D02*
X781008Y116694D01*
X779924Y117528D01*
X778993Y118778D01*
X778373Y120236D01*
X778063Y121903D01*
Y123570D01*
X778373Y125236D01*
X778993Y126694D01*
X779924Y127944D01*
X781008Y128778D01*
X782248Y128986D01*
X783488Y128778D01*
X784573Y127944D01*
X785504Y126694D01*
X786124Y125236D01*
X786433Y123570D01*
Y121903D01*
X786124Y120236D01*
X785504Y118778D01*
X784573Y117528D01*
X783488Y116694D01*
X782248Y116486D01*
G01X791083D02*
Y128986D01*
X798213Y116486D01*
Y128986D01*
G01X803793Y118152D02*
X805033Y117111D01*
X806428Y116486D01*
X807669D01*
X808908Y117111D01*
X809839Y118152D01*
X810304Y119611D01*
X809994Y121069D01*
X809219Y122319D01*
X807823Y123153D01*
X805963Y123570D01*
X804878Y124403D01*
X804413Y125861D01*
X804724Y127320D01*
X805498Y128361D01*
X806583Y128986D01*
X807669D01*
X808754Y128570D01*
X809683Y127528D01*
G01X819448Y128986D02*
Y116486D01*
G01X815883Y128986D02*
X823013D01*
G01X827973Y116486D02*
X831848Y128986D01*
X835724Y116486D01*
G01X834328Y120861D02*
X829368D01*
G01X840683Y116486D02*
Y128986D01*
X847813Y116486D01*
Y128986D01*
G01X853239Y116486D02*
Y128986D01*
X856338D01*
X857578Y128361D01*
X858508Y127528D01*
X859283Y126278D01*
X859904Y124819D01*
X860058Y122736D01*
X859904Y120653D01*
X859283Y119194D01*
X858508Y117944D01*
X857578Y117111D01*
X856338Y116486D01*
X853239D01*
G01X865173D02*
X869048Y128986D01*
X872924Y116486D01*
G01X871528Y120861D02*
X866568D01*
G01X878348Y116486D02*
Y128986D01*
X882223D01*
X883463Y128361D01*
X884239Y127528D01*
X884548Y125861D01*
X884239Y124194D01*
X883308Y123153D01*
X882223Y122528D01*
X878348D01*
G01X882223D02*
X884548Y116486D01*
G01X890439D02*
Y128986D01*
X893538D01*
X894778Y128361D01*
X895708Y127528D01*
X896483Y126278D01*
X897104Y124819D01*
X897258Y122736D01*
X897104Y120653D01*
X896483Y119194D01*
X895708Y117944D01*
X894778Y117111D01*
X893538Y116486D01*
X890439D01*
G01X779048Y3986D02*
Y-8514D01*
G01X775483Y3986D02*
X782613D01*
G01X791448Y-8514D02*
X790208Y-8306D01*
X789124Y-7472D01*
X788193Y-6222D01*
X787573Y-4764D01*
X787263Y-3097D01*
Y-1430D01*
X787573Y236D01*
X788193Y1694D01*
X789124Y2944D01*
X790208Y3778D01*
X791448Y3986D01*
X792688Y3778D01*
X793773Y2944D01*
X794704Y1694D01*
X795324Y236D01*
X795633Y-1430D01*
Y-3097D01*
X795324Y-4764D01*
X794704Y-6222D01*
X793773Y-7472D01*
X792688Y-8306D01*
X791448Y-8514D01*
G01X803848Y3986D02*
Y-8514D01*
G01X800283Y3986D02*
X807413D01*
G01X812373Y-8514D02*
X816248Y3986D01*
X820124Y-8514D01*
G01X818728Y-4139D02*
X813768D01*
G01X825548Y3986D02*
Y-8514D01*
X831748D01*
G01X850193D02*
Y3986D01*
G01X856704D02*
Y-8514D01*
G01Y-2264D02*
X850193D01*
G01X865848Y-8514D02*
X864608Y-8306D01*
X863524Y-7472D01*
X862593Y-6222D01*
X861973Y-4764D01*
X861663Y-3097D01*
Y-1430D01*
X861973Y236D01*
X862593Y1694D01*
X863524Y2944D01*
X864608Y3778D01*
X865848Y3986D01*
X867088Y3778D01*
X868173Y2944D01*
X869104Y1694D01*
X869724Y236D01*
X870033Y-1430D01*
Y-3097D01*
X869724Y-4764D01*
X869104Y-6222D01*
X868173Y-7472D01*
X867088Y-8306D01*
X865848Y-8514D01*
G01X875148Y3986D02*
Y-8514D01*
X881348D01*
G01X893748D02*
X887548D01*
Y3986D01*
X893748D01*
G01X891269Y-2055D02*
X887548D01*
G01X899793Y-6848D02*
X901033Y-7889D01*
X902428Y-8514D01*
X903669D01*
X904908Y-7889D01*
X905839Y-6848D01*
X906304Y-5389D01*
X905994Y-3931D01*
X905219Y-2681D01*
X903823Y-1847D01*
X901963Y-1430D01*
X900878Y-597D01*
X900413Y861D01*
X900724Y2320D01*
X901498Y3361D01*
X902583Y3986D01*
X903669D01*
X904754Y3570D01*
X905683Y2528D01*
G01X915448Y-8930D02*
X915138Y-8722D01*
Y-8306D01*
X915448Y-8097D01*
X915759Y-8306D01*
Y-8722D01*
X915448Y-8930D01*
G01Y-3306D02*
X915138Y-3097D01*
Y-2681D01*
X915448Y-2472D01*
X915759Y-2681D01*
Y-3097D01*
X915448Y-3306D01*
G01X816193Y68152D02*
X817433Y67111D01*
X818828Y66486D01*
X820069D01*
X821308Y67111D01*
X822239Y68152D01*
X822704Y69611D01*
X822394Y71069D01*
X821619Y72319D01*
X820223Y73153D01*
X818363Y73570D01*
X817278Y74403D01*
X816813Y75861D01*
X817124Y77320D01*
X817898Y78361D01*
X818983Y78986D01*
X820069D01*
X821154Y78570D01*
X822083Y77528D01*
G01X831848Y66486D02*
X830608Y66694D01*
X829524Y67528D01*
X828593Y68778D01*
X827973Y70236D01*
X827663Y71903D01*
Y73570D01*
X827973Y75236D01*
X828593Y76694D01*
X829524Y77944D01*
X830608Y78778D01*
X831848Y78986D01*
X833088Y78778D01*
X834173Y77944D01*
X835104Y76694D01*
X835724Y75236D01*
X836033Y73570D01*
Y71903D01*
X835724Y70236D01*
X835104Y68778D01*
X834173Y67528D01*
X833088Y66694D01*
X831848Y66486D01*
G01X833088Y69820D02*
X834948Y66486D01*
G01X842233Y70653D02*
X846263D01*
G01X829833Y20653D02*
X833863D01*
G01X829833Y45653D02*
X833863D01*
G01X829833Y95653D02*
X833863D01*
G01X932598Y135236D02*
Y10236D01*
G01X956003Y1903D02*
X956933Y3153D01*
X958019Y3778D01*
X959259Y3986D01*
X960808Y3570D01*
X961894Y2528D01*
X962204Y1278D01*
X962048Y28D01*
X961428Y-1014D01*
X958328Y-3097D01*
X956933Y-4556D01*
X956003Y-6639D01*
X955693Y-8514D01*
X962204D01*
G01X968713Y-7056D02*
X969798Y-8097D01*
X971038Y-8514D01*
X972278Y-8097D01*
X973363Y-6848D01*
X974139Y-4972D01*
X974448Y-3097D01*
Y-806D01*
X974139Y1069D01*
X973363Y2736D01*
X972433Y3570D01*
X971348Y3986D01*
X970108Y3570D01*
X969178Y2736D01*
X968558Y1486D01*
X968248Y-181D01*
X968558Y-1639D01*
X969333Y-3097D01*
X970263Y-3931D01*
X971348Y-4139D01*
X972588Y-3722D01*
X973519Y-2681D01*
X974448Y-806D01*
G01X980803Y-3306D02*
X981889Y-1847D01*
X982819Y-1014D01*
X984059Y-597D01*
X985144Y-1014D01*
X985919Y-1847D01*
X986539Y-3097D01*
X986694Y-4556D01*
X986539Y-5806D01*
X985919Y-7056D01*
X984988Y-8097D01*
X983904Y-8514D01*
X982663Y-8097D01*
X981578Y-6848D01*
X980958Y-4972D01*
X980803Y-2889D01*
X981113Y-181D01*
X981578Y1278D01*
X982353Y2736D01*
X983438Y3778D01*
X984523Y3986D01*
X985608Y3570D01*
X986383Y2528D01*
G01X956003Y101903D02*
X956933Y103153D01*
X958019Y103778D01*
X959259Y103986D01*
X960808Y103570D01*
X961894Y102528D01*
X962204Y101278D01*
X962048Y100028D01*
X961428Y98986D01*
X958328Y96903D01*
X956933Y95444D01*
X956003Y93361D01*
X955693Y91486D01*
X962204D01*
G01X968403Y96694D02*
X969489Y98153D01*
X970419Y98986D01*
X971659Y99403D01*
X972744Y98986D01*
X973519Y98153D01*
X974139Y96903D01*
X974294Y95444D01*
X974139Y94194D01*
X973519Y92944D01*
X972588Y91903D01*
X971504Y91486D01*
X970263Y91903D01*
X969178Y93152D01*
X968558Y95028D01*
X968403Y97111D01*
X968713Y99819D01*
X969178Y101278D01*
X969953Y102736D01*
X971038Y103778D01*
X972123Y103986D01*
X973208Y103570D01*
X973983Y102528D01*
G01X983438Y91486D02*
X983748Y94194D01*
X984213Y96486D01*
X984833Y98570D01*
X985608Y100861D01*
X986848Y103986D01*
X980648D01*
G01X958948Y116486D02*
X957708Y116694D01*
X956624Y117528D01*
X955693Y118778D01*
X955073Y120236D01*
X954763Y121903D01*
Y123570D01*
X955073Y125236D01*
X955693Y126694D01*
X956624Y127944D01*
X957708Y128778D01*
X958948Y128986D01*
X960188Y128778D01*
X961273Y127944D01*
X962204Y126694D01*
X962824Y125236D01*
X963133Y123570D01*
Y121903D01*
X962824Y120236D01*
X962204Y118778D01*
X961273Y117528D01*
X960188Y116694D01*
X958948Y116486D01*
G01X960188Y119820D02*
X962048Y116486D01*
G01X971348Y128986D02*
Y116486D01*
G01X967783Y128986D02*
X974913D01*
G01X983748Y116486D02*
Y122111D01*
X980648Y128986D01*
G01X986848D02*
X983748Y122111D01*
G01X962203Y51903D02*
X963133Y53153D01*
X964219Y53778D01*
X965459Y53986D01*
X967008Y53570D01*
X968094Y52528D01*
X968404Y51278D01*
X968248Y50028D01*
X967628Y48986D01*
X964528Y46903D01*
X963133Y45444D01*
X962203Y43361D01*
X961893Y41486D01*
X968404D01*
G01X979408D02*
Y53986D01*
X973673Y45028D01*
X981424D01*
G01X971348Y16486D02*
Y28986D01*
X969489Y26486D01*
G01Y16486D02*
X973208D01*
G01Y66486D02*
Y78986D01*
X967473Y70028D01*
X975224D01*
G01X1042539Y7125D02*
Y19648D01*
X1102539D01*
Y7125D01*
X1042539D01*
G01Y21563D02*
Y180933D01*
X1102539D01*
Y21563D01*
X1042539D01*
G01Y182848D02*
Y195370D01*
X1102539D01*
Y182848D01*
X1042539D01*
M02*
