G04 ================== begin FILE IDENTIFICATION RECORD ==================*
G04 Layout Name:  F:/3-MyLaptopDIR/4CH-OEInterface_x86/PCB/4CH-OEI-A2.brd*
G04 Film Name:    GND-2*
G04 File Format:  Gerber RS274X*
G04 File Origin:  Cadence Allegro 22.1-P001*
G04 Origin Date:  Tue Jun 10 16:08:44 2025*
G04 *
G04 Layer:  VIA CLASS/GND-2*
G04 Layer:  PIN/GND-2*
G04 Layer:  ETCH/GND-2*
G04 *
G04 Offset:    (0.0000 0.0000)*
G04 Mirror:    No*
G04 Mode:      Positive*
G04 Rotation:  0*
G04 FullContactRelief:  No*
G04 UndefLineWidth:     0.0254*
G04 ================== end FILE IDENTIFICATION RECORD ====================*
%FSLAX25Y25*MOIN*%
%IR0*IPPOS*OFA0.00000B0.00000*MIA0B0*SFA1.00000B1.00000*%
%ADD10C,.015748*%
%AMMACRO11*
4,1,40,.029528,-.006563,
.029528,.006563,
.029328,.008842,
.028736,.011051,
.02777,.013124,
.026458,.014998,
.02484,.016615,
.022967,.017927,
.020894,.018894,
.018684,.019486,
.016406,.019685,
-.016406,.019685,
-.018684,.019486,
-.020894,.018894,
-.022967,.017927,
-.02484,.016615,
-.026458,.014998,
-.02777,.013124,
-.028736,.011051,
-.029328,.008842,
-.029528,.006563,
-.029528,-.006563,
-.029328,-.008842,
-.028736,-.011051,
-.02777,-.013124,
-.026458,-.014998,
-.02484,-.016615,
-.022967,-.017927,
-.020894,-.018894,
-.018684,-.019486,
-.016406,-.019685,
.016406,-.019685,
.018684,-.019486,
.020894,-.018894,
.022967,-.017927,
.02484,-.016615,
.026458,-.014998,
.02777,-.013124,
.028736,-.011051,
.029328,-.008842,
.029528,-.006563,
0.0*
%
%ADD11MACRO11*%
%ADD13C,.047244*%
%ADD12C,.122047*%
%ADD14C,.005*%
%ADD17C,.078756*%
%ADD16C,.04726*%
%ADD15C,.153559*%
G75*
%LPD*%
G75*
G36*
G01X200788Y18898D02*
Y33465D01*
X200000Y34253D01*
X160630D01*
X158661Y32284D01*
X157204D01*
G02X156840Y32848I0J400D01*
G03X157048Y33818I-2155J970D01*
G01Y33819D01*
G03X152322I-2363J0D01*
G01Y33818D01*
G03X152530Y32848I2363J0D01*
G02X152166Y32284I-365J-164D01*
G01X137795D01*
X136220Y30709D01*
Y29107D01*
X136066Y29070D01*
G03X134251Y26772I548J-2298D01*
G03X135654Y24613I2363J0D01*
G02X135774Y23964I-163J-365D01*
G01X134252Y22442D01*
X128741D01*
G03X124015I-2363J-3151D01*
G01X121653D01*
Y5511D01*
X176371D01*
G02X176771Y5112I0J-400D01*
G03X177899Y3103I2363J6D01*
G02X177690Y2362I-209J-341D01*
G01X2362D01*
Y132283D01*
X274016D01*
Y2362D01*
X180578D01*
G02X180369Y3103I0J400D01*
G03X181497Y5112I-1235J2015D01*
G02X181897Y5511I400J-1D01*
G01X218111D01*
Y17717D01*
X216930Y18898D01*
X216543D01*
G02X216143Y19297I0J400D01*
G03X211417I-2363J-6D01*
G02X211017Y18898I-400J1D01*
G01X200788D01*
G37*
%LPC*%
G75*
G36*
G01X25564Y117961D02*
X28845D01*
G02X30658Y116148I0J-1813D01*
G01Y114836D01*
G02X28845Y113023I-1813J0D01*
G01X25564D01*
G02X23751Y114836I0J1813D01*
G01Y116148D01*
G02X25564Y117961I1813J0D01*
G37*
G36*
G01X9029D02*
X12310D01*
G02X14123Y116148I0J-1813D01*
G01Y114836D01*
G02X12310Y113023I-1813J0D01*
G01X9029D01*
G02X7216Y114836I0J1813D01*
G01Y116148D01*
G02X9029Y117961I1813J0D01*
G37*
G36*
G01X25564Y83906D02*
X28845D01*
G02X30658Y82093I0J-1813D01*
G01Y80781D01*
G02X28845Y78968I-1813J0D01*
G01X25564D01*
G02X23751Y80781I0J1813D01*
G01Y82093D01*
G02X25564Y83906I1813J0D01*
G37*
G36*
G01X9029D02*
X12310D01*
G02X14123Y82093I0J-1813D01*
G01Y80781D01*
G02X12310Y78968I-1813J0D01*
G01X9029D01*
G02X7216Y80781I0J1813D01*
G01Y82093D01*
G02X9029Y83906I1813J0D01*
G37*
G36*
G01X27278Y16986D02*
G02X26819Y16941I-458J2318D01*
G02X24457Y19266I0J2363D01*
G02X23515Y21154I1421J1888D01*
G02X25878Y23517I2363J0D01*
G02X28241Y21192I0J-2363D01*
G02X28534Y20930I-1421J-1888D01*
G03X29097Y20913I290J275D01*
G02X30709Y21548I1612J-1728D01*
G02X32283Y20947I0J-2363D01*
G02X33858Y21548I1575J-1762D01*
G02X35492Y20893I0J-2363D01*
G03X35768I138J145D01*
G02X37402Y21548I1633J-1707D01*
G02X38976Y20947I0J-2363D01*
G02X40551Y21548I1575J-1762D01*
G02Y16822I0J-2363D01*
G02X38976Y17423I0J2363D01*
G02X38716Y17221I-1575J1761D01*
G02X38977Y16142I-2102J-1080D01*
G02X34251I-2363J0D01*
G02X34263Y16381I2363J0D01*
G03X33865Y16822I-398J41D01*
G01X33858D01*
G02X32953Y17002I0J2363D01*
G03X32406Y16562I-153J-370D01*
G02X32444Y16142I-2325J-421D01*
G02X27718I-2363J0D01*
G02X27750Y16528I2363J0D01*
G03X27278Y16986I-395J65D01*
G37*
G36*
G01X111513Y27835D02*
G03X111114Y28347I-384J113D01*
G02X111024Y28346I-86J2361D01*
G02X113387Y30709I0J2363D01*
G02X113290Y30039I-2363J0D01*
G03X113689Y29527I384J-113D01*
G02X113780Y29528I86J-2361D01*
G02X111417Y27165I0J-2363D01*
G02X111513Y27835I2363J0D01*
G37*
G36*
G01X74388Y37234D02*
G03X73761Y37120I-270J-295D01*
G02X71654Y35826I-2107J1069D01*
G02Y40552I0J2363D01*
G02X73250Y39931I0J-2363D01*
G03X73877Y40045I270J295D01*
G02X75984Y41339I2107J-1069D01*
G02Y36613I0J-2363D01*
G02X74388Y37234I0J2363D01*
G37*
G36*
G01X51213Y43700D02*
G02X51181Y43700I-45J2362D01*
G02X49287Y44650I0J2363D01*
G02X48425Y44487I-861J2200D01*
G02Y49213I0J2363D01*
G02X50319Y48263I0J-2363D01*
G02X51181Y48426I861J-2200D01*
G02X53511Y46457I0J-2363D01*
G02X53543Y46457I45J-2362D01*
G02X55701Y45058I0J-2363D01*
G02X56693Y45276I992J-2144D01*
G02X58633Y44262I0J-2363D01*
G02X59843Y44595I1210J-2030D01*
G02Y39869I0J-2363D01*
G02X57902Y40883I0J2363D01*
G02X56693Y40550I-1210J2030D01*
G02X54535Y41950I0J2363D01*
G02X53543Y41731I-992J2144D01*
G02X51213Y43700I0J2363D01*
G37*
G36*
G01X118001Y58006D02*
G03X118543Y58305I148J372D01*
G02X120866Y60237I2324J-431D01*
G02Y55511I0J-2363D01*
G02X119991Y55679I0J2363D01*
G03X119450Y55380I-148J-372D01*
G02X117126Y53448I-2324J431D01*
G02Y58174I0J2363D01*
G02X118001Y58006I0J-2363D01*
G37*
G36*
G01X59264Y62408D02*
G02X57086Y64764I185J2356D01*
G02X57596Y66230I2363J0D01*
G02X56969Y67833I1735J1603D01*
G02X61695I2363J0D01*
G02X61185Y66367I-2363J0D01*
G02X61812Y64764I-1735J-1603D01*
G01Y64760D01*
G03X61996Y64561I200J0D01*
G02X64174Y62205I-185J-2356D01*
G02X59448I-2363J0D01*
G01Y62208D01*
G03X59264Y62408I-200J0D01*
G37*
G36*
G01X61702Y75707D02*
G02X62206Y74250I-1860J-1458D01*
G02X57480I-2363J0D01*
G02X57983Y75707I2363J0D01*
G02X57480Y77165I1860J1458D01*
G02X62206I2363J0D01*
G02X61702Y75707I-2363J0D01*
G37*
G36*
G01X112097Y95176D02*
G03X112610Y95519I115J383D01*
G02X114961Y97639I2350J-243D01*
G02Y92913I0J-2363D01*
G02X114281Y93013I0J2363D01*
G03X113768Y92670I-115J-383D01*
G02X111417Y90550I-2350J243D01*
G02Y95276I0J2363D01*
G02X112097Y95176I0J-2363D01*
G37*
G36*
G01X36635Y122844D02*
G03X36693Y123385I-263J301D01*
G02X36220Y124803I1890J1418D01*
G02X40946I2363J0D01*
G02X40136Y123022I-2363J0D01*
G03X40079Y122481I263J-301D01*
G02X40552Y121063I-1890J-1418D01*
G02X35826I-2363J0D01*
G02X36635Y122844I2363J0D01*
G37*
G36*
G01X124015Y128347D02*
G02X128741I2363J-3151D01*
G01X210946D01*
G02X212992Y129528I2046J-1182D01*
G02Y124802I0J-2363D01*
G02X212325Y124898I0J2363D01*
G03X211812Y124515I-113J-384D01*
G01Y115354D01*
X201182D01*
Y109448D01*
X194882D01*
X192914Y107480D01*
X185040D01*
Y99999D01*
X138976D01*
Y109842D01*
X121653D01*
Y128347D01*
X124015D01*
G37*
G36*
G01X21220Y41056D02*
G02X22835Y41694I1614J-1726D01*
G02X25017Y40238I0J-2363D01*
G03X25757Y40244I369J154D01*
G02X27953Y41733I2195J-874D01*
G02Y37007I0J-2363D01*
G02X25771Y38463I0J2363D01*
G03X25030Y38457I-369J-154D01*
G02X22835Y36968I-2195J874D01*
G02X21182Y37641I0J2363D01*
G03X20906Y37644I-140J-143D01*
G02X19291Y37007I-1614J1726D01*
G02Y41733I0J2363D01*
G02X20944Y41059I0J-2363D01*
G03X21220Y41056I140J143D01*
G37*
G36*
G01X151181Y63780D02*
X152361Y64961D01*
X152374Y65019D01*
G02X154685Y66891I2311J-491D01*
G02X156708Y65749I0J-2363D01*
G01X200001D01*
Y50394D01*
X213791D01*
X213806Y50579D01*
G02X215930Y52745I2356J-185D01*
G03X216170Y53429I-39J398D01*
G02X215460Y55118I1653J1689D01*
G02X220186I2363J0D01*
G02X218055Y52767I-2363J0D01*
G03X217814Y52083I39J-398D01*
G02X218524Y50394I-1653J-1689D01*
G02X216161Y48031I-2363J0D01*
G02X214804Y48459I0J2363D01*
G03X214174Y48132I-230J-327D01*
G01Y37401D01*
X181863D01*
X181826Y37247D01*
G02X177229I-2298J548D01*
G01X177193Y37401D01*
X133465D01*
X131497Y35433D01*
Y32283D01*
X122912D01*
G02X120866Y31102I-2046J1182D01*
G02Y35828I0J2363D01*
G02X121197Y35804I0J-2363D01*
G03X121653Y36200I56J396D01*
G01Y50394D01*
X134252D01*
X136220Y52363D01*
Y62205D01*
X137795Y63780D01*
X151181D01*
G37*
G36*
G01X120528Y74364D02*
G02X119291Y74015I-1236J2014D01*
G02X121654Y76378I0J2363D01*
G02X121648Y76203I-2363J-2D01*
G03X122256Y75833I399J-29D01*
G02X123492Y76182I1236J-2014D01*
G02X125797Y74340I0J-2363D01*
G03X126022Y74187I195J44D01*
G02X126378Y74213I355J-2336D01*
G02X128680Y72386I0J-2363D01*
G03X128894Y72233I195J45D01*
G02X129134Y72245I240J-2351D01*
G02X131429Y70444I0J-2363D01*
G03X131942Y70159I389J95D01*
G02X132677Y70276I735J-2246D01*
G02Y65550I0J-2363D01*
G02X131942Y65668I0J2363D01*
G03X131429Y65383I-124J-380D01*
G02X129134Y63582I-2295J562D01*
G02X129102Y63582I13J2363D01*
G02X126772Y61613I-2330J394D01*
G02X126739Y61614I13J2363D01*
G02X124409Y59645I-2330J394D01*
G02Y64371I0J2363D01*
G02X124442Y64370I-13J-2363D01*
G02X126772Y66339I2330J-394D01*
G02X126804Y66339I-13J-2363D01*
G02X127476Y67628I2330J-394D01*
G03Y68198I-281J285D01*
G02X126832Y69346I1658J1684D01*
G03X126617Y69500I-195J-45D01*
G02X126378Y69487I-240J2351D01*
G02X124073Y71329I0J2363D01*
G03X123848Y71483I-195J-44D01*
G02X123492Y71456I-355J2336D01*
G02X121129Y73819I0J2363D01*
G02X121135Y73994I2363J2D01*
G03X120528Y74364I-399J29D01*
G37*
G36*
G01X47047Y76033D02*
G02X46062Y77953I1378J1919D01*
G02X50788I2363J0D01*
G02X49467Y75832I-2363J0D01*
G03X49410Y75148I176J-359D01*
G02X50394Y73228I-1378J-1919D01*
G02X45669I-2363J0D01*
G02X46990Y75349I2363J0D01*
G03X47047Y76033I-176J359D01*
G37*
G36*
G01X121653Y101969D02*
X124662D01*
G02X126378Y102363I1716J-3544D01*
G02X128094Y101969I0J-3938D01*
G01X131103D01*
X136221Y96851D01*
X174015D01*
X174803Y97639D01*
X200001D01*
Y89343D01*
X200154Y89306D01*
G02Y84709I-548J-2298D01*
G01X200001Y84673D01*
Y74409D01*
X193965D01*
G03X193756Y73668I0J-400D01*
G02X194883Y71654I-1236J-2014D01*
G02X190157I-2363J0D01*
G02X191284Y73668I2363J0D01*
G03X191075Y74409I-209J341D01*
G01X185827D01*
X185040Y73622D01*
Y68503D01*
X137401D01*
Y84673D01*
X137247Y84709D01*
G02X136489Y85039I548J2299D01*
G01X121653D01*
Y101969D01*
G37*
G54D17*
X260630Y10630D03*
X254331Y16929D03*
X266929D03*
X260630Y23228D03*
Y42913D03*
X254331Y49213D03*
X266929D03*
X260630Y55512D03*
Y74016D03*
X254331Y80315D03*
X266929D03*
X260630Y86614D03*
Y107087D03*
X254331Y113386D03*
X266929D03*
X260630Y119685D03*
G54D16*
X229134Y6693D03*
X224016Y10236D03*
X232677Y12041D03*
X247638Y14567D03*
X104331Y23228D03*
X218504Y25984D03*
X226283Y27465D03*
X239669D03*
X217823Y31102D03*
X82677Y31890D03*
X91732Y37008D03*
X97638Y36614D03*
X227953Y37102D03*
X117126Y41732D03*
X224016Y44094D03*
X232677Y44324D03*
X247638Y46457D03*
X131496Y55118D03*
X106693Y57480D03*
X243600Y57774D03*
X69291Y59843D03*
X86417Y58768D03*
X226283Y59354D03*
X132283Y61024D03*
X237795Y62598D03*
X88476Y66732D03*
X217717Y72835D03*
X88476Y76575D03*
X224016Y75591D03*
X232272Y75820D03*
X217823Y78346D03*
X247244D03*
X58768Y82480D03*
X25917Y89016D03*
X74606Y88476D03*
X226283Y90551D03*
X239669D03*
X92126Y92126D03*
X58858Y95276D03*
X86417D03*
X211917Y95630D03*
X231890Y98031D03*
X192520Y101575D03*
X218110Y102756D03*
X104724Y104331D03*
X111417Y104724D03*
X224409Y107874D03*
X25917Y107913D03*
X232283Y108104D03*
X77559Y110236D03*
X103937D03*
X218504D03*
X248031Y110630D03*
X42913Y115051D03*
X56693Y117323D03*
X226283Y122551D03*
X239669Y122835D03*
X52362Y128740D03*
X217790Y61126D03*
G54D15*
X53937Y11811D03*
%LPD*%
G75*
G54D10*
G01X148031Y20653D02*
Y15748D01*
X144882Y12598D01*
X129685D01*
X126378Y9291D01*
G01X148425Y47638D02*
X144488Y43701D01*
X134409D01*
X126378Y35669D01*
G01X142298Y91006D02*
X128959D01*
X126378Y88425D01*
G01X157480Y121850D02*
X133031D01*
X126378Y115197D01*
G01X148031Y20653D02*
X141158D01*
X137795Y24016D01*
G01X148425Y52362D02*
X140551D01*
X137795Y55118D01*
G01X137815Y70453D02*
Y62581D01*
X137795Y62561D01*
Y61024D01*
G01Y29921D02*
X145276D01*
X148031Y27165D01*
Y20653D01*
G01X148425Y58661D02*
X146063Y61024D01*
X137795D01*
G01X142298Y91006D02*
X143307Y89997D01*
Y82283D01*
X140945Y79921D01*
X137795D01*
G01X157399Y90748D02*
X155324D01*
X153946Y92126D01*
X143418D01*
X142298Y91006D01*
G01X148031Y20653D02*
X152696D01*
X152756Y20713D01*
G01X148425Y47638D02*
Y52362D01*
G01X157193Y43504D02*
X152559D01*
X148425Y47638D01*
G01Y52362D02*
Y58661D01*
G01X170079Y52362D02*
X148425D01*
G01Y58661D02*
X148622Y58858D01*
X159055D01*
G01X162992Y20713D02*
X152756D01*
G01D02*
X157193Y16276D01*
Y12008D01*
G01X165748Y90650D02*
X165650Y90748D01*
X157399D01*
G01X157480Y121850D02*
X166732D01*
G01X162992Y20713D02*
Y24106D01*
X159736Y27362D01*
G01X165551Y85236D02*
X159736Y79421D01*
Y74606D01*
G01X166732Y115748D02*
X166626D01*
X159449Y108571D01*
Y106496D01*
G01X170866Y20713D02*
X162992D01*
G01X165551Y85236D02*
X168110Y82677D01*
X180315D01*
G01X165748Y90650D02*
Y85433D01*
X165551Y85236D01*
G01X178740Y94094D02*
X168898D01*
X165748Y90945D01*
Y90650D01*
G01X178740Y125630D02*
X170512D01*
X166732Y121850D01*
G01X170866Y20713D02*
X168898Y18745D01*
Y6693D01*
G01X166732Y121850D02*
Y115748D01*
G01D02*
X168898D01*
X171654Y112992D01*
X180709D01*
X182677Y114961D01*
G01X175531Y19626D02*
X174064Y21093D01*
X171246D01*
X170866Y20713D01*
G01X170079Y52362D02*
X173169D01*
X175531Y50000D01*
G01X183858Y63780D02*
X176378D01*
X170079Y57480D01*
Y52362D01*
G01X175531Y19626D02*
X183071D01*
G01X191324Y19685D02*
Y14553D01*
X188386Y11614D01*
X180209D01*
G01X180315Y82677D02*
X184646D01*
X188583Y86614D01*
G01X180315Y82677D02*
X182283Y84646D01*
G01X183071Y19626D02*
Y23228D01*
X192126Y32283D01*
X199606D01*
G01X190945Y117717D02*
X185433D01*
X182677Y114961D01*
G01X187345Y19685D02*
X185807D01*
X185748Y19626D01*
X183071D01*
G01X183858Y63780D02*
X188583Y59055D01*
Y56693D01*
G01X200000Y63780D02*
X183858D01*
G01X191324Y19685D02*
X187345D01*
G01X188583Y51181D02*
Y56693D01*
G01D02*
X194882D01*
X196457Y55118D01*
Y50787D01*
G01X188583Y86614D02*
X196063Y79134D01*
X196457D01*
G01X193307Y91339D02*
X188583Y86614D01*
G01X191324Y19685D02*
Y22047D01*
X192899Y23622D01*
X201075D01*
G01X190945Y117717D02*
Y120276D01*
X192520Y121850D01*
X198531D01*
G01X196063Y111024D02*
Y112598D01*
X190945Y117717D01*
G01X196063Y18898D02*
X194525D01*
X193738Y19685D01*
X191324D01*
G01X193307Y91339D02*
X193898Y90748D01*
X198531D01*
G01X200287Y95669D02*
X194882D01*
X193307Y94094D01*
Y91339D01*
G01X196457Y50787D02*
Y48425D01*
X197244Y47638D01*
X201575D01*
X203150Y46063D01*
Y45258D01*
X203169Y45239D01*
Y43701D01*
G01X201075Y70866D02*
X199213D01*
X196457Y73622D01*
G01D02*
Y79134D01*
G01X199606D02*
X196457D01*
G01X196063Y111024D02*
Y104724D01*
G01D02*
X198031Y102756D01*
X200787D01*
G01X196063Y111024D02*
X199606D01*
G01X198531Y121850D02*
X206890D01*
X210630Y118110D01*
G01X199606Y127165D02*
Y124463D01*
X198531Y123388D01*
Y121850D01*
G01X201075Y23622D02*
X203150Y21547D01*
G01X207087Y11417D02*
X205494D01*
X204707Y12205D01*
X203169D01*
G01X203150Y21547D02*
Y14299D01*
X203169Y14280D01*
Y12205D01*
G01Y43701D02*
X204761D01*
X205549Y42913D01*
X207087D01*
G01X216142D02*
X207087D01*
X5618Y5618D03*
Y9449D03*
Y12598D03*
Y25091D03*
X7874Y7480D03*
Y23728D03*
X10130Y5618D03*
Y9449D03*
X19291Y39370D03*
X22835Y39331D03*
X23228Y124016D03*
X25878Y21154D03*
X25917Y89016D03*
Y107913D03*
X26819Y19304D03*
X27953Y39370D03*
X30081Y16142D03*
X30709Y19185D03*
X31496Y34646D03*
X33071Y7087D03*
X33858Y19185D03*
X33504Y66929D03*
X35039Y5618D03*
X36614Y7480D03*
Y10630D03*
Y16142D03*
Y66929D03*
X38583Y5618D03*
X37402Y19185D03*
X38189Y34646D03*
Y121063D03*
X38583Y124803D03*
X40551Y7087D03*
Y19185D03*
X39764Y66929D03*
X42913Y115051D03*
X43307Y24016D03*
X43701Y85039D03*
Y111024D03*
X48425Y46850D03*
X48031Y73228D03*
X48425Y77953D03*
X51181Y46063D03*
X52362Y128740D03*
X53543Y44094D03*
X56693Y29921D03*
Y42913D03*
X55906Y90551D03*
X56693Y117323D03*
X56890Y121063D03*
X59449Y64764D03*
X59332Y67833D03*
X58768Y70669D03*
Y82480D03*
X58858Y95276D03*
X59843Y42232D03*
X59529Y59529D03*
X59843Y74250D03*
Y77165D03*
X61811Y62205D03*
X62598Y79134D03*
X61917Y101181D03*
X69291Y59843D03*
X71654Y38189D03*
X74606Y58768D03*
Y88476D03*
X75984Y38976D03*
X77559Y110236D03*
X78059Y11811D03*
X78740Y122441D03*
X83465Y11811D03*
X82677Y31890D03*
Y122441D03*
X84449Y88476D03*
X86417Y58768D03*
Y95276D03*
X87008Y122441D03*
X88476Y62795D03*
Y66732D03*
Y76575D03*
Y86417D03*
X91732Y37008D03*
X92126Y92126D03*
X91732Y122441D03*
X96457D03*
X97638Y11811D03*
Y36614D03*
X101575Y122441D03*
X103043Y11811D03*
X104331Y23228D03*
X104724Y104331D03*
X103937Y110236D03*
X106693Y57480D03*
X111024Y30709D03*
X112205Y62598D03*
Y70866D03*
X111417Y92913D03*
Y104724D03*
X113780Y27165D03*
X114173Y66929D03*
X113059Y75425D03*
X114961Y95276D03*
X115748Y62598D03*
X116142Y70866D03*
X117126Y41732D03*
Y55811D03*
X120866Y33465D03*
Y57874D03*
X119291Y76378D03*
X124409Y62008D03*
X123492Y73819D03*
X126772Y63976D03*
X126378Y71850D03*
X129134Y65945D03*
Y69882D03*
X131496Y55118D03*
X132283Y61024D03*
X132677Y67913D03*
X136614Y26772D03*
X137795Y8268D03*
Y15748D03*
Y24016D03*
Y29921D03*
Y39764D03*
Y47244D03*
Y55118D03*
Y61024D03*
X137815Y70453D03*
X137795Y79921D03*
Y87008D03*
Y94488D03*
Y101969D03*
Y111417D03*
Y118110D03*
Y125591D03*
X148031Y83071D03*
Y114567D03*
X154685Y33819D03*
Y64528D03*
X157193Y8268D03*
Y12008D03*
X157480Y39764D03*
X157193Y43504D03*
X158268Y46850D03*
X157480Y87008D03*
X157399Y90748D03*
X157480Y118110D03*
Y121850D03*
X159736Y27362D03*
X159055Y58858D03*
X159736Y74606D03*
X159449Y106496D03*
X168504Y29134D03*
X167717Y60630D03*
X168504Y76378D03*
Y107874D03*
X168898Y6693D03*
X175531Y19626D03*
Y50000D03*
X178346Y23622D03*
X178059Y27362D03*
X178740Y40945D03*
Y55118D03*
X178346Y58858D03*
Y70866D03*
Y74606D03*
X178740Y86614D03*
Y94094D03*
X178346Y102756D03*
X178059Y106496D03*
X178740Y118110D03*
Y125630D03*
X179134Y5118D03*
X180209Y7874D03*
Y11614D03*
Y15354D03*
X179528Y37795D03*
X180209Y47244D03*
Y90748D03*
Y121850D03*
X182283Y84646D03*
X182677Y114961D03*
X187345Y19685D03*
X188583Y51181D03*
X187508Y94488D03*
Y125591D03*
X189370Y79134D03*
X189764Y111024D03*
X192126Y67717D03*
X192520Y71654D03*
Y101575D03*
X196063Y18898D03*
X196457Y50787D03*
X199213Y11614D03*
Y43701D03*
X198531Y90748D03*
Y118110D03*
Y121850D03*
X199606Y7874D03*
X201075Y23622D03*
X199606Y32283D03*
Y39764D03*
X200000Y63780D03*
X201075Y70866D03*
X199606Y79134D03*
Y87008D03*
X200287Y95669D03*
X200787Y102756D03*
X199606Y111024D03*
Y127165D03*
X203169Y12205D03*
Y43701D03*
X207087Y11417D03*
Y42913D03*
X209449Y15354D03*
X209843Y46850D03*
X210236Y86220D03*
X210630Y118110D03*
X213780Y19291D03*
X211917Y95630D03*
X212992Y127165D03*
X217823Y31102D03*
X216142Y42913D03*
X216161Y50394D03*
X217823Y55118D03*
X217790Y61126D03*
X217717Y72835D03*
X217823Y78346D03*
X218504Y25984D03*
X218110Y102756D03*
X218504Y110236D03*
X224016Y10236D03*
X223064Y35697D03*
X224016Y44094D03*
Y75591D03*
X223622Y126752D03*
X225984Y5118D03*
X224409Y107874D03*
X226283Y27465D03*
X227953Y37102D03*
X226283Y59354D03*
Y90551D03*
Y122551D03*
X229134Y6693D03*
X232272Y75820D03*
X231890Y98031D03*
X232283Y108104D03*
X232677Y12041D03*
Y44324D03*
X237795Y62598D03*
X237402Y94094D03*
X239669Y27465D03*
Y90551D03*
Y122835D03*
X243600Y57774D03*
X247638Y14567D03*
Y46457D03*
X247244Y78346D03*
X248031Y110630D03*
X250394Y31496D03*
Y62992D03*
X250787Y94094D03*
X251969Y126772D03*
X268504Y27559D03*
Y59055D03*
Y90157D03*
Y123228D03*
G54D11*
X10669Y81437D03*
Y115492D03*
X27205Y81437D03*
Y115492D03*
G54D12*
X53937Y11811D03*
G54D13*
X126378Y9291D03*
Y19291D03*
Y35669D03*
Y45669D03*
Y88425D03*
Y98425D03*
Y115197D03*
Y125197D03*
X254331Y16929D03*
Y49213D03*
Y80315D03*
Y113386D03*
X260630Y10630D03*
Y23228D03*
Y42913D03*
Y55512D03*
Y74016D03*
Y86614D03*
Y107087D03*
Y119685D03*
X266929Y16929D03*
Y49213D03*
Y80315D03*
Y113386D03*
G54D14*
G01X7016Y81437D02*
X10669D01*
G01X7016Y115492D02*
X10669D01*
G01Y78768D02*
Y81437D01*
G01D02*
X14323D01*
G01X10669D02*
Y84106D01*
G01Y112823D02*
Y115492D01*
G01D02*
X14323D01*
G01X10669D02*
Y118161D01*
G01X23551Y81437D02*
X27205D01*
G01X23551Y115492D02*
X27205D01*
G01Y78768D02*
Y81437D01*
G01D02*
X30858D01*
G01X27205D02*
Y84106D01*
G01Y112823D02*
Y115492D01*
G01D02*
X30858D01*
G01X27205D02*
Y118161D01*
M02*
