G04 ================== begin FILE IDENTIFICATION RECORD ==================*
G04 Layout Name:  F:/3-MyLaptopDIR/4CH-OEInterface_x86/PCB/4CH-OEI-A2.brd*
G04 Film Name:    SILKSCREEN_BOTTOM*
G04 File Format:  Gerber RS274X*
G04 File Origin:  Cadence Allegro 22.1-P001*
G04 Origin Date:  Tue Jun 10 16:08:45 2025*
G04 *
G04 Layer:  REF DES/SILKSCREEN_BOTTOM*
G04 Layer:  PACKAGE GEOMETRY/SILKSCREEN_BOTTOM*
G04 Layer:  BOARD GEOMETRY/SILKSCREEN_BOTTOM*
G04 *
G04 Offset:    (0.0000 0.0000)*
G04 Mirror:    No*
G04 Mode:      Positive*
G04 Rotation:  0*
G04 FullContactRelief:  No*
G04 UndefLineWidth:     0.0254*
G04 ================== end FILE IDENTIFICATION RECORD ====================*
%FSLAX25Y25*MOIN*%
%IR0*IPPOS*OFA0.00000B0.00000*MIA0B0*SFA1.00000B1.00000*%
%ADD10C,.003937*%
%ADD11C,.007874*%
%ADD12C,.001969*%
G75*
%LPD*%
G75*
G36*
G01X8701Y34606D02*
X11850D01*
X8701Y37756D01*
Y34606D01*
G37*
G36*
G01X67638Y108701D02*
X72205D01*
X67638Y113268D01*
Y108701D01*
G37*
G36*
G01X113465Y25551D02*
X108898D01*
X113465Y20984D01*
Y25551D01*
G37*
G54D10*
G01X40341Y25276D02*
Y31575D01*
X38976Y26326D01*
X37611Y31575D01*
Y25276D01*
G01X35276Y31575D02*
X34016D01*
G01X34646D02*
Y25276D01*
G01X35276D02*
X34016D01*
G01X30315D02*
X30735Y25381D01*
X31102Y25800D01*
X31417Y26430D01*
X31627Y27165D01*
X31732Y28005D01*
Y28845D01*
X31627Y29685D01*
X31417Y30420D01*
X31102Y31050D01*
X30735Y31470D01*
X30315Y31575D01*
X29895Y31470D01*
X29528Y31050D01*
X29213Y30420D01*
X29003Y29685D01*
X28898Y28845D01*
Y28005D01*
X29003Y27165D01*
X29213Y26430D01*
X29528Y25800D01*
X29895Y25381D01*
X30315Y25276D01*
G01X26667Y27375D02*
X25302D01*
G01X22651Y30525D02*
X22336Y31155D01*
X21969Y31470D01*
X21548Y31575D01*
X21024Y31365D01*
X20656Y30840D01*
X20551Y30210D01*
X20604Y29580D01*
X20814Y29055D01*
X21863Y28005D01*
X22336Y27270D01*
X22651Y26220D01*
X22756Y25276D01*
X20551D01*
G01X18478Y26535D02*
X18163Y25800D01*
X17743Y25381D01*
X17270Y25276D01*
X16850Y25381D01*
X16430Y25906D01*
X16168Y26535D01*
X16115Y27165D01*
X16220Y27900D01*
X16588Y28425D01*
X16956Y28635D01*
X17428D01*
G01X16956D02*
X16641Y28950D01*
X16378Y29475D01*
X16273Y30105D01*
X16378Y30735D01*
X16641Y31260D01*
X17113Y31575D01*
X17585Y31470D01*
X18058Y31050D01*
G01X13989Y27900D02*
X13622Y28635D01*
X13307Y29055D01*
X12887Y29265D01*
X12520Y29055D01*
X12257Y28635D01*
X12047Y28005D01*
X11995Y27270D01*
X12047Y26640D01*
X12257Y26010D01*
X12572Y25485D01*
X12940Y25276D01*
X13359Y25485D01*
X13727Y26115D01*
X13937Y27060D01*
X13989Y28110D01*
X13885Y29475D01*
X13727Y30210D01*
X13465Y30945D01*
X13097Y31470D01*
X12730Y31575D01*
X12362Y31365D01*
X12100Y30840D01*
G01X8661Y31575D02*
X9081Y31365D01*
X9396Y30840D01*
X9606Y30210D01*
X9764Y29370D01*
X9816Y28425D01*
X9764Y27480D01*
X9606Y26640D01*
X9396Y26010D01*
X9081Y25485D01*
X8661Y25276D01*
X8241Y25485D01*
X7926Y26010D01*
X7717Y26640D01*
X7559Y27480D01*
X7507Y28425D01*
X7559Y29370D01*
X7717Y30210D01*
X7926Y30840D01*
X8241Y31365D01*
X8661Y31575D01*
G01X13425Y34606D02*
X38622D01*
Y75157D01*
X8701D01*
Y34606D01*
X14213D01*
G01X37507Y92835D02*
X37244Y92205D01*
X36929Y91785D01*
X36562Y91575D01*
X36142Y91785D01*
X35827Y92205D01*
X35512Y92835D01*
X35407Y93674D01*
Y97874D01*
G01X33281D02*
Y93359D01*
X33071Y92415D01*
X32651Y91785D01*
X32126Y91575D01*
X31601Y91785D01*
X31181Y92415D01*
X30971Y93359D01*
Y97874D01*
G01X29003Y91575D02*
Y97874D01*
X26588Y91575D01*
Y97874D01*
G01X23465Y91575D02*
Y97874D01*
X24094Y96614D01*
G01Y91575D02*
X22835D01*
G01X19134Y97874D02*
X19554Y97664D01*
X19869Y97139D01*
X20079Y96509D01*
X20236Y95669D01*
X20289Y94724D01*
X20236Y93780D01*
X20079Y92939D01*
X19869Y92309D01*
X19554Y91785D01*
X19134Y91575D01*
X18714Y91785D01*
X18399Y92309D01*
X18189Y92939D01*
X18031Y93780D01*
X17979Y94724D01*
X18031Y95669D01*
X18189Y96509D01*
X18399Y97139D01*
X18714Y97664D01*
X19134Y97874D01*
G01X15800Y96824D02*
X15485Y97454D01*
X15118Y97769D01*
X14698Y97874D01*
X14173Y97664D01*
X13806Y97139D01*
X13701Y96509D01*
X13753Y95879D01*
X13963Y95354D01*
X15013Y94304D01*
X15485Y93570D01*
X15800Y92519D01*
X15906Y91575D01*
X13701D01*
G01X11627Y92519D02*
X11312Y91994D01*
X10945Y91680D01*
X10472Y91575D01*
X10000Y91785D01*
X9633Y92205D01*
X9370Y92939D01*
X9318Y93780D01*
X9422Y94619D01*
X9685Y95144D01*
X10052Y95564D01*
X10420Y95669D01*
X10787Y95564D01*
X11260Y95144D01*
X11102Y97874D01*
X9685D01*
G01X31417Y99764D02*
Y106063D01*
X33359Y101548D01*
X30735D01*
G01X26562Y105538D02*
X26877Y105853D01*
X27244Y106063D01*
X27664D01*
X28137Y105748D01*
X28504Y105223D01*
X28767Y104593D01*
X28976Y103543D01*
X29029Y102598D01*
X28924Y101654D01*
X28767Y101024D01*
X28452Y100394D01*
X28084Y99974D01*
X27717Y99764D01*
X27349D01*
X26981Y99974D01*
X26667Y100289D01*
X26404Y100708D01*
G01X24488Y99764D02*
Y106063D01*
G01X22283D02*
Y99764D01*
G01Y102913D02*
X24488D01*
G01X19055Y99764D02*
X19475Y99869D01*
X19843Y100289D01*
X20157Y100919D01*
X20367Y101654D01*
X20472Y102493D01*
Y103333D01*
X20367Y104173D01*
X20157Y104908D01*
X19843Y105538D01*
X19475Y105958D01*
X19055Y106063D01*
X18635Y105958D01*
X18268Y105538D01*
X17953Y104908D01*
X17743Y104173D01*
X17638Y103333D01*
Y102493D01*
X17743Y101654D01*
X17953Y100919D01*
X18268Y100289D01*
X18635Y99869D01*
X19055Y99764D01*
G01X13674D02*
X15774D01*
Y106063D01*
X13674D01*
G01X14515Y103019D02*
X15774D01*
G01X11024Y106063D02*
X9764D01*
G01X10394D02*
Y99764D01*
G01X11024D02*
X9764D01*
G01X17769Y120630D02*
X16457Y126929D01*
X15144Y120630D01*
G01X15617Y122835D02*
X17296D01*
G01X13123Y125879D02*
X12808Y126509D01*
X12441Y126824D01*
X12021Y126929D01*
X11496Y126719D01*
X11129Y126194D01*
X11024Y125565D01*
X11076Y124934D01*
X11286Y124409D01*
X12336Y123359D01*
X12808Y122625D01*
X13123Y121574D01*
X13228Y120630D01*
X11024D01*
G01X31142Y15787D02*
Y8976D01*
X35827D01*
Y16969D01*
X31142D01*
Y15787D01*
G01X35472Y116732D02*
Y111496D01*
X40079D01*
Y119173D01*
X35472D01*
Y116732D01*
G01X40984Y125000D02*
Y119764D01*
X45591D01*
Y127441D01*
X40984D01*
Y125000D01*
G01X63044Y33780D02*
X61732Y40079D01*
X60420Y33780D01*
G01X60893Y35984D02*
X62572D01*
G01X58556Y33780D02*
Y40079D01*
X57507D01*
X57087Y39764D01*
X56772Y39344D01*
X56509Y38714D01*
X56299Y37979D01*
X56247Y36929D01*
X56299Y35879D01*
X56509Y35144D01*
X56772Y34514D01*
X57087Y34094D01*
X57507Y33780D01*
X58556D01*
G01X54383D02*
X53071Y40079D01*
X51759Y33780D01*
G01X52231Y35984D02*
X53911D01*
G01X49790Y33780D02*
Y40079D01*
X48530D01*
X48110Y39764D01*
X47795Y39029D01*
X47690Y38189D01*
X47795Y37349D01*
X48058Y36719D01*
X48530Y36404D01*
X49790D01*
G01X44409Y40079D02*
Y33780D01*
G01X45617Y40079D02*
X43202D01*
G01X50827Y118465D02*
X44016D01*
Y113780D01*
X52008D01*
Y118465D01*
X50827D01*
G01X52205Y31181D02*
Y24882D01*
G01X53412Y31181D02*
X50997D01*
G01X47874Y24882D02*
X48294Y24987D01*
X48661Y25407D01*
X48976Y26037D01*
X49186Y26772D01*
X49291Y27611D01*
Y28452D01*
X49186Y29291D01*
X48976Y30026D01*
X48661Y30656D01*
X48294Y31076D01*
X47874Y31181D01*
X47454Y31076D01*
X47087Y30656D01*
X46772Y30026D01*
X46562Y29291D01*
X46457Y28452D01*
Y27611D01*
X46562Y26772D01*
X46772Y26037D01*
X47087Y25407D01*
X47454Y24987D01*
X47874Y24882D01*
G01X54685Y122244D02*
Y127480D01*
X50079D01*
Y119803D01*
X54685D01*
Y122244D01*
G01X57047Y67283D02*
Y74094D01*
X52362D01*
Y66102D01*
X57047D01*
Y67283D01*
G01X52402Y80512D02*
Y75276D01*
X57008D01*
Y82953D01*
X52402D01*
Y80512D01*
G01X63819Y88543D02*
X57008D01*
Y83858D01*
X65000D01*
Y88543D01*
X63819D01*
G01X58228Y89409D02*
X65039D01*
Y94094D01*
X57047D01*
Y89409D01*
X58228D01*
G01X61063Y69488D02*
Y64252D01*
X65669D01*
Y71929D01*
X61063D01*
Y69488D01*
G01X72480Y57835D02*
X65669D01*
Y53150D01*
X73661D01*
Y57835D01*
X72480D01*
G01X66969Y68543D02*
Y61732D01*
X71654D01*
Y69724D01*
X66969D01*
Y68543D01*
G01Y78386D02*
Y71575D01*
X71654D01*
Y79567D01*
X66969D01*
Y78386D01*
G01X66575Y89016D02*
Y82205D01*
X71260D01*
Y90197D01*
X66575D01*
Y89016D01*
G01X72244Y32323D02*
X77480D01*
Y36929D01*
X69803D01*
Y32323D01*
X72244D01*
G01X77520Y64370D02*
Y69606D01*
X72913D01*
Y61929D01*
X77520D01*
Y64370D01*
G01X72913Y76969D02*
Y71732D01*
X77520D01*
Y79409D01*
X72913D01*
Y76969D01*
G01X77756Y86575D02*
X72520D01*
Y81969D01*
X80197D01*
Y86575D01*
X77756D01*
G01X82323Y94055D02*
X75512D01*
Y89370D01*
X83504D01*
Y94055D01*
X82323D01*
G01X83110Y45866D02*
Y40630D01*
X87717D01*
Y48307D01*
X83110D01*
Y45866D01*
G01X83819Y68543D02*
X90630D01*
Y73228D01*
X82638D01*
Y68543D01*
X83819D01*
G01X82717Y84291D02*
Y77480D01*
X87402D01*
Y85472D01*
X82717D01*
Y84291D01*
G01X89409Y60276D02*
Y53465D01*
X94094D01*
Y61457D01*
X89409D01*
Y60276D01*
G01X91772Y87992D02*
Y82756D01*
X96378D01*
Y90433D01*
X91772D01*
Y87992D01*
G01X101929Y83819D02*
Y90630D01*
X97244D01*
Y82638D01*
X101929D01*
Y83819D01*
G01X103504Y54685D02*
Y61496D01*
X98819D01*
Y53504D01*
X103504D01*
Y54685D01*
G01X104134Y67283D02*
X98898D01*
Y62677D01*
X106575D01*
Y67283D01*
X104134D01*
G01X103740Y32717D02*
X108976D01*
Y37323D01*
X101299D01*
Y32717D01*
X103740D01*
G01X109488Y57283D02*
Y52047D01*
X114094D01*
Y59724D01*
X109488D01*
Y57283D01*
G01X122402Y60197D02*
Y67008D01*
X117717D01*
Y59016D01*
X122402D01*
Y60197D01*
G01X144055Y6654D02*
Y13465D01*
X139370D01*
Y5472D01*
X144055D01*
Y6654D01*
G01X144449Y38937D02*
Y45748D01*
X139764D01*
Y37756D01*
X144449D01*
Y38937D01*
G01Y86181D02*
Y92992D01*
X139764D01*
Y85000D01*
X144449D01*
Y86181D01*
G01Y117283D02*
Y124094D01*
X139764D01*
Y116102D01*
X144449D01*
Y117283D01*
G01X148228Y6732D02*
X153465D01*
Y11339D01*
X145787D01*
Y6732D01*
X148228D01*
G01X146791Y12244D02*
X153602D01*
Y16929D01*
X145610D01*
Y12244D01*
X146791D01*
G01X148228Y37835D02*
X153465D01*
Y42441D01*
X145787D01*
Y37835D01*
X148228D01*
G01X146811Y43346D02*
X153622D01*
Y48031D01*
X145630D01*
Y43346D01*
X146811D01*
G01X148228Y85472D02*
X153465D01*
Y90079D01*
X145787D01*
Y85472D01*
X148228D01*
G01X146811Y90984D02*
X153622D01*
Y95669D01*
X145630D01*
Y90984D01*
X146811D01*
G01X149016Y116575D02*
X154252D01*
Y121181D01*
X146575D01*
Y116575D01*
X149016D01*
G01X147598Y122087D02*
X154409D01*
Y126772D01*
X146417D01*
Y122087D01*
X147598D01*
G01X166969Y46811D02*
X160157D01*
Y42126D01*
X168150D01*
Y46811D01*
X166969D01*
G01X170276Y13346D02*
X165039D01*
Y8740D01*
X172717D01*
Y13346D01*
X170276D01*
G01X167520Y21693D02*
X172756D01*
Y26299D01*
X165079D01*
Y21693D01*
X167520D01*
G01X169488Y40906D02*
X164252D01*
Y36299D01*
X171929D01*
Y40906D01*
X169488D01*
G01X167520Y54764D02*
X172756D01*
Y59370D01*
X165079D01*
Y54764D01*
X167520D01*
G01Y69331D02*
X172756D01*
Y73937D01*
X165079D01*
Y69331D01*
X167520D01*
G01Y101220D02*
X172756D01*
Y105827D01*
X165079D01*
Y101220D01*
X167520D01*
G01X171850Y83031D02*
X166614D01*
Y78425D01*
X174291D01*
Y83031D01*
X171850D01*
G01Y114921D02*
X166614D01*
Y110315D01*
X174291D01*
Y114921D01*
X171850D01*
G01X185000Y25945D02*
Y32756D01*
X180315D01*
Y24764D01*
X185000D01*
Y25945D01*
G01X181457Y104370D02*
X188268D01*
Y109055D01*
X180276D01*
Y104370D01*
X181457D01*
G01X183031Y55945D02*
X189843D01*
Y60630D01*
X181850D01*
Y55945D01*
X183031D01*
G01X181535Y74449D02*
Y67638D01*
X186220D01*
Y75630D01*
X181535D01*
Y74449D01*
G01X189724Y88622D02*
X196535D01*
Y93307D01*
X188543D01*
Y88622D01*
X189724D01*
G01Y121299D02*
X196535D01*
Y125984D01*
X188543D01*
Y121299D01*
X189724D01*
G01X195472Y13740D02*
X190236D01*
Y9134D01*
X197913D01*
Y13740D01*
X195472D01*
G01X194685Y47598D02*
X189449D01*
Y42992D01*
X197126D01*
Y47598D01*
X194685D01*
G01X191142Y83110D02*
X196378D01*
Y87717D01*
X188701D01*
Y83110D01*
X191142D01*
G01Y115787D02*
X196378D01*
Y120394D01*
X188701D01*
Y115787D01*
X191142D01*
G01X206654Y51772D02*
Y57008D01*
X202047D01*
Y49331D01*
X206654D01*
Y51772D01*
G01X202008Y81299D02*
Y76063D01*
X206614D01*
Y83740D01*
X202008D01*
Y81299D01*
G01X207953Y14370D02*
Y26693D01*
X203071D01*
Y14252D01*
X207953D01*
Y14370D01*
G01X210768Y52795D02*
X216004D01*
Y57402D01*
X208327D01*
Y52795D01*
X210768D01*
G01X215000Y63346D02*
X208189D01*
Y58661D01*
X216181D01*
Y63346D01*
X215000D01*
G01X210827Y70512D02*
X216063D01*
Y75118D01*
X208386D01*
Y70512D01*
X210827D01*
G01X215000Y80669D02*
X208189D01*
Y75984D01*
X216181D01*
Y80669D01*
X215000D01*
G01X210039Y100827D02*
X215276D01*
Y105433D01*
X207598D01*
Y100827D01*
X210039D01*
G01X207520Y112008D02*
Y106772D01*
X212126D01*
Y114449D01*
X207520D01*
Y112008D01*
G01X212008Y24449D02*
X217244D01*
Y29055D01*
X209567D01*
Y24449D01*
X212008D01*
G01X216181Y35000D02*
X209370D01*
Y30315D01*
X217362D01*
Y35000D01*
X216181D01*
G01X218071Y112559D02*
Y119370D01*
X213386D01*
Y111378D01*
X218071D01*
Y112559D01*
G01X215394Y21063D02*
Y15827D01*
X220000D01*
Y23504D01*
X215394D01*
Y21063D01*
G01X233268Y129075D02*
X228031D01*
Y124469D01*
X235709D01*
Y129075D01*
X233268D01*
G01X235472Y103346D02*
Y98110D01*
X240079D01*
Y105787D01*
X235472D01*
Y103346D01*
G01X237835Y36811D02*
Y31575D01*
X242441D01*
Y39252D01*
X237835D01*
Y36811D01*
G01X241299Y66339D02*
Y71575D01*
X236693D01*
Y63898D01*
X241299D01*
Y66339D01*
G01X245866Y96417D02*
X240630D01*
Y91811D01*
X248307D01*
Y96417D01*
X245866D01*
G01X248386Y30118D02*
Y35354D01*
X243780D01*
Y27677D01*
X248386D01*
Y30118D01*
G01Y61614D02*
Y66850D01*
X243780D01*
Y59173D01*
X248386D01*
Y61614D01*
G01X259488Y33819D02*
X252677D01*
Y29134D01*
X260669D01*
Y33819D01*
X259488D01*
G01Y65315D02*
X252677D01*
Y60630D01*
X260669D01*
Y65315D01*
X259488D01*
G01Y96417D02*
X252677D01*
Y91732D01*
X260669D01*
Y96417D01*
X259488D01*
G01X260276Y129094D02*
X253465D01*
Y124409D01*
X261457D01*
Y129094D01*
X260276D01*
G01X263740Y29173D02*
X270551D01*
Y33858D01*
X262559D01*
Y29173D01*
X263740D01*
G01Y60669D02*
X270551D01*
Y65354D01*
X262559D01*
Y60669D01*
X263740D01*
G01Y91772D02*
X270551D01*
Y96457D01*
X262559D01*
Y91772D01*
X263740D01*
G01Y124449D02*
X270551D01*
Y129134D01*
X262559D01*
Y124449D01*
X263740D01*
G54D11*
G01X3937Y3937D02*
X271654D01*
Y129921D01*
X3937D01*
Y3937D01*
G01X81457Y25709D02*
X67441D01*
Y4252D01*
X113504D01*
Y25709D01*
X100748D01*
G01X99646Y108543D02*
X113661D01*
Y130000D01*
X67598D01*
Y108543D01*
X80354D01*
G54D12*
G01X28084Y11601D02*
X28241Y11444D01*
X28346Y11260D01*
Y11050D01*
X28189Y10814D01*
X27926Y10630D01*
X27611Y10499D01*
X27087Y10394D01*
X26614Y10367D01*
X26142Y10420D01*
X25827Y10499D01*
X25512Y10656D01*
X25302Y10840D01*
X25197Y11024D01*
Y11207D01*
X25302Y11391D01*
X25459Y11548D01*
X25669Y11680D01*
G01X25197Y13386D02*
X25249Y13570D01*
X25407Y13780D01*
X25669Y13911D01*
X26037Y13963D01*
X26404Y13911D01*
X26719Y13753D01*
X26877Y13517D01*
Y13255D01*
X26981Y13097D01*
X27244Y12966D01*
X27611Y12913D01*
X27979Y12992D01*
X28241Y13176D01*
X28346Y13386D01*
X28241Y13596D01*
X27979Y13780D01*
X27611Y13858D01*
X27244Y13806D01*
X26981Y13674D01*
X26877Y13517D01*
Y13255D01*
X26719Y13019D01*
X26404Y12861D01*
X26037Y12808D01*
X25669Y12861D01*
X25407Y12992D01*
X25249Y13202D01*
X25197Y13386D01*
G01Y15748D02*
X28346D01*
X27717Y15433D01*
G01X25197D02*
Y16063D01*
G01X33071Y121522D02*
X36220D01*
Y122178D01*
X36063Y122389D01*
X35853Y122520D01*
X35433Y122572D01*
X35013Y122520D01*
X34751Y122362D01*
X34593Y122178D01*
Y121522D01*
G01Y122178D02*
X33071Y122572D01*
G01Y124409D02*
X33123Y124593D01*
X33281Y124803D01*
X33543Y124934D01*
X33911Y124987D01*
X34278Y124934D01*
X34593Y124777D01*
X34751Y124541D01*
Y124278D01*
X34856Y124121D01*
X35118Y123989D01*
X35485Y123937D01*
X35853Y124016D01*
X36115Y124200D01*
X36220Y124409D01*
X36115Y124619D01*
X35853Y124803D01*
X35485Y124882D01*
X35118Y124830D01*
X34856Y124698D01*
X34751Y124541D01*
Y124278D01*
X34593Y124042D01*
X34278Y123885D01*
X33911Y123832D01*
X33543Y123885D01*
X33281Y124016D01*
X33123Y124226D01*
X33071Y124409D01*
G01X34383Y126273D02*
X34751Y126457D01*
X34961Y126614D01*
X35066Y126824D01*
X34961Y127008D01*
X34751Y127139D01*
X34436Y127244D01*
X34068Y127270D01*
X33753Y127244D01*
X33438Y127139D01*
X33176Y126981D01*
X33071Y126798D01*
X33176Y126588D01*
X33491Y126404D01*
X33963Y126299D01*
X34488Y126273D01*
X35170Y126326D01*
X35538Y126404D01*
X35906Y126535D01*
X36168Y126719D01*
X36220Y126903D01*
X36115Y127087D01*
X35853Y127218D01*
G01X36220Y104200D02*
X39370D01*
Y104856D01*
X39213Y105066D01*
X39003Y105197D01*
X38583Y105249D01*
X38163Y105197D01*
X37900Y105039D01*
X37743Y104856D01*
Y104200D01*
G01Y104856D02*
X36220Y105249D01*
G01Y107087D02*
X36273Y107270D01*
X36430Y107480D01*
X36693Y107611D01*
X37060Y107664D01*
X37428Y107611D01*
X37743Y107454D01*
X37900Y107218D01*
Y106956D01*
X38005Y106798D01*
X38268Y106667D01*
X38635Y106614D01*
X39003Y106693D01*
X39265Y106877D01*
X39370Y107087D01*
X39265Y107296D01*
X39003Y107480D01*
X38635Y107559D01*
X38268Y107507D01*
X38005Y107375D01*
X37900Y107218D01*
Y106956D01*
X37743Y106719D01*
X37428Y106562D01*
X37060Y106509D01*
X36693Y106562D01*
X36430Y106693D01*
X36273Y106903D01*
X36220Y107087D01*
G01X36588Y109003D02*
X36326Y109186D01*
X36220Y109396D01*
X36326Y109606D01*
X36640Y109790D01*
X37113Y109921D01*
X37585Y109974D01*
X38163D01*
X38635Y109921D01*
X39055Y109790D01*
X39265Y109633D01*
X39370Y109449D01*
X39265Y109239D01*
X39055Y109081D01*
X38740Y108976D01*
X38320Y108924D01*
X37953Y108976D01*
X37585Y109107D01*
X37375Y109265D01*
X37323Y109449D01*
X37428Y109659D01*
X37690Y109816D01*
X38163Y109974D01*
G01X42913Y75066D02*
X46063D01*
Y75722D01*
X45906Y75932D01*
X45696Y76063D01*
X45276Y76115D01*
X44856Y76063D01*
X44593Y75906D01*
X44436Y75722D01*
Y75066D01*
G01Y75722D02*
X42913Y76115D01*
G01Y77953D02*
X46063D01*
X45433Y77638D01*
G01X42913D02*
Y78268D01*
G01X46063Y80315D02*
X45958Y80105D01*
X45696Y79948D01*
X45381Y79843D01*
X44961Y79764D01*
X44488Y79737D01*
X44016Y79764D01*
X43596Y79843D01*
X43281Y79948D01*
X43019Y80105D01*
X42913Y80315D01*
X43019Y80525D01*
X43281Y80682D01*
X43596Y80787D01*
X44016Y80866D01*
X44488Y80893D01*
X44961Y80866D01*
X45381Y80787D01*
X45696Y80682D01*
X45958Y80525D01*
X46063Y80315D01*
G01X42913Y82677D02*
X46063D01*
X45433Y82362D01*
G01X42913D02*
Y82992D01*
G01X46115Y44567D02*
X45984Y44252D01*
X45827Y44042D01*
X45643Y43937D01*
X45433Y44042D01*
X45276Y44252D01*
X45118Y44567D01*
X45066Y44987D01*
Y47087D01*
G01X42913Y43937D02*
Y47087D01*
X43885Y44830D01*
X42572D01*
G01X48084Y61995D02*
X48241Y61837D01*
X48346Y61654D01*
Y61444D01*
X48189Y61207D01*
X47926Y61024D01*
X47611Y60893D01*
X47087Y60787D01*
X46614Y60761D01*
X46142Y60814D01*
X45827Y60893D01*
X45512Y61050D01*
X45302Y61233D01*
X45197Y61417D01*
Y61601D01*
X45302Y61785D01*
X45459Y61942D01*
X45669Y62074D01*
G01X46509Y63281D02*
X46877Y63465D01*
X47087Y63622D01*
X47192Y63832D01*
X47087Y64016D01*
X46877Y64147D01*
X46562Y64252D01*
X46194Y64278D01*
X45879Y64252D01*
X45564Y64147D01*
X45302Y63989D01*
X45197Y63806D01*
X45302Y63596D01*
X45617Y63412D01*
X46089Y63307D01*
X46614Y63281D01*
X47296Y63333D01*
X47664Y63412D01*
X48031Y63543D01*
X48294Y63727D01*
X48346Y63911D01*
X48241Y64094D01*
X47979Y64226D01*
G01X45827Y65564D02*
X45459Y65722D01*
X45249Y65932D01*
X45197Y66168D01*
X45249Y66378D01*
X45512Y66588D01*
X45827Y66719D01*
X46142Y66745D01*
X46509Y66693D01*
X46772Y66509D01*
X46877Y66326D01*
Y66089D01*
G01Y66326D02*
X47034Y66483D01*
X47296Y66614D01*
X47611Y66667D01*
X47926Y66614D01*
X48189Y66483D01*
X48346Y66247D01*
X48294Y66011D01*
X48084Y65774D01*
G01X52572Y94226D02*
X52730Y94383D01*
X52913Y94488D01*
X53123D01*
X53359Y94331D01*
X53543Y94068D01*
X53674Y93753D01*
X53780Y93228D01*
X53806Y92756D01*
X53753Y92283D01*
X53674Y91969D01*
X53517Y91654D01*
X53333Y91444D01*
X53150Y91339D01*
X52966D01*
X52782Y91444D01*
X52625Y91601D01*
X52493Y91811D01*
G01X51365D02*
X51207Y91548D01*
X51024Y91391D01*
X50787Y91339D01*
X50551Y91444D01*
X50367Y91654D01*
X50236Y92021D01*
X50210Y92441D01*
X50263Y92861D01*
X50394Y93123D01*
X50578Y93333D01*
X50761Y93386D01*
X50945Y93333D01*
X51181Y93123D01*
X51102Y94488D01*
X50394D01*
G01X48924Y93963D02*
X48767Y94278D01*
X48583Y94436D01*
X48373Y94488D01*
X48110Y94383D01*
X47926Y94121D01*
X47874Y93806D01*
X47900Y93491D01*
X48005Y93228D01*
X48530Y92704D01*
X48767Y92336D01*
X48924Y91811D01*
X48976Y91339D01*
X47874D01*
G01X54934Y87926D02*
X55092Y88084D01*
X55276Y88189D01*
X55485D01*
X55722Y88031D01*
X55906Y87769D01*
X56037Y87454D01*
X56142Y86929D01*
X56168Y86457D01*
X56115Y85984D01*
X56037Y85669D01*
X55879Y85354D01*
X55696Y85144D01*
X55512Y85039D01*
X55328D01*
X55144Y85144D01*
X54987Y85302D01*
X54856Y85512D01*
G01X53727D02*
X53570Y85249D01*
X53386Y85092D01*
X53150Y85039D01*
X52913Y85144D01*
X52730Y85354D01*
X52598Y85722D01*
X52572Y86142D01*
X52625Y86562D01*
X52756Y86824D01*
X52940Y87034D01*
X53123Y87087D01*
X53307Y87034D01*
X53543Y86824D01*
X53465Y88189D01*
X52756D01*
G01X51286Y86352D02*
X51102Y86719D01*
X50945Y86929D01*
X50735Y87034D01*
X50551Y86929D01*
X50420Y86719D01*
X50315Y86404D01*
X50289Y86037D01*
X50315Y85722D01*
X50420Y85407D01*
X50578Y85144D01*
X50761Y85039D01*
X50971Y85144D01*
X51155Y85459D01*
X51260Y85932D01*
X51286Y86457D01*
X51233Y87139D01*
X51155Y87507D01*
X51024Y87874D01*
X50840Y88137D01*
X50656Y88189D01*
X50472Y88084D01*
X50341Y87822D01*
G01X54724Y46063D02*
X54777Y45853D01*
X54987Y45669D01*
X55302Y45512D01*
X55669Y45407D01*
X56089Y45354D01*
X56509D01*
X56929Y45407D01*
X57296Y45512D01*
X57611Y45669D01*
X57822Y45853D01*
X57874Y46063D01*
X57822Y46273D01*
X57611Y46457D01*
X57296Y46614D01*
X56929Y46719D01*
X56509Y46772D01*
X56089D01*
X55669Y46719D01*
X55302Y46614D01*
X54987Y46457D01*
X54777Y46273D01*
X54724Y46063D01*
G01X55564Y46273D02*
X54724Y46588D01*
G01Y48425D02*
X57874D01*
X57244Y48110D01*
G01X54724D02*
Y48740D01*
G01X57874Y50787D02*
X57769Y50578D01*
X57507Y50420D01*
X57192Y50315D01*
X56772Y50236D01*
X56299Y50210D01*
X55827Y50236D01*
X55407Y50315D01*
X55092Y50420D01*
X54830Y50578D01*
X54724Y50787D01*
X54830Y50997D01*
X55092Y51155D01*
X55407Y51260D01*
X55827Y51339D01*
X56299Y51365D01*
X56772Y51339D01*
X57192Y51260D01*
X57507Y51155D01*
X57769Y50997D01*
X57874Y50787D01*
G01X54724Y54987D02*
X57874D01*
Y55643D01*
X57717Y55853D01*
X57507Y55984D01*
X57087Y56037D01*
X56667Y55984D01*
X56404Y55827D01*
X56247Y55643D01*
Y54987D01*
G01Y55643D02*
X54724Y56037D01*
G01Y57874D02*
X57874D01*
X57244Y57559D01*
G01X54724D02*
Y58189D01*
G01X57874Y60236D02*
X57769Y60026D01*
X57507Y59869D01*
X57192Y59764D01*
X56772Y59685D01*
X56299Y59659D01*
X55827Y59685D01*
X55407Y59764D01*
X55092Y59869D01*
X54830Y60026D01*
X54724Y60236D01*
X54830Y60446D01*
X55092Y60604D01*
X55407Y60709D01*
X55827Y60787D01*
X56299Y60814D01*
X56772Y60787D01*
X57192Y60709D01*
X57507Y60604D01*
X57769Y60446D01*
X57874Y60236D01*
G01X54724Y62913D02*
X57874D01*
X55617Y61942D01*
Y63255D01*
G01X58084Y115485D02*
X58241Y115643D01*
X58425Y115748D01*
X58635D01*
X58871Y115591D01*
X59055Y115328D01*
X59186Y115013D01*
X59291Y114488D01*
X59318Y114016D01*
X59265Y113543D01*
X59186Y113228D01*
X59029Y112913D01*
X58845Y112704D01*
X58661Y112598D01*
X58478D01*
X58294Y112704D01*
X58137Y112861D01*
X58005Y113071D01*
G01X55984Y112598D02*
Y115748D01*
X56956Y113491D01*
X55643D01*
G01X54515Y113071D02*
X54357Y112808D01*
X54173Y112651D01*
X53937Y112598D01*
X53701Y112704D01*
X53517Y112913D01*
X53386Y113281D01*
X53359Y113701D01*
X53412Y114121D01*
X53543Y114383D01*
X53727Y114593D01*
X53911Y114646D01*
X54094Y114593D01*
X54331Y114383D01*
X54252Y115748D01*
X53543D01*
G01X55906Y122704D02*
X59055D01*
Y123359D01*
X58898Y123570D01*
X58688Y123701D01*
X58268Y123753D01*
X57848Y123701D01*
X57585Y123543D01*
X57428Y123359D01*
Y122704D01*
G01Y123359D02*
X55906Y123753D01*
G01Y125591D02*
X55958Y125774D01*
X56115Y125984D01*
X56378Y126115D01*
X56745Y126168D01*
X57113Y126115D01*
X57428Y125958D01*
X57585Y125722D01*
Y125459D01*
X57690Y125302D01*
X57953Y125170D01*
X58320Y125118D01*
X58688Y125197D01*
X58950Y125381D01*
X59055Y125591D01*
X58950Y125800D01*
X58688Y125984D01*
X58320Y126063D01*
X57953Y126011D01*
X57690Y125879D01*
X57585Y125722D01*
Y125459D01*
X57428Y125223D01*
X57113Y125066D01*
X56745Y125013D01*
X56378Y125066D01*
X56115Y125197D01*
X55958Y125407D01*
X55906Y125591D01*
G01X56378Y127375D02*
X56115Y127533D01*
X55958Y127717D01*
X55906Y127953D01*
X56011Y128189D01*
X56220Y128373D01*
X56588Y128504D01*
X57008Y128530D01*
X57428Y128478D01*
X57690Y128346D01*
X57900Y128163D01*
X57953Y127979D01*
X57900Y127795D01*
X57690Y127559D01*
X59055Y127638D01*
Y128346D01*
G01X63596Y56824D02*
X63753Y56981D01*
X63937Y57087D01*
X64147D01*
X64383Y56929D01*
X64567Y56667D01*
X64698Y56352D01*
X64803Y55827D01*
X64830Y55354D01*
X64777Y54882D01*
X64698Y54567D01*
X64541Y54252D01*
X64357Y54042D01*
X64173Y53937D01*
X63989D01*
X63806Y54042D01*
X63648Y54200D01*
X63517Y54409D01*
G01X61863Y53937D02*
X61811Y54619D01*
X61732Y55197D01*
X61627Y55722D01*
X61496Y56299D01*
X61286Y57087D01*
X62336D01*
G01X59948Y56562D02*
X59790Y56877D01*
X59606Y57034D01*
X59396Y57087D01*
X59134Y56981D01*
X58950Y56719D01*
X58898Y56404D01*
X58924Y56089D01*
X59029Y55827D01*
X59554Y55302D01*
X59790Y54934D01*
X59948Y54409D01*
X60000Y53937D01*
X58898D01*
G01X65879Y73806D02*
X66037Y73648D01*
X66142Y73465D01*
Y73255D01*
X65984Y73019D01*
X65722Y72835D01*
X65407Y72704D01*
X64882Y72598D01*
X64409Y72572D01*
X63937Y72625D01*
X63622Y72704D01*
X63307Y72861D01*
X63097Y73044D01*
X62992Y73228D01*
Y73412D01*
X63097Y73596D01*
X63255Y73753D01*
X63465Y73885D01*
G01X64304Y75092D02*
X64672Y75276D01*
X64882Y75433D01*
X64987Y75643D01*
X64882Y75827D01*
X64672Y75958D01*
X64357Y76063D01*
X63989Y76089D01*
X63674Y76063D01*
X63359Y75958D01*
X63097Y75800D01*
X62992Y75617D01*
X63097Y75407D01*
X63412Y75223D01*
X63885Y75118D01*
X64409Y75092D01*
X65092Y75144D01*
X65459Y75223D01*
X65827Y75354D01*
X66089Y75538D01*
X66142Y75722D01*
X66037Y75906D01*
X65774Y76037D01*
G01X66142Y77953D02*
X66037Y77743D01*
X65774Y77585D01*
X65459Y77480D01*
X65039Y77402D01*
X64567Y77375D01*
X64094Y77402D01*
X63674Y77480D01*
X63359Y77585D01*
X63097Y77743D01*
X62992Y77953D01*
X63097Y78163D01*
X63359Y78320D01*
X63674Y78425D01*
X64094Y78504D01*
X64567Y78530D01*
X65039Y78504D01*
X65459Y78425D01*
X65774Y78320D01*
X66037Y78163D01*
X66142Y77953D01*
G01X65584Y44516D02*
Y40433D01*
X76244D01*
Y40814D01*
G01X65584Y47494D02*
Y51575D01*
X76244D01*
Y51096D01*
G01X71863Y61155D02*
X72021Y61312D01*
X72205Y61417D01*
X72415D01*
X72651Y61260D01*
X72835Y60997D01*
X72966Y60682D01*
X73071Y60157D01*
X73097Y59685D01*
X73044Y59213D01*
X72966Y58898D01*
X72808Y58583D01*
X72625Y58373D01*
X72441Y58268D01*
X72257D01*
X72074Y58373D01*
X71916Y58530D01*
X71785Y58740D01*
G01X70578Y59580D02*
X70394Y59948D01*
X70236Y60157D01*
X70026Y60263D01*
X69843Y60157D01*
X69711Y59948D01*
X69606Y59633D01*
X69580Y59265D01*
X69606Y58950D01*
X69711Y58635D01*
X69869Y58373D01*
X70052Y58268D01*
X70263Y58373D01*
X70446Y58687D01*
X70551Y59160D01*
X70578Y59685D01*
X70525Y60367D01*
X70446Y60735D01*
X70315Y61102D01*
X70131Y61365D01*
X69948Y61417D01*
X69764Y61312D01*
X69633Y61050D01*
G01X67402Y58268D02*
Y61417D01*
X68373Y59160D01*
X67060D01*
G01X69816Y92310D02*
X69974Y92152D01*
X70079Y91969D01*
Y91759D01*
X69921Y91522D01*
X69659Y91339D01*
X69344Y91207D01*
X68819Y91102D01*
X68346Y91076D01*
X67874Y91129D01*
X67559Y91207D01*
X67244Y91365D01*
X67034Y91548D01*
X66929Y91732D01*
Y91916D01*
X67034Y92100D01*
X67192Y92257D01*
X67402Y92389D01*
G01Y93517D02*
X67139Y93674D01*
X66981Y93858D01*
X66929Y94094D01*
X67034Y94331D01*
X67244Y94515D01*
X67611Y94646D01*
X68031Y94672D01*
X68452Y94619D01*
X68714Y94488D01*
X68924Y94304D01*
X68976Y94121D01*
X68924Y93937D01*
X68714Y93701D01*
X70079Y93780D01*
Y94488D01*
G01X66929Y96404D02*
X67611Y96457D01*
X68189Y96535D01*
X68714Y96641D01*
X69291Y96772D01*
X70079Y96981D01*
Y95932D01*
G01X71391Y102992D02*
X71260Y102677D01*
X71102Y102467D01*
X70919Y102362D01*
X70709Y102467D01*
X70551Y102677D01*
X70394Y102992D01*
X70341Y103412D01*
Y105512D01*
G01X69081Y102992D02*
X68924Y102625D01*
X68714Y102415D01*
X68478Y102362D01*
X68268Y102415D01*
X68058Y102677D01*
X67926Y102992D01*
X67900Y103307D01*
X67953Y103674D01*
X68137Y103937D01*
X68320Y104042D01*
X68556D01*
G01X68320D02*
X68163Y104200D01*
X68031Y104462D01*
X67979Y104777D01*
X68031Y105092D01*
X68163Y105354D01*
X68399Y105512D01*
X68635Y105459D01*
X68871Y105249D01*
G01X76194Y27795D02*
Y30945D01*
X75538D01*
X75328Y30787D01*
X75197Y30578D01*
X75144Y30157D01*
X75197Y29737D01*
X75354Y29475D01*
X75538Y29318D01*
X76194D01*
G01X75538D02*
X75144Y27795D01*
G01X73806Y29107D02*
X73622Y29475D01*
X73465Y29685D01*
X73255Y29790D01*
X73071Y29685D01*
X72940Y29475D01*
X72835Y29160D01*
X72808Y28793D01*
X72835Y28478D01*
X72940Y28163D01*
X73097Y27900D01*
X73281Y27795D01*
X73491Y27900D01*
X73674Y28215D01*
X73780Y28688D01*
X73806Y29213D01*
X73753Y29895D01*
X73674Y30263D01*
X73543Y30630D01*
X73359Y30893D01*
X73176Y30945D01*
X72992Y30840D01*
X72861Y30578D01*
G01X71444Y30420D02*
X71286Y30735D01*
X71102Y30893D01*
X70893Y30945D01*
X70630Y30840D01*
X70446Y30578D01*
X70394Y30263D01*
X70420Y29947D01*
X70525Y29685D01*
X71050Y29160D01*
X71286Y28793D01*
X71444Y28268D01*
X71496Y27795D01*
X70394D01*
G01X74541Y93701D02*
Y90551D01*
X73491D01*
G01X71654D02*
Y93701D01*
X71969Y93071D01*
G01Y90551D02*
X71339D01*
G01X76244Y48216D02*
Y43649D01*
G01X78346Y60499D02*
X81496D01*
Y61155D01*
X81339Y61365D01*
X81129Y61496D01*
X80709Y61548D01*
X80289Y61496D01*
X80026Y61339D01*
X79869Y61155D01*
Y60499D01*
G01Y61155D02*
X78346Y61548D01*
G01Y63386D02*
X81496D01*
X80866Y63071D01*
G01X78346D02*
Y63701D01*
G01X81496Y65748D02*
X81391Y65538D01*
X81129Y65381D01*
X80814Y65276D01*
X80394Y65197D01*
X79921Y65170D01*
X79449Y65197D01*
X79029Y65276D01*
X78714Y65381D01*
X78452Y65538D01*
X78346Y65748D01*
X78452Y65958D01*
X78714Y66115D01*
X79029Y66220D01*
X79449Y66299D01*
X79921Y66326D01*
X80394Y66299D01*
X80814Y66220D01*
X81129Y66115D01*
X81391Y65958D01*
X81496Y65748D01*
G01X79659Y67611D02*
X80026Y67795D01*
X80236Y67953D01*
X80341Y68163D01*
X80236Y68346D01*
X80026Y68478D01*
X79711Y68583D01*
X79344Y68609D01*
X79029Y68583D01*
X78714Y68478D01*
X78452Y68320D01*
X78346Y68137D01*
X78452Y67926D01*
X78766Y67743D01*
X79239Y67638D01*
X79764Y67611D01*
X80446Y67664D01*
X80814Y67743D01*
X81181Y67874D01*
X81444Y68058D01*
X81496Y68241D01*
X81391Y68425D01*
X81129Y68556D01*
G01X81496Y74278D02*
X78346D01*
Y75328D01*
G01X80971Y76667D02*
X81286Y76824D01*
X81444Y77008D01*
X81496Y77218D01*
X81391Y77480D01*
X81129Y77664D01*
X80814Y77717D01*
X80498Y77690D01*
X80236Y77585D01*
X79711Y77060D01*
X79344Y76824D01*
X78819Y76667D01*
X78346Y76614D01*
Y77717D01*
G01X81706Y98163D02*
X81863Y98320D01*
X82047Y98425D01*
X82257D01*
X82493Y98268D01*
X82677Y98005D01*
X82808Y97690D01*
X82913Y97165D01*
X82940Y96693D01*
X82887Y96220D01*
X82808Y95906D01*
X82651Y95591D01*
X82467Y95381D01*
X82283Y95276D01*
X82100D01*
X81916Y95381D01*
X81759Y95538D01*
X81627Y95748D01*
G01X80499D02*
X80341Y95485D01*
X80157Y95328D01*
X79921Y95276D01*
X79685Y95381D01*
X79501Y95591D01*
X79370Y95958D01*
X79344Y96378D01*
X79396Y96798D01*
X79528Y97060D01*
X79711Y97270D01*
X79895Y97323D01*
X80079Y97270D01*
X80315Y97060D01*
X80236Y98425D01*
X79528D01*
G01X77559Y95276D02*
Y98425D01*
X77874Y97795D01*
G01Y95276D02*
X77244D01*
G01X88714Y35827D02*
Y38976D01*
X88058D01*
X87848Y38819D01*
X87717Y38609D01*
X87664Y38189D01*
X87717Y37769D01*
X87874Y37507D01*
X88058Y37349D01*
X88714D01*
G01X88058D02*
X87664Y35827D01*
G01X85827D02*
Y38976D01*
X86142Y38346D01*
G01Y35827D02*
X85512D01*
G01X83465D02*
Y38976D01*
X83780Y38346D01*
G01Y35827D02*
X83150D01*
G01X80787D02*
Y38976D01*
X81759Y36719D01*
X80446D01*
G01X86824Y56430D02*
X86981Y56588D01*
X87165Y56693D01*
X87375D01*
X87611Y56535D01*
X87795Y56273D01*
X87926Y55958D01*
X88031Y55433D01*
X88058Y54961D01*
X88005Y54488D01*
X87926Y54173D01*
X87769Y53858D01*
X87585Y53648D01*
X87402Y53543D01*
X87218D01*
X87034Y53648D01*
X86877Y53806D01*
X86745Y54016D01*
G01X85092Y53543D02*
X85039Y54226D01*
X84961Y54803D01*
X84856Y55328D01*
X84724Y55906D01*
X84515Y56693D01*
X85564D01*
G01X82677Y53543D02*
Y56693D01*
X82992Y56063D01*
G01Y53543D02*
X82362D01*
G01X86352Y63176D02*
X86509Y63019D01*
X86614Y62835D01*
Y62625D01*
X86457Y62389D01*
X86194Y62205D01*
X85879Y62074D01*
X85354Y61969D01*
X84882Y61942D01*
X84409Y61995D01*
X84094Y62074D01*
X83780Y62231D01*
X83570Y62415D01*
X83465Y62598D01*
Y62782D01*
X83570Y62966D01*
X83727Y63123D01*
X83937Y63255D01*
G01X84777Y64462D02*
X85144Y64646D01*
X85354Y64803D01*
X85459Y65013D01*
X85354Y65197D01*
X85144Y65328D01*
X84830Y65433D01*
X84462Y65459D01*
X84147Y65433D01*
X83832Y65328D01*
X83570Y65170D01*
X83465Y64987D01*
X83570Y64777D01*
X83884Y64593D01*
X84357Y64488D01*
X84882Y64462D01*
X85564Y64515D01*
X85932Y64593D01*
X86299Y64724D01*
X86562Y64908D01*
X86614Y65092D01*
X86509Y65276D01*
X86247Y65407D01*
G01X86089Y66824D02*
X86404Y66981D01*
X86562Y67165D01*
X86614Y67375D01*
X86509Y67638D01*
X86247Y67822D01*
X85932Y67874D01*
X85617Y67848D01*
X85354Y67743D01*
X84830Y67218D01*
X84462Y66981D01*
X83937Y66824D01*
X83465Y66772D01*
Y67874D01*
G01X91076Y79318D02*
X91233Y79160D01*
X91339Y78976D01*
Y78767D01*
X91181Y78530D01*
X90919Y78346D01*
X90604Y78215D01*
X90079Y78110D01*
X89606Y78084D01*
X89134Y78137D01*
X88819Y78215D01*
X88504Y78373D01*
X88294Y78556D01*
X88189Y78740D01*
Y78924D01*
X88294Y79107D01*
X88452Y79265D01*
X88661Y79396D01*
G01Y80525D02*
X88399Y80682D01*
X88241Y80866D01*
X88189Y81102D01*
X88294Y81339D01*
X88504Y81522D01*
X88871Y81654D01*
X89291Y81680D01*
X89711Y81627D01*
X89974Y81496D01*
X90184Y81312D01*
X90236Y81129D01*
X90184Y80945D01*
X89974Y80709D01*
X91339Y80787D01*
Y81496D01*
G01X88189Y83465D02*
X88241Y83648D01*
X88399Y83858D01*
X88661Y83989D01*
X89029Y84042D01*
X89396Y83989D01*
X89711Y83832D01*
X89869Y83596D01*
Y83333D01*
X89974Y83176D01*
X90236Y83044D01*
X90604Y82992D01*
X90971Y83071D01*
X91233Y83255D01*
X91339Y83465D01*
X91233Y83674D01*
X90971Y83858D01*
X90604Y83937D01*
X90236Y83885D01*
X89974Y83753D01*
X89869Y83596D01*
Y83333D01*
X89711Y83097D01*
X89396Y82940D01*
X89029Y82887D01*
X88661Y82940D01*
X88399Y83071D01*
X88241Y83281D01*
X88189Y83465D01*
G01X92749Y44516D02*
Y40433D01*
X103409D01*
Y40814D01*
G01X92749Y47494D02*
Y51575D01*
X103409D01*
Y51096D01*
G01X92913Y75459D02*
X96063D01*
Y76115D01*
X95906Y76326D01*
X95696Y76457D01*
X95276Y76509D01*
X94856Y76457D01*
X94593Y76299D01*
X94436Y76115D01*
Y75459D01*
G01Y76115D02*
X92913Y76509D01*
G01X93281Y77900D02*
X93019Y78084D01*
X92913Y78294D01*
X93019Y78504D01*
X93333Y78688D01*
X93806Y78819D01*
X94278Y78871D01*
X94856D01*
X95328Y78819D01*
X95748Y78688D01*
X95958Y78530D01*
X96063Y78346D01*
X95958Y78137D01*
X95748Y77979D01*
X95433Y77874D01*
X95013Y77822D01*
X94646Y77874D01*
X94278Y78005D01*
X94068Y78163D01*
X94016Y78346D01*
X94120Y78556D01*
X94383Y78714D01*
X94856Y78871D01*
G01X92913Y80656D02*
X93596Y80709D01*
X94173Y80787D01*
X94698Y80893D01*
X95276Y81024D01*
X96063Y81233D01*
Y80184D01*
G01X97769Y55696D02*
X97926Y55538D01*
X98031Y55354D01*
Y55144D01*
X97874Y54908D01*
X97611Y54724D01*
X97296Y54593D01*
X96772Y54488D01*
X96299Y54462D01*
X95827Y54515D01*
X95512Y54593D01*
X95197Y54751D01*
X94987Y54934D01*
X94882Y55118D01*
Y55302D01*
X94987Y55485D01*
X95144Y55643D01*
X95354Y55774D01*
G01X94882Y57428D02*
X95564Y57480D01*
X96142Y57559D01*
X96667Y57664D01*
X97244Y57795D01*
X98031Y58005D01*
Y56956D01*
G01Y59843D02*
X97926Y59633D01*
X97664Y59475D01*
X97349Y59370D01*
X96929Y59291D01*
X96457Y59265D01*
X95984Y59291D01*
X95564Y59370D01*
X95249Y59475D01*
X94987Y59633D01*
X94882Y59843D01*
X94987Y60052D01*
X95249Y60210D01*
X95564Y60315D01*
X95984Y60394D01*
X96457Y60420D01*
X96929Y60394D01*
X97349Y60315D01*
X97664Y60210D01*
X97926Y60052D01*
X98031Y59843D01*
G01X101706Y76562D02*
X101863Y76404D01*
X101969Y76220D01*
Y76011D01*
X101811Y75774D01*
X101548Y75591D01*
X101233Y75459D01*
X100709Y75354D01*
X100236Y75328D01*
X99764Y75381D01*
X99449Y75459D01*
X99134Y75617D01*
X98924Y75800D01*
X98819Y75984D01*
Y76168D01*
X98924Y76352D01*
X99081Y76509D01*
X99291Y76641D01*
G01Y77769D02*
X99029Y77926D01*
X98871Y78110D01*
X98819Y78346D01*
X98924Y78583D01*
X99134Y78767D01*
X99501Y78898D01*
X99921Y78924D01*
X100341Y78871D01*
X100604Y78740D01*
X100814Y78556D01*
X100866Y78373D01*
X100814Y78189D01*
X100604Y77953D01*
X101969Y78031D01*
Y78740D01*
G01X99291Y80131D02*
X99029Y80289D01*
X98871Y80472D01*
X98819Y80709D01*
X98924Y80945D01*
X99134Y81129D01*
X99501Y81260D01*
X99921Y81286D01*
X100341Y81233D01*
X100604Y81102D01*
X100814Y80919D01*
X100866Y80735D01*
X100814Y80551D01*
X100604Y80315D01*
X101969Y80394D01*
Y81102D01*
G01X106824Y68110D02*
Y71260D01*
X106168D01*
X105958Y71102D01*
X105827Y70893D01*
X105774Y70472D01*
X105827Y70052D01*
X105984Y69790D01*
X106168Y69633D01*
X106824D01*
G01X106168D02*
X105774Y68110D01*
G01X103937D02*
Y71260D01*
X104252Y70630D01*
G01Y68110D02*
X103622D01*
G01X101575Y71260D02*
X101785Y71155D01*
X101942Y70893D01*
X102047Y70578D01*
X102126Y70157D01*
X102152Y69685D01*
X102126Y69213D01*
X102047Y68793D01*
X101942Y68478D01*
X101785Y68215D01*
X101575Y68110D01*
X101365Y68215D01*
X101207Y68478D01*
X101102Y68793D01*
X101024Y69213D01*
X100997Y69685D01*
X101024Y70157D01*
X101102Y70578D01*
X101207Y70893D01*
X101365Y71155D01*
X101575Y71260D01*
G01X99265Y68110D02*
X99213Y68793D01*
X99134Y69370D01*
X99029Y69895D01*
X98898Y70472D01*
X98688Y71260D01*
X99737D01*
G01X103409Y48216D02*
Y43649D01*
G01X118635Y33858D02*
Y37008D01*
X117979D01*
X117769Y36850D01*
X117638Y36641D01*
X117585Y36220D01*
X117638Y35800D01*
X117795Y35538D01*
X117979Y35381D01*
X118635D01*
G01X117979D02*
X117585Y33858D01*
G01X115748D02*
Y37008D01*
X116063Y36378D01*
G01Y33858D02*
X115433D01*
G01X113386D02*
Y37008D01*
X113701Y36378D01*
G01Y33858D02*
X113071D01*
G01X111024D02*
X110840Y33911D01*
X110630Y34068D01*
X110499Y34331D01*
X110446Y34698D01*
X110499Y35065D01*
X110656Y35381D01*
X110893Y35538D01*
X111155D01*
X111312Y35643D01*
X111444Y35906D01*
X111496Y36273D01*
X111417Y36641D01*
X111233Y36903D01*
X111024Y37008D01*
X110814Y36903D01*
X110630Y36641D01*
X110551Y36273D01*
X110604Y35906D01*
X110735Y35643D01*
X110893Y35538D01*
X111155D01*
X111391Y35381D01*
X111548Y35065D01*
X111601Y34698D01*
X111548Y34331D01*
X111417Y34068D01*
X111207Y33911D01*
X111024Y33858D01*
G01X111417Y42126D02*
X111627Y42178D01*
X111811Y42389D01*
X111969Y42704D01*
X112074Y43071D01*
X112126Y43491D01*
Y43911D01*
X112074Y44331D01*
X111969Y44698D01*
X111811Y45013D01*
X111627Y45223D01*
X111417Y45276D01*
X111207Y45223D01*
X111024Y45013D01*
X110866Y44698D01*
X110761Y44331D01*
X110709Y43911D01*
Y43491D01*
X110761Y43071D01*
X110866Y42704D01*
X111024Y42389D01*
X111207Y42178D01*
X111417Y42126D01*
G01X111207Y42966D02*
X110893Y42126D01*
G01X109501Y42493D02*
X109318Y42231D01*
X109107Y42126D01*
X108898Y42231D01*
X108714Y42546D01*
X108583Y43019D01*
X108530Y43491D01*
Y44068D01*
X108583Y44541D01*
X108714Y44961D01*
X108871Y45170D01*
X109055Y45276D01*
X109265Y45170D01*
X109422Y44961D01*
X109528Y44646D01*
X109580Y44226D01*
X109528Y43858D01*
X109396Y43491D01*
X109239Y43281D01*
X109055Y43228D01*
X108845Y43333D01*
X108688Y43596D01*
X108530Y44068D01*
G01X117454Y47638D02*
Y50787D01*
X116798D01*
X116588Y50630D01*
X116457Y50420D01*
X116404Y50000D01*
X116457Y49580D01*
X116614Y49318D01*
X116798Y49160D01*
X117454D01*
G01X116798D02*
X116404Y47638D01*
G01X114567D02*
Y50787D01*
X114882Y50157D01*
G01Y47638D02*
X114252D01*
G01X112205D02*
Y50787D01*
X112520Y50157D01*
G01Y47638D02*
X111890D01*
G01X109843Y50787D02*
X110052Y50682D01*
X110210Y50420D01*
X110315Y50105D01*
X110394Y49685D01*
X110420Y49213D01*
X110394Y48740D01*
X110315Y48320D01*
X110210Y48005D01*
X110052Y47743D01*
X109843Y47638D01*
X109633Y47743D01*
X109475Y48005D01*
X109370Y48320D01*
X109291Y48740D01*
X109265Y49213D01*
X109291Y49685D01*
X109370Y50105D01*
X109475Y50420D01*
X109633Y50682D01*
X109843Y50787D01*
G01X120997Y14409D02*
X120866Y14094D01*
X120709Y13885D01*
X120525Y13780D01*
X120315Y13885D01*
X120157Y14094D01*
X120000Y14409D01*
X119948Y14830D01*
Y16929D01*
G01X118688Y14252D02*
X118530Y13989D01*
X118346Y13832D01*
X118110Y13780D01*
X117874Y13885D01*
X117690Y14094D01*
X117559Y14462D01*
X117533Y14882D01*
X117585Y15302D01*
X117717Y15564D01*
X117900Y15774D01*
X118084Y15827D01*
X118268Y15774D01*
X118504Y15564D01*
X118425Y16929D01*
X117717D01*
G01X121391Y69081D02*
X121548Y68924D01*
X121654Y68740D01*
Y68530D01*
X121496Y68294D01*
X121233Y68110D01*
X120919Y67979D01*
X120394Y67874D01*
X119921Y67848D01*
X119449Y67900D01*
X119134Y67979D01*
X118819Y68137D01*
X118609Y68320D01*
X118504Y68504D01*
Y68688D01*
X118609Y68871D01*
X118767Y69029D01*
X118976Y69160D01*
G01X119816Y70367D02*
X120184Y70551D01*
X120394Y70709D01*
X120499Y70919D01*
X120394Y71102D01*
X120184Y71233D01*
X119869Y71339D01*
X119501Y71365D01*
X119186Y71339D01*
X118871Y71233D01*
X118609Y71076D01*
X118504Y70893D01*
X118609Y70682D01*
X118924Y70499D01*
X119396Y70394D01*
X119921Y70367D01*
X120604Y70420D01*
X120971Y70499D01*
X121339Y70630D01*
X121601Y70814D01*
X121654Y70997D01*
X121548Y71181D01*
X121286Y71312D01*
G01X118976Y72651D02*
X118714Y72808D01*
X118556Y72992D01*
X118504Y73228D01*
X118609Y73465D01*
X118819Y73648D01*
X119186Y73780D01*
X119606Y73806D01*
X120026Y73753D01*
X120289Y73622D01*
X120499Y73438D01*
X120551Y73255D01*
X120499Y73071D01*
X120289Y72835D01*
X121654Y72913D01*
Y73622D01*
G01X143044Y15932D02*
X143202Y15774D01*
X143307Y15591D01*
Y15381D01*
X143150Y15144D01*
X142887Y14961D01*
X142572Y14830D01*
X142047Y14724D01*
X141575Y14698D01*
X141102Y14751D01*
X140787Y14830D01*
X140472Y14987D01*
X140263Y15170D01*
X140157Y15354D01*
Y15538D01*
X140263Y15722D01*
X140420Y15879D01*
X140630Y16011D01*
G01X140157Y17717D02*
X140210Y17900D01*
X140367Y18110D01*
X140630Y18241D01*
X140997Y18294D01*
X141365Y18241D01*
X141680Y18084D01*
X141837Y17848D01*
Y17585D01*
X141942Y17428D01*
X142205Y17296D01*
X142572Y17244D01*
X142940Y17323D01*
X143202Y17507D01*
X143307Y17717D01*
X143202Y17926D01*
X142940Y18110D01*
X142572Y18189D01*
X142205Y18137D01*
X141942Y18005D01*
X141837Y17848D01*
Y17585D01*
X141680Y17349D01*
X141365Y17192D01*
X140997Y17139D01*
X140630Y17192D01*
X140367Y17323D01*
X140210Y17533D01*
X140157Y17717D01*
G01X142782Y19580D02*
X143097Y19737D01*
X143255Y19921D01*
X143307Y20131D01*
X143202Y20394D01*
X142940Y20578D01*
X142625Y20630D01*
X142309Y20604D01*
X142047Y20499D01*
X141522Y19974D01*
X141155Y19737D01*
X140630Y19580D01*
X140157Y19528D01*
Y20630D01*
G01X143832Y31680D02*
X143989Y31522D01*
X144094Y31339D01*
Y31129D01*
X143937Y30893D01*
X143674Y30709D01*
X143359Y30578D01*
X142835Y30472D01*
X142362Y30446D01*
X141890Y30499D01*
X141575Y30578D01*
X141260Y30735D01*
X141050Y30919D01*
X140945Y31102D01*
Y31286D01*
X141050Y31470D01*
X141207Y31627D01*
X141417Y31759D01*
G01X140945Y33412D02*
X141627Y33465D01*
X142205Y33543D01*
X142730Y33648D01*
X143307Y33780D01*
X144094Y33989D01*
Y32940D01*
G01X141417Y35249D02*
X141155Y35407D01*
X140997Y35591D01*
X140945Y35827D01*
X141050Y36063D01*
X141260Y36247D01*
X141627Y36378D01*
X142047Y36404D01*
X142467Y36352D01*
X142730Y36220D01*
X142940Y36037D01*
X142992Y35853D01*
X142940Y35669D01*
X142730Y35433D01*
X144094Y35512D01*
Y36220D01*
G01X143438Y79318D02*
X143596Y79160D01*
X143701Y78976D01*
Y78767D01*
X143543Y78530D01*
X143281Y78346D01*
X142966Y78215D01*
X142441Y78110D01*
X141969Y78084D01*
X141496Y78137D01*
X141181Y78215D01*
X140866Y78373D01*
X140656Y78556D01*
X140551Y78740D01*
Y78924D01*
X140656Y79107D01*
X140814Y79265D01*
X141024Y79396D01*
G01Y80525D02*
X140761Y80682D01*
X140604Y80866D01*
X140551Y81102D01*
X140656Y81339D01*
X140866Y81522D01*
X141233Y81654D01*
X141654Y81680D01*
X142074Y81627D01*
X142336Y81496D01*
X142546Y81312D01*
X142598Y81129D01*
X142546Y80945D01*
X142336Y80709D01*
X143701Y80787D01*
Y81496D01*
G01X140551Y83780D02*
X143701D01*
X141444Y82808D01*
Y84121D01*
G01X143438Y110026D02*
X143596Y109869D01*
X143701Y109685D01*
Y109475D01*
X143543Y109239D01*
X143281Y109055D01*
X142966Y108924D01*
X142441Y108819D01*
X141969Y108793D01*
X141496Y108845D01*
X141181Y108924D01*
X140866Y109081D01*
X140656Y109265D01*
X140551Y109449D01*
Y109633D01*
X140656Y109816D01*
X140814Y109974D01*
X141024Y110105D01*
G01X140551Y112126D02*
X143701D01*
X141444Y111155D01*
Y112467D01*
G01X140551Y114488D02*
X143701D01*
X141444Y113517D01*
Y114830D01*
G01X150997Y20604D02*
X151155Y20761D01*
X151339Y20866D01*
X151548D01*
X151785Y20709D01*
X151969Y20446D01*
X152100Y20131D01*
X152205Y19606D01*
X152231Y19134D01*
X152178Y18661D01*
X152100Y18346D01*
X151942Y18031D01*
X151759Y17822D01*
X151575Y17717D01*
X151391D01*
X151207Y17822D01*
X151050Y17979D01*
X150919Y18189D01*
G01X149213Y17717D02*
X149029Y17769D01*
X148819Y17926D01*
X148688Y18189D01*
X148635Y18556D01*
X148688Y18924D01*
X148845Y19239D01*
X149081Y19396D01*
X149344D01*
X149501Y19501D01*
X149633Y19764D01*
X149685Y20131D01*
X149606Y20499D01*
X149422Y20761D01*
X149213Y20866D01*
X149003Y20761D01*
X148819Y20499D01*
X148740Y20131D01*
X148793Y19764D01*
X148924Y19501D01*
X149081Y19396D01*
X149344D01*
X149580Y19239D01*
X149737Y18924D01*
X149790Y18556D01*
X149737Y18189D01*
X149606Y17926D01*
X149396Y17769D01*
X149213Y17717D01*
G01X146850Y20866D02*
X147060Y20761D01*
X147218Y20499D01*
X147323Y20184D01*
X147402Y19764D01*
X147428Y19291D01*
X147402Y18819D01*
X147323Y18399D01*
X147218Y18084D01*
X147060Y17822D01*
X146850Y17717D01*
X146641Y17822D01*
X146483Y18084D01*
X146378Y18399D01*
X146299Y18819D01*
X146273Y19291D01*
X146299Y19764D01*
X146378Y20184D01*
X146483Y20499D01*
X146641Y20761D01*
X146850Y20866D01*
G01X153674Y33858D02*
Y37008D01*
X153019D01*
X152808Y36850D01*
X152677Y36641D01*
X152625Y36220D01*
X152677Y35800D01*
X152835Y35538D01*
X153019Y35381D01*
X153674D01*
G01X153019D02*
X152625Y33858D01*
G01X150787D02*
Y37008D01*
X151102Y36378D01*
G01Y33858D02*
X150472D01*
G01X148425D02*
Y37008D01*
X148740Y36378D01*
G01Y33858D02*
X148110D01*
G01X146641Y34331D02*
X146483Y34068D01*
X146299Y33911D01*
X146063Y33858D01*
X145827Y33963D01*
X145643Y34173D01*
X145512Y34541D01*
X145485Y34961D01*
X145538Y35381D01*
X145669Y35643D01*
X145853Y35853D01*
X146037Y35906D01*
X146220Y35853D01*
X146457Y35643D01*
X146378Y37008D01*
X145669D01*
G01X151785Y51706D02*
X151942Y51863D01*
X152126Y51969D01*
X152336D01*
X152572Y51811D01*
X152756Y51548D01*
X152887Y51233D01*
X152992Y50709D01*
X153019Y50236D01*
X152966Y49764D01*
X152887Y49449D01*
X152730Y49134D01*
X152546Y48924D01*
X152362Y48819D01*
X152178D01*
X151995Y48924D01*
X151837Y49081D01*
X151706Y49291D01*
G01X150052Y48819D02*
X150000Y49501D01*
X149921Y50079D01*
X149816Y50604D01*
X149685Y51181D01*
X149475Y51969D01*
X150525D01*
G01X148215Y49449D02*
X148058Y49081D01*
X147848Y48871D01*
X147611Y48819D01*
X147402Y48871D01*
X147192Y49134D01*
X147060Y49449D01*
X147034Y49764D01*
X147087Y50131D01*
X147270Y50394D01*
X147454Y50499D01*
X147690D01*
G01X147454D02*
X147296Y50656D01*
X147165Y50919D01*
X147113Y51233D01*
X147165Y51548D01*
X147296Y51811D01*
X147533Y51969D01*
X147769Y51916D01*
X148005Y51706D01*
G01X151785Y99344D02*
X151942Y99501D01*
X152126Y99606D01*
X152336D01*
X152572Y99449D01*
X152756Y99186D01*
X152887Y98871D01*
X152992Y98346D01*
X153019Y97874D01*
X152966Y97402D01*
X152887Y97087D01*
X152730Y96772D01*
X152546Y96562D01*
X152362Y96457D01*
X152178D01*
X151995Y96562D01*
X151837Y96719D01*
X151706Y96929D01*
G01X150578D02*
X150420Y96667D01*
X150236Y96509D01*
X150000Y96457D01*
X149764Y96562D01*
X149580Y96772D01*
X149449Y97139D01*
X149422Y97559D01*
X149475Y97979D01*
X149606Y98241D01*
X149790Y98452D01*
X149974Y98504D01*
X150157Y98452D01*
X150394Y98241D01*
X150315Y99606D01*
X149606D01*
G01X147638D02*
X147848Y99501D01*
X148005Y99239D01*
X148110Y98924D01*
X148189Y98504D01*
X148215Y98031D01*
X148189Y97559D01*
X148110Y97139D01*
X148005Y96824D01*
X147848Y96562D01*
X147638Y96457D01*
X147428Y96562D01*
X147270Y96824D01*
X147165Y97139D01*
X147087Y97559D01*
X147060Y98031D01*
X147087Y98504D01*
X147165Y98924D01*
X147270Y99239D01*
X147428Y99501D01*
X147638Y99606D01*
G01X156037Y81102D02*
Y84252D01*
X155381D01*
X155170Y84094D01*
X155039Y83885D01*
X154987Y83465D01*
X155039Y83044D01*
X155197Y82782D01*
X155381Y82625D01*
X156037D01*
G01X155381D02*
X154987Y81102D01*
G01X153596Y81470D02*
X153412Y81207D01*
X153202Y81102D01*
X152992Y81207D01*
X152808Y81522D01*
X152677Y81995D01*
X152625Y82467D01*
Y83044D01*
X152677Y83517D01*
X152808Y83937D01*
X152966Y84147D01*
X153150Y84252D01*
X153359Y84147D01*
X153517Y83937D01*
X153622Y83622D01*
X153674Y83202D01*
X153622Y82835D01*
X153491Y82467D01*
X153333Y82257D01*
X153150Y82205D01*
X152940Y82309D01*
X152782Y82572D01*
X152625Y83044D01*
G01X151286Y82415D02*
X151102Y82782D01*
X150945Y82992D01*
X150735Y83097D01*
X150551Y82992D01*
X150420Y82782D01*
X150315Y82467D01*
X150289Y82100D01*
X150315Y81785D01*
X150420Y81470D01*
X150578Y81207D01*
X150761Y81102D01*
X150971Y81207D01*
X151155Y81522D01*
X151260Y81995D01*
X151286Y82520D01*
X151233Y83202D01*
X151155Y83570D01*
X151024Y83937D01*
X150840Y84200D01*
X150656Y84252D01*
X150472Y84147D01*
X150341Y83885D01*
G01X156430Y111811D02*
Y114961D01*
X155774D01*
X155564Y114803D01*
X155433Y114593D01*
X155381Y114173D01*
X155433Y113753D01*
X155591Y113491D01*
X155774Y113333D01*
X156430D01*
G01X155774D02*
X155381Y111811D01*
G01X153543D02*
X153359Y111863D01*
X153150Y112021D01*
X153019Y112283D01*
X152966Y112651D01*
X153019Y113018D01*
X153176Y113333D01*
X153412Y113491D01*
X153674D01*
X153832Y113596D01*
X153963Y113858D01*
X154016Y114226D01*
X153937Y114593D01*
X153753Y114856D01*
X153543Y114961D01*
X153333Y114856D01*
X153150Y114593D01*
X153071Y114226D01*
X153123Y113858D01*
X153255Y113596D01*
X153412Y113491D01*
X153674D01*
X153911Y113333D01*
X154068Y113018D01*
X154121Y112651D01*
X154068Y112283D01*
X153937Y112021D01*
X153727Y111863D01*
X153543Y111811D01*
G01X151233D02*
X151181Y112493D01*
X151102Y113071D01*
X150997Y113596D01*
X150866Y114173D01*
X150656Y114961D01*
X151706D01*
G01X163517Y4724D02*
Y7874D01*
X162861D01*
X162651Y7717D01*
X162520Y7507D01*
X162467Y7087D01*
X162520Y6667D01*
X162677Y6404D01*
X162861Y6247D01*
X163517D01*
G01X162861D02*
X162467Y4724D01*
G01X160630D02*
Y7874D01*
X160945Y7244D01*
G01Y4724D02*
X160315D01*
G01X158767Y7349D02*
X158609Y7664D01*
X158425Y7822D01*
X158215Y7874D01*
X157953Y7769D01*
X157769Y7507D01*
X157717Y7192D01*
X157743Y6876D01*
X157848Y6614D01*
X158373Y6089D01*
X158609Y5722D01*
X158767Y5197D01*
X158819Y4724D01*
X157717D01*
G01X156404Y6037D02*
X156220Y6404D01*
X156063Y6614D01*
X155853Y6719D01*
X155669Y6614D01*
X155538Y6404D01*
X155433Y6089D01*
X155407Y5722D01*
X155433Y5407D01*
X155538Y5092D01*
X155696Y4830D01*
X155879Y4724D01*
X156089Y4830D01*
X156273Y5144D01*
X156378Y5617D01*
X156404Y6142D01*
X156352Y6824D01*
X156273Y7192D01*
X156142Y7559D01*
X155958Y7822D01*
X155774Y7874D01*
X155591Y7769D01*
X155459Y7507D01*
G01X163517Y22441D02*
Y25591D01*
X162861D01*
X162651Y25433D01*
X162520Y25223D01*
X162467Y24803D01*
X162520Y24383D01*
X162677Y24121D01*
X162861Y23963D01*
X163517D01*
G01X162861D02*
X162467Y22441D01*
G01X160630D02*
Y25591D01*
X160945Y24961D01*
G01Y22441D02*
X160315D01*
G01X158767Y25066D02*
X158609Y25381D01*
X158425Y25538D01*
X158215Y25591D01*
X157953Y25485D01*
X157769Y25223D01*
X157717Y24908D01*
X157743Y24593D01*
X157848Y24331D01*
X158373Y23806D01*
X158609Y23438D01*
X158767Y22913D01*
X158819Y22441D01*
X157717D01*
G01X155906D02*
Y25591D01*
X156220Y24961D01*
G01Y22441D02*
X155591D01*
G01X163517Y54331D02*
Y57480D01*
X162861D01*
X162651Y57323D01*
X162520Y57113D01*
X162467Y56693D01*
X162520Y56273D01*
X162677Y56011D01*
X162861Y55853D01*
X163517D01*
G01X162861D02*
X162467Y54331D01*
G01X160630D02*
Y57480D01*
X160945Y56850D01*
G01Y54331D02*
X160315D01*
G01X158268Y57480D02*
X158478Y57375D01*
X158635Y57113D01*
X158740Y56798D01*
X158819Y56378D01*
X158845Y55906D01*
X158819Y55433D01*
X158740Y55013D01*
X158635Y54698D01*
X158478Y54436D01*
X158268Y54331D01*
X158058Y54436D01*
X157900Y54698D01*
X157795Y55013D01*
X157717Y55433D01*
X157690Y55906D01*
X157717Y56378D01*
X157795Y56798D01*
X157900Y57113D01*
X158058Y57375D01*
X158268Y57480D01*
G01X156352Y54698D02*
X156168Y54436D01*
X155958Y54331D01*
X155748Y54436D01*
X155564Y54750D01*
X155433Y55223D01*
X155381Y55696D01*
Y56273D01*
X155433Y56745D01*
X155564Y57165D01*
X155722Y57375D01*
X155906Y57480D01*
X156115Y57375D01*
X156273Y57165D01*
X156378Y56850D01*
X156430Y56430D01*
X156378Y56063D01*
X156247Y55696D01*
X156089Y55485D01*
X155906Y55433D01*
X155696Y55538D01*
X155538Y55800D01*
X155381Y56273D01*
G01X160446Y126903D02*
X160604Y127060D01*
X160787Y127165D01*
X160997D01*
X161233Y127008D01*
X161417Y126745D01*
X161548Y126430D01*
X161654Y125906D01*
X161680Y125433D01*
X161627Y124961D01*
X161548Y124646D01*
X161391Y124331D01*
X161207Y124121D01*
X161024Y124016D01*
X160840D01*
X160656Y124121D01*
X160499Y124278D01*
X160367Y124488D01*
G01X158346Y124016D02*
Y127165D01*
X159318Y124908D01*
X158005D01*
G01X156798Y126641D02*
X156641Y126956D01*
X156457Y127113D01*
X156247Y127165D01*
X155984Y127060D01*
X155800Y126798D01*
X155748Y126483D01*
X155774Y126168D01*
X155879Y125906D01*
X156404Y125381D01*
X156641Y125013D01*
X156798Y124488D01*
X156850Y124016D01*
X155748D01*
G01X172572Y14567D02*
Y17717D01*
X171916D01*
X171706Y17559D01*
X171575Y17349D01*
X171522Y16929D01*
X171575Y16509D01*
X171732Y16247D01*
X171916Y16089D01*
X172572D01*
G01X171916D02*
X171522Y14567D01*
G01X169685D02*
Y17717D01*
X170000Y17087D01*
G01Y14567D02*
X169370D01*
G01X167822Y17192D02*
X167664Y17507D01*
X167480Y17664D01*
X167270Y17717D01*
X167008Y17611D01*
X166824Y17349D01*
X166772Y17034D01*
X166798Y16719D01*
X166903Y16457D01*
X167428Y15932D01*
X167664Y15564D01*
X167822Y15039D01*
X167874Y14567D01*
X166772D01*
G01X165538Y15039D02*
X165381Y14777D01*
X165197Y14619D01*
X164961Y14567D01*
X164724Y14672D01*
X164541Y14882D01*
X164409Y15249D01*
X164383Y15669D01*
X164436Y16089D01*
X164567Y16352D01*
X164751Y16562D01*
X164934Y16614D01*
X165118Y16562D01*
X165354Y16352D01*
X165276Y17717D01*
X164567D01*
G01X172966Y31890D02*
Y35039D01*
X172310D01*
X172100Y34882D01*
X171969Y34672D01*
X171916Y34252D01*
X171969Y33832D01*
X172126Y33570D01*
X172310Y33412D01*
X172966D01*
G01X172310D02*
X171916Y31890D01*
G01X170079D02*
Y35039D01*
X170394Y34409D01*
G01Y31890D02*
X169764D01*
G01X167717D02*
Y35039D01*
X168031Y34409D01*
G01Y31890D02*
X167402D01*
G01X165853Y33202D02*
X165669Y33570D01*
X165512Y33780D01*
X165302Y33885D01*
X165118Y33780D01*
X164987Y33570D01*
X164882Y33255D01*
X164856Y32887D01*
X164882Y32572D01*
X164987Y32257D01*
X165144Y31995D01*
X165328Y31890D01*
X165538Y31995D01*
X165722Y32309D01*
X165827Y32782D01*
X165853Y33307D01*
X165800Y33989D01*
X165722Y34357D01*
X165591Y34724D01*
X165407Y34987D01*
X165223Y35039D01*
X165039Y34934D01*
X164908Y34672D01*
G01X172572Y64961D02*
Y68110D01*
X171916D01*
X171706Y67953D01*
X171575Y67743D01*
X171522Y67323D01*
X171575Y66903D01*
X171732Y66641D01*
X171916Y66483D01*
X172572D01*
G01X171916D02*
X171522Y64961D01*
G01X169685D02*
Y68110D01*
X170000Y67480D01*
G01Y64961D02*
X169370D01*
G01X167323Y68110D02*
X167533Y68005D01*
X167690Y67743D01*
X167795Y67428D01*
X167874Y67008D01*
X167900Y66535D01*
X167874Y66063D01*
X167795Y65643D01*
X167690Y65328D01*
X167533Y65066D01*
X167323Y64961D01*
X167113Y65066D01*
X166956Y65328D01*
X166850Y65643D01*
X166772Y66063D01*
X166745Y66535D01*
X166772Y67008D01*
X166850Y67428D01*
X166956Y67743D01*
X167113Y68005D01*
X167323Y68110D01*
G01X165538Y65591D02*
X165381Y65223D01*
X165170Y65013D01*
X164934Y64961D01*
X164724Y65013D01*
X164515Y65276D01*
X164383Y65591D01*
X164357Y65906D01*
X164409Y66273D01*
X164593Y66535D01*
X164777Y66641D01*
X165013D01*
G01X164777D02*
X164619Y66798D01*
X164488Y67060D01*
X164436Y67375D01*
X164488Y67690D01*
X164619Y67953D01*
X164856Y68110D01*
X165092Y68058D01*
X165328Y67848D01*
G01X171785Y96850D02*
Y100000D01*
X171129D01*
X170919Y99843D01*
X170787Y99633D01*
X170735Y99213D01*
X170787Y98793D01*
X170945Y98530D01*
X171129Y98373D01*
X171785D01*
G01X171129D02*
X170735Y96850D01*
G01X169344Y97218D02*
X169160Y96956D01*
X168950Y96850D01*
X168740Y96956D01*
X168556Y97270D01*
X168425Y97743D01*
X168373Y98215D01*
Y98793D01*
X168425Y99265D01*
X168556Y99685D01*
X168714Y99895D01*
X168898Y100000D01*
X169107Y99895D01*
X169265Y99685D01*
X169370Y99370D01*
X169422Y98950D01*
X169370Y98583D01*
X169239Y98215D01*
X169081Y98005D01*
X168898Y97953D01*
X168688Y98057D01*
X168530Y98320D01*
X168373Y98793D01*
G01X167034Y99475D02*
X166877Y99790D01*
X166693Y99948D01*
X166483Y100000D01*
X166220Y99895D01*
X166037Y99633D01*
X165984Y99318D01*
X166011Y99002D01*
X166115Y98740D01*
X166641Y98215D01*
X166877Y97848D01*
X167034Y97323D01*
X167087Y96850D01*
X165984D01*
G01X173753Y83858D02*
Y87008D01*
X173097D01*
X172887Y86850D01*
X172756Y86641D01*
X172704Y86220D01*
X172756Y85800D01*
X172913Y85538D01*
X173097Y85381D01*
X173753D01*
G01X173097D02*
X172704Y83858D01*
G01X171312Y84226D02*
X171129Y83963D01*
X170919Y83858D01*
X170709Y83963D01*
X170525Y84278D01*
X170394Y84751D01*
X170341Y85223D01*
Y85800D01*
X170394Y86273D01*
X170525Y86693D01*
X170682Y86903D01*
X170866Y87008D01*
X171076Y86903D01*
X171233Y86693D01*
X171339Y86378D01*
X171391Y85958D01*
X171339Y85591D01*
X171207Y85223D01*
X171050Y85013D01*
X170866Y84961D01*
X170656Y85065D01*
X170499Y85328D01*
X170341Y85800D01*
G01X168950Y84226D02*
X168767Y83963D01*
X168556Y83858D01*
X168346Y83963D01*
X168163Y84278D01*
X168031Y84751D01*
X167979Y85223D01*
Y85800D01*
X168031Y86273D01*
X168163Y86693D01*
X168320Y86903D01*
X168504Y87008D01*
X168714Y86903D01*
X168871Y86693D01*
X168976Y86378D01*
X169029Y85958D01*
X168976Y85591D01*
X168845Y85223D01*
X168688Y85013D01*
X168504Y84961D01*
X168294Y85065D01*
X168137Y85328D01*
X167979Y85800D01*
G01X173359Y116142D02*
Y119291D01*
X172704D01*
X172493Y119134D01*
X172362Y118924D01*
X172310Y118504D01*
X172362Y118084D01*
X172520Y117822D01*
X172704Y117664D01*
X173359D01*
G01X172704D02*
X172310Y116142D01*
G01X170919Y116509D02*
X170735Y116247D01*
X170525Y116142D01*
X170315Y116247D01*
X170131Y116561D01*
X170000Y117034D01*
X169948Y117507D01*
Y118084D01*
X170000Y118556D01*
X170131Y118976D01*
X170289Y119186D01*
X170472Y119291D01*
X170682Y119186D01*
X170840Y118976D01*
X170945Y118661D01*
X170997Y118241D01*
X170945Y117874D01*
X170814Y117507D01*
X170656Y117296D01*
X170472Y117244D01*
X170263Y117349D01*
X170105Y117611D01*
X169948Y118084D01*
G01X168110Y119291D02*
X168320Y119186D01*
X168478Y118924D01*
X168583Y118609D01*
X168661Y118189D01*
X168688Y117717D01*
X168661Y117244D01*
X168583Y116824D01*
X168478Y116509D01*
X168320Y116247D01*
X168110Y116142D01*
X167900Y116247D01*
X167743Y116509D01*
X167638Y116824D01*
X167559Y117244D01*
X167533Y117717D01*
X167559Y118189D01*
X167638Y118609D01*
X167743Y118924D01*
X167900Y119186D01*
X168110Y119291D01*
G01X175013Y45407D02*
X175170Y45564D01*
X175354Y45669D01*
X175564D01*
X175800Y45512D01*
X175984Y45249D01*
X176115Y44934D01*
X176220Y44409D01*
X176247Y43937D01*
X176194Y43465D01*
X176115Y43150D01*
X175958Y42835D01*
X175774Y42625D01*
X175591Y42520D01*
X175407D01*
X175223Y42625D01*
X175066Y42782D01*
X174934Y42992D01*
G01X173281Y42520D02*
X173228Y43202D01*
X173150Y43780D01*
X173044Y44304D01*
X172913Y44882D01*
X172704Y45669D01*
X173753D01*
G01X170551Y42520D02*
Y45669D01*
X171522Y43412D01*
X170210D01*
G01X185170Y77743D02*
X185328Y77585D01*
X185433Y77402D01*
Y77192D01*
X185276Y76956D01*
X185013Y76772D01*
X184698Y76641D01*
X184173Y76535D01*
X183701Y76509D01*
X183228Y76562D01*
X182913Y76641D01*
X182598Y76798D01*
X182389Y76981D01*
X182283Y77165D01*
Y77349D01*
X182389Y77533D01*
X182546Y77690D01*
X182756Y77822D01*
G01X183596Y79029D02*
X183963Y79213D01*
X184173Y79370D01*
X184278Y79580D01*
X184173Y79764D01*
X183963Y79895D01*
X183648Y80000D01*
X183281Y80026D01*
X182966Y80000D01*
X182651Y79895D01*
X182389Y79737D01*
X182283Y79554D01*
X182389Y79344D01*
X182703Y79160D01*
X183176Y79055D01*
X183701Y79029D01*
X184383Y79081D01*
X184751Y79160D01*
X185118Y79291D01*
X185381Y79475D01*
X185433Y79659D01*
X185328Y79843D01*
X185066Y79974D01*
G01X182283Y81890D02*
X185433D01*
X184803Y81575D01*
G01X182283D02*
Y82205D01*
G01X187533Y83858D02*
Y87008D01*
X186877D01*
X186667Y86850D01*
X186535Y86641D01*
X186483Y86220D01*
X186535Y85800D01*
X186693Y85538D01*
X186877Y85381D01*
X187533D01*
G01X186877D02*
X186483Y83858D01*
G01X185092Y84226D02*
X184908Y83963D01*
X184698Y83858D01*
X184488Y83963D01*
X184304Y84278D01*
X184173Y84751D01*
X184121Y85223D01*
Y85800D01*
X184173Y86273D01*
X184304Y86693D01*
X184462Y86903D01*
X184646Y87008D01*
X184856Y86903D01*
X185013Y86693D01*
X185118Y86378D01*
X185170Y85958D01*
X185118Y85591D01*
X184987Y85223D01*
X184830Y85013D01*
X184646Y84961D01*
X184436Y85065D01*
X184278Y85328D01*
X184121Y85800D01*
G01X182283Y83858D02*
X182100Y83911D01*
X181890Y84068D01*
X181759Y84331D01*
X181706Y84698D01*
X181759Y85065D01*
X181916Y85381D01*
X182152Y85538D01*
X182415D01*
X182572Y85643D01*
X182704Y85906D01*
X182756Y86273D01*
X182677Y86641D01*
X182493Y86903D01*
X182283Y87008D01*
X182074Y86903D01*
X181890Y86641D01*
X181811Y86273D01*
X181863Y85906D01*
X181995Y85643D01*
X182152Y85538D01*
X182415D01*
X182651Y85381D01*
X182808Y85065D01*
X182861Y84698D01*
X182808Y84331D01*
X182677Y84068D01*
X182467Y83911D01*
X182283Y83858D01*
G01X186430Y92651D02*
X186588Y92808D01*
X186772Y92913D01*
X186981D01*
X187218Y92756D01*
X187402Y92493D01*
X187533Y92178D01*
X187638Y91654D01*
X187664Y91181D01*
X187611Y90709D01*
X187533Y90394D01*
X187375Y90079D01*
X187192Y89869D01*
X187008Y89764D01*
X186824D01*
X186641Y89869D01*
X186483Y90026D01*
X186352Y90236D01*
G01X185223D02*
X185066Y89974D01*
X184882Y89816D01*
X184646Y89764D01*
X184409Y89869D01*
X184226Y90079D01*
X184094Y90446D01*
X184068Y90866D01*
X184121Y91286D01*
X184252Y91548D01*
X184436Y91759D01*
X184619Y91811D01*
X184803Y91759D01*
X185039Y91548D01*
X184961Y92913D01*
X184252D01*
G01X182861Y90394D02*
X182704Y90026D01*
X182493Y89816D01*
X182257Y89764D01*
X182047Y89816D01*
X181837Y90079D01*
X181706Y90394D01*
X181680Y90709D01*
X181732Y91076D01*
X181916Y91339D01*
X182100Y91444D01*
X182336D01*
G01X182100D02*
X181942Y91601D01*
X181811Y91863D01*
X181759Y92178D01*
X181811Y92493D01*
X181942Y92756D01*
X182178Y92913D01*
X182415Y92861D01*
X182651Y92651D01*
G01X186824Y102887D02*
X186981Y103044D01*
X187165Y103150D01*
X187375D01*
X187611Y102992D01*
X187795Y102730D01*
X187926Y102415D01*
X188031Y101890D01*
X188058Y101417D01*
X188005Y100945D01*
X187926Y100630D01*
X187769Y100315D01*
X187585Y100105D01*
X187402Y100000D01*
X187218D01*
X187034Y100105D01*
X186877Y100263D01*
X186745Y100472D01*
G01X184724Y100000D02*
Y103150D01*
X185696Y100893D01*
X184383D01*
G01X182730Y100000D02*
X182677Y100682D01*
X182598Y101260D01*
X182493Y101785D01*
X182362Y102362D01*
X182152Y103150D01*
X183202D01*
G01X187139Y116535D02*
Y119685D01*
X186483D01*
X186273Y119528D01*
X186142Y119318D01*
X186089Y118898D01*
X186142Y118478D01*
X186299Y118215D01*
X186483Y118058D01*
X187139D01*
G01X186483D02*
X186089Y116535D01*
G01X184252D02*
X184068Y116588D01*
X183858Y116745D01*
X183727Y117008D01*
X183674Y117375D01*
X183727Y117743D01*
X183885Y118058D01*
X184121Y118215D01*
X184383D01*
X184541Y118320D01*
X184672Y118583D01*
X184724Y118950D01*
X184646Y119318D01*
X184462Y119580D01*
X184252Y119685D01*
X184042Y119580D01*
X183858Y119318D01*
X183780Y118950D01*
X183832Y118583D01*
X183963Y118320D01*
X184121Y118215D01*
X184383D01*
X184619Y118058D01*
X184777Y117743D01*
X184830Y117375D01*
X184777Y117008D01*
X184646Y116745D01*
X184436Y116588D01*
X184252Y116535D01*
G01X181890D02*
X181706Y116588D01*
X181496Y116745D01*
X181365Y117008D01*
X181312Y117375D01*
X181365Y117743D01*
X181522Y118058D01*
X181759Y118215D01*
X182021D01*
X182178Y118320D01*
X182310Y118583D01*
X182362Y118950D01*
X182283Y119318D01*
X182100Y119580D01*
X181890Y119685D01*
X181680Y119580D01*
X181496Y119318D01*
X181417Y118950D01*
X181470Y118583D01*
X181601Y118320D01*
X181759Y118215D01*
X182021D01*
X182257Y118058D01*
X182415Y117743D01*
X182467Y117375D01*
X182415Y117008D01*
X182283Y116745D01*
X182074Y116588D01*
X181890Y116535D01*
G01X186430Y124147D02*
X186588Y124304D01*
X186772Y124409D01*
X186981D01*
X187218Y124252D01*
X187402Y123989D01*
X187533Y123674D01*
X187638Y123150D01*
X187664Y122677D01*
X187611Y122205D01*
X187533Y121890D01*
X187375Y121575D01*
X187192Y121365D01*
X187008Y121260D01*
X186824D01*
X186641Y121365D01*
X186483Y121522D01*
X186352Y121732D01*
G01X184331Y121260D02*
Y124409D01*
X185302Y122152D01*
X183989D01*
G01X182861Y121890D02*
X182704Y121522D01*
X182493Y121312D01*
X182257Y121260D01*
X182047Y121312D01*
X181837Y121575D01*
X181706Y121890D01*
X181680Y122205D01*
X181732Y122572D01*
X181916Y122835D01*
X182100Y122940D01*
X182336D01*
G01X182100D02*
X181942Y123097D01*
X181811Y123359D01*
X181759Y123674D01*
X181811Y123989D01*
X181942Y124252D01*
X182178Y124409D01*
X182415Y124357D01*
X182651Y124147D01*
G01X187611Y64698D02*
X187769Y64856D01*
X187953Y64961D01*
X188163D01*
X188399Y64803D01*
X188583Y64541D01*
X188714Y64226D01*
X188819Y63701D01*
X188845Y63228D01*
X188793Y62756D01*
X188714Y62441D01*
X188556Y62126D01*
X188373Y61916D01*
X188189Y61811D01*
X188005D01*
X187822Y61916D01*
X187664Y62074D01*
X187533Y62283D01*
G01X186326Y63123D02*
X186142Y63491D01*
X185984Y63701D01*
X185774Y63806D01*
X185591Y63701D01*
X185459Y63491D01*
X185354Y63176D01*
X185328Y62808D01*
X185354Y62493D01*
X185459Y62178D01*
X185617Y61916D01*
X185800Y61811D01*
X186011Y61916D01*
X186194Y62231D01*
X186299Y62704D01*
X186326Y63228D01*
X186273Y63911D01*
X186194Y64278D01*
X186063Y64646D01*
X185879Y64908D01*
X185696Y64961D01*
X185512Y64856D01*
X185381Y64593D01*
G01X183911Y62178D02*
X183727Y61916D01*
X183517Y61811D01*
X183307Y61916D01*
X183123Y62231D01*
X182992Y62704D01*
X182940Y63176D01*
Y63753D01*
X182992Y64226D01*
X183123Y64646D01*
X183281Y64856D01*
X183465Y64961D01*
X183674Y64856D01*
X183832Y64646D01*
X183937Y64331D01*
X183989Y63911D01*
X183937Y63543D01*
X183806Y63176D01*
X183648Y62966D01*
X183465Y62913D01*
X183255Y63018D01*
X183097Y63281D01*
X182940Y63753D01*
G01X188359Y27467D02*
X188517Y27310D01*
X188622Y27126D01*
Y26916D01*
X188465Y26680D01*
X188202Y26496D01*
X187887Y26365D01*
X187362Y26260D01*
X186890Y26233D01*
X186417Y26286D01*
X186102Y26365D01*
X185787Y26522D01*
X185578Y26706D01*
X185472Y26890D01*
Y27074D01*
X185578Y27257D01*
X185735Y27415D01*
X185945Y27546D01*
G01X185472Y29200D02*
X186155Y29252D01*
X186732Y29331D01*
X187257Y29436D01*
X187835Y29567D01*
X188622Y29777D01*
Y28727D01*
G01X185840Y31168D02*
X185578Y31352D01*
X185472Y31562D01*
X185578Y31772D01*
X185892Y31956D01*
X186365Y32087D01*
X186837Y32139D01*
X187415D01*
X187887Y32087D01*
X188307Y31956D01*
X188517Y31798D01*
X188622Y31614D01*
X188517Y31404D01*
X188307Y31247D01*
X187992Y31142D01*
X187572Y31089D01*
X187205Y31142D01*
X186837Y31273D01*
X186627Y31430D01*
X186575Y31614D01*
X186680Y31824D01*
X186942Y31981D01*
X187415Y32139D01*
G01X195800Y38583D02*
Y41732D01*
X195144D01*
X194934Y41575D01*
X194803Y41365D01*
X194751Y40945D01*
X194803Y40525D01*
X194961Y40263D01*
X195144Y40105D01*
X195800D01*
G01X195144D02*
X194751Y38583D01*
G01X192913D02*
Y41732D01*
X193228Y41102D01*
G01Y38583D02*
X192598D01*
G01X190551D02*
Y41732D01*
X190866Y41102D01*
G01Y38583D02*
X190236D01*
G01X188767Y39213D02*
X188609Y38845D01*
X188399Y38635D01*
X188163Y38583D01*
X187953Y38635D01*
X187743Y38898D01*
X187611Y39213D01*
X187585Y39528D01*
X187638Y39895D01*
X187822Y40157D01*
X188005Y40263D01*
X188241D01*
G01X188005D02*
X187848Y40420D01*
X187717Y40682D01*
X187664Y40997D01*
X187717Y41312D01*
X187848Y41575D01*
X188084Y41732D01*
X188320Y41680D01*
X188556Y41470D01*
G01X196981Y5118D02*
Y8268D01*
X196326D01*
X196115Y8110D01*
X195984Y7900D01*
X195932Y7480D01*
X195984Y7060D01*
X196142Y6798D01*
X196326Y6641D01*
X196981D01*
G01X196326D02*
X195932Y5118D01*
G01X194094D02*
Y8268D01*
X194409Y7638D01*
G01Y5118D02*
X193780D01*
G01X192231Y7743D02*
X192074Y8058D01*
X191890Y8215D01*
X191680Y8268D01*
X191417Y8163D01*
X191233Y7900D01*
X191181Y7585D01*
X191207Y7270D01*
X191312Y7008D01*
X191837Y6483D01*
X192074Y6115D01*
X192231Y5591D01*
X192283Y5118D01*
X191181D01*
G01X189055D02*
Y8268D01*
X190026Y6011D01*
X188714D01*
G01X197638Y49869D02*
X200787D01*
Y50525D01*
X200630Y50735D01*
X200420Y50866D01*
X200000Y50919D01*
X199580Y50866D01*
X199318Y50709D01*
X199160Y50525D01*
Y49869D01*
G01Y50525D02*
X197638Y50919D01*
G01Y52756D02*
X200787D01*
X200157Y52441D01*
G01X197638D02*
Y53071D01*
G01Y55118D02*
X200787D01*
X200157Y54803D01*
G01X197638D02*
Y55433D01*
G01X200263Y56981D02*
X200578Y57139D01*
X200735Y57323D01*
X200787Y57533D01*
X200682Y57795D01*
X200420Y57979D01*
X200105Y58031D01*
X199790Y58005D01*
X199528Y57900D01*
X199003Y57375D01*
X198635Y57139D01*
X198110Y56981D01*
X197638Y56929D01*
Y58031D01*
G01X198819Y14042D02*
X201969D01*
Y14698D01*
X201811Y14908D01*
X201601Y15039D01*
X201181Y15092D01*
X200761Y15039D01*
X200499Y14882D01*
X200341Y14698D01*
Y14042D01*
G01Y14698D02*
X198819Y15092D01*
G01Y16929D02*
X201969D01*
X201339Y16614D01*
G01X198819D02*
Y17244D01*
G01X201444Y18793D02*
X201759Y18950D01*
X201916Y19134D01*
X201969Y19344D01*
X201863Y19606D01*
X201601Y19790D01*
X201286Y19843D01*
X200971Y19816D01*
X200709Y19711D01*
X200184Y19186D01*
X199816Y18950D01*
X199291Y18793D01*
X198819Y18740D01*
Y19843D01*
G01X201444Y21155D02*
X201759Y21312D01*
X201916Y21496D01*
X201969Y21706D01*
X201863Y21969D01*
X201601Y22152D01*
X201286Y22205D01*
X200971Y22178D01*
X200709Y22074D01*
X200184Y21548D01*
X199816Y21312D01*
X199291Y21155D01*
X198819Y21102D01*
Y22205D01*
G01X207611Y27953D02*
Y31102D01*
X206956D01*
X206745Y30945D01*
X206614Y30735D01*
X206562Y30315D01*
X206614Y29895D01*
X206772Y29633D01*
X206956Y29475D01*
X207611D01*
G01X206956D02*
X206562Y27953D01*
G01X204724D02*
Y31102D01*
X205039Y30472D01*
G01Y27953D02*
X204409D01*
G01X202861Y30578D02*
X202704Y30893D01*
X202520Y31050D01*
X202310Y31102D01*
X202047Y30997D01*
X201863Y30735D01*
X201811Y30420D01*
X201837Y30105D01*
X201942Y29843D01*
X202467Y29318D01*
X202704Y28950D01*
X202861Y28425D01*
X202913Y27953D01*
X201811D01*
G01X200000Y31102D02*
X200210Y30997D01*
X200367Y30735D01*
X200472Y30420D01*
X200551Y30000D01*
X200578Y29528D01*
X200551Y29055D01*
X200472Y28635D01*
X200367Y28320D01*
X200210Y28058D01*
X200000Y27953D01*
X199790Y28058D01*
X199633Y28320D01*
X199528Y28635D01*
X199449Y29055D01*
X199422Y29528D01*
X199449Y30000D01*
X199528Y30420D01*
X199633Y30735D01*
X199790Y30997D01*
X200000Y31102D01*
G01X205722Y62336D02*
X205879Y62493D01*
X206063Y62598D01*
X206273D01*
X206509Y62441D01*
X206693Y62178D01*
X206824Y61863D01*
X206929Y61339D01*
X206956Y60866D01*
X206903Y60394D01*
X206824Y60079D01*
X206667Y59764D01*
X206483Y59554D01*
X206299Y59449D01*
X206115D01*
X205932Y59554D01*
X205774Y59711D01*
X205643Y59921D01*
G01X204436Y60761D02*
X204252Y61129D01*
X204094Y61339D01*
X203885Y61444D01*
X203701Y61339D01*
X203570Y61129D01*
X203465Y60814D01*
X203438Y60446D01*
X203465Y60131D01*
X203570Y59816D01*
X203727Y59554D01*
X203911Y59449D01*
X204121Y59554D01*
X204304Y59869D01*
X204409Y60341D01*
X204436Y60866D01*
X204383Y61548D01*
X204304Y61916D01*
X204173Y62283D01*
X203989Y62546D01*
X203806Y62598D01*
X203622Y62493D01*
X203491Y62231D01*
G01X201575Y59449D02*
X201391Y59501D01*
X201181Y59659D01*
X201050Y59921D01*
X200997Y60289D01*
X201050Y60656D01*
X201207Y60971D01*
X201444Y61129D01*
X201706D01*
X201863Y61233D01*
X201995Y61496D01*
X202047Y61863D01*
X201969Y62231D01*
X201785Y62493D01*
X201575Y62598D01*
X201365Y62493D01*
X201181Y62231D01*
X201102Y61863D01*
X201155Y61496D01*
X201286Y61233D01*
X201444Y61129D01*
X201706D01*
X201942Y60971D01*
X202100Y60656D01*
X202152Y60289D01*
X202100Y59921D01*
X201969Y59659D01*
X201759Y59501D01*
X201575Y59449D01*
G01X207087Y4724D02*
X207296Y4777D01*
X207480Y4987D01*
X207638Y5302D01*
X207743Y5669D01*
X207795Y6089D01*
Y6509D01*
X207743Y6929D01*
X207638Y7296D01*
X207480Y7611D01*
X207296Y7822D01*
X207087Y7874D01*
X206877Y7822D01*
X206693Y7611D01*
X206535Y7296D01*
X206430Y6929D01*
X206378Y6509D01*
Y6089D01*
X206430Y5669D01*
X206535Y5302D01*
X206693Y4987D01*
X206877Y4777D01*
X207087Y4724D01*
G01X206877Y5564D02*
X206562Y4724D01*
G01X204724D02*
Y7874D01*
X205039Y7244D01*
G01Y4724D02*
X204409D01*
G01X202047D02*
Y7874D01*
X203019Y5617D01*
X201706D01*
G01X206115Y35564D02*
X206273Y35722D01*
X206457Y35827D01*
X206667D01*
X206903Y35669D01*
X207087Y35407D01*
X207218Y35092D01*
X207323Y34567D01*
X207349Y34094D01*
X207296Y33622D01*
X207218Y33307D01*
X207060Y32992D01*
X206877Y32782D01*
X206693Y32677D01*
X206509D01*
X206326Y32782D01*
X206168Y32940D01*
X206037Y33150D01*
G01X204383Y32677D02*
X204331Y33359D01*
X204252Y33937D01*
X204147Y34462D01*
X204016Y35039D01*
X203806Y35827D01*
X204856D01*
G01X202467Y33989D02*
X202283Y34357D01*
X202126Y34567D01*
X201916Y34672D01*
X201732Y34567D01*
X201601Y34357D01*
X201496Y34042D01*
X201470Y33674D01*
X201496Y33359D01*
X201601Y33044D01*
X201759Y32782D01*
X201942Y32677D01*
X202152Y32782D01*
X202336Y33097D01*
X202441Y33570D01*
X202467Y34094D01*
X202415Y34777D01*
X202336Y35144D01*
X202205Y35512D01*
X202021Y35774D01*
X201837Y35827D01*
X201654Y35722D01*
X201522Y35459D01*
G01X202756Y84515D02*
X205906D01*
Y85170D01*
X205748Y85381D01*
X205538Y85512D01*
X205118Y85564D01*
X204698Y85512D01*
X204436Y85354D01*
X204278Y85170D01*
Y84515D01*
G01Y85170D02*
X202756Y85564D01*
G01Y87402D02*
X205906D01*
X205276Y87087D01*
G01X202756D02*
Y87717D01*
G01X205906Y89764D02*
X205800Y89554D01*
X205538Y89396D01*
X205223Y89291D01*
X204803Y89213D01*
X204331Y89186D01*
X203858Y89213D01*
X203438Y89291D01*
X203123Y89396D01*
X202861Y89554D01*
X202756Y89764D01*
X202861Y89974D01*
X203123Y90131D01*
X203438Y90236D01*
X203858Y90315D01*
X204331Y90341D01*
X204803Y90315D01*
X205223Y90236D01*
X205538Y90131D01*
X205800Y89974D01*
X205906Y89764D01*
G01Y92126D02*
X205800Y91916D01*
X205538Y91759D01*
X205223Y91654D01*
X204803Y91575D01*
X204331Y91548D01*
X203858Y91575D01*
X203438Y91654D01*
X203123Y91759D01*
X202861Y91916D01*
X202756Y92126D01*
X202861Y92336D01*
X203123Y92493D01*
X203438Y92598D01*
X203858Y92677D01*
X204331Y92704D01*
X204803Y92677D01*
X205223Y92598D01*
X205538Y92493D01*
X205800Y92336D01*
X205906Y92126D01*
G01Y115617D02*
X209055D01*
Y116273D01*
X208898Y116483D01*
X208688Y116614D01*
X208268Y116667D01*
X207848Y116614D01*
X207585Y116457D01*
X207428Y116273D01*
Y115617D01*
G01Y116273D02*
X205906Y116667D01*
G01X206273Y118058D02*
X206011Y118241D01*
X205906Y118452D01*
X206011Y118661D01*
X206325Y118845D01*
X206798Y118976D01*
X207270Y119029D01*
X207848D01*
X208320Y118976D01*
X208740Y118845D01*
X208950Y118688D01*
X209055Y118504D01*
X208950Y118294D01*
X208740Y118137D01*
X208425Y118031D01*
X208005Y117979D01*
X207638Y118031D01*
X207270Y118163D01*
X207060Y118320D01*
X207008Y118504D01*
X207113Y118714D01*
X207375Y118871D01*
X207848Y119029D01*
G01X205906Y120866D02*
X209055D01*
X208425Y120551D01*
G01X205906D02*
Y121181D01*
G01X215879Y66142D02*
Y69291D01*
X215223D01*
X215013Y69134D01*
X214882Y68924D01*
X214830Y68504D01*
X214882Y68084D01*
X215039Y67822D01*
X215223Y67664D01*
X215879D01*
G01X215223D02*
X214830Y66142D01*
G01X212992D02*
Y69291D01*
X213307Y68661D01*
G01Y66142D02*
X212677D01*
G01X210630Y69291D02*
X210840Y69186D01*
X210997Y68924D01*
X211102Y68609D01*
X211181Y68189D01*
X211207Y67717D01*
X211181Y67244D01*
X211102Y66824D01*
X210997Y66509D01*
X210840Y66247D01*
X210630Y66142D01*
X210420Y66247D01*
X210263Y66509D01*
X210157Y66824D01*
X210079Y67244D01*
X210052Y67717D01*
X210079Y68189D01*
X210157Y68609D01*
X210263Y68924D01*
X210420Y69186D01*
X210630Y69291D01*
G01X208767Y68767D02*
X208609Y69081D01*
X208425Y69239D01*
X208215Y69291D01*
X207953Y69186D01*
X207769Y68924D01*
X207717Y68609D01*
X207743Y68294D01*
X207848Y68031D01*
X208373Y67507D01*
X208609Y67139D01*
X208767Y66614D01*
X208819Y66142D01*
X207717D01*
G01X214304Y96850D02*
Y100000D01*
X213648D01*
X213438Y99843D01*
X213307Y99633D01*
X213255Y99213D01*
X213307Y98793D01*
X213465Y98530D01*
X213648Y98373D01*
X214304D01*
G01X213648D02*
X213255Y96850D01*
G01X211863Y97218D02*
X211680Y96956D01*
X211470Y96850D01*
X211260Y96956D01*
X211076Y97270D01*
X210945Y97743D01*
X210893Y98215D01*
Y98793D01*
X210945Y99265D01*
X211076Y99685D01*
X211233Y99895D01*
X211417Y100000D01*
X211627Y99895D01*
X211785Y99685D01*
X211890Y99370D01*
X211942Y98950D01*
X211890Y98583D01*
X211759Y98215D01*
X211601Y98005D01*
X211417Y97953D01*
X211207Y98057D01*
X211050Y98320D01*
X210893Y98793D01*
G01X209633Y97480D02*
X209475Y97113D01*
X209265Y96903D01*
X209029Y96850D01*
X208819Y96903D01*
X208609Y97165D01*
X208478Y97480D01*
X208452Y97795D01*
X208504Y98163D01*
X208688Y98425D01*
X208871Y98530D01*
X209107D01*
G01X208871D02*
X208714Y98688D01*
X208583Y98950D01*
X208530Y99265D01*
X208583Y99580D01*
X208714Y99843D01*
X208950Y100000D01*
X209186Y99948D01*
X209422Y99737D01*
G01X209678Y8295D02*
Y4213D01*
X220339D01*
Y4594D01*
G01X209678Y11274D02*
Y15354D01*
X220339D01*
Y14876D01*
G01X211417Y43963D02*
X214567D01*
Y44619D01*
X214409Y44830D01*
X214200Y44961D01*
X213780Y45013D01*
X213359Y44961D01*
X213097Y44803D01*
X212940Y44619D01*
Y43963D01*
G01Y44619D02*
X211417Y45013D01*
G01Y46850D02*
X214567D01*
X213937Y46535D01*
G01X211417D02*
Y47165D01*
G01Y49213D02*
X214567D01*
X213937Y48898D01*
G01X211417D02*
Y49528D01*
G01Y51575D02*
X214567D01*
X213937Y51260D01*
G01X211417D02*
Y51890D01*
G01X215170Y84383D02*
X215328Y84541D01*
X215512Y84646D01*
X215722D01*
X215958Y84488D01*
X216142Y84226D01*
X216273Y83911D01*
X216378Y83386D01*
X216404Y82913D01*
X216352Y82441D01*
X216273Y82126D01*
X216115Y81811D01*
X215932Y81601D01*
X215748Y81496D01*
X215564D01*
X215381Y81601D01*
X215223Y81759D01*
X215092Y81969D01*
G01X213963D02*
X213806Y81706D01*
X213622Y81548D01*
X213386Y81496D01*
X213150Y81601D01*
X212966Y81811D01*
X212835Y82178D01*
X212808Y82598D01*
X212861Y83019D01*
X212992Y83281D01*
X213176Y83491D01*
X213359Y83543D01*
X213543Y83491D01*
X213780Y83281D01*
X213701Y84646D01*
X212992D01*
G01X211470Y81863D02*
X211286Y81601D01*
X211076Y81496D01*
X210866Y81601D01*
X210682Y81916D01*
X210551Y82389D01*
X210499Y82861D01*
Y83438D01*
X210551Y83911D01*
X210682Y84331D01*
X210840Y84541D01*
X211024Y84646D01*
X211233Y84541D01*
X211391Y84331D01*
X211496Y84016D01*
X211548Y83596D01*
X211496Y83228D01*
X211365Y82861D01*
X211207Y82651D01*
X211024Y82598D01*
X210814Y82703D01*
X210656Y82966D01*
X210499Y83438D01*
G01X217533Y123753D02*
X217690Y123911D01*
X217874Y124016D01*
X218084D01*
X218320Y123858D01*
X218504Y123596D01*
X218635Y123281D01*
X218740Y122756D01*
X218767Y122283D01*
X218714Y121811D01*
X218635Y121496D01*
X218478Y121181D01*
X218294Y120971D01*
X218110Y120866D01*
X217926D01*
X217743Y120971D01*
X217585Y121129D01*
X217454Y121339D01*
G01X215433Y120866D02*
Y124016D01*
X216404Y121759D01*
X215092D01*
G01X213885Y122178D02*
X213701Y122546D01*
X213543Y122756D01*
X213333Y122861D01*
X213150Y122756D01*
X213019Y122546D01*
X212913Y122231D01*
X212887Y121863D01*
X212913Y121548D01*
X213019Y121233D01*
X213176Y120971D01*
X213359Y120866D01*
X213570Y120971D01*
X213753Y121286D01*
X213858Y121759D01*
X213885Y122283D01*
X213832Y122966D01*
X213753Y123333D01*
X213622Y123701D01*
X213438Y123963D01*
X213255Y124016D01*
X213071Y123911D01*
X212940Y123648D01*
G01X220472Y36614D02*
X220682Y36667D01*
X220866Y36877D01*
X221024Y37192D01*
X221129Y37559D01*
X221181Y37979D01*
Y38399D01*
X221129Y38819D01*
X221024Y39186D01*
X220866Y39501D01*
X220682Y39711D01*
X220472Y39764D01*
X220263Y39711D01*
X220079Y39501D01*
X219921Y39186D01*
X219816Y38819D01*
X219764Y38399D01*
Y37979D01*
X219816Y37559D01*
X219921Y37192D01*
X220079Y36877D01*
X220263Y36667D01*
X220472Y36614D01*
G01X220263Y37454D02*
X219948Y36614D01*
G01X218110D02*
Y39764D01*
X218425Y39134D01*
G01Y36614D02*
X217795D01*
G01X215748D02*
Y39764D01*
X216063Y39134D01*
G01Y36614D02*
X215433D01*
G01X222178Y125591D02*
Y128740D01*
X221522D01*
X221312Y128583D01*
X221181Y128373D01*
X221129Y127953D01*
X221181Y127533D01*
X221339Y127270D01*
X221522Y127113D01*
X222178D01*
G01X221522D02*
X221129Y125591D01*
G01X219291D02*
X219107Y125643D01*
X218898Y125800D01*
X218767Y126063D01*
X218714Y126430D01*
X218767Y126798D01*
X218924Y127113D01*
X219160Y127270D01*
X219422D01*
X219580Y127375D01*
X219711Y127638D01*
X219764Y128005D01*
X219685Y128373D01*
X219501Y128635D01*
X219291Y128740D01*
X219081Y128635D01*
X218898Y128373D01*
X218819Y128005D01*
X218871Y127638D01*
X219003Y127375D01*
X219160Y127270D01*
X219422D01*
X219659Y127113D01*
X219816Y126798D01*
X219869Y126430D01*
X219816Y126063D01*
X219685Y125800D01*
X219475Y125643D01*
X219291Y125591D01*
G01X216614D02*
Y128740D01*
X217585Y126483D01*
X216273D01*
G01X222441Y46457D02*
X222651Y46509D01*
X222835Y46719D01*
X222992Y47034D01*
X223097Y47402D01*
X223150Y47822D01*
Y48241D01*
X223097Y48661D01*
X222992Y49029D01*
X222835Y49344D01*
X222651Y49554D01*
X222441Y49606D01*
X222231Y49554D01*
X222047Y49344D01*
X221890Y49029D01*
X221785Y48661D01*
X221732Y48241D01*
Y47822D01*
X221785Y47402D01*
X221890Y47034D01*
X222047Y46719D01*
X222231Y46509D01*
X222441Y46457D01*
G01X222231Y47296D02*
X221916Y46457D01*
G01X220131D02*
X220079Y47139D01*
X220000Y47717D01*
X219895Y48241D01*
X219764Y48819D01*
X219554Y49606D01*
X220604D01*
G01X220339Y11996D02*
Y7428D01*
G01X220472Y16798D02*
X223622D01*
Y17454D01*
X223465Y17664D01*
X223255Y17795D01*
X222835Y17848D01*
X222415Y17795D01*
X222152Y17638D01*
X221995Y17454D01*
Y16798D01*
G01Y17454D02*
X220472Y17848D01*
G01Y19685D02*
X223622D01*
X222992Y19370D01*
G01X220472D02*
Y20000D01*
G01X223097Y21548D02*
X223412Y21706D01*
X223570Y21890D01*
X223622Y22100D01*
X223517Y22362D01*
X223255Y22546D01*
X222940Y22598D01*
X222624Y22572D01*
X222362Y22467D01*
X221837Y21942D01*
X221470Y21706D01*
X220945Y21548D01*
X220472Y21496D01*
Y22598D01*
G01X221102Y23832D02*
X220735Y23989D01*
X220525Y24200D01*
X220472Y24436D01*
X220525Y24646D01*
X220787Y24856D01*
X221102Y24987D01*
X221417Y25013D01*
X221785Y24961D01*
X222047Y24777D01*
X222152Y24593D01*
Y24357D01*
G01Y24593D02*
X222310Y24751D01*
X222572Y24882D01*
X222887Y24934D01*
X223202Y24882D01*
X223465Y24751D01*
X223622Y24515D01*
X223570Y24278D01*
X223359Y24042D01*
G01X222835Y71260D02*
X223044Y71312D01*
X223228Y71522D01*
X223386Y71837D01*
X223491Y72205D01*
X223543Y72625D01*
Y73044D01*
X223491Y73465D01*
X223386Y73832D01*
X223228Y74147D01*
X223044Y74357D01*
X222835Y74409D01*
X222625Y74357D01*
X222441Y74147D01*
X222283Y73832D01*
X222178Y73465D01*
X222126Y73044D01*
Y72625D01*
X222178Y72205D01*
X222283Y71837D01*
X222441Y71522D01*
X222625Y71312D01*
X222835Y71260D01*
G01X222625Y72100D02*
X222310Y71260D01*
G01X220971Y72572D02*
X220787Y72940D01*
X220630Y73150D01*
X220420Y73255D01*
X220236Y73150D01*
X220105Y72940D01*
X220000Y72625D01*
X219974Y72257D01*
X220000Y71942D01*
X220105Y71627D01*
X220263Y71365D01*
X220446Y71260D01*
X220656Y71365D01*
X220840Y71680D01*
X220945Y72152D01*
X220971Y72677D01*
X220919Y73359D01*
X220840Y73727D01*
X220709Y74094D01*
X220525Y74357D01*
X220341Y74409D01*
X220157Y74304D01*
X220026Y74042D01*
G01X220308Y96484D02*
Y92402D01*
X230969D01*
Y92783D01*
G01X220308Y99463D02*
Y103543D01*
X230969D01*
Y103065D01*
G01X223064Y31917D02*
Y27835D01*
X233724D01*
Y28216D01*
G01X223064Y34896D02*
Y38976D01*
X233724D01*
Y38498D01*
G01X221489Y63413D02*
Y59331D01*
X232150D01*
Y59712D01*
G01X221489Y66392D02*
Y70472D01*
X232150D01*
Y69994D01*
G01X225591Y103937D02*
X225800Y103989D01*
X225984Y104200D01*
X226142Y104515D01*
X226247Y104882D01*
X226299Y105302D01*
Y105722D01*
X226247Y106142D01*
X226142Y106509D01*
X225984Y106824D01*
X225800Y107034D01*
X225591Y107087D01*
X225381Y107034D01*
X225197Y106824D01*
X225039Y106509D01*
X224934Y106142D01*
X224882Y105722D01*
Y105302D01*
X224934Y104882D01*
X225039Y104515D01*
X225197Y104200D01*
X225381Y103989D01*
X225591Y103937D01*
G01X225381Y104777D02*
X225066Y103937D01*
G01X223806Y104567D02*
X223648Y104200D01*
X223438Y103989D01*
X223202Y103937D01*
X222992Y103989D01*
X222782Y104252D01*
X222651Y104567D01*
X222625Y104882D01*
X222677Y105249D01*
X222861Y105512D01*
X223044Y105617D01*
X223281D01*
G01X223044D02*
X222887Y105774D01*
X222756Y106037D01*
X222704Y106352D01*
X222756Y106667D01*
X222887Y106929D01*
X223123Y107087D01*
X223359Y107034D01*
X223596Y106824D01*
G01X228490Y12041D02*
X224409D01*
Y22701D01*
X224888D01*
G01X228490Y44324D02*
X224409D01*
Y54984D01*
X224888D01*
G01X228490Y75820D02*
X224409D01*
Y86480D01*
X224888D01*
G01X228490Y108104D02*
X224409D01*
Y118764D01*
X224888D01*
G01X227768Y22701D02*
X232335D01*
G01X227768Y54984D02*
X232335D01*
G01X227768Y86480D02*
X232335D01*
G01X231102Y87795D02*
X231312Y87848D01*
X231496Y88058D01*
X231654Y88373D01*
X231759Y88740D01*
X231811Y89160D01*
Y89580D01*
X231759Y90000D01*
X231654Y90367D01*
X231496Y90682D01*
X231312Y90893D01*
X231102Y90945D01*
X230893Y90893D01*
X230709Y90682D01*
X230551Y90367D01*
X230446Y90000D01*
X230394Y89580D01*
Y89160D01*
X230446Y88740D01*
X230551Y88373D01*
X230709Y88058D01*
X230893Y87848D01*
X231102Y87795D01*
G01X230893Y88635D02*
X230578Y87795D01*
G01X229318Y88268D02*
X229160Y88005D01*
X228976Y87848D01*
X228740Y87795D01*
X228504Y87900D01*
X228320Y88110D01*
X228189Y88478D01*
X228163Y88898D01*
X228215Y89318D01*
X228346Y89580D01*
X228530Y89790D01*
X228714Y89843D01*
X228898Y89790D01*
X229134Y89580D01*
X229055Y90945D01*
X228346D01*
G01X231102Y119685D02*
X231312Y119737D01*
X231496Y119948D01*
X231654Y120263D01*
X231759Y120630D01*
X231811Y121050D01*
Y121470D01*
X231759Y121890D01*
X231654Y122257D01*
X231496Y122572D01*
X231312Y122782D01*
X231102Y122835D01*
X230893Y122782D01*
X230709Y122572D01*
X230551Y122257D01*
X230446Y121890D01*
X230394Y121470D01*
Y121050D01*
X230446Y120630D01*
X230551Y120263D01*
X230709Y119948D01*
X230893Y119737D01*
X231102Y119685D01*
G01X230893Y120525D02*
X230578Y119685D01*
G01X229239Y122310D02*
X229081Y122625D01*
X228898Y122782D01*
X228688Y122835D01*
X228425Y122730D01*
X228241Y122467D01*
X228189Y122152D01*
X228215Y121837D01*
X228320Y121575D01*
X228845Y121050D01*
X229081Y120682D01*
X229239Y120157D01*
X229291Y119685D01*
X228189D01*
G01X227768Y118764D02*
X232335D01*
G01X231469Y12041D02*
X235551D01*
Y22701D01*
X235170D01*
G01X231469Y44324D02*
X235551D01*
Y54984D01*
X235170D01*
G01X231469Y75820D02*
X235551D01*
Y86480D01*
X235170D01*
G01X230969Y100185D02*
Y95617D01*
G01X231469Y108104D02*
X235551D01*
Y118764D01*
X235170D01*
G01X237402Y5906D02*
X237611Y5958D01*
X237795Y6168D01*
X237953Y6483D01*
X238058Y6850D01*
X238110Y7270D01*
Y7690D01*
X238058Y8110D01*
X237953Y8478D01*
X237795Y8793D01*
X237611Y9003D01*
X237402Y9055D01*
X237192Y9003D01*
X237008Y8793D01*
X236850Y8478D01*
X236745Y8110D01*
X236693Y7690D01*
Y7270D01*
X236745Y6850D01*
X236850Y6483D01*
X237008Y6168D01*
X237192Y5958D01*
X237402Y5906D01*
G01X237192Y6745D02*
X236877Y5906D01*
G01X235039D02*
Y9055D01*
X235354Y8425D01*
G01Y5906D02*
X234724D01*
G01X233255Y6535D02*
X233097Y6168D01*
X232887Y5958D01*
X232651Y5906D01*
X232441Y5958D01*
X232231Y6220D01*
X232100Y6535D01*
X232074Y6850D01*
X232126Y7218D01*
X232310Y7480D01*
X232493Y7585D01*
X232730D01*
G01X232493D02*
X232336Y7743D01*
X232205Y8005D01*
X232152Y8320D01*
X232205Y8635D01*
X232336Y8898D01*
X232572Y9055D01*
X232808Y9003D01*
X233044Y8793D01*
G01X233724Y35618D02*
Y31050D01*
G01X232150Y67114D02*
Y62546D01*
G01X237402Y40157D02*
X237611Y40210D01*
X237795Y40420D01*
X237953Y40735D01*
X238058Y41102D01*
X238110Y41522D01*
Y41942D01*
X238058Y42362D01*
X237953Y42730D01*
X237795Y43044D01*
X237611Y43255D01*
X237402Y43307D01*
X237192Y43255D01*
X237008Y43044D01*
X236850Y42730D01*
X236745Y42362D01*
X236693Y41942D01*
Y41522D01*
X236745Y41102D01*
X236850Y40735D01*
X237008Y40420D01*
X237192Y40210D01*
X237402Y40157D01*
G01X237192Y40997D02*
X236877Y40157D01*
G01X235039D02*
X234856Y40210D01*
X234646Y40367D01*
X234515Y40630D01*
X234462Y40997D01*
X234515Y41365D01*
X234672Y41680D01*
X234908Y41837D01*
X235170D01*
X235328Y41942D01*
X235459Y42205D01*
X235512Y42572D01*
X235433Y42940D01*
X235249Y43202D01*
X235039Y43307D01*
X234830Y43202D01*
X234646Y42940D01*
X234567Y42572D01*
X234619Y42205D01*
X234751Y41942D01*
X234908Y41837D01*
X235170D01*
X235407Y41680D01*
X235564Y41365D01*
X235617Y40997D01*
X235564Y40630D01*
X235433Y40367D01*
X235223Y40210D01*
X235039Y40157D01*
G01X241876Y12041D02*
X237795D01*
Y22701D01*
X238274D01*
G01X241876Y43930D02*
X237795D01*
Y54591D01*
X238274D01*
G01X241876Y75820D02*
X237795D01*
Y86480D01*
X238274D01*
G01X241876Y108104D02*
X237795D01*
Y118764D01*
X238274D01*
G01X241154Y22701D02*
X245721D01*
G01X241154Y54591D02*
X245721D01*
G01X241772Y65341D02*
X244921D01*
Y65997D01*
X244764Y66207D01*
X244554Y66339D01*
X244134Y66391D01*
X243714Y66339D01*
X243452Y66181D01*
X243294Y65997D01*
Y65341D01*
G01Y65997D02*
X241772Y66391D01*
G01Y68228D02*
X244921D01*
X244291Y67913D01*
G01X241772D02*
Y68543D01*
G01X244921Y70591D02*
X244816Y70381D01*
X244554Y70223D01*
X244239Y70118D01*
X243819Y70039D01*
X243346Y70013D01*
X242874Y70039D01*
X242454Y70118D01*
X242139Y70223D01*
X241877Y70381D01*
X241772Y70591D01*
X241877Y70800D01*
X242139Y70958D01*
X242454Y71063D01*
X242874Y71142D01*
X243346Y71168D01*
X243819Y71142D01*
X244239Y71063D01*
X244554Y70958D01*
X244816Y70800D01*
X244921Y70591D01*
G01X242244Y72375D02*
X241981Y72533D01*
X241824Y72717D01*
X241772Y72953D01*
X241877Y73189D01*
X242087Y73373D01*
X242454Y73504D01*
X242874Y73530D01*
X243294Y73478D01*
X243556Y73346D01*
X243767Y73163D01*
X243819Y72979D01*
X243767Y72795D01*
X243556Y72559D01*
X244921Y72638D01*
Y73346D01*
G01X244488Y87402D02*
X244698Y87454D01*
X244882Y87664D01*
X245039Y87979D01*
X245144Y88346D01*
X245197Y88767D01*
Y89186D01*
X245144Y89606D01*
X245039Y89974D01*
X244882Y90289D01*
X244698Y90499D01*
X244488Y90551D01*
X244278Y90499D01*
X244094Y90289D01*
X243937Y89974D01*
X243832Y89606D01*
X243780Y89186D01*
Y88767D01*
X243832Y88346D01*
X243937Y87979D01*
X244094Y87664D01*
X244278Y87454D01*
X244488Y87402D01*
G01X244278Y88241D02*
X243963Y87402D01*
G01X241811D02*
Y90551D01*
X242782Y88294D01*
X241470D01*
G01X241154Y86480D02*
X245721D01*
G01X244488Y119685D02*
X244698Y119737D01*
X244882Y119948D01*
X245039Y120263D01*
X245144Y120630D01*
X245197Y121050D01*
Y121470D01*
X245144Y121890D01*
X245039Y122257D01*
X244882Y122572D01*
X244698Y122782D01*
X244488Y122835D01*
X244278Y122782D01*
X244094Y122572D01*
X243937Y122257D01*
X243832Y121890D01*
X243780Y121470D01*
Y121050D01*
X243832Y120630D01*
X243937Y120263D01*
X244094Y119948D01*
X244278Y119737D01*
X244488Y119685D01*
G01X244278Y120525D02*
X243963Y119685D01*
G01X242126D02*
Y122835D01*
X242441Y122205D01*
G01Y119685D02*
X241811D01*
G01X241154Y118764D02*
X245721D01*
G01X251312Y36614D02*
Y39764D01*
X250656D01*
X250446Y39606D01*
X250315Y39396D01*
X250263Y38976D01*
X250315Y38556D01*
X250472Y38294D01*
X250656Y38137D01*
X251312D01*
G01X250656D02*
X250263Y36614D01*
G01X248425D02*
Y39764D01*
X248740Y39134D01*
G01Y36614D02*
X248110D01*
G01X246063D02*
Y39764D01*
X246378Y39134D01*
G01Y36614D02*
X245748D01*
G01X243753D02*
X243701Y37296D01*
X243622Y37874D01*
X243517Y38399D01*
X243386Y38976D01*
X243176Y39764D01*
X244226D01*
G01X248163Y97244D02*
Y100394D01*
X247507D01*
X247296Y100236D01*
X247165Y100026D01*
X247113Y99606D01*
X247165Y99186D01*
X247323Y98924D01*
X247507Y98767D01*
X248163D01*
G01X247507D02*
X247113Y97244D01*
G01X245722Y97611D02*
X245538Y97349D01*
X245328Y97244D01*
X245118Y97349D01*
X244934Y97664D01*
X244803Y98137D01*
X244751Y98609D01*
Y99186D01*
X244803Y99659D01*
X244934Y100079D01*
X245092Y100289D01*
X245276Y100394D01*
X245485Y100289D01*
X245643Y100079D01*
X245748Y99764D01*
X245800Y99344D01*
X245748Y98976D01*
X245617Y98609D01*
X245459Y98399D01*
X245276Y98346D01*
X245066Y98451D01*
X244908Y98714D01*
X244751Y99186D01*
G01X243491Y97717D02*
X243333Y97454D01*
X243150Y97296D01*
X242913Y97244D01*
X242677Y97349D01*
X242493Y97559D01*
X242362Y97926D01*
X242336Y98346D01*
X242389Y98767D01*
X242520Y99029D01*
X242704Y99239D01*
X242887Y99291D01*
X243071Y99239D01*
X243307Y99029D01*
X243228Y100394D01*
X242520D01*
G01X248163Y101575D02*
Y104724D01*
X247507D01*
X247296Y104567D01*
X247165Y104357D01*
X247113Y103937D01*
X247165Y103517D01*
X247323Y103255D01*
X247507Y103097D01*
X248163D01*
G01X247507D02*
X247113Y101575D01*
G01X245722Y101942D02*
X245538Y101680D01*
X245328Y101575D01*
X245118Y101680D01*
X244934Y101994D01*
X244803Y102467D01*
X244751Y102940D01*
Y103517D01*
X244803Y103989D01*
X244934Y104409D01*
X245092Y104619D01*
X245276Y104724D01*
X245485Y104619D01*
X245643Y104409D01*
X245748Y104094D01*
X245800Y103674D01*
X245748Y103307D01*
X245617Y102940D01*
X245459Y102730D01*
X245276Y102677D01*
X245066Y102782D01*
X244908Y103044D01*
X244751Y103517D01*
G01X242598Y101575D02*
Y104724D01*
X243570Y102467D01*
X242257D01*
G01X244854Y12041D02*
X248937D01*
Y22701D01*
X248556D01*
G01X244854Y43930D02*
X248937D01*
Y54591D01*
X248556D01*
G01X244854Y75820D02*
X248937D01*
Y86480D01*
X248556D01*
G01X244854Y108104D02*
X248937D01*
Y118764D01*
X248556D01*
G01X251969Y6299D02*
X252178Y6352D01*
X252362Y6562D01*
X252520Y6877D01*
X252625Y7244D01*
X252677Y7664D01*
Y8084D01*
X252625Y8504D01*
X252520Y8871D01*
X252362Y9186D01*
X252178Y9396D01*
X251969Y9449D01*
X251759Y9396D01*
X251575Y9186D01*
X251417Y8871D01*
X251312Y8504D01*
X251260Y8084D01*
Y7664D01*
X251312Y7244D01*
X251417Y6877D01*
X251575Y6562D01*
X251759Y6352D01*
X251969Y6299D01*
G01X251759Y7139D02*
X251444Y6299D01*
G01X249606D02*
Y9449D01*
X249921Y8819D01*
G01Y6299D02*
X249291D01*
G01X247743Y8924D02*
X247585Y9239D01*
X247402Y9396D01*
X247192Y9449D01*
X246929Y9344D01*
X246745Y9081D01*
X246693Y8767D01*
X246719Y8451D01*
X246824Y8189D01*
X247349Y7664D01*
X247585Y7296D01*
X247743Y6772D01*
X247795Y6299D01*
X246693D01*
G01X248858Y60617D02*
X252008D01*
Y61273D01*
X251850Y61483D01*
X251641Y61614D01*
X251220Y61667D01*
X250800Y61614D01*
X250538Y61457D01*
X250381Y61273D01*
Y60617D01*
G01Y61273D02*
X248858Y61667D01*
G01Y63504D02*
X252008D01*
X251378Y63189D01*
G01X248858D02*
Y63819D01*
G01X252008Y65866D02*
X251903Y65656D01*
X251641Y65499D01*
X251326Y65394D01*
X250906Y65315D01*
X250433Y65289D01*
X249961Y65315D01*
X249541Y65394D01*
X249226Y65499D01*
X248963Y65656D01*
X248858Y65866D01*
X248963Y66076D01*
X249226Y66233D01*
X249541Y66339D01*
X249961Y66417D01*
X250433Y66444D01*
X250906Y66417D01*
X251326Y66339D01*
X251641Y66233D01*
X251903Y66076D01*
X252008Y65866D01*
G01X248858Y68228D02*
X248911Y68412D01*
X249068Y68622D01*
X249331Y68753D01*
X249698Y68806D01*
X250065Y68753D01*
X250381Y68596D01*
X250538Y68359D01*
Y68097D01*
X250643Y67940D01*
X250906Y67808D01*
X251273Y67756D01*
X251641Y67835D01*
X251903Y68019D01*
X252008Y68228D01*
X251903Y68438D01*
X251641Y68622D01*
X251273Y68701D01*
X250906Y68648D01*
X250643Y68517D01*
X250538Y68359D01*
Y68097D01*
X250381Y67861D01*
X250065Y67704D01*
X249698Y67651D01*
X249331Y67704D01*
X249068Y67835D01*
X248911Y68044D01*
X248858Y68228D01*
G01X258005Y24803D02*
Y27953D01*
X257349D01*
X257139Y27795D01*
X257008Y27585D01*
X256956Y27165D01*
X257008Y26745D01*
X257165Y26483D01*
X257349Y26326D01*
X258005D01*
G01X257349D02*
X256956Y24803D01*
G01X255118D02*
Y27953D01*
X255433Y27323D01*
G01Y24803D02*
X254803D01*
G01X252756D02*
Y27953D01*
X253071Y27323D01*
G01Y24803D02*
X252441D01*
G01X250840Y25170D02*
X250656Y24908D01*
X250446Y24803D01*
X250236Y24908D01*
X250052Y25223D01*
X249921Y25696D01*
X249869Y26168D01*
Y26745D01*
X249921Y27218D01*
X250052Y27638D01*
X250210Y27848D01*
X250394Y27953D01*
X250604Y27848D01*
X250761Y27638D01*
X250866Y27323D01*
X250919Y26903D01*
X250866Y26535D01*
X250735Y26168D01*
X250578Y25958D01*
X250394Y25906D01*
X250184Y26010D01*
X250026Y26273D01*
X249869Y26745D01*
G01X254934Y122966D02*
X255092Y123123D01*
X255276Y123228D01*
X255485D01*
X255722Y123071D01*
X255906Y122808D01*
X256037Y122493D01*
X256142Y121969D01*
X256168Y121496D01*
X256115Y121024D01*
X256037Y120709D01*
X255879Y120394D01*
X255696Y120184D01*
X255512Y120079D01*
X255328D01*
X255144Y120184D01*
X254987Y120341D01*
X254856Y120551D01*
G01X252835Y120079D02*
Y123228D01*
X253806Y120971D01*
X252493D01*
G01X250787Y120079D02*
Y123228D01*
X251102Y122598D01*
G01Y120079D02*
X250472D01*
G01X256115Y90289D02*
X256273Y90446D01*
X256457Y90551D01*
X256667D01*
X256903Y90394D01*
X257087Y90131D01*
X257218Y89816D01*
X257323Y89291D01*
X257349Y88819D01*
X257296Y88346D01*
X257218Y88031D01*
X257060Y87717D01*
X256877Y87507D01*
X256693Y87402D01*
X256509D01*
X256326Y87507D01*
X256168Y87664D01*
X256037Y87874D01*
G01X254016Y87402D02*
Y90551D01*
X254987Y88294D01*
X253674D01*
G01X252415Y87769D02*
X252231Y87507D01*
X252021Y87402D01*
X251811Y87507D01*
X251627Y87821D01*
X251496Y88294D01*
X251444Y88767D01*
Y89344D01*
X251496Y89816D01*
X251627Y90236D01*
X251785Y90446D01*
X251969Y90551D01*
X252178Y90446D01*
X252336Y90236D01*
X252441Y89921D01*
X252493Y89501D01*
X252441Y89134D01*
X252310Y88767D01*
X252152Y88556D01*
X251969Y88504D01*
X251759Y88609D01*
X251601Y88871D01*
X251444Y89344D01*
G01X258478Y38320D02*
X258635Y38478D01*
X258819Y38583D01*
X259029D01*
X259265Y38425D01*
X259449Y38163D01*
X259580Y37848D01*
X259685Y37323D01*
X259711Y36850D01*
X259659Y36378D01*
X259580Y36063D01*
X259422Y35748D01*
X259239Y35538D01*
X259055Y35433D01*
X258871D01*
X258688Y35538D01*
X258530Y35696D01*
X258399Y35906D01*
G01X256745Y35433D02*
X256693Y36115D01*
X256614Y36693D01*
X256509Y37218D01*
X256378Y37795D01*
X256168Y38583D01*
X257218D01*
G01X254331Y35433D02*
X254147Y35485D01*
X253937Y35643D01*
X253806Y35906D01*
X253753Y36273D01*
X253806Y36640D01*
X253963Y36956D01*
X254200Y37113D01*
X254462D01*
X254619Y37218D01*
X254751Y37480D01*
X254803Y37848D01*
X254724Y38215D01*
X254541Y38478D01*
X254331Y38583D01*
X254121Y38478D01*
X253937Y38215D01*
X253858Y37848D01*
X253911Y37480D01*
X254042Y37218D01*
X254200Y37113D01*
X254462D01*
X254698Y36956D01*
X254856Y36640D01*
X254908Y36273D01*
X254856Y35906D01*
X254724Y35643D01*
X254515Y35485D01*
X254331Y35433D01*
G01X258871Y69029D02*
X259029Y69186D01*
X259213Y69291D01*
X259422D01*
X259659Y69134D01*
X259843Y68871D01*
X259974Y68556D01*
X260079Y68031D01*
X260105Y67559D01*
X260052Y67087D01*
X259974Y66772D01*
X259816Y66457D01*
X259633Y66247D01*
X259449Y66142D01*
X259265D01*
X259081Y66247D01*
X258924Y66404D01*
X258793Y66614D01*
G01X257585Y67454D02*
X257402Y67822D01*
X257244Y68031D01*
X257034Y68137D01*
X256850Y68031D01*
X256719Y67822D01*
X256614Y67507D01*
X256588Y67139D01*
X256614Y66824D01*
X256719Y66509D01*
X256877Y66247D01*
X257060Y66142D01*
X257270Y66247D01*
X257454Y66561D01*
X257559Y67034D01*
X257585Y67559D01*
X257533Y68241D01*
X257454Y68609D01*
X257323Y68976D01*
X257139Y69239D01*
X256956Y69291D01*
X256772Y69186D01*
X256641Y68924D01*
G01X254777Y66142D02*
X254724Y66824D01*
X254646Y67402D01*
X254541Y67926D01*
X254409Y68504D01*
X254200Y69291D01*
X255249D01*
G01X268320Y37926D02*
X268478Y38084D01*
X268661Y38189D01*
X268871D01*
X269107Y38031D01*
X269291Y37769D01*
X269422Y37454D01*
X269528Y36929D01*
X269554Y36457D01*
X269501Y35984D01*
X269422Y35669D01*
X269265Y35354D01*
X269081Y35144D01*
X268898Y35039D01*
X268714D01*
X268530Y35144D01*
X268373Y35302D01*
X268241Y35512D01*
G01X266588Y35039D02*
X266535Y35722D01*
X266457Y36299D01*
X266352Y36824D01*
X266220Y37402D01*
X266011Y38189D01*
X267060D01*
G01X264226Y35039D02*
X264173Y35722D01*
X264094Y36299D01*
X263989Y36824D01*
X263858Y37402D01*
X263648Y38189D01*
X264698D01*
G01X268714Y69422D02*
X268871Y69580D01*
X269055Y69685D01*
X269265D01*
X269501Y69528D01*
X269685Y69265D01*
X269816Y68950D01*
X269921Y68425D01*
X269948Y67953D01*
X269895Y67480D01*
X269816Y67165D01*
X269659Y66850D01*
X269475Y66641D01*
X269291Y66535D01*
X269107D01*
X268924Y66641D01*
X268767Y66798D01*
X268635Y67008D01*
G01X267428Y67848D02*
X267244Y68215D01*
X267087Y68425D01*
X266877Y68530D01*
X266693Y68425D01*
X266562Y68215D01*
X266457Y67900D01*
X266430Y67533D01*
X266457Y67218D01*
X266562Y66903D01*
X266719Y66641D01*
X266903Y66535D01*
X267113Y66641D01*
X267296Y66955D01*
X267402Y67428D01*
X267428Y67953D01*
X267375Y68635D01*
X267296Y69003D01*
X267165Y69370D01*
X266981Y69633D01*
X266798Y69685D01*
X266614Y69580D01*
X266483Y69318D01*
G01X265066Y67848D02*
X264882Y68215D01*
X264724Y68425D01*
X264515Y68530D01*
X264331Y68425D01*
X264200Y68215D01*
X264094Y67900D01*
X264068Y67533D01*
X264094Y67218D01*
X264200Y66903D01*
X264357Y66641D01*
X264541Y66535D01*
X264751Y66641D01*
X264934Y66955D01*
X265039Y67428D01*
X265066Y67953D01*
X265013Y68635D01*
X264934Y69003D01*
X264803Y69370D01*
X264619Y69633D01*
X264436Y69685D01*
X264252Y69580D01*
X264121Y69318D01*
G01X269107Y87926D02*
X269265Y88084D01*
X269449Y88189D01*
X269659D01*
X269895Y88031D01*
X270079Y87769D01*
X270210Y87454D01*
X270315Y86929D01*
X270341Y86457D01*
X270289Y85984D01*
X270210Y85669D01*
X270052Y85354D01*
X269869Y85144D01*
X269685Y85039D01*
X269501D01*
X269318Y85144D01*
X269160Y85302D01*
X269029Y85512D01*
G01X267008Y85039D02*
Y88189D01*
X267979Y85932D01*
X266667D01*
G01X264961Y85039D02*
X264777Y85092D01*
X264567Y85249D01*
X264436Y85512D01*
X264383Y85879D01*
X264436Y86246D01*
X264593Y86562D01*
X264830Y86719D01*
X265092D01*
X265249Y86824D01*
X265381Y87087D01*
X265433Y87454D01*
X265354Y87822D01*
X265170Y88084D01*
X264961Y88189D01*
X264751Y88084D01*
X264567Y87822D01*
X264488Y87454D01*
X264541Y87087D01*
X264672Y86824D01*
X264830Y86719D01*
X265092D01*
X265328Y86562D01*
X265485Y86246D01*
X265538Y85879D01*
X265485Y85512D01*
X265354Y85249D01*
X265144Y85092D01*
X264961Y85039D01*
G01X268714Y121391D02*
X268871Y121548D01*
X269055Y121654D01*
X269265D01*
X269501Y121496D01*
X269685Y121233D01*
X269816Y120919D01*
X269921Y120394D01*
X269948Y119921D01*
X269895Y119449D01*
X269816Y119134D01*
X269659Y118819D01*
X269475Y118609D01*
X269291Y118504D01*
X269107D01*
X268924Y118609D01*
X268767Y118767D01*
X268635Y118976D01*
G01X266614Y118504D02*
Y121654D01*
X267585Y119396D01*
X266273D01*
G01X264567Y121654D02*
X264777Y121548D01*
X264934Y121286D01*
X265039Y120971D01*
X265118Y120551D01*
X265144Y120079D01*
X265118Y119606D01*
X265039Y119186D01*
X264934Y118871D01*
X264777Y118609D01*
X264567Y118504D01*
X264357Y118609D01*
X264200Y118871D01*
X264094Y119186D01*
X264016Y119606D01*
X263989Y120079D01*
X264016Y120551D01*
X264094Y120971D01*
X264200Y121286D01*
X264357Y121548D01*
X264567Y121654D01*
M02*
