G04 ================== begin FILE IDENTIFICATION RECORD ==================*
G04 Layout Name:  F:/3-MyLaptopDIR/4CH-OEInterface_x86/PCB/4CH-OEI-A2.brd*
G04 Film Name:    SOLDERMASK_BOTTOM*
G04 File Format:  Gerber RS274X*
G04 File Origin:  Cadence Allegro 22.1-P001*
G04 Origin Date:  Tue Jun 10 16:08:45 2025*
G04 *
G04 Layer:  VIA CLASS/SOLDERMASK_BOTTOM*
G04 Layer:  PIN/SOLDERMASK_BOTTOM*
G04 Layer:  PACKAGE GEOMETRY/SOLDERMASK_BOTTOM*
G04 Layer:  DRC ERROR CLASS/SOLDERMASK_BOTTOM*
G04 Layer:  BOARD GEOMETRY/SOLDERMASK_BOTTOM*
G04 *
G04 Offset:    (0.0000 0.0000)*
G04 Mirror:    No*
G04 Mode:      Positive*
G04 Rotation:  0*
G04 FullContactRelief:  No*
G04 UndefLineWidth:     0.0254*
G04 ================== end FILE IDENTIFICATION RECORD ====================*
%FSLAX25Y25*MOIN*%
%IR0*IPPOS*OFA0.00000B0.00000*MIA0B0*SFA1.00000B1.00000*%
%ADD11R,.082677X.035433*%
%ADD16R,.035433X.066929*%
%ADD14R,.053937X.024016*%
%ADD19R,.024016X.053937*%
%ADD18R,.043307X.03937*%
%ADD15R,.082677X.122047*%
%AMMACRO10*
4,1,40,.031496,-.007217,
.031496,.007217,
.031277,.009723,
.030625,.012154,
.029562,.014435,
.028118,.016496,
.026339,.018276,
.024278,.019719,
.021997,.020783,
.019566,.021434,
.017059,.021654,
-.017059,.021654,
-.019566,.021434,
-.021997,.020783,
-.024278,.019719,
-.026339,.018276,
-.028118,.016496,
-.029562,.014435,
-.030625,.012154,
-.031277,.009723,
-.031496,.007217,
-.031496,-.007217,
-.031277,-.009723,
-.030625,-.012154,
-.029562,-.014435,
-.028118,-.016496,
-.026339,-.018276,
-.024278,-.019719,
-.021997,-.020783,
-.019566,-.021434,
-.017059,-.021654,
.017059,-.021654,
.019566,-.021434,
.021997,-.020783,
.024278,-.019719,
.026339,-.018276,
.028118,-.016496,
.029562,-.014435,
.030625,-.012154,
.031277,-.009723,
.031496,-.007217,
0.0*
%
%ADD10MACRO10*%
%ADD17C,.055118*%
%ADD12R,.035433X.027559*%
%ADD13R,.027559X.035433*%
%LPD*%
G75*
G54D10*
X10669Y81437D03*
Y115492D03*
X27205Y81437D03*
Y115492D03*
G54D11*
X13819Y39331D03*
Y47205D03*
Y55079D03*
Y62953D03*
Y70827D03*
X33504Y39331D03*
Y47205D03*
Y55079D03*
Y62953D03*
Y70827D03*
G54D12*
X33465Y11024D03*
Y14961D03*
X37795Y113386D03*
Y117323D03*
X43307Y121654D03*
Y125591D03*
X52362Y121654D03*
Y125591D03*
X54724Y68110D03*
Y72047D03*
Y77165D03*
Y81102D03*
X63386Y66142D03*
Y70079D03*
X69291Y63780D03*
Y67717D03*
Y73622D03*
Y77559D03*
X68898Y84252D03*
Y88189D03*
X75197Y63780D03*
Y67717D03*
X75236Y73622D03*
Y77559D03*
X85039Y79528D03*
Y83465D03*
X85433Y42520D03*
Y46457D03*
X91732Y55512D03*
Y59449D03*
X94094Y84646D03*
Y88583D03*
X101181Y55512D03*
Y59449D03*
X99606Y84646D03*
Y88583D03*
X111811Y53937D03*
Y57874D03*
X120079Y61024D03*
Y64961D03*
X141732Y7480D03*
Y11417D03*
X142126Y39764D03*
Y43701D03*
Y87008D03*
Y90945D03*
Y118110D03*
Y122047D03*
X182677Y26772D03*
Y30709D03*
X183858Y69685D03*
Y73622D03*
X204331Y51181D03*
Y55118D03*
Y77953D03*
Y81890D03*
X209843Y108661D03*
Y112598D03*
X215748Y113386D03*
Y117323D03*
X217717Y17717D03*
Y21654D03*
X238976Y65748D03*
Y69685D03*
X237795Y100000D03*
Y103937D03*
X240157Y33465D03*
Y37402D03*
X246063Y29528D03*
Y33465D03*
Y61024D03*
Y64961D03*
G54D13*
X46063Y116142D03*
X50000D03*
X59055Y86220D03*
Y91732D03*
X62992Y86220D03*
Y91732D03*
X67717Y55512D03*
X71654Y34646D03*
Y55512D03*
X74409Y84252D03*
X75591Y34646D03*
X78346Y84252D03*
X77559Y91732D03*
X81496D03*
X84646Y70866D03*
X88583D03*
X100787Y64961D03*
X103150Y35039D03*
X104724Y64961D03*
X107087Y35039D03*
X147638Y9055D03*
X147618Y14567D03*
X147638Y40157D03*
Y45669D03*
Y87795D03*
Y93307D03*
X148425Y118898D03*
Y124409D03*
X151575Y9055D03*
X151555Y14567D03*
X151575Y40157D03*
Y45669D03*
Y87795D03*
Y93307D03*
X152362Y118898D03*
Y124409D03*
X162205Y44488D03*
X166929Y11024D03*
Y24016D03*
X166142Y38583D03*
Y44488D03*
X166929Y57087D03*
Y71654D03*
Y103543D03*
X168504Y80709D03*
Y112598D03*
X170866Y11024D03*
Y24016D03*
X170079Y38583D03*
X170866Y57087D03*
Y71654D03*
Y103543D03*
X172441Y80709D03*
Y112598D03*
X182283Y106693D03*
X183858Y58268D03*
X186220Y106693D03*
X187795Y58268D03*
X191339Y45276D03*
X190551Y85433D03*
Y90945D03*
Y118110D03*
Y123622D03*
X192126Y11417D03*
X195276Y45276D03*
X194488Y85433D03*
Y90945D03*
Y118110D03*
Y123622D03*
X196063Y11417D03*
X210177Y55118D03*
X210236Y61024D03*
Y72835D03*
Y78346D03*
X209449Y103150D03*
X211417Y26772D03*
Y32677D03*
X214114Y55118D03*
X214173Y61024D03*
Y72835D03*
Y78346D03*
X213386Y103150D03*
X215354Y26772D03*
Y32677D03*
X229921Y126752D03*
X233858D03*
X242520Y94094D03*
X246457D03*
X254724Y31496D03*
Y62992D03*
Y94094D03*
X255512Y126772D03*
X258661Y31496D03*
Y62992D03*
Y94094D03*
X259449Y126772D03*
X264567Y31496D03*
Y62992D03*
Y94094D03*
Y126772D03*
X268504Y31496D03*
Y62992D03*
Y94094D03*
Y126772D03*
G54D14*
X65584Y46004D03*
X76244Y42161D03*
Y49701D03*
X92749Y46004D03*
X103409Y42161D03*
Y49701D03*
X209678Y9783D03*
X220339Y5941D03*
Y13480D03*
X221489Y64902D03*
X220308Y97972D03*
X223064Y33406D03*
X232150Y61059D03*
Y68598D03*
X230969Y94130D03*
Y101669D03*
X233724Y29563D03*
Y37102D03*
G54D15*
X72835Y11811D03*
Y122441D03*
X108268Y11811D03*
Y122441D03*
G54D16*
X82677Y108661D03*
X83661Y25591D03*
X88583D03*
X87598Y108661D03*
X92520D03*
X93504Y25591D03*
X97441Y108661D03*
X98425Y25591D03*
G54D17*
X126378Y9291D03*
Y19291D03*
Y35669D03*
Y45669D03*
Y88425D03*
Y98425D03*
Y115197D03*
Y125197D03*
X254331Y16929D03*
Y49213D03*
Y80315D03*
Y113386D03*
X260630Y10630D03*
Y23228D03*
Y42913D03*
Y55512D03*
Y74016D03*
Y86614D03*
Y107087D03*
Y119685D03*
X266929Y16929D03*
Y49213D03*
Y80315D03*
Y113386D03*
G54D18*
X205512Y16535D03*
Y24409D03*
G54D19*
X226283Y22701D03*
Y54984D03*
Y86480D03*
Y118764D03*
X229980Y12041D03*
Y44324D03*
Y75820D03*
Y108104D03*
X233823Y22701D03*
Y54984D03*
Y86480D03*
Y118764D03*
X239669Y22701D03*
Y54591D03*
Y86480D03*
Y118764D03*
X243366Y12041D03*
Y43930D03*
Y75820D03*
Y108104D03*
X247209Y22701D03*
Y54591D03*
Y86480D03*
Y118764D03*
M02*
