G04 ================== begin FILE IDENTIFICATION RECORD ==================*
G04 Layout Name:  F:/3-MyLaptopDIR/4CH-OEInterface_x86/PCB/4CH-OEI-A2.brd*
G04 Film Name:    SOLDERMASK_TOP*
G04 File Format:  Gerber RS274X*
G04 File Origin:  Cadence Allegro 22.1-P001*
G04 Origin Date:  Tue Jun 10 16:08:45 2025*
G04 *
G04 Layer:  VIA CLASS/SOLDERMASK_TOP*
G04 Layer:  PIN/SOLDERMASK_TOP*
G04 Layer:  PACKAGE GEOMETRY/SOLDERMASK_TOP*
G04 Layer:  DRC ERROR CLASS/SOLDERMASK_TOP*
G04 Layer:  BOARD GEOMETRY/SOLDERMASK_TOP*
G04 *
G04 Offset:    (0.0000 0.0000)*
G04 Mirror:    No*
G04 Mode:      Positive*
G04 Rotation:  0*
G04 FullContactRelief:  No*
G04 UndefLineWidth:     0.0254*
G04 ================== end FILE IDENTIFICATION RECORD ====================*
%FSLAX25Y25*MOIN*%
%IR0*IPPOS*OFA0.00000B0.00000*MIA0B0*SFA1.00000B1.00000*%
%ADD16R,.043307X.015748*%
%ADD15R,.043307X.023622*%
%ADD17R,.03937X.035433*%
%ADD28R,.051181X.027559*%
%ADD24R,.035433X.066929*%
%ADD18R,.051181X.043307*%
%ADD23R,.082677X.122047*%
%ADD11R,.051181X.059055*%
%AMMACRO12*
4,1,40,.031496,-.007217,
.031496,.007217,
.031277,.009723,
.030625,.012154,
.029562,.014435,
.028118,.016496,
.026339,.018276,
.024278,.019719,
.021997,.020783,
.019566,.021434,
.017059,.021654,
-.017059,.021654,
-.019566,.021434,
-.021997,.020783,
-.024278,.019719,
-.026339,.018276,
-.028118,.016496,
-.029562,.014435,
-.030625,.012154,
-.031277,.009723,
-.031496,.007217,
-.031496,-.007217,
-.031277,-.009723,
-.030625,-.012154,
-.029562,-.014435,
-.028118,-.016496,
-.026339,-.018276,
-.024278,-.019719,
-.021997,-.020783,
-.019566,-.021434,
-.017059,-.021654,
.017059,-.021654,
.019566,-.021434,
.021997,-.020783,
.024278,-.019719,
.026339,-.018276,
.028118,-.016496,
.029562,-.014435,
.030625,-.012154,
.031277,-.009723,
.031496,-.007217,
0.0*
%
%ADD12MACRO12*%
%ADD27C,.055118*%
%ADD19C,.125984*%
%ADD14R,.035433X.023622*%
%ADD10R,.035433X.027559*%
%ADD20R,.035433X.01378*%
%ADD13R,.027559X.035433*%
%ADD21R,.01378X.035433*%
%ADD22R,.161417X.161417*%
%ADD25R,.030709X.014961*%
%ADD26R,.014961X.030709*%
%LPD*%
G75*
G54D10*
X9843Y13386D03*
Y17323D03*
X28346Y30709D03*
Y34646D03*
X34646Y30709D03*
Y34646D03*
X43701Y87795D03*
Y91732D03*
X59055Y101181D03*
Y105118D03*
X60630Y29921D03*
Y33858D03*
X70079Y98819D03*
Y102756D03*
X141732Y75984D03*
Y79921D03*
Y107480D03*
Y111417D03*
X148031Y75945D03*
Y79882D03*
Y107480D03*
Y111417D03*
X154331Y76004D03*
Y79941D03*
Y107480D03*
Y111417D03*
X162598Y6693D03*
Y10630D03*
X168898Y6693D03*
Y10630D03*
X175197Y6693D03*
Y10630D03*
X182677Y22835D03*
Y26772D03*
Y54331D03*
Y58268D03*
Y69724D03*
Y73661D03*
Y101575D03*
Y105512D03*
X188583Y22854D03*
Y26791D03*
Y54350D03*
Y58287D03*
Y69744D03*
Y73681D03*
Y101575D03*
Y105512D03*
X196063Y22795D03*
Y26732D03*
Y54331D03*
Y58268D03*
Y69685D03*
Y73622D03*
Y101575D03*
Y105512D03*
X203150Y91732D03*
Y95669D03*
Y123228D03*
Y127165D03*
X209055Y91693D03*
Y95630D03*
Y123228D03*
Y127165D03*
X224016Y16142D03*
Y20079D03*
Y48425D03*
Y52362D03*
Y80315D03*
Y84252D03*
X224409Y112598D03*
Y116535D03*
G54D20*
X55906Y58858D03*
Y60827D03*
Y62795D03*
Y64764D03*
Y66732D03*
Y68701D03*
Y70669D03*
Y72638D03*
Y74606D03*
Y76575D03*
Y78543D03*
Y80512D03*
Y82480D03*
Y84449D03*
Y86417D03*
Y88386D03*
X91339Y58858D03*
Y60827D03*
Y62795D03*
Y64764D03*
Y66732D03*
Y68701D03*
Y70669D03*
Y72638D03*
Y74606D03*
Y76575D03*
Y78543D03*
Y80512D03*
Y82480D03*
Y84449D03*
Y86417D03*
Y88386D03*
G54D11*
X11811Y31890D03*
X19685D03*
X19291Y51575D03*
Y64173D03*
X27953Y51575D03*
Y64173D03*
G54D21*
X58858Y55906D03*
Y91339D03*
X60827Y55906D03*
Y91339D03*
X62795Y55906D03*
Y91339D03*
X64764Y55906D03*
Y91339D03*
X66732Y55906D03*
Y91339D03*
X68701Y55906D03*
Y91339D03*
X70669Y55906D03*
Y91339D03*
X72638Y55906D03*
Y91339D03*
X74606Y55906D03*
Y91339D03*
X76575Y55906D03*
Y91339D03*
X78543Y55906D03*
Y91339D03*
X80512Y55906D03*
Y91339D03*
X82480Y55906D03*
Y91339D03*
X84449Y55906D03*
Y91339D03*
X86417Y55906D03*
Y91339D03*
X88386Y55906D03*
Y91339D03*
G54D12*
X10669Y81437D03*
Y115492D03*
X27205Y81437D03*
Y115492D03*
G54D22*
X73622Y73622D03*
G54D13*
X11024Y24429D03*
X14961D03*
X25984Y24016D03*
X25197Y72047D03*
X26378Y124016D03*
X29134Y72047D03*
X29921Y24016D03*
X30315Y124016D03*
X35433Y24016D03*
X40157D03*
X44882Y66535D03*
X48819D03*
X60236Y39370D03*
X64173D03*
X71260Y34646D03*
X75984D03*
X119685Y27165D03*
X124409D03*
X129528D03*
X133465D03*
X140945Y24016D03*
X140886Y29921D03*
X140945Y55118D03*
X140886Y61024D03*
X140945Y70453D03*
Y101969D03*
X144882Y24016D03*
X144823Y29921D03*
X144882Y55118D03*
X144823Y61024D03*
X144882Y70453D03*
Y101969D03*
X150787Y24016D03*
X150748Y29921D03*
X150787Y55118D03*
X150748Y61024D03*
X150787Y70472D03*
Y101969D03*
X154724Y24016D03*
X154685Y29921D03*
X154724Y55118D03*
X154685Y61024D03*
X154724Y70472D03*
Y101969D03*
X161811Y16142D03*
Y40945D03*
Y46850D03*
X161870Y88209D03*
X161811Y94055D03*
X161870Y119685D03*
X161811Y125591D03*
X165748Y16142D03*
Y40945D03*
Y46850D03*
X165807Y88209D03*
X165748Y94055D03*
X165807Y119685D03*
X165748Y125591D03*
X171594Y16142D03*
X171614Y40945D03*
X171594Y46850D03*
X171614Y88189D03*
X171654Y94094D03*
X171614Y119665D03*
X171654Y125630D03*
X175531Y16142D03*
X175551Y40945D03*
X175531Y46850D03*
X175551Y88189D03*
X175591Y94094D03*
X175551Y119665D03*
X175591Y125630D03*
X183071Y32283D03*
X182677Y63780D03*
Y79134D03*
Y111024D03*
X187008Y32283D03*
X186614Y63780D03*
Y79134D03*
Y111024D03*
X192520Y32283D03*
Y63780D03*
Y79134D03*
Y111024D03*
X196457Y32283D03*
Y63780D03*
Y79134D03*
Y111024D03*
X203150Y7874D03*
X203169Y15354D03*
X203150Y39764D03*
X203169Y46850D03*
X203150Y86220D03*
Y118110D03*
X207087Y7874D03*
X207106Y15354D03*
X207087Y39764D03*
X207106Y46850D03*
X207087Y86220D03*
Y118110D03*
X212205Y7874D03*
X212224Y15354D03*
X212205Y39764D03*
X212224Y46850D03*
X216142Y7874D03*
X216161Y15354D03*
X216142Y39764D03*
X216161Y46850D03*
X229528Y16535D03*
Y22441D03*
X229488Y31496D03*
X229528Y48819D03*
Y54724D03*
X229488Y62992D03*
X229528Y80709D03*
Y86614D03*
Y94094D03*
X229921Y112598D03*
Y119685D03*
Y126772D03*
X232677Y7480D03*
X231890Y39370D03*
Y70472D03*
X233465Y16535D03*
Y22441D03*
X233425Y31496D03*
X233465Y48819D03*
Y54724D03*
X233425Y62992D03*
X233465Y80709D03*
Y86614D03*
Y94094D03*
X233858Y112598D03*
Y119685D03*
Y126772D03*
X236614Y39370D03*
Y70472D03*
X237402Y7480D03*
X238189Y101575D03*
X239764Y14567D03*
Y21654D03*
Y46457D03*
X239724Y53543D03*
X239764Y78346D03*
Y85433D03*
X240157Y110630D03*
Y118110D03*
X240945Y126772D03*
X242520Y7480D03*
Y31496D03*
Y39370D03*
Y70472D03*
Y94094D03*
X242913Y101575D03*
X243701Y14567D03*
Y21654D03*
Y46457D03*
X243661Y53543D03*
X243701Y62205D03*
Y78346D03*
Y85433D03*
X244094Y110630D03*
Y118110D03*
X244882Y126772D03*
X246457Y7480D03*
Y31496D03*
Y39370D03*
Y70472D03*
Y94094D03*
X247638Y62205D03*
X248425Y101575D03*
X252362D03*
G54D14*
X16535Y9646D03*
Y13386D03*
Y17126D03*
X26772Y9646D03*
Y17126D03*
X42126Y31299D03*
Y35039D03*
Y38780D03*
X52362Y31299D03*
Y38780D03*
G54D23*
X72835Y11811D03*
X73189Y122441D03*
X108268Y11811D03*
X108622Y122441D03*
X114173Y66929D03*
G54D24*
X82677Y25591D03*
X84016Y108661D03*
X87598Y25591D03*
X88937Y108661D03*
X92520Y25591D03*
X93858Y108661D03*
X97441Y25591D03*
X98780Y108661D03*
G54D15*
X29173Y85866D03*
Y89016D03*
Y107913D03*
Y111063D03*
X42913Y117323D03*
Y121063D03*
Y124803D03*
X53150Y117323D03*
Y121063D03*
Y124803D03*
G54D25*
X107480Y60039D03*
Y62008D03*
Y63976D03*
Y65945D03*
Y67913D03*
Y69882D03*
Y71850D03*
Y73819D03*
X120866Y60039D03*
Y62008D03*
Y63976D03*
Y65945D03*
Y67913D03*
Y69882D03*
Y71850D03*
Y73819D03*
G54D16*
X29173Y91575D03*
Y93543D03*
Y95512D03*
Y97480D03*
Y99449D03*
Y101417D03*
Y103386D03*
Y105354D03*
G54D26*
X111220Y58437D03*
Y75425D03*
X117126Y58437D03*
Y75425D03*
G54D17*
X33858Y10630D03*
Y16142D03*
X39764Y10630D03*
Y16142D03*
X38976Y46850D03*
Y52362D03*
X45276Y46850D03*
Y52362D03*
G54D27*
X126378Y9291D03*
Y19291D03*
Y35669D03*
Y45669D03*
Y88425D03*
Y98425D03*
Y115197D03*
Y125197D03*
X254331Y16929D03*
Y49213D03*
Y80315D03*
Y113386D03*
X260630Y10630D03*
Y23228D03*
Y42913D03*
Y55512D03*
Y74016D03*
Y86614D03*
Y107087D03*
Y119685D03*
X266929Y16929D03*
Y49213D03*
Y80315D03*
Y113386D03*
G54D18*
X43701Y99055D03*
Y106929D03*
X51575Y99055D03*
Y106929D03*
G54D19*
X53937Y11811D03*
G54D28*
X142520Y8268D03*
Y12008D03*
Y15748D03*
Y39764D03*
Y43504D03*
Y47244D03*
Y87008D03*
Y90748D03*
Y94488D03*
Y118110D03*
Y121850D03*
Y125591D03*
X153543Y8268D03*
Y12008D03*
Y15748D03*
Y39764D03*
Y43504D03*
Y47244D03*
Y87008D03*
Y90748D03*
Y94488D03*
Y118110D03*
Y121850D03*
Y125591D03*
X163386Y23622D03*
Y27362D03*
Y31102D03*
Y55118D03*
Y58858D03*
Y62598D03*
Y70866D03*
Y74606D03*
Y78346D03*
Y102756D03*
Y106496D03*
Y110236D03*
X174409Y23622D03*
Y27362D03*
Y31102D03*
Y55118D03*
Y58858D03*
Y62598D03*
Y70866D03*
Y74606D03*
Y78346D03*
Y102756D03*
Y106496D03*
Y110236D03*
X183858Y7874D03*
Y11614D03*
Y15354D03*
Y39764D03*
Y43504D03*
Y47244D03*
Y87008D03*
Y90748D03*
Y94488D03*
Y118110D03*
Y121850D03*
Y125591D03*
X194882Y7874D03*
Y11614D03*
Y15354D03*
Y39764D03*
Y43504D03*
Y47244D03*
Y87008D03*
Y90748D03*
Y94488D03*
Y118110D03*
Y121850D03*
Y125591D03*
X204724Y23622D03*
Y27362D03*
Y31102D03*
Y55118D03*
Y58858D03*
Y62598D03*
Y70866D03*
Y74606D03*
Y78346D03*
Y102756D03*
Y106496D03*
Y110236D03*
X214173Y23622D03*
Y31102D03*
Y55118D03*
Y62598D03*
Y70866D03*
Y78346D03*
Y102756D03*
Y110236D03*
M02*
