G04 ================== begin FILE IDENTIFICATION RECORD ==================*
G04 Layout Name:  F:/3-MyLaptopDIR/4CH-OEInterface_x86/PCB/4CH-OEI-A2.brd*
G04 Film Name:    TOP*
G04 File Format:  Gerber RS274X*
G04 File Origin:  Cadence Allegro 22.1-P001*
G04 Origin Date:  Tue Jun 10 16:08:44 2025*
G04 *
G04 Layer:  VIA CLASS/TOP*
G04 Layer:  PIN/TOP*
G04 Layer:  ETCH/TOP*
G04 *
G04 Offset:    (0.0000 0.0000)*
G04 Mirror:    No*
G04 Mode:      Positive*
G04 Rotation:  0*
G04 FullContactRelief:  No*
G04 UndefLineWidth:     0.0254*
G04 ================== end FILE IDENTIFICATION RECORD ====================*
%FSLAX25Y25*MOIN*%
%IR0*IPPOS*OFA0.00000B0.00000*MIA0B0*SFA1.00000B1.00000*%
%ADD17R,.03937X.011811*%
%ADD16R,.03937X.019685*%
%ADD29R,.047244X.023622*%
%ADD25R,.031496X.062992*%
%ADD10C,.015748*%
%ADD19R,.047244X.03937*%
%AMMACRO13*
4,1,40,.029528,-.006563,
.029528,.006563,
.029328,.008842,
.028736,.011051,
.02777,.013124,
.026458,.014998,
.02484,.016615,
.022967,.017927,
.020894,.018894,
.018684,.019486,
.016406,.019685,
-.016406,.019685,
-.018684,.019486,
-.020894,.018894,
-.022967,.017927,
-.02484,.016615,
-.026458,.014998,
-.02777,.013124,
-.028736,.011051,
-.029328,.008842,
-.029528,.006563,
-.029528,-.006563,
-.029328,-.008842,
-.028736,-.011051,
-.02777,-.013124,
-.026458,-.014998,
-.02484,-.016615,
-.022967,-.017927,
-.020894,-.018894,
-.018684,-.019486,
-.016406,-.019685,
.016406,-.019685,
.018684,-.019486,
.020894,-.018894,
.022967,-.017927,
.02484,-.016615,
.026458,-.014998,
.02777,-.013124,
.028736,-.011051,
.029328,-.008842,
.029528,-.006563,
0.0*
%
%ADD13MACRO13*%
%ADD24R,.07874X.11811*%
%ADD12R,.047244X.055118*%
%ADD28C,.047244*%
%ADD20C,.122047*%
%ADD15R,.031496X.019685*%
%ADD11R,.031496X.023622*%
%ADD21R,.031496X.009843*%
%ADD14R,.023622X.031496*%
%ADD22R,.009843X.031496*%
%ADD18R,.035433X.031496*%
%ADD23R,.15748X.15748*%
%ADD26R,.026772X.011024*%
%ADD27R,.011024X.026772*%
%ADD30C,.007874*%
%ADD31C,.011811*%
%ADD32C,.019685*%
%ADD33C,.023622*%
%ADD34C,.005906*%
%ADD35C,.009843*%
%ADD36C,.008*%
%ADD37C,.014173*%
%ADD38C,.011024*%
%ADD39C,.005*%
G75*
%LPD*%
G75*
G36*
G01X11417Y14567D02*
Y4331D01*
X4331D01*
Y14567D01*
X11417D01*
G37*
G36*
G01X12205Y26378D02*
Y22441D01*
X4331D01*
Y26378D01*
X12205D01*
G37*
G36*
G01X17323Y34646D02*
X22441D01*
X25197Y31890D01*
X38976D01*
X39370Y32283D01*
X43701D01*
Y29528D01*
X24409D01*
X24016Y29134D01*
X22047D01*
X20866Y27953D01*
Y25197D01*
X18504Y22835D01*
Y16142D01*
X8268D01*
Y18504D01*
X11024D01*
X13780Y21260D01*
Y26378D01*
X16142D01*
X17323Y27559D01*
Y34646D01*
G37*
G36*
G01X9449Y66929D02*
X21654D01*
Y40551D01*
X29528D01*
Y38189D01*
X14173D01*
Y29134D01*
X9449D01*
Y66929D01*
G37*
G36*
G01X24016Y25591D02*
X27165D01*
Y21654D01*
X28346Y20472D01*
X42126D01*
Y14567D01*
X25197D01*
Y18110D01*
X24016Y19291D01*
Y25591D01*
G37*
G36*
G01X33071Y68898D02*
X46063D01*
Y58661D01*
X47638Y57087D01*
Y50787D01*
X31102D01*
Y48819D01*
X25591D01*
Y66929D01*
X31102D01*
X33071Y68898D01*
G37*
G36*
G01X31496Y12205D02*
Y4331D01*
X42126D01*
Y12205D01*
X31496D01*
G37*
G36*
G01X36614Y48425D02*
X51181D01*
X55512Y44094D01*
X61417D01*
Y37795D01*
X58268D01*
Y41732D01*
X53937D01*
X51181Y44488D01*
X36614D01*
Y48425D01*
G37*
G36*
G01X50787Y39764D02*
X55118D01*
Y38189D01*
X57480Y35827D01*
X62992D01*
Y41339D01*
X65748D01*
Y32677D01*
X57874D01*
X53150Y37402D01*
X50787D01*
Y39764D01*
G37*
G54D10*
G01X26378Y124016D02*
X23228D01*
G01X25197Y72047D02*
Y75591D01*
X27205Y77598D01*
Y81437D01*
G01X31496Y34646D02*
X28346D01*
G01X29921Y24016D02*
X35433D01*
G01X34646Y34646D02*
X31496D01*
G01X34646D02*
X38189D01*
G01D02*
X39407D01*
X39801Y35039D01*
X42126D01*
G01X40157Y24016D02*
X43307D01*
G01X42913Y115051D02*
X40157D01*
X39764Y115445D01*
Y116929D01*
X40157Y117323D01*
X42913D01*
G01X43701Y87795D02*
Y85039D01*
G01Y106929D02*
Y111024D01*
G01X51575Y99055D02*
X55354D01*
X57480Y101181D01*
X59055D01*
G01X53150Y121063D02*
X56890D01*
G01X60630Y29921D02*
X56693D01*
G01X59055Y101181D02*
X61917D01*
G01X71260Y34646D02*
Y37795D01*
X71654Y38189D01*
G01X75984Y34646D02*
Y38976D01*
G01X103937Y110236D02*
X103150Y111024D01*
X100354D01*
X98780Y109449D01*
Y108661D01*
G01X124409Y27165D02*
X129528D01*
G01X126378Y19291D02*
X134252D01*
X137795Y15748D01*
G01Y47244D02*
X131065D01*
X129491Y45669D01*
X126378D01*
G01Y98425D02*
X132677D01*
X136614Y94488D01*
X137795D01*
G01Y111417D02*
X130157D01*
X126378Y115197D01*
G01Y125197D02*
X129491D01*
X129884Y125591D01*
X137795D01*
G01X133465Y27165D02*
X133858Y26772D01*
X136614D01*
G01X137795Y8268D02*
Y11417D01*
X138386Y12008D01*
X142520D01*
G01X137795Y87008D02*
Y89370D01*
X139173Y90748D01*
X142520D01*
G01X137795Y118110D02*
Y121260D01*
X138386Y121850D01*
X142520D01*
G01Y8268D02*
X137795D01*
G01Y15748D02*
X142520D01*
G01X140945Y24016D02*
X137795D01*
G01X140886Y29921D02*
X137795D01*
G01X142520Y47244D02*
X137795D01*
G01X140945Y55118D02*
X137795D01*
G01X140886Y61024D02*
X137795D01*
G01X140945Y70453D02*
X137815D01*
G01X141732Y79921D02*
X137795D01*
G01X142520Y87008D02*
X137795D01*
G01Y94488D02*
X142520D01*
G01X137795Y101969D02*
X140945D01*
G01X141732Y111417D02*
X137795D01*
G01X142520Y118110D02*
X137795D01*
G01X142520Y125591D02*
X137795D01*
G01X141732Y75984D02*
X145667D01*
X145706Y75945D01*
X148031D01*
G01X141732Y107480D02*
X148031D01*
G01X144882Y24016D02*
Y26341D01*
X144823Y26400D01*
Y29921D01*
G01X144882Y24016D02*
X150787D01*
G01X144823Y29921D02*
X150748D01*
G01X144882Y55118D02*
X150787D01*
G01X144823Y61024D02*
Y58698D01*
X144882Y58639D01*
Y55118D01*
G01X144823Y61024D02*
X150748D01*
G01X144882Y70453D02*
X146850D01*
G01Y101969D02*
X144882D01*
G01X146850Y70453D02*
X148836D01*
X148856Y70472D01*
X150787D01*
G01X146850Y70453D02*
X148031Y71634D01*
Y75945D01*
G01X146850Y101969D02*
X148031Y103150D01*
Y107480D01*
G01X150787Y101969D02*
X146850D01*
G01X148031Y79882D02*
Y83071D01*
G01Y111417D02*
Y114567D01*
G01X150748Y29921D02*
Y26380D01*
X150787Y26341D01*
Y24016D01*
G01X150748Y61024D02*
Y57483D01*
X150787Y57443D01*
Y55118D01*
G01X153543Y12008D02*
X157193D01*
G01X153543Y43504D02*
X157193D01*
G01X154724Y55118D02*
Y50357D01*
X153543Y49176D01*
Y47244D01*
G01X154724Y70472D02*
Y72798D01*
X154331Y73191D01*
Y76004D01*
G01Y79941D02*
Y84289D01*
X153543Y85076D01*
Y87008D01*
G01D02*
X157480D01*
G01X153543Y90748D02*
X157399D01*
G01X154724Y101969D02*
Y104724D01*
X154331Y105118D01*
Y107480D01*
G01Y111417D02*
Y115391D01*
X153543Y116179D01*
Y118110D01*
G01D02*
X157480D01*
G01X153543Y121850D02*
X157480D01*
G01X154685Y29921D02*
Y33819D01*
G01Y61024D02*
Y64528D01*
G01X163386Y70866D02*
X157050D01*
X156656Y70472D01*
X154724D01*
G01X163386Y102756D02*
X158661D01*
X157874Y101969D01*
X154724D01*
G01X161811Y46850D02*
X158268D01*
G01X157480Y121850D02*
X158071D01*
X160236Y119685D01*
X161870D01*
G01X163386Y27362D02*
X159736D01*
G01X163386Y58858D02*
X159055D01*
G01X163386Y74606D02*
X159736D01*
G01X163386Y106496D02*
X159449D01*
G01X161811Y16142D02*
Y13817D01*
X162598Y13029D01*
Y10630D01*
G01X163386Y23622D02*
Y21691D01*
X161811Y20116D01*
Y16142D01*
G01X163386Y55118D02*
Y53187D01*
X161811Y51612D01*
Y46850D01*
G01X168504Y16142D02*
X165748D01*
G01Y40945D02*
Y46850D01*
G01Y40945D02*
X171614D01*
G01X171594Y46850D02*
X165748D01*
G01X165807Y88209D02*
X167739D01*
X167758Y88189D01*
X171614D01*
G01X165748Y94055D02*
Y91730D01*
X165807Y91671D01*
Y88209D01*
G01X165748Y94055D02*
X169683D01*
X169722Y94094D01*
X171654D01*
G01X165807Y119685D02*
X167739D01*
X167758Y119665D01*
X171614D01*
G01X165748Y125591D02*
Y123265D01*
X165807Y123206D01*
Y119685D01*
G01X165748Y125591D02*
X169683D01*
X169722Y125630D01*
X171654D01*
G01X171594Y16142D02*
X168504D01*
G01D02*
X168898Y15748D01*
Y10630D01*
G01D02*
X175197D01*
G01X171614Y40945D02*
Y43270D01*
X171594Y43290D01*
Y46850D01*
G01X171614Y88189D02*
Y91730D01*
X171654Y91769D01*
Y94094D01*
G01X171614Y119665D02*
Y123265D01*
X171654Y123305D01*
Y125630D01*
G01X174409Y27362D02*
X178059D01*
G01D02*
Y30565D01*
X177522Y31102D01*
X174409D01*
G01Y55118D02*
X178740D01*
G01X174409Y58858D02*
X178346D01*
G01D02*
Y61774D01*
X177522Y62598D01*
X174409D01*
G01Y74606D02*
X178346D01*
G01D02*
Y77522D01*
X177522Y78346D01*
X174409D01*
G01Y106496D02*
X178059D01*
G01D02*
Y109055D01*
X176878Y110236D01*
X174409D01*
G01X175197Y6693D02*
X176772Y5118D01*
X179134D01*
G01X175531Y16142D02*
Y19626D01*
G01X175551Y40945D02*
X178740D01*
G01X175531Y46850D02*
Y50000D01*
G01X175551Y88189D02*
X177126Y86614D01*
X178740D01*
G01Y94094D02*
X175591D01*
G01X175551Y119665D02*
X177185D01*
X178740Y118110D01*
G01X175591Y125630D02*
X178740D01*
G01X182677Y54331D02*
X179528D01*
X178740Y55118D01*
G01X183858Y11614D02*
X180209D01*
G01X183858Y47244D02*
X180209D01*
G01X183858Y90748D02*
X180209D01*
G01X182677Y58268D02*
X186238D01*
X186257Y58287D01*
X188583D01*
G01X183858Y87008D02*
Y85076D01*
X183428Y84646D01*
X182283D01*
G01X182677Y105512D02*
X188583D01*
G01X183858Y118110D02*
Y116142D01*
X182677Y114961D01*
G01X183858Y94488D02*
X187508D01*
G01X183858Y125591D02*
X187508D01*
G01X188583Y22854D02*
Y20923D01*
X187345Y19685D01*
G01X186614Y63780D02*
X192520D01*
G01X186614Y79134D02*
X189370D01*
G01X188583Y54350D02*
Y51181D01*
G01X192126Y67717D02*
X190610D01*
X188583Y69744D01*
G01X189370Y79134D02*
X192520D01*
G01X196063Y69685D02*
X194488D01*
X192520Y71654D01*
G01X199606Y7874D02*
X194882D01*
G01Y15354D02*
Y17717D01*
X196063Y18898D01*
G01X199606Y39764D02*
X194882D01*
G01Y47244D02*
Y49213D01*
X196457Y50787D01*
G01X194882Y87008D02*
X199606D01*
G01X194882Y90748D02*
X198531D01*
G01X194882Y118110D02*
X198531D01*
G01X194882Y121850D02*
X198531D01*
G01X196457Y63780D02*
X200000D01*
G01X196457Y79134D02*
X199606D01*
G01X196457Y111024D02*
X199606D01*
G01X203150Y118110D02*
X198531D01*
G01X203150Y7874D02*
X199606D01*
G01X203150Y39764D02*
X199606D01*
G01X204724Y70866D02*
X201075D01*
G01X199606Y87008D02*
X200069D01*
X200857Y86220D01*
X203150D01*
G01Y95669D02*
X200287D01*
G01X204724Y102756D02*
X200787D01*
G01X203150Y127165D02*
X199606D01*
G01X203169Y15354D02*
Y12205D01*
G01Y43701D02*
Y46850D01*
G01D02*
Y49176D01*
X203150Y49195D01*
Y51575D01*
X204724Y53150D01*
Y55118D01*
G01X203150Y86220D02*
Y91732D01*
G01X209055Y91693D02*
X205514D01*
X205475Y91732D01*
X203150D01*
G01Y123228D02*
Y118110D01*
G01X209055Y123228D02*
X203150D01*
G01X207087Y7874D02*
Y11417D01*
G01X209449Y15354D02*
X207106D01*
G01X207087Y39764D02*
Y42913D01*
G01X207106Y46850D02*
X209843D01*
G01X210236Y86220D02*
X207087D01*
G01X210630Y118110D02*
X207087D01*
G01X209449Y15354D02*
X212205D01*
G01X209055Y127165D02*
X212992D01*
G01X209843Y46850D02*
X212224D01*
G01X212205Y15354D02*
Y7874D01*
G01X216161Y15354D02*
Y16909D01*
X213780Y19291D01*
G01X212224Y46850D02*
Y44525D01*
X212205Y44506D01*
Y39764D01*
G01X214173Y62598D02*
X216063D01*
X217535Y61126D01*
X217790D01*
G01X214173Y78346D02*
X217823D01*
G01X214173Y102756D02*
X218110D01*
G01X214173Y110236D02*
X218504D01*
G01X225984Y5118D02*
X222835D01*
X220079Y7874D01*
X216142D01*
G01Y39764D02*
Y42913D01*
G01X216161Y46850D02*
Y50394D01*
G01X224016Y16142D02*
Y10236D01*
G01Y20079D02*
Y26772D01*
X224409Y27165D01*
X224446D01*
X224746Y27465D01*
X226283D01*
G01X224016Y48425D02*
Y44094D01*
G01Y52362D02*
Y57087D01*
X226283Y59354D01*
G01X224016Y80315D02*
Y75591D01*
G01Y84252D02*
Y88283D01*
X226283Y90551D01*
G01X224409Y116535D02*
Y120677D01*
X226283Y122551D01*
G01X229921Y126772D02*
X225180D01*
X225160Y126752D01*
X223622D01*
G01X229488Y31496D02*
X226772D01*
X226283Y31008D01*
Y27465D01*
G01X229488Y62992D02*
X227557D01*
X226283Y61719D01*
Y59354D01*
G01X229528Y94094D02*
X227858D01*
X226283Y92520D01*
Y90551D01*
G01X224409Y112598D02*
Y107874D01*
G01X229528Y123228D02*
X226961D01*
X226283Y122551D01*
G01X229528Y22441D02*
Y26378D01*
X228441Y27465D01*
X226283D01*
G01X229528Y54724D02*
Y58185D01*
X228358Y59354D01*
X226283D01*
G01X229528Y86614D02*
Y88976D01*
X227953Y90551D01*
X226283D01*
G01X229528Y16535D02*
Y12598D01*
X230085Y12041D01*
X232677D01*
G01X229528Y48819D02*
Y45276D01*
X230479Y44324D01*
X232677D01*
G01X229528Y80709D02*
Y77026D01*
X230734Y75820D01*
X232272D01*
G01X229921Y112598D02*
Y108661D01*
X230479Y108104D01*
X232283D01*
G01X229921Y119685D02*
Y122835D01*
X229528Y123228D01*
G01X233858Y126772D02*
Y124409D01*
X232677Y123228D01*
X229528D01*
G01X233465Y22441D02*
Y16535D01*
G01D02*
X235396D01*
X237365Y14567D01*
X239764D01*
G01X233465Y22441D02*
X237045D01*
X237832Y21654D01*
X239764D01*
G01X233465Y54724D02*
Y48819D01*
G01D02*
X235433D01*
X237795Y46457D01*
X239764D01*
G01X239724Y53543D02*
X237793D01*
X236612Y54724D01*
X233465D01*
G01Y94094D02*
X237402D01*
G01X233858Y119685D02*
Y112598D01*
G01D02*
X235790D01*
X237758Y110630D01*
X240157D01*
G01X233858Y119685D02*
X235790D01*
X237365Y118110D01*
X240157D01*
G01X242520Y7480D02*
X237402D01*
G01X242520Y39370D02*
X236614D01*
G01Y70472D02*
X242520D01*
G01X239764Y18110D02*
Y14567D01*
G01Y18110D02*
X248031D01*
X248819Y18898D01*
Y24016D01*
X250233Y25430D01*
X258429D01*
X260630Y23228D01*
G01X239764Y18110D02*
Y21654D01*
G01X242220Y27465D02*
X239669D01*
G01X239764Y46457D02*
Y48782D01*
X239724Y48821D01*
Y50000D01*
G01D02*
Y53543D01*
G01Y50000D02*
X247244D01*
X248819Y51575D01*
Y55118D01*
X251414Y57713D01*
X258429D01*
X260630Y55512D01*
G01X240157Y114567D02*
Y110630D01*
G01X260630Y119685D02*
X258049Y122266D01*
X251400D01*
X248819Y119685D01*
Y116142D01*
X247244Y114567D01*
X240157D01*
G01Y118110D02*
Y114567D01*
G01X240945Y126772D02*
Y125197D01*
X239669Y123921D01*
Y122835D01*
G01X244094Y118110D02*
Y120972D01*
X242232Y122835D01*
X239669D01*
G01X242520Y31496D02*
Y27764D01*
X242220Y27465D01*
G01X243701Y21654D02*
Y25984D01*
X242220Y27465D01*
G01X243701Y14567D02*
X247638D01*
G01X243701Y46457D02*
X247638D01*
G01X243661Y53543D02*
Y57713D01*
X243600Y57774D01*
G01X243701Y62205D02*
Y57917D01*
X243600Y57816D01*
Y57774D01*
G01X243701Y78346D02*
X247244D01*
G01X242913Y101575D02*
X248425D01*
G01X244094Y110630D02*
X248031D01*
G01X250394Y31496D02*
X246457D01*
G01Y94094D02*
X250787D01*
G01X244882Y126772D02*
X251969D01*
G01X250394Y62992D02*
X249606Y62205D01*
X247638D01*
X5618Y5618D03*
Y9449D03*
Y12598D03*
Y25091D03*
X7874Y7480D03*
Y23728D03*
X10130Y5618D03*
Y9449D03*
X19291Y39370D03*
X22835Y39331D03*
X23228Y124016D03*
X25878Y21154D03*
X25917Y89016D03*
Y107913D03*
X26819Y19304D03*
X27953Y39370D03*
X30081Y16142D03*
X30709Y19185D03*
X31496Y34646D03*
X33071Y7087D03*
X33858Y19185D03*
X33504Y66929D03*
X35039Y5618D03*
X36614Y7480D03*
Y10630D03*
Y16142D03*
Y66929D03*
X38583Y5618D03*
X37402Y19185D03*
X38189Y34646D03*
Y121063D03*
X38583Y124803D03*
X40551Y7087D03*
Y19185D03*
X39764Y66929D03*
X42913Y115051D03*
X43307Y24016D03*
X43701Y85039D03*
Y111024D03*
X48425Y46850D03*
X48031Y73228D03*
X48425Y77953D03*
X51181Y46063D03*
X52362Y128740D03*
X53543Y44094D03*
X56693Y29921D03*
Y42913D03*
X55906Y90551D03*
X56693Y117323D03*
X56890Y121063D03*
X59449Y64764D03*
X59332Y67833D03*
X58768Y70669D03*
Y82480D03*
X58858Y95276D03*
X59843Y42232D03*
X59529Y59529D03*
X59843Y74250D03*
Y77165D03*
X61811Y62205D03*
X62598Y79134D03*
X61917Y101181D03*
X69291Y59843D03*
X71654Y38189D03*
X74606Y58768D03*
Y88476D03*
X75984Y38976D03*
X77559Y110236D03*
X78059Y11811D03*
X78740Y122441D03*
X83465Y11811D03*
X82677Y31890D03*
Y122441D03*
X84449Y88476D03*
X86417Y58768D03*
Y95276D03*
X87008Y122441D03*
X88476Y62795D03*
Y66732D03*
Y76575D03*
Y86417D03*
X91732Y37008D03*
X92126Y92126D03*
X91732Y122441D03*
X96457D03*
X97638Y11811D03*
Y36614D03*
X101575Y122441D03*
X103043Y11811D03*
X104331Y23228D03*
X104724Y104331D03*
X103937Y110236D03*
X106693Y57480D03*
X111024Y30709D03*
X112205Y62598D03*
Y70866D03*
X111417Y92913D03*
Y104724D03*
X113780Y27165D03*
X114173Y66929D03*
X113059Y75425D03*
X114961Y95276D03*
X115748Y62598D03*
X116142Y70866D03*
X117126Y41732D03*
Y55811D03*
X120866Y33465D03*
Y57874D03*
X119291Y76378D03*
X124409Y62008D03*
X123492Y73819D03*
X126772Y63976D03*
X126378Y71850D03*
X129134Y65945D03*
Y69882D03*
X131496Y55118D03*
X132283Y61024D03*
X132677Y67913D03*
X136614Y26772D03*
X137795Y8268D03*
Y15748D03*
Y24016D03*
Y29921D03*
Y39764D03*
Y47244D03*
Y55118D03*
Y61024D03*
X137815Y70453D03*
X137795Y79921D03*
Y87008D03*
Y94488D03*
Y101969D03*
Y111417D03*
Y118110D03*
Y125591D03*
X148031Y83071D03*
Y114567D03*
X154685Y33819D03*
Y64528D03*
X157193Y8268D03*
Y12008D03*
X157480Y39764D03*
X157193Y43504D03*
X158268Y46850D03*
X157480Y87008D03*
X157399Y90748D03*
X157480Y118110D03*
Y121850D03*
X159736Y27362D03*
X159055Y58858D03*
X159736Y74606D03*
X159449Y106496D03*
X168504Y29134D03*
X167717Y60630D03*
X168504Y76378D03*
Y107874D03*
X168898Y6693D03*
X175531Y19626D03*
Y50000D03*
X178346Y23622D03*
X178059Y27362D03*
X178740Y40945D03*
Y55118D03*
X178346Y58858D03*
Y70866D03*
Y74606D03*
X178740Y86614D03*
Y94094D03*
X178346Y102756D03*
X178059Y106496D03*
X178740Y118110D03*
Y125630D03*
X179134Y5118D03*
X180209Y7874D03*
Y11614D03*
Y15354D03*
X179528Y37795D03*
X180209Y47244D03*
Y90748D03*
Y121850D03*
X182283Y84646D03*
X182677Y114961D03*
X187345Y19685D03*
X188583Y51181D03*
X187508Y94488D03*
Y125591D03*
X189370Y79134D03*
X189764Y111024D03*
X192126Y67717D03*
X192520Y71654D03*
Y101575D03*
X196063Y18898D03*
X196457Y50787D03*
X199213Y11614D03*
Y43701D03*
X198531Y90748D03*
Y118110D03*
Y121850D03*
X199606Y7874D03*
X201075Y23622D03*
X199606Y32283D03*
Y39764D03*
X200000Y63780D03*
X201075Y70866D03*
X199606Y79134D03*
Y87008D03*
X200287Y95669D03*
X200787Y102756D03*
X199606Y111024D03*
Y127165D03*
X203169Y12205D03*
Y43701D03*
X207087Y11417D03*
Y42913D03*
X209449Y15354D03*
X209843Y46850D03*
X210236Y86220D03*
X210630Y118110D03*
X213780Y19291D03*
X211917Y95630D03*
X212992Y127165D03*
X217823Y31102D03*
X216142Y42913D03*
X216161Y50394D03*
X217823Y55118D03*
X217790Y61126D03*
X217717Y72835D03*
X217823Y78346D03*
X218504Y25984D03*
X218110Y102756D03*
X218504Y110236D03*
X224016Y10236D03*
X223064Y35697D03*
X224016Y44094D03*
Y75591D03*
X223622Y126752D03*
X225984Y5118D03*
X224409Y107874D03*
X226283Y27465D03*
X227953Y37102D03*
X226283Y59354D03*
Y90551D03*
Y122551D03*
X229134Y6693D03*
X232272Y75820D03*
X231890Y98031D03*
X232283Y108104D03*
X232677Y12041D03*
Y44324D03*
X237795Y62598D03*
X237402Y94094D03*
X239669Y27465D03*
Y90551D03*
Y122835D03*
X243600Y57774D03*
X247638Y14567D03*
Y46457D03*
X247244Y78346D03*
X248031Y110630D03*
X250394Y31496D03*
Y62992D03*
X250787Y94094D03*
X251969Y126772D03*
X268504Y27559D03*
Y59055D03*
Y90157D03*
Y123228D03*
G54D11*
X9843Y13386D03*
Y17323D03*
X28346Y30709D03*
Y34646D03*
X34646Y30709D03*
Y34646D03*
X43701Y87795D03*
Y91732D03*
X59055Y101181D03*
Y105118D03*
X60630Y29921D03*
Y33858D03*
X70079Y98819D03*
Y102756D03*
X141732Y75984D03*
Y79921D03*
Y107480D03*
Y111417D03*
X148031Y75945D03*
Y79882D03*
Y107480D03*
Y111417D03*
X154331Y76004D03*
Y79941D03*
Y107480D03*
Y111417D03*
X162598Y6693D03*
Y10630D03*
X168898Y6693D03*
Y10630D03*
X175197Y6693D03*
Y10630D03*
X182677Y22835D03*
Y26772D03*
Y54331D03*
Y58268D03*
Y69724D03*
Y73661D03*
Y101575D03*
Y105512D03*
X188583Y22854D03*
Y26791D03*
Y54350D03*
Y58287D03*
Y69744D03*
Y73681D03*
Y101575D03*
Y105512D03*
X196063Y22795D03*
Y26732D03*
Y54331D03*
Y58268D03*
Y69685D03*
Y73622D03*
Y101575D03*
Y105512D03*
X203150Y91732D03*
Y95669D03*
Y123228D03*
Y127165D03*
X209055Y91693D03*
Y95630D03*
Y123228D03*
Y127165D03*
X224016Y16142D03*
Y20079D03*
Y48425D03*
Y52362D03*
Y80315D03*
Y84252D03*
X224409Y112598D03*
Y116535D03*
G54D20*
X53937Y11811D03*
G54D30*
G01X55906Y58858D02*
X54823D01*
X53150Y57185D01*
Y53150D01*
X57874Y48425D01*
X69685D01*
X75197Y42913D01*
X101575D01*
X111220Y52559D01*
Y58437D01*
G01X107480Y62008D02*
X102953D01*
X101181Y60236D01*
Y48819D01*
X98031Y45669D01*
X77165D01*
X71260Y51575D01*
X59646D01*
X58858Y52362D01*
Y55906D01*
G01X76575D02*
Y50591D01*
X79134Y48031D01*
X95276D01*
X98819Y51575D01*
Y62205D01*
X100591Y63976D01*
X107480D01*
G01Y65945D02*
X98622D01*
X96063Y63386D01*
Y53543D01*
X93307Y50787D01*
X81102D01*
X78543Y53346D01*
Y55906D01*
G01X107480Y73819D02*
X105248D01*
X102362Y76705D01*
Y88583D01*
X95276Y95669D01*
X90551D01*
X87795Y98425D01*
X83858D01*
X82480Y97047D01*
Y91339D01*
G01X107480Y67913D02*
X99409D01*
X98622Y68701D01*
X91339D01*
G01Y70669D02*
X99409D01*
X100197Y69882D01*
X107480D01*
G01X91339Y88386D02*
X97047D01*
X99213Y86220D01*
Y75984D01*
X103346Y71850D01*
X107480D01*
G54D21*
X55906Y58858D03*
Y60827D03*
Y62795D03*
Y64764D03*
Y66732D03*
Y68701D03*
Y70669D03*
Y72638D03*
Y74606D03*
Y76575D03*
Y78543D03*
Y80512D03*
Y82480D03*
Y84449D03*
Y86417D03*
Y88386D03*
X91339Y58858D03*
Y60827D03*
Y62795D03*
Y64764D03*
Y66732D03*
Y68701D03*
Y70669D03*
Y72638D03*
Y74606D03*
Y76575D03*
Y78543D03*
Y80512D03*
Y82480D03*
Y84449D03*
Y86417D03*
Y88386D03*
G54D12*
X11811Y31890D03*
X19685D03*
X19291Y51575D03*
Y64173D03*
X27953Y51575D03*
Y64173D03*
G54D31*
G01X16535Y17126D02*
X19882D01*
X21654Y15354D01*
Y11024D01*
X20276Y9646D01*
X16535D01*
G01X42126Y31299D02*
X45472D01*
X46457Y32283D01*
Y37795D01*
X45472Y38780D01*
X42126D01*
G01X106693Y57480D02*
X106299D01*
X105355Y58425D01*
Y59685D01*
X105709Y60039D01*
X107480D01*
G01X113059Y75425D02*
Y77372D01*
X112559Y77872D01*
X111578D01*
X111220Y77514D01*
Y75425D01*
G01X120866Y57874D02*
X123228D01*
X123622Y58268D01*
Y59372D01*
X122955Y60039D01*
X120866D01*
G01X142520Y39764D02*
X137795D01*
G01D02*
Y42520D01*
X138780Y43504D01*
X142520D01*
G01X153543Y8268D02*
X157193D01*
G01X154724Y24016D02*
Y18861D01*
X153543Y17680D01*
Y15748D01*
G01Y39764D02*
X157480D01*
G01X161811Y94055D02*
X159880D01*
X159446Y94488D01*
X153543D01*
G01X161811Y125591D02*
X153543D01*
G01X157193Y8268D02*
X158768Y6693D01*
X162598D01*
G01X161811Y40945D02*
X160630D01*
X159843Y41732D01*
Y42913D01*
X159252Y43504D01*
X157193D01*
G01X157399Y90748D02*
X159939Y88209D01*
X161870D01*
G01X163386Y31102D02*
X166535D01*
X168504Y29134D01*
G01X163386Y62598D02*
X165748D01*
X167717Y60630D01*
G01X163386Y78346D02*
X166535D01*
X168504Y76378D01*
G01Y107874D02*
Y109055D01*
X167323Y110236D01*
X163386D01*
G01X174409Y23622D02*
X178346D01*
G01Y70866D02*
X174409D01*
G01Y102756D02*
X178346D01*
G01X175531Y46850D02*
X176713Y45669D01*
X177559D01*
X179724Y43504D01*
X183858D01*
G01X175591Y94094D02*
Y96850D01*
X176772Y98031D01*
X187008D01*
G01X182677Y22835D02*
X179134D01*
X178346Y23622D01*
G01X182677Y69724D02*
X179488D01*
X178346Y70866D01*
G01X182677Y101575D02*
X179528D01*
X178346Y102756D01*
G01X183858Y7874D02*
X180209D01*
G01X183858Y15354D02*
X180209D01*
G01X183858Y121850D02*
X180209D01*
G01X182677Y26772D02*
X186238D01*
X186257Y26791D01*
X188583D01*
G01X182677Y73661D02*
X186238D01*
X186257Y73681D01*
X188583D01*
G01X183858Y7874D02*
X187795D01*
X189370Y9449D01*
Y17323D01*
X192520Y20472D01*
Y32283D01*
G01X187008Y98031D02*
X188583Y99606D01*
Y101575D01*
G01X194882Y125591D02*
X191732D01*
X188976Y122835D01*
Y115748D01*
X186614Y113386D01*
Y111024D01*
G01X189764D02*
X186614D01*
G01X192520Y32283D02*
X187008D01*
G01Y98031D02*
X197925D01*
X200287Y95669D01*
G01X189370Y79134D02*
Y92089D01*
X191769Y94488D01*
X194882D01*
G01X192520Y111024D02*
X189764D01*
G01X196063Y101575D02*
X192520D01*
G01X199213Y11614D02*
X194882D01*
G01X196063Y22795D02*
X196457D01*
X199606Y19646D01*
Y13886D01*
X199213Y13492D01*
Y11614D01*
G01X196063Y26732D02*
X199567D01*
X200197Y27362D01*
X204724D01*
G01X196457Y32283D02*
X199606D01*
G01X196063Y58268D02*
X201021D01*
X201612Y58858D01*
X204724D01*
G01X196063Y73622D02*
X199213D01*
X200197Y74606D01*
X204724D01*
G01X196063Y105512D02*
X198728D01*
X199713Y106496D01*
X204724D01*
G01X207106Y15354D02*
X207087D01*
G01X209055Y95630D02*
X211917D01*
G01X214173Y55118D02*
X217823D01*
G01X214173Y70866D02*
X217286D01*
X217717Y71297D01*
Y72835D01*
G01X227953Y37102D02*
Y38583D01*
X228740Y39370D01*
X231890D01*
G01X232677Y7480D02*
X229921D01*
X229134Y6693D01*
G01X238189Y101575D02*
Y98909D01*
X237311Y98031D01*
X231890D01*
G01X246457Y31496D02*
Y33465D01*
X244488Y35433D01*
X239831D01*
X235894Y31496D01*
X233425D01*
G01X233465Y86614D02*
Y80709D01*
G01D02*
X235470D01*
X237832Y78346D01*
X239764D01*
G01Y85433D02*
X236614D01*
X235433Y86614D01*
X233465D01*
G01X239764Y14567D02*
Y11811D01*
X240551Y11024D01*
X245669D01*
X246457Y10236D01*
Y7480D01*
G01Y39370D02*
Y41732D01*
X245276Y42913D01*
X240551D01*
X239764Y43701D01*
Y46457D01*
G01Y78346D02*
Y81890D01*
G01D02*
Y85433D01*
G01Y81890D02*
X247480D01*
X248819Y83228D01*
Y87620D01*
X250394Y89195D01*
X258049D01*
X260630Y86614D01*
G01X239669Y90551D02*
X242126D01*
G01X240157Y110630D02*
Y107874D01*
X241732Y106299D01*
X250303D01*
X252362Y104240D01*
Y101575D01*
G01X243701Y85433D02*
Y88976D01*
X242126Y90551D01*
G01X242520Y94094D02*
Y90945D01*
X242126Y90551D01*
G54D22*
X58858Y55906D03*
Y91339D03*
X60827Y55906D03*
Y91339D03*
X62795Y55906D03*
Y91339D03*
X64764Y55906D03*
Y91339D03*
X66732Y55906D03*
Y91339D03*
X68701Y55906D03*
Y91339D03*
X70669Y55906D03*
Y91339D03*
X72638Y55906D03*
Y91339D03*
X74606Y55906D03*
Y91339D03*
X76575Y55906D03*
Y91339D03*
X78543Y55906D03*
Y91339D03*
X80512Y55906D03*
Y91339D03*
X82480Y55906D03*
Y91339D03*
X84449Y55906D03*
Y91339D03*
X86417Y55906D03*
Y91339D03*
X88386Y55906D03*
Y91339D03*
G54D13*
X10669Y81437D03*
Y115492D03*
X27205Y81437D03*
Y115492D03*
G54D32*
G01X16535Y13386D02*
X9843D01*
G01X19433Y89016D02*
X19291Y88874D01*
Y64173D01*
G01X25917Y89016D02*
X19433D01*
G01D02*
Y105945D01*
X21402Y107913D01*
X25917D01*
G01X27205Y81437D02*
X26043D01*
X24803Y82677D01*
Y84646D01*
X26024Y85866D01*
X29173D01*
G01Y111063D02*
X24764D01*
X23860Y111967D01*
Y113624D01*
X25728Y115492D01*
X27205D01*
G01X29173Y89016D02*
X25917D01*
G01X29173Y107913D02*
X25917D01*
G01X82677Y25591D02*
Y31890D01*
G54D23*
X73622Y73622D03*
G54D14*
X11024Y24429D03*
X14961D03*
X25984Y24016D03*
X25197Y72047D03*
X26378Y124016D03*
X29134Y72047D03*
X29921Y24016D03*
X30315Y124016D03*
X35433Y24016D03*
X40157D03*
X44882Y66535D03*
X48819D03*
X60236Y39370D03*
X64173D03*
X71260Y34646D03*
X75984D03*
X119685Y27165D03*
X124409D03*
X129528D03*
X133465D03*
X140945Y24016D03*
X140886Y29921D03*
X140945Y55118D03*
X140886Y61024D03*
X140945Y70453D03*
Y101969D03*
X144882Y24016D03*
X144823Y29921D03*
X144882Y55118D03*
X144823Y61024D03*
X144882Y70453D03*
Y101969D03*
X150787Y24016D03*
X150748Y29921D03*
X150787Y55118D03*
X150748Y61024D03*
X150787Y70472D03*
Y101969D03*
X154724Y24016D03*
X154685Y29921D03*
X154724Y55118D03*
X154685Y61024D03*
X154724Y70472D03*
Y101969D03*
X161811Y16142D03*
Y40945D03*
Y46850D03*
X161870Y88209D03*
X161811Y94055D03*
X161870Y119685D03*
X161811Y125591D03*
X165748Y16142D03*
Y40945D03*
Y46850D03*
X165807Y88209D03*
X165748Y94055D03*
X165807Y119685D03*
X165748Y125591D03*
X171594Y16142D03*
X171614Y40945D03*
X171594Y46850D03*
X171614Y88189D03*
X171654Y94094D03*
X171614Y119665D03*
X171654Y125630D03*
X175531Y16142D03*
X175551Y40945D03*
X175531Y46850D03*
X175551Y88189D03*
X175591Y94094D03*
X175551Y119665D03*
X175591Y125630D03*
X183071Y32283D03*
X182677Y63780D03*
Y79134D03*
Y111024D03*
X187008Y32283D03*
X186614Y63780D03*
Y79134D03*
Y111024D03*
X192520Y32283D03*
Y63780D03*
Y79134D03*
Y111024D03*
X196457Y32283D03*
Y63780D03*
Y79134D03*
Y111024D03*
X203150Y7874D03*
X203169Y15354D03*
X203150Y39764D03*
X203169Y46850D03*
X203150Y86220D03*
Y118110D03*
X207087Y7874D03*
X207106Y15354D03*
X207087Y39764D03*
X207106Y46850D03*
X207087Y86220D03*
Y118110D03*
X212205Y7874D03*
X212224Y15354D03*
X212205Y39764D03*
X212224Y46850D03*
X216142Y7874D03*
X216161Y15354D03*
X216142Y39764D03*
X216161Y46850D03*
X229528Y16535D03*
Y22441D03*
X229488Y31496D03*
X229528Y48819D03*
Y54724D03*
X229488Y62992D03*
X229528Y80709D03*
Y86614D03*
Y94094D03*
X229921Y112598D03*
Y119685D03*
Y126772D03*
X232677Y7480D03*
X231890Y39370D03*
Y70472D03*
X233465Y16535D03*
Y22441D03*
X233425Y31496D03*
X233465Y48819D03*
Y54724D03*
X233425Y62992D03*
X233465Y80709D03*
Y86614D03*
Y94094D03*
X233858Y112598D03*
Y119685D03*
Y126772D03*
X236614Y39370D03*
Y70472D03*
X237402Y7480D03*
X238189Y101575D03*
X239764Y14567D03*
Y21654D03*
Y46457D03*
X239724Y53543D03*
X239764Y78346D03*
Y85433D03*
X240157Y110630D03*
Y118110D03*
X240945Y126772D03*
X242520Y7480D03*
Y31496D03*
Y39370D03*
Y70472D03*
Y94094D03*
X242913Y101575D03*
X243701Y14567D03*
Y21654D03*
Y46457D03*
X243661Y53543D03*
X243701Y62205D03*
Y78346D03*
Y85433D03*
X244094Y110630D03*
Y118110D03*
X244882Y126772D03*
X246457Y7480D03*
Y31496D03*
Y39370D03*
Y70472D03*
Y94094D03*
X247638Y62205D03*
X248425Y101575D03*
X252362D03*
G54D33*
G01X72835Y11811D02*
X78059D01*
G01X73189Y122441D02*
X78740D01*
G01X83465Y11811D02*
X78059D01*
G01X78740Y122441D02*
X82677D01*
G01D02*
X84016Y121102D01*
Y108661D01*
G01X97638Y11811D02*
X83465D01*
G01X87008Y122441D02*
X82677D01*
G01X91732D02*
X87008D01*
G01X96457D02*
X91732D01*
G01X96457D02*
X101575D01*
G01X97638Y11811D02*
X97441Y12008D01*
Y25591D01*
G01X103043Y11811D02*
X97638D01*
G01X108268D02*
X103043D01*
G01X101575Y122441D02*
X108622D01*
G54D15*
X16535Y9646D03*
Y13386D03*
Y17126D03*
X26772Y9646D03*
Y17126D03*
X42126Y31299D03*
Y35039D03*
Y38780D03*
X52362Y31299D03*
Y38780D03*
G54D24*
X72835Y11811D03*
X73189Y122441D03*
X108268Y11811D03*
X108622Y122441D03*
X114173Y66929D03*
G54D34*
G01X42913Y121063D02*
X46350D01*
X46850Y120563D01*
Y113386D01*
X48425Y111811D01*
X58661D01*
X64567Y105906D01*
Y98425D01*
X60827Y94685D01*
Y91339D01*
G01X62795D02*
Y93898D01*
X66535Y97638D01*
Y107480D01*
X60236Y113780D01*
X50500D01*
X49213Y115067D01*
Y122441D01*
X46850Y124803D01*
X42913D01*
G01X53150D02*
X58661D01*
X60630Y122835D01*
Y119685D01*
X73622Y106693D01*
Y99319D01*
X73122Y98819D01*
X70079D01*
G01Y102756D02*
Y107087D01*
X59843Y117323D01*
X56693D01*
G01X70079Y98819D02*
Y96063D01*
X68898Y94882D01*
X65982D01*
X64764Y93664D01*
Y91339D01*
G54D25*
X82677Y25591D03*
X84016Y108661D03*
X87598Y25591D03*
X88937Y108661D03*
X92520Y25591D03*
X93858Y108661D03*
X97441Y25591D03*
X98780Y108661D03*
G54D16*
X29173Y85866D03*
Y89016D03*
Y107913D03*
Y111063D03*
X42913Y117323D03*
Y121063D03*
Y124803D03*
X53150Y117323D03*
Y121063D03*
Y124803D03*
G54D35*
G01X30315Y124016D02*
X32488D01*
X33858Y122646D01*
Y114173D01*
X36220Y111811D01*
Y105906D01*
X33701Y103386D01*
X29173D01*
G01X43701Y91732D02*
Y99055D01*
G01X55906Y66732D02*
X50947D01*
X50750Y66535D01*
X48819D01*
G01X55906Y70669D02*
X53543D01*
X53150Y70276D01*
Y69131D01*
X53580Y68701D01*
X55906D01*
G01X59055Y105118D02*
X56498D01*
X54687Y106929D01*
X51575D01*
G01X59529Y59529D02*
X58231Y60827D01*
X55906D01*
G01X61811Y62205D02*
X60031D01*
X59638Y62598D01*
X58669D01*
X58472Y62795D01*
X55906D01*
G01Y64764D02*
X59449D01*
G01X59332Y67833D02*
X58231Y66732D01*
X55906D01*
G01Y70669D02*
X58768D01*
G01X55906Y80512D02*
X59646D01*
X61024Y79134D01*
X62598D01*
G01X55906Y88386D02*
Y90551D01*
G01X73622Y73622D02*
X71654Y71654D01*
X65748D01*
X64764Y70669D01*
X58768D01*
G01X58858Y91339D02*
Y95276D01*
G01X64764Y55906D02*
Y58472D01*
X66134Y59843D01*
X69291D01*
G01X74606Y58768D02*
Y64013D01*
X73622Y64998D01*
Y73622D01*
G01X84547Y86417D02*
Y84547D01*
X73622Y73622D01*
G01X88476Y62795D02*
X84449D01*
X73622Y73622D01*
G01X74606Y55906D02*
Y58768D01*
G01Y91339D02*
Y88476D01*
G01X84547Y86417D02*
X88476D01*
G01X84449Y88476D02*
Y86516D01*
X84547Y86417D01*
G01X84449Y91339D02*
Y88476D01*
G01X86417Y55906D02*
Y58768D01*
G01Y91339D02*
Y95276D01*
G01X91339Y62795D02*
X88476D01*
G01X91339Y66732D02*
X88476D01*
G01X91339Y76575D02*
X88476D01*
G01X91339Y86417D02*
X88476D01*
G01X88386Y91339D02*
Y92421D01*
X89370Y93406D01*
X90494D01*
X90515Y93385D01*
X90867D01*
X92126Y92126D01*
G01X113780Y27165D02*
X115038Y25907D01*
X116495D01*
X117754Y27165D01*
X119685D01*
G01X179528Y37795D02*
X181890D01*
X183858Y39764D01*
G01X192520Y63780D02*
Y51181D01*
X189370Y48031D01*
Y41339D01*
X187795Y39764D01*
X183858D01*
G01X194882Y43504D02*
X199016D01*
X199213Y43701D01*
G01X196063Y54331D02*
X198388D01*
X199606Y53113D01*
Y44094D01*
X199213Y43701D01*
G01X233425Y62992D02*
Y60667D01*
X234643Y59449D01*
X239751D01*
X240551Y60249D01*
Y64577D01*
X242116Y66142D01*
X246467D01*
X247638Y64970D01*
Y62205D01*
G54D26*
X107480Y60039D03*
Y62008D03*
Y63976D03*
Y65945D03*
Y67913D03*
Y69882D03*
Y71850D03*
Y73819D03*
X120866Y60039D03*
Y62008D03*
Y63976D03*
Y65945D03*
Y67913D03*
Y69882D03*
Y71850D03*
Y73819D03*
G54D17*
X29173Y91575D03*
Y93543D03*
Y95512D03*
Y97480D03*
Y99449D03*
Y101417D03*
Y103386D03*
Y105354D03*
G54D36*
G01X29134Y72047D02*
X32283D01*
X33858Y73622D01*
Y90157D01*
X32441Y91575D01*
X29173D01*
G01X42913Y121063D02*
X38189D01*
G01X42913Y124803D02*
X38583D01*
G01X43701Y91732D02*
X47638D01*
X48819Y90551D01*
Y87402D01*
X51772Y84449D01*
X55906D01*
G01Y86417D02*
X52953D01*
X51181Y88189D01*
Y91732D01*
X47638Y95276D01*
Y103386D01*
X51181Y106929D01*
X51575D01*
G01X56693Y117323D02*
X53150D01*
G01X55906Y72638D02*
X58231D01*
X59843Y74250D01*
G01X55906Y78543D02*
X58465D01*
X59843Y77165D01*
G01X55906Y82480D02*
X58768D01*
G01X117126Y41732D02*
X108858Y33465D01*
X90551D01*
X87598Y30512D01*
Y25591D01*
G01X88937Y108661D02*
Y102008D01*
X92126Y98819D01*
X98031D01*
X102744Y94107D01*
X110224D01*
X111417Y92913D01*
G01X132283Y61024D02*
X124409Y53150D01*
X116929D01*
X103543Y39764D01*
X94488D01*
X91732Y37008D01*
G01X111024Y30709D02*
X93413D01*
X92520Y29815D01*
Y25591D01*
G01X114961Y95276D02*
X112598Y97638D01*
X104724D01*
X100787Y101575D01*
X95276D01*
X93858Y102992D01*
Y108661D01*
G01X131496Y55118D02*
X126772Y50394D01*
X119291D01*
X105512Y36614D01*
X97638D01*
G01X129134Y69882D02*
X130672D01*
X131890Y71100D01*
Y76378D01*
X129528Y78740D01*
X120079D01*
X117717Y81102D01*
Y97638D01*
X114173Y101181D01*
X109843D01*
X106693Y104331D01*
X104724D01*
G01X120866Y33465D02*
X116142D01*
X113386Y30709D01*
X111024D01*
G01X111417Y104724D02*
X114961D01*
X120472Y99213D01*
Y82677D01*
X121654Y81496D01*
X131102D01*
X134646Y77953D01*
Y69882D01*
X132677Y67913D01*
G01X117126Y55811D02*
Y58437D01*
G01X119291Y76378D02*
X118898Y76772D01*
X117626D01*
X117126Y76272D01*
Y75425D01*
G01X120866Y62008D02*
X124409D01*
G01X120866Y63976D02*
X126772D01*
G01X120866Y65945D02*
X129134D01*
G01X132677Y67913D02*
X120866D01*
G01Y69882D02*
X129134D01*
G01X126378Y71850D02*
X120866D01*
G01Y73819D02*
X123492D01*
G01X237795Y62598D02*
Y65748D01*
X237008Y66535D01*
X233465D01*
X231890Y68110D01*
Y70472D01*
G54D27*
X111220Y58437D03*
Y75425D03*
X117126Y58437D03*
Y75425D03*
G54D18*
X33858Y10630D03*
Y16142D03*
X39764Y10630D03*
Y16142D03*
X38976Y46850D03*
Y52362D03*
X45276Y46850D03*
Y52362D03*
G54D37*
G01X204724Y23622D02*
X201075D01*
G01X214173D02*
X216142D01*
X218504Y25984D01*
G01X214173Y31102D02*
X217823D01*
G01X246457Y70472D02*
Y72441D01*
X244488Y74409D01*
X240551D01*
X239764Y75197D01*
Y78346D01*
G54D28*
X126378Y9291D03*
Y19291D03*
Y35669D03*
Y45669D03*
Y88425D03*
Y98425D03*
Y115197D03*
Y125197D03*
X254331Y16929D03*
Y49213D03*
Y80315D03*
Y113386D03*
X260630Y10630D03*
Y23228D03*
Y42913D03*
Y55512D03*
Y74016D03*
Y86614D03*
Y107087D03*
Y119685D03*
X266929Y16929D03*
Y49213D03*
Y80315D03*
Y113386D03*
G54D19*
X43701Y99055D03*
Y106929D03*
X51575Y99055D03*
Y106929D03*
G54D38*
G01X163386Y31102D02*
Y33034D01*
X164604Y34252D01*
X178740D01*
X180709Y32283D01*
X183071D01*
G01X182677Y63780D02*
X181496D01*
X178740Y66535D01*
X165150D01*
X163386Y64772D01*
Y62598D01*
G01X182677Y79134D02*
X179134Y82677D01*
X166535D01*
X163386Y79528D01*
Y78346D01*
G01X182677Y111024D02*
X181496D01*
X177953Y114567D01*
X164961D01*
X163386Y112992D01*
Y110236D01*
G54D29*
X142520Y8268D03*
Y12008D03*
Y15748D03*
Y39764D03*
Y43504D03*
Y47244D03*
Y87008D03*
Y90748D03*
Y94488D03*
Y118110D03*
Y121850D03*
Y125591D03*
X153543Y8268D03*
Y12008D03*
Y15748D03*
Y39764D03*
Y43504D03*
Y47244D03*
Y87008D03*
Y90748D03*
Y94488D03*
Y118110D03*
Y121850D03*
Y125591D03*
X163386Y23622D03*
Y27362D03*
Y31102D03*
Y55118D03*
Y58858D03*
Y62598D03*
Y70866D03*
Y74606D03*
Y78346D03*
Y102756D03*
Y106496D03*
Y110236D03*
X174409Y23622D03*
Y27362D03*
Y31102D03*
Y55118D03*
Y58858D03*
Y62598D03*
Y70866D03*
Y74606D03*
Y78346D03*
Y102756D03*
Y106496D03*
Y110236D03*
X183858Y7874D03*
Y11614D03*
Y15354D03*
Y39764D03*
Y43504D03*
Y47244D03*
Y87008D03*
Y90748D03*
Y94488D03*
Y118110D03*
Y121850D03*
Y125591D03*
X194882Y7874D03*
Y11614D03*
Y15354D03*
Y39764D03*
Y43504D03*
Y47244D03*
Y87008D03*
Y90748D03*
Y94488D03*
Y118110D03*
Y121850D03*
Y125591D03*
X204724Y23622D03*
Y27362D03*
Y31102D03*
Y55118D03*
Y58858D03*
Y62598D03*
Y70866D03*
Y74606D03*
Y78346D03*
Y102756D03*
Y106496D03*
Y110236D03*
X214173Y23622D03*
Y31102D03*
Y55118D03*
Y62598D03*
Y70866D03*
Y78346D03*
Y102756D03*
Y110236D03*
G54D39*
G01X29173Y95512D02*
X26142D01*
X25197Y96457D01*
Y98819D01*
X25827Y99449D01*
X29173D01*
G01Y95512D02*
X34933D01*
X37283Y93162D01*
Y83181D01*
X45324Y75140D01*
X45808D01*
X46460Y75085D01*
X48031Y73228D01*
G01X33071Y97480D02*
X29173D01*
G01Y101417D02*
X32441D01*
X33071Y100787D01*
Y97480D01*
G01D02*
X33739Y96812D01*
X35472D01*
X38583Y93701D01*
Y83720D01*
X45862Y76440D01*
X45863D01*
X46567Y76381D01*
X48425Y77953D01*
G01X48031Y73228D02*
X49841Y74759D01*
X50170Y74731D01*
X53290D01*
X53415Y74606D01*
X55906D01*
G01X48425Y77953D02*
X50037Y76047D01*
X50039D01*
X50225Y76031D01*
X52872D01*
X53415Y76575D01*
X55906D01*
G01X212205Y15354D02*
X212224D01*
G01X229921Y113386D02*
Y112598D01*
M02*
