G04 ================== begin FILE IDENTIFICATION RECORD ==================*
G04 Layout Name:  F:/3-MyLaptopDIR/4CH-OEInterface_x86/PCB/4CH-OEI-A2.brd*
G04 Film Name:    VCC-3*
G04 File Format:  Gerber RS274X*
G04 File Origin:  Cadence Allegro 22.1-P001*
G04 Origin Date:  Tue Jun 10 16:08:44 2025*
G04 *
G04 Layer:  VIA CLASS/VCC-3*
G04 Layer:  PIN/VCC-3*
G04 Layer:  ETCH/VCC-3*
G04 *
G04 Offset:    (0.0000 0.0000)*
G04 Mirror:    No*
G04 Mode:      Positive*
G04 Rotation:  0*
G04 FullContactRelief:  No*
G04 UndefLineWidth:     0.0254*
G04 ================== end FILE IDENTIFICATION RECORD ====================*
%FSLAX25Y25*MOIN*%
%IR0*IPPOS*OFA0.00000B0.00000*MIA0B0*SFA1.00000B1.00000*%
%ADD10C,.015748*%
%AMMACRO11*
4,1,40,.029528,-.006563,
.029528,.006563,
.029328,.008842,
.028736,.011051,
.02777,.013124,
.026458,.014998,
.02484,.016615,
.022967,.017927,
.020894,.018894,
.018684,.019486,
.016406,.019685,
-.016406,.019685,
-.018684,.019486,
-.020894,.018894,
-.022967,.017927,
-.02484,.016615,
-.026458,.014998,
-.02777,.013124,
-.028736,.011051,
-.029328,.008842,
-.029528,.006563,
-.029528,-.006563,
-.029328,-.008842,
-.028736,-.011051,
-.02777,-.013124,
-.026458,-.014998,
-.02484,-.016615,
-.022967,-.017927,
-.020894,-.018894,
-.018684,-.019486,
-.016406,-.019685,
.016406,-.019685,
.018684,-.019486,
.020894,-.018894,
.022967,-.017927,
.02484,-.016615,
.026458,-.014998,
.02777,-.013124,
.028736,-.011051,
.029328,-.008842,
.029528,-.006563,
0.0*
%
%ADD11MACRO11*%
%ADD13C,.047244*%
%ADD12C,.122047*%
%ADD15C,.078756*%
%ADD16C,.04726*%
%ADD14C,.153559*%
G75*
%LPD*%
G75*
G36*
G01X2756Y131102D02*
X272835D01*
Y2756D01*
X227930D01*
G02X227648Y3440I0J400D01*
G03X228204Y4308I-1664J1677D01*
G02X228450Y4431I188J-69D01*
G03X229134Y4330I684J2262D01*
G03Y9056I0J2363D01*
G03X226914Y7503I0J-2363D01*
G02X226668Y7380I-188J69D01*
G03X225984Y7481I-684J-2262D01*
G03X223621Y5118I0J-2363D01*
G03X224320Y3440I2363J0D01*
G02X224039Y2756I-282J-284D01*
G01X2756D01*
Y26772D01*
X3170D01*
G02X3524Y26186I0J-400D01*
G03X3255Y25091I2094J-1096D01*
G03X5618Y22728I2363J0D01*
G03X5732Y22730I0J2363D01*
G03X7874Y21365I2142J998D01*
G03Y26091I0J2363D01*
G03X7760Y26089I0J-2363D01*
G03X7546Y26456I-2142J-998D01*
G02X7710Y26772I163J116D01*
G01X14961D01*
G03X15796Y27118I0J1181D01*
G01X16583Y27905D01*
G03X16929Y28740I-835J835D01*
G01Y35827D01*
X28846D01*
G02X29230Y35314I0J-400D01*
G03X29133Y34646I2267J-668D01*
G03X33859I2363J0D01*
G03X32930Y36524I-2363J0D01*
G02X32889Y37125I243J318D01*
G01X37497Y41732D01*
X45180D01*
X47244Y39668D01*
Y31496D01*
G03X47590Y30661I1181J0D01*
G01X47984Y30267D01*
G03X48819Y29921I835J835D01*
G01X54323D01*
X54337Y29737D01*
G03X59049I2356J184D01*
G01X59063Y29921D01*
X67717D01*
G03X68552Y30267I0J1181D01*
G01X70126Y31842D01*
G03X70472Y32677I-834J835D01*
G01Y35539D01*
G02X70985Y35922I400J0D01*
G03X71654Y35826I668J2267D01*
G03X73761Y37120I0J2363D01*
G02X74388Y37234I357J-181D01*
G03X75984Y36613I1596J1742D01*
G03Y41339I0J2363D01*
G03X73877Y40045I0J-2363D01*
G02X73250Y39931I-357J181D01*
G03X71654Y40552I-1596J-1742D01*
G03X70985Y40456I0J-2363D01*
G02X70472Y40839I-113J384D01*
G01Y61322D01*
X72537Y63386D01*
X85720D01*
G02X86119Y62958I0J-400D01*
G03X86113Y62795I2358J-161D01*
G03X90839I2363J0D01*
G03X90834Y62958I-2363J2D01*
G02X91233Y63386I399J28D01*
G01X91732D01*
G03X92567Y63732I0J1181D01*
G01X93748Y64913D01*
G03X94094Y65748I-835J835D01*
G01Y69685D01*
G03X93748Y70520I-1181J0D01*
G01X91386Y72882D01*
G03X90551Y73228I-835J-835D01*
G01X78836D01*
X72835Y79230D01*
Y92126D01*
G03X72489Y92961I-1181J0D01*
G01X66977Y98473D01*
G03X66142Y98819I-835J-835D01*
G01X63863D01*
G02X63581Y99503I0J400D01*
G03X64280Y101181I-1664J1678D01*
G03X59554I-2363J0D01*
G03X60254Y99503I2363J0D01*
G02X59972Y98819I-282J-284D01*
G01X57874D01*
G03X57039Y98473I0J-1181D01*
G01X54283Y95717D01*
G03X53937Y94882I835J-835D01*
G01Y91858D01*
G03Y89244I1968J-1307D01*
G01Y70568D01*
X51085Y67717D01*
X48425D01*
G03X47590Y67370I0J-1180D01*
G01X45228Y65008D01*
G03X44882Y64173I835J-835D01*
G01Y55607D01*
X42818Y53543D01*
X38189D01*
G03X37354Y53197I0J-1180D01*
G01X36173Y52016D01*
G03X35827Y51181I835J-835D01*
G01Y47638D01*
X24803D01*
Y67323D01*
G03X24457Y68158I-1181J0D01*
G01X23622Y68993D01*
Y77877D01*
G02X24210Y78230I400J0D01*
G03X25564Y77893I1355J2550D01*
G01X28845D01*
G03X31733Y80781I0J2888D01*
G01Y82093D01*
G03X28845Y84981I-2888J0D01*
G01X25564D01*
G03X24210Y84644I0J-2888D01*
G02X23622Y84997I-188J353D01*
G01Y87005D01*
G02X24296Y87296I400J0D01*
G03X25917Y86653I1621J1719D01*
G03Y91379I0J2363D01*
G03X24296Y90735I0J-2363D01*
G02X23622Y91026I-274J291D01*
G01Y104331D01*
X27953D01*
G03X28788Y104677I0J1181D01*
G01X32331Y108220D01*
G03X32677Y109055I-835J835D01*
G01Y114173D01*
G03X32331Y115008I-1181J0D01*
G01X31733Y115606D01*
Y116148D01*
G03X28845Y119036I-2888J0D01*
G01X25564D01*
G03X22826Y117066I0J-2888D01*
G01X22780Y116929D01*
X15094D01*
X15048Y117066D01*
G03X12310Y119036I-2738J-917D01*
G01X9029D01*
G03X6291Y117066I0J-2888D01*
G01X6245Y116929D01*
X2756D01*
Y131102D01*
G37*
G36*
G01X15190Y114567D02*
X22684D01*
X22710Y114397D01*
G03X25564Y111948I2854J439D01*
G01X28845D01*
G03X29785Y112105I0J2888D01*
G02X30315Y111727I130J-378D01*
G01Y109544D01*
X27463Y106693D01*
X22441D01*
G03X21260Y105512I0J-1181D01*
G01Y68504D01*
G03X21606Y67669I1181J0D01*
G01X22441Y66833D01*
Y46457D01*
G03X23622Y45276I1181J0D01*
G01X35827D01*
Y43403D01*
X30613Y38189D01*
X16142D01*
G03X15307Y37843I0J-1181D01*
G01X14913Y37449D01*
G03X14567Y36614I835J-835D01*
G01Y29230D01*
X14471Y29134D01*
X2364D01*
Y114567D01*
X6148D01*
X6174Y114397D01*
G03X9029Y111948I2854J439D01*
G01X12310D01*
G03X15164Y114397I0J2888D01*
G01X15190Y114567D01*
G37*
G36*
G01X56999Y84047D02*
G02X56299Y84312I-300J265D01*
G01Y88216D01*
X56453Y88252D01*
G03Y92850I-547J2299D01*
G01X56299Y92887D01*
Y94393D01*
X58363Y96457D01*
X65652D01*
X70472Y91637D01*
Y78740D01*
G03X70819Y77905I1181J0D01*
G01X77511Y71212D01*
G03X78346Y70866I835J835D01*
G01X90062D01*
X91732Y69196D01*
Y66237D01*
X91243Y65748D01*
X72047D01*
G03X71212Y65402I0J-1181D01*
G01X68456Y62646D01*
G03X68141Y62076I835J-835D01*
G01X68128Y62020D01*
X67620Y61513D01*
G03X66928Y59843I1671J-1671D01*
G03X68110Y57796I2363J0D01*
G01Y33167D01*
X67227Y32283D01*
X56752D01*
G03X56693Y32284I-61J-2362D01*
G03X56634Y32283I2J-2363D01*
G01X49606D01*
Y40157D01*
G03X49260Y40993I-1181J0D01*
G01X46504Y43748D01*
G03X45669Y44094I-835J-835D01*
G01X38189D01*
Y50692D01*
X38678Y51181D01*
X43307D01*
G03X44142Y51527I0J1180D01*
G01X46898Y54283D01*
G03X47244Y55118I-835J835D01*
G01Y63684D01*
X48915Y65354D01*
X51575D01*
G03X52410Y65700I0J1181D01*
G01X55953Y69244D01*
G03X56098Y69420I-835J835D01*
G02X56769Y69410I332J-223D01*
G03X58768Y68306I1999J1259D01*
G03X61131Y70669I0J2363D01*
G03X60894Y71700I-2363J0D01*
G02X61050Y72218I360J174D01*
G03X62206Y74250I-1207J2031D01*
G03X61702Y75707I-2363J0D01*
G03X62144Y76630I-1860J1458D01*
G02X62359Y76783I195J-45D01*
G03X62598Y76771I240J2351D01*
G03Y81497I0J2363D01*
G03X61568Y81260I0J-2363D01*
G02X61013Y81745I-174J360D01*
G03X61131Y82480I-2246J735D01*
G03X58768Y84843I-2363J0D01*
G03X56999Y84047I0J-2363D01*
G37*
%LPC*%
G75*
G36*
G01X33882Y9306D02*
G03X34394Y9819I137J376D01*
G02X34251Y10630I2220J810D01*
G02X38977I2363J0D01*
G02X38376Y9055I-2363J0D01*
G02X38579Y8794I-1761J-1575D01*
G03X38886Y8763I166J111D01*
G02X40551Y9450I1665J-1676D01*
G02X42914Y7087I0J-2363D01*
G02X40774Y4734I-2363J0D01*
G02X38583Y3255I-2191J884D01*
G02X36949Y3911I0J2363D01*
G03X36673I-138J-145D01*
G02X35039Y3255I-1633J1707D01*
G02X32848Y4734I0J2363D01*
G02X30708Y7087I223J2352D01*
G02X33071Y9450I2363J0D01*
G02X33882Y9306I1J-2363D01*
G37*
G36*
G01X3915Y7811D02*
G02X3255Y9449I1704J1638D01*
G02X3856Y11024I2363J0D01*
G02X3255Y12598I1762J1575D01*
G02X7981I2363J0D01*
G02X7380Y11024I-2363J0D01*
G02X7547Y10813I-1764J-1573D01*
G03X8201I327J231D01*
G02X10130Y11812I1929J-1364D01*
G02X12493Y9449I0J-2363D01*
G02X11833Y7811I-2363J0D01*
G03Y7256I288J-277D01*
G02X12493Y5618I-1704J-1638D01*
G02X10130Y3255I-2363J0D01*
G02X8201Y4254I0J2362D01*
G03X7547I-327J-231D01*
G02X5618Y3255I-1929J1364D01*
G02X3255Y5618I0J2363D01*
G02X3915Y7256I2363J0D01*
G03Y7811I-288J277D01*
G37*
G36*
G01X111513Y27835D02*
G03X111114Y28347I-384J113D01*
G02X111024Y28346I-86J2361D01*
G02X113387Y30709I0J2363D01*
G02X113290Y30039I-2363J0D01*
G03X113689Y29527I384J-113D01*
G02X113780Y29528I86J-2361D01*
G02X111417Y27165I0J-2363D01*
G02X111513Y27835I2363J0D01*
G37*
G36*
G01X159448Y31891D02*
X161417Y33859D01*
X197845D01*
G02X199606Y34646I1761J-1576D01*
G02X201969Y32283I0J-2363D01*
G02X200517Y30103I-2363J0D01*
G01X200394Y30052D01*
Y26371D01*
G03X200835Y25973I400J0D01*
G02X201075Y25985I240J-2351D01*
G02Y21259I0J-2363D01*
G02X200835Y21271I0J2363D01*
G03X200394Y20873I-41J-398D01*
G01Y18505D01*
X216142D01*
X217717Y16930D01*
Y7086D01*
X216930Y6298D01*
X181970D01*
G02X178448I-1761J1576D01*
G01X171233D01*
X171196Y6145D01*
G02X166599I-2298J548D01*
G01X166563Y6298D01*
X158499D01*
G02X155887I-1306J1969D01*
G01X128937D01*
G02X126378Y5354I-2559J2993D01*
G02X122950Y7354I0J3938D01*
G01X122937Y7377D01*
X122440Y7874D01*
Y22048D01*
X123566D01*
G02X126378Y23229I2812J-2756D01*
G02X129190Y22048I0J-3938D01*
G01X134252D01*
X135532Y23328D01*
X135504Y23438D01*
G02X135432Y24016I2292J578D01*
G02X137794Y26379I2363J0D01*
G01Y27558D01*
G02X135432Y29921I1J2363D01*
G02X137795Y32284I2363J0D01*
G02X139101Y31891I0J-2363D01*
G01X159448D01*
G37*
G36*
G01X118001Y58006D02*
G03X118543Y58305I148J372D01*
G02X120866Y60237I2324J-431D01*
G02Y55511I0J-2363D01*
G02X119991Y55679I0J2363D01*
G03X119450Y55380I-148J-372D01*
G02X117126Y53448I-2324J431D01*
G02Y58174I0J2363D01*
G02X118001Y58006I0J-2363D01*
G37*
G36*
G01X35059Y65150D02*
G02X33504Y64566I-1555J1779D01*
G02Y69292I0J2363D01*
G02X35059Y68708I0J-2363D01*
G02X36614Y69292I1555J-1779D01*
G02X38189Y68691I0J-2363D01*
G02X39764Y69292I1575J-1762D01*
G02Y64566I0J-2363D01*
G02X38189Y65167I0J2363D01*
G02X36614Y64566I-1575J1762D01*
G02X35059Y65150I0J2363D01*
G37*
G36*
G01X190653Y69564D02*
G03X190710Y70134I-249J313D01*
G02X190157Y71654I1810J1519D01*
G02X194883I2363J0D01*
G02X193993Y69806I-2363J0D01*
G03X193936Y69236I249J-313D01*
G02X194489Y67717I-1810J-1519D01*
G02X193790Y66039I-2363J0D01*
G03X194072Y65355I282J-284D01*
G01X198239D01*
G02X200000Y66143I1761J-1576D01*
G02X202363Y63780I0J-2363D01*
G02X200006Y61417I-2363J0D01*
G03X199607Y61017I1J-400D01*
G01Y50001D01*
X217717D01*
Y44674D01*
G02Y41152I-1576J-1761D01*
G01Y38188D01*
X182291D01*
G03X181891Y37789I0J-400D01*
G02X177165I-2363J6D01*
G03X176765Y38188I-400J-1D01*
G01X159241D01*
G02X155719I-1761J1576D01*
G01X133465D01*
X131103Y35826D01*
Y32676D01*
X128937D01*
G02X126378Y31731I-2559J2993D01*
G02X123873Y32631I0J3938D01*
G01X123818Y32676D01*
X123098D01*
X123046Y32554D01*
G02X120866Y31102I-2180J911D01*
G02Y35828I0J2363D01*
G02X121870Y35604I0J-2363D01*
G03X122440Y35966I170J362D01*
G01Y49607D01*
X134645D01*
X137007Y51969D01*
Y52887D01*
X136884Y52938D01*
G02Y57298I911J2180D01*
G01X137007Y57350D01*
Y58792D01*
X136884Y58843D01*
G02X135432Y61024I911J2180D01*
G02X137795Y63387I2363J0D01*
G01X151968D01*
X153937Y65355D01*
X190180D01*
G03X190462Y66039I0J400D01*
G02X189763Y67717I1664J1678D01*
G02X190653Y69564I2363J0D01*
G37*
G36*
G01X111307Y73052D02*
G03X111431Y73712I-152J370D01*
G02X110696Y75425I1627J1713D01*
G02X115422I2363J0D01*
G02X113956Y73239I-2363J0D01*
G03X113832Y72579I152J-370D01*
G02X113888Y72524I-1625J-1716D01*
G03X114458I285J281D01*
G02X116142Y73229I1683J-1658D01*
G02X118505Y70866I0J-2363D01*
G02X116578Y68544I-2363J0D01*
G03X116293Y67974I74J-393D01*
G02X116536Y66929I-2120J-1044D01*
G02X116072Y65523I-2363J0D01*
G03X116300Y64896I321J-238D01*
G02X118111Y62598I-553J-2298D01*
G02X115748Y60235I-2363J0D01*
G02X114115Y60891I0J2363D01*
G03X113838I-138J-145D01*
G02X112205Y60235I-1633J1707D01*
G02X109842Y62598I0J2363D01*
G02X111952Y64948I2363J0D01*
G03X112237Y65575I-43J398D01*
G02X111810Y66929I1936J1355D01*
G02X112054Y67974I2363J0D01*
G03X111769Y68544I-359J177D01*
G02X109842Y70866I436J2322D01*
G02X111307Y73052I2363J0D01*
G37*
G36*
G01X86136Y86089D02*
G03X85553Y86387I-396J-56D01*
G02X84449Y86113I-1104J2089D01*
G02Y90839I0J2363D01*
G02X86789Y88804I0J-2363D01*
G03X87372Y88506I396J56D01*
G02X88476Y88780I1104J-2089D01*
G02Y84054I0J-2363D01*
G02X86136Y86089I0J2363D01*
G37*
G36*
G01X237409Y91241D02*
G03X237081Y91754I-383J117D01*
G02X235039Y94094I321J2341D01*
G02X239765I2363J0D01*
G02X239662Y93405I-2363J0D01*
G03X239990Y92892I383J-117D01*
G02X242032Y90551I-321J-2341D01*
G02X237306I-2363J0D01*
G02X237409Y91241I2363J0D01*
G37*
G36*
G01X112097Y95176D02*
G03X112610Y95519I115J383D01*
G02X114961Y97639I2350J-243D01*
G02Y92913I0J-2363D01*
G02X114281Y93013I0J2363D01*
G03X113768Y92670I-115J-383D01*
G02X111417Y90550I-2350J243D01*
G02Y95276I0J2363D01*
G02X112097Y95176I0J-2363D01*
G37*
G36*
G01X122440Y85432D02*
Y101182D01*
X123566D01*
G02X129190I2812J-2756D01*
G01X131496D01*
X136221Y96457D01*
X136488D01*
X136537Y96488D01*
G02X137795Y96851I1258J-2000D01*
G02X139101Y96457I0J-2363D01*
G01X198056D01*
X198107Y96580D01*
G02X200287Y98032I2180J-911D01*
G02Y93306I0J-2363D01*
G02X199844Y93348I-1J2363D01*
G01X199826Y93352D01*
X199607D01*
Y92852D01*
G02X200894Y90748I-1075J-2104D01*
G02X200604Y89612I-2363J0D01*
G03X200759Y89070I351J-193D01*
G02X201969Y87008I-1153J-2063D01*
G02X199607Y84645I-2363J0D01*
G01Y81497D01*
G02Y76771I-1J-2363D01*
G01Y74802D01*
X185433D01*
X184253Y73622D01*
Y68503D01*
X139150D01*
G02X137815Y68090I-1335J1949D01*
G02X135452Y70453I0J2363D01*
G02X137794Y72816I2363J0D01*
G01Y77558D01*
G02Y82284I1J2363D01*
G01Y85432D01*
X128937D01*
G02X123819I-2559J2993D01*
G01X122440D01*
G37*
G36*
G01X55042Y119013D02*
G03X55070Y119555I-279J286D01*
G02X54527Y121063I1819J1508D01*
G02X59253I2363J0D01*
G02X58541Y119372I-2363J0D01*
G03X58512Y118831I279J-286D01*
G02X59056Y117323I-1819J-1508D01*
G02X54330I-2363J0D01*
G02X55042Y119013I2363J0D01*
G37*
G36*
G01X36635Y122844D02*
G03X36693Y123385I-263J301D01*
G02X36220Y124803I1890J1418D01*
G02X40946I2363J0D01*
G02X40136Y123022I-2363J0D01*
G03X40079Y122481I263J-301D01*
G02X40552Y121063I-1890J-1418D01*
G02X35826I-2363J0D01*
G02X36635Y122844I2363J0D01*
G37*
G36*
G01X179153Y127957D02*
X179170Y127954D01*
X197375D01*
X197426Y128076D01*
G02X201787I2180J-911D01*
G01X201838Y127954D01*
X213780D01*
Y126377D01*
X211418D01*
Y120342D01*
X211541Y120291D01*
G02Y115930I-911J-2180D01*
G01X211418Y115879D01*
Y115747D01*
X200788D01*
Y113070D01*
G02X201969Y111024I-1182J-2046D01*
G02X199606Y108661I-2363J0D01*
G02X197560Y109842I0J2363D01*
G01X194882D01*
X192914Y107873D01*
X184646D01*
Y100393D01*
X139556D01*
G02X137795Y99606I-1761J1576D01*
G02Y104331I0J2363D01*
G02X138799Y104107I0J-2363D01*
G03X139369Y104470I170J362D01*
G01Y108916D01*
G03X138799Y109278I-400J0D01*
G02X137795Y109054I-1004J2139D01*
G02X135749Y110235I0J2363D01*
G01X122046D01*
Y127954D01*
X123566D01*
G02X129190I2812J-2756D01*
G01X178310D01*
X178328Y127957D01*
G02X178740Y127993I412J-2327D01*
G02X179153Y127957I0J-2363D01*
G37*
G36*
G01X225607Y37389D02*
G02X227953Y39465I2346J-286D01*
G02Y34739I0J-2363D01*
G02X226117Y35614I0J2364D01*
G03X225410Y35411I-311J-252D01*
G02X223064Y33334I-2346J286D01*
G02Y38060I0J2363D01*
G02X224900Y37185I0J-2364D01*
G03X225607Y37389I311J252D01*
G37*
G36*
G01X120528Y74364D02*
G02X119291Y74015I-1236J2014D01*
G02X121654Y76378I0J2363D01*
G02X121648Y76203I-2363J-2D01*
G03X122256Y75833I399J-29D01*
G02X123492Y76182I1236J-2014D01*
G02X125797Y74340I0J-2363D01*
G03X126022Y74187I195J44D01*
G02X126378Y74213I355J-2336D01*
G02X128680Y72386I0J-2363D01*
G03X128894Y72233I195J45D01*
G02X129134Y72245I240J-2351D01*
G02X131429Y70444I0J-2363D01*
G03X131942Y70159I389J95D01*
G02X132677Y70276I735J-2246D01*
G02Y65550I0J-2363D01*
G02X131942Y65668I0J2363D01*
G03X131429Y65383I-124J-380D01*
G02X129134Y63582I-2295J562D01*
G02X129102Y63582I13J2363D01*
G02X126772Y61613I-2330J394D01*
G02X126739Y61614I13J2363D01*
G02X124409Y59645I-2330J394D01*
G02Y64371I0J2363D01*
G02X124442Y64370I-13J-2363D01*
G02X126772Y66339I2330J-394D01*
G02X126804Y66339I-13J-2363D01*
G02X127476Y67628I2330J-394D01*
G03Y68198I-281J285D01*
G02X126832Y69346I1658J1684D01*
G03X126617Y69500I-195J-45D01*
G02X126378Y69487I-240J2351D01*
G02X124073Y71329I0J2363D01*
G03X123848Y71483I-195J-44D01*
G02X123492Y71456I-355J2336D01*
G02X121129Y73819I0J2363D01*
G02X121135Y73994I2363J2D01*
G03X120528Y74364I-399J29D01*
G37*
G36*
G01X47047Y76033D02*
G02X46062Y77953I1378J1919D01*
G02X50788I2363J0D01*
G02X49467Y75832I-2363J0D01*
G03X49410Y75148I176J-359D01*
G02X50394Y73228I-1378J-1919D01*
G02X45669I-2363J0D01*
G02X46990Y75349I2363J0D01*
G03X47047Y76033I-176J359D01*
G37*
G36*
G01X94437Y123667D02*
G02X96457Y124804I2020J-1225D01*
G02X98645Y123332I0J-2363D01*
G03X99386I370J151D01*
G02X101575Y124804I2189J-891D01*
G02Y120078I0J-2363D01*
G02X99386Y121550I0J2363D01*
G03X98645I-370J-151D01*
G02X96457Y120078I-2189J891D01*
G02X94437Y121215I0J2363D01*
G03X93752I-342J-208D01*
G02X89712I-2020J1225D01*
G03X89028I-342J-208D01*
G02X87008Y120078I-2020J1225D01*
G02X85156Y120973I0J2363D01*
G03X84529I-313J-248D01*
G02X82677Y120078I-1852J1468D01*
G02X80994Y120783I0J2363D01*
G03X80424I-285J-281D01*
G02X78740Y120078I-1683J1658D01*
G02Y124804I0J2363D01*
G02X80424Y124099I0J-2363D01*
G03X80994I285J281D01*
G02X82677Y124804I1683J-1658D01*
G02X84529Y123909I0J-2363D01*
G03X85156I313J248D01*
G02X87008Y124804I1852J-1468D01*
G02X89028Y123667I0J-2363D01*
G03X89712I342J208D01*
G02X93752I2020J-1225D01*
G03X94437I342J208D01*
G37*
G36*
G01X223890Y124404D02*
G02X223622Y124389I-269J2348D01*
G02X225985Y126752I0J2363D01*
G02X225631Y125507I-2363J0D01*
G03X226016Y124899I340J-211D01*
G02X226283Y124914I269J-2348D01*
G02X223920Y122551I0J-2363D01*
G02X224275Y123796I2363J0D01*
G03X223890Y124404I-340J211D01*
G37*
G36*
G01X9029Y84981D02*
X12310D01*
G02X15198Y82093I0J-2888D01*
G01Y80781D01*
G02X12310Y77893I-2888J0D01*
G01X9029D01*
G02X6141Y80781I0J2888D01*
G01Y82093D01*
G02X9029Y84981I2888J0D01*
G37*
G36*
G01X59448Y62208D02*
G03X59264Y62408I-200J0D01*
G02X57086Y64764I185J2356D01*
G02X61812I2363J0D01*
G01Y64760D01*
G03X61996Y64561I200J0D01*
G02X64174Y62205I-185J-2356D01*
G02X62067Y59856I-2363J0D01*
G03X61889Y59647I22J-199D01*
G02X61892Y59529I-2360J-114D01*
G02X57166I-2363J0D01*
G02X59273Y61878I2363J0D01*
G03X59451Y62087I-22J199D01*
G02X59448Y62205I2360J114D01*
G01Y62208D01*
G37*
G54D15*
X260630Y10630D03*
X254331Y16929D03*
X266929D03*
X260630Y23228D03*
Y42913D03*
X254331Y49213D03*
X266929D03*
X260630Y55512D03*
Y74016D03*
X254331Y80315D03*
X266929D03*
X260630Y86614D03*
Y107087D03*
X254331Y113386D03*
X266929D03*
X260630Y119685D03*
G54D16*
X224016Y10236D03*
X78059Y11811D03*
X83465D03*
X97638D03*
X103043D03*
X232677Y12041D03*
X43307Y24016D03*
X218504Y25984D03*
X226283Y27465D03*
X239669D03*
X268504Y27559D03*
X250394Y31496D03*
X38189Y34646D03*
X91732Y37008D03*
X97638Y36614D03*
X117126Y41732D03*
X224016Y44094D03*
X232677Y44324D03*
X131496Y55118D03*
X217823D03*
X243600Y57774D03*
X74606Y58768D03*
X226283Y59354D03*
X268504Y59055D03*
X132283Y61024D03*
X237795Y62598D03*
X250394Y62992D03*
X201075Y70866D03*
X217717Y72835D03*
X224016Y75591D03*
X232272Y75820D03*
X43701Y85039D03*
X210236Y86220D03*
X226283Y90551D03*
X268504Y90157D03*
X92126Y92126D03*
X250787Y94094D03*
X231890Y98031D03*
X192520Y101575D03*
X200787Y102756D03*
X218110D03*
X104724Y104331D03*
X111417Y104724D03*
X224409Y107874D03*
X232283Y108104D03*
X43701Y111024D03*
X23228Y124016D03*
X239669Y122835D03*
X268504Y123228D03*
X251969Y126772D03*
G54D14*
X53937Y11811D03*
%LPD*%
G75*
G54D10*
G01X92126Y29528D02*
X89370Y26772D01*
X38976D01*
X37402Y25197D01*
Y19185D01*
G01X71063Y116732D02*
X65354Y111024D01*
X53543D01*
X49516Y115051D01*
X42913D01*
G01X51181Y46063D02*
X49213D01*
X48425Y46850D01*
G01X63503Y67833D02*
Y66419D01*
X65354Y64567D01*
Y56693D01*
X59843Y51181D01*
X50394D01*
X49213Y50000D01*
Y49713D01*
X48425Y48925D01*
Y46850D01*
G01X53543Y44094D02*
Y45632D01*
X53113Y46063D01*
X51181D01*
G01X56693Y42913D02*
X54724D01*
X53543Y44094D01*
G01X71063Y116732D02*
X59055Y128740D01*
X52362D01*
G01X59843Y42232D02*
X57374D01*
X56693Y42913D01*
G01X63503Y67833D02*
X59332D01*
G01X58858Y95276D02*
X63780D01*
X68110Y90945D01*
Y81517D01*
X67217Y80624D01*
Y78904D01*
X68110Y78010D01*
Y72441D01*
G01D02*
X63503Y67833D01*
G01X69291Y59843D02*
X71654Y62205D01*
G01X68110Y72441D02*
X68319Y72232D01*
X70151D01*
X71366Y71017D01*
Y69185D01*
X73819Y66732D01*
G01X71654Y62205D02*
X81102D01*
X84539Y58768D01*
X86417D01*
G01X74803Y112992D02*
X71063Y116732D01*
G01X73819Y66732D02*
X88476D01*
G01X86614Y101969D02*
X86220Y101575D01*
X80315D01*
X78740Y100000D01*
Y92610D01*
X74606Y88476D01*
G01X77559Y110236D02*
X74803Y112992D01*
G01D02*
X84646D01*
G01X92126Y29528D02*
X89764Y31890D01*
X82677D01*
G01X86614Y101575D02*
X86417Y101378D01*
Y95276D01*
G01X86614Y101969D02*
Y111024D01*
X84646Y112992D01*
G01D02*
X101181D01*
X103937Y110236D01*
G01X96350Y58768D02*
X86417D01*
G01X94685Y76575D02*
X101181Y83071D01*
Y92913D01*
X92520Y101575D01*
X86614D01*
G01D02*
Y101969D01*
G01X88476Y76575D02*
X94685D01*
G01X104724Y29528D02*
X92126D01*
G01X94685Y76575D02*
X97047D01*
X100787Y72835D01*
Y63205D01*
X96350Y58768D01*
G01D02*
X101575Y53543D01*
G01X104724Y29528D02*
X106299Y31102D01*
Y48819D01*
X101575Y53543D01*
G01D02*
X105118D01*
X106693Y55118D01*
Y57480D01*
G01X104331Y23228D02*
Y29134D01*
X104724Y29528D01*
G01D02*
Y28740D01*
X109843Y23622D01*
X118504D01*
X121654Y26772D01*
X130315D01*
X131693Y28150D01*
G01X136614Y26772D02*
X134539D01*
X134146Y27165D01*
X132677D01*
X131693Y28150D01*
G01D02*
X132283Y28740D01*
Y31496D01*
X135827Y35039D01*
X140157D01*
X141271Y36153D01*
G01X151338Y37166D02*
X145669Y31498D01*
Y12598D01*
X141339Y8268D01*
X137795D01*
G01Y39764D02*
X140943D01*
G01X143701Y89764D02*
X140945Y87008D01*
X137795D01*
G01Y118110D02*
X144488D01*
X148031Y114567D01*
G01X141271Y36153D02*
Y39436D01*
X140943Y39764D01*
G01D02*
X144842Y43662D01*
G01X143701Y66929D02*
Y44803D01*
X144842Y43662D01*
G01X143701Y85827D02*
Y66929D01*
G01D02*
X146102Y64528D01*
G01X148031Y83071D02*
X146457D01*
X143701Y85827D01*
G01D02*
Y89764D01*
G01D02*
Y99213D01*
G01D02*
X148031Y103543D01*
Y111417D01*
G01X144842Y43662D02*
X151338Y37166D01*
G01X146102Y64528D02*
X154685D01*
G01X179875Y108312D02*
X174014Y114173D01*
X160236D01*
X157480Y111417D01*
X148031D01*
G01D02*
Y114567D01*
G01X151338Y37166D02*
X154685Y33819D01*
G01X183858Y30709D02*
X179868D01*
X178059Y28900D01*
Y27362D01*
G01X183858Y42913D02*
X180709D01*
X178740Y40945D01*
G01X178346Y58858D02*
Y61811D01*
X179528Y62992D01*
X183465D01*
X185039Y64567D01*
G01Y76378D02*
X183268Y74606D01*
X178346D01*
G01Y78346D02*
X182677D01*
X185039Y80709D01*
G01Y84646D02*
X184358Y85327D01*
Y85506D01*
X183143Y86720D01*
X181424D01*
X181317Y86614D01*
X178740D01*
G01X178059Y106496D02*
X179875Y108312D01*
G01X178740Y118110D02*
X181890D01*
X183465Y119685D01*
X190157D01*
G01X184646Y5118D02*
X179134D01*
G01X179875Y108312D02*
X181406Y109843D01*
X185039D01*
G01X183858Y30709D02*
Y16535D01*
X186220Y14173D01*
Y6693D01*
X184646Y5118D01*
G01X183858Y30709D02*
Y42913D01*
G01X199606Y39764D02*
X187008D01*
X183858Y42913D01*
G01D02*
Y58661D01*
X185039Y59843D01*
Y64567D01*
G01D02*
Y76378D01*
G01D02*
Y80709D01*
G01D02*
Y84646D01*
G01D02*
Y88976D01*
X187508Y91445D01*
Y94488D01*
G01X185039Y109843D02*
Y99031D01*
G01D02*
X187508Y96563D01*
G01X185039Y109843D02*
Y112205D01*
X190157Y117323D01*
Y119685D01*
G01X187508Y96563D02*
Y94488D01*
G01X192520Y124409D02*
X188689D01*
X187508Y125591D01*
G01X190157Y119685D02*
X192520Y122047D01*
Y124409D01*
G01D02*
X210236D01*
G01X199606Y7874D02*
X211024D01*
X216161Y13012D01*
Y16909D01*
X213780Y19291D01*
G01X216161Y50394D02*
X214087D01*
X209843Y54638D01*
Y66535D01*
G01D02*
Y78346D01*
X214173Y82677D01*
X217823D01*
G01X209843Y66535D02*
X212126D01*
X216068Y62593D01*
X216322D01*
X217790Y61126D01*
G01X217823Y82677D02*
Y94488D01*
X211917Y100394D01*
G01X218504Y118110D02*
X211917Y111524D01*
Y100394D01*
G01X212992Y127165D02*
X210236Y124409D01*
G01X215748D02*
X210236D01*
G01X217823Y34252D02*
X212224Y28654D01*
Y22921D01*
X213780Y21366D01*
Y19291D01*
G01X211917Y100394D02*
Y95630D01*
G01X217823Y34252D02*
Y37902D01*
X220079Y40157D01*
Y46476D01*
X216161Y50394D01*
G01X218504Y118110D02*
Y121654D01*
X215748Y124409D01*
G01X217823Y31102D02*
Y34252D01*
G01Y78346D02*
Y82677D01*
G01X218504Y110236D02*
Y118110D01*
G01D02*
X221260Y115354D01*
X237795D01*
X242520Y110630D01*
G01X240486Y78346D02*
Y75132D01*
X231496Y66142D01*
Y55287D01*
X240326Y46457D01*
G01X247638Y14567D02*
X245669Y16535D01*
Y29134D01*
X240326Y34477D01*
Y46457D01*
G01D02*
X247638D01*
G01X247244Y78346D02*
X240486D01*
G01D02*
Y83006D01*
X245276Y87795D01*
Y103937D01*
X242520Y106693D01*
Y110630D01*
G01D02*
X248031D01*
X5618Y5618D03*
Y9449D03*
Y12598D03*
Y25091D03*
X7874Y7480D03*
Y23728D03*
X10130Y5618D03*
Y9449D03*
X19291Y39370D03*
X22835Y39331D03*
X23228Y124016D03*
X25878Y21154D03*
X25917Y89016D03*
Y107913D03*
X26819Y19304D03*
X27953Y39370D03*
X30081Y16142D03*
X30709Y19185D03*
X31496Y34646D03*
X33071Y7087D03*
X33858Y19185D03*
X33504Y66929D03*
X35039Y5618D03*
X36614Y7480D03*
Y10630D03*
Y16142D03*
Y66929D03*
X38583Y5618D03*
X37402Y19185D03*
X38189Y34646D03*
Y121063D03*
X38583Y124803D03*
X40551Y7087D03*
Y19185D03*
X39764Y66929D03*
X42913Y115051D03*
X43307Y24016D03*
X43701Y85039D03*
Y111024D03*
X48425Y46850D03*
X48031Y73228D03*
X48425Y77953D03*
X51181Y46063D03*
X52362Y128740D03*
X53543Y44094D03*
X56693Y29921D03*
Y42913D03*
X55906Y90551D03*
X56693Y117323D03*
X56890Y121063D03*
X59449Y64764D03*
X59332Y67833D03*
X58768Y70669D03*
Y82480D03*
X58858Y95276D03*
X59843Y42232D03*
X59529Y59529D03*
X59843Y74250D03*
Y77165D03*
X61811Y62205D03*
X62598Y79134D03*
X61917Y101181D03*
X69291Y59843D03*
X71654Y38189D03*
X74606Y58768D03*
Y88476D03*
X75984Y38976D03*
X77559Y110236D03*
X78059Y11811D03*
X78740Y122441D03*
X83465Y11811D03*
X82677Y31890D03*
Y122441D03*
X84449Y88476D03*
X86417Y58768D03*
Y95276D03*
X87008Y122441D03*
X88476Y62795D03*
Y66732D03*
Y76575D03*
Y86417D03*
X91732Y37008D03*
X92126Y92126D03*
X91732Y122441D03*
X96457D03*
X97638Y11811D03*
Y36614D03*
X101575Y122441D03*
X103043Y11811D03*
X104331Y23228D03*
X104724Y104331D03*
X103937Y110236D03*
X106693Y57480D03*
X111024Y30709D03*
X112205Y62598D03*
Y70866D03*
X111417Y92913D03*
Y104724D03*
X113780Y27165D03*
X114173Y66929D03*
X113059Y75425D03*
X114961Y95276D03*
X115748Y62598D03*
X116142Y70866D03*
X117126Y41732D03*
Y55811D03*
X120866Y33465D03*
Y57874D03*
X119291Y76378D03*
X124409Y62008D03*
X123492Y73819D03*
X126772Y63976D03*
X126378Y71850D03*
X129134Y65945D03*
Y69882D03*
X131496Y55118D03*
X132283Y61024D03*
X132677Y67913D03*
X136614Y26772D03*
X137795Y8268D03*
Y15748D03*
Y24016D03*
Y29921D03*
Y39764D03*
Y47244D03*
Y55118D03*
Y61024D03*
X137815Y70453D03*
X137795Y79921D03*
Y87008D03*
Y94488D03*
Y101969D03*
Y111417D03*
Y118110D03*
Y125591D03*
X148031Y83071D03*
Y114567D03*
X154685Y33819D03*
Y64528D03*
X157193Y8268D03*
Y12008D03*
X157480Y39764D03*
X157193Y43504D03*
X158268Y46850D03*
X157480Y87008D03*
X157399Y90748D03*
X157480Y118110D03*
Y121850D03*
X159736Y27362D03*
X159055Y58858D03*
X159736Y74606D03*
X159449Y106496D03*
X168504Y29134D03*
X167717Y60630D03*
X168504Y76378D03*
Y107874D03*
X168898Y6693D03*
X175531Y19626D03*
Y50000D03*
X178346Y23622D03*
X178059Y27362D03*
X178740Y40945D03*
Y55118D03*
X178346Y58858D03*
Y70866D03*
Y74606D03*
X178740Y86614D03*
Y94094D03*
X178346Y102756D03*
X178059Y106496D03*
X178740Y118110D03*
Y125630D03*
X179134Y5118D03*
X180209Y7874D03*
Y11614D03*
Y15354D03*
X179528Y37795D03*
X180209Y47244D03*
Y90748D03*
Y121850D03*
X182283Y84646D03*
X182677Y114961D03*
X187345Y19685D03*
X188583Y51181D03*
X187508Y94488D03*
Y125591D03*
X189370Y79134D03*
X189764Y111024D03*
X192126Y67717D03*
X192520Y71654D03*
Y101575D03*
X196063Y18898D03*
X196457Y50787D03*
X199213Y11614D03*
Y43701D03*
X198531Y90748D03*
Y118110D03*
Y121850D03*
X199606Y7874D03*
X201075Y23622D03*
X199606Y32283D03*
Y39764D03*
X200000Y63780D03*
X201075Y70866D03*
X199606Y79134D03*
Y87008D03*
X200287Y95669D03*
X200787Y102756D03*
X199606Y111024D03*
Y127165D03*
X203169Y12205D03*
Y43701D03*
X207087Y11417D03*
Y42913D03*
X209449Y15354D03*
X209843Y46850D03*
X210236Y86220D03*
X210630Y118110D03*
X213780Y19291D03*
X211917Y95630D03*
X212992Y127165D03*
X217823Y31102D03*
X216142Y42913D03*
X216161Y50394D03*
X217823Y55118D03*
X217790Y61126D03*
X217717Y72835D03*
X217823Y78346D03*
X218504Y25984D03*
X218110Y102756D03*
X218504Y110236D03*
X224016Y10236D03*
X223064Y35697D03*
X224016Y44094D03*
Y75591D03*
X223622Y126752D03*
X225984Y5118D03*
X224409Y107874D03*
X226283Y27465D03*
X227953Y37102D03*
X226283Y59354D03*
Y90551D03*
Y122551D03*
X229134Y6693D03*
X232272Y75820D03*
X231890Y98031D03*
X232283Y108104D03*
X232677Y12041D03*
Y44324D03*
X237795Y62598D03*
X237402Y94094D03*
X239669Y27465D03*
Y90551D03*
Y122835D03*
X243600Y57774D03*
X247638Y14567D03*
Y46457D03*
X247244Y78346D03*
X248031Y110630D03*
X250394Y31496D03*
Y62992D03*
X250787Y94094D03*
X251969Y126772D03*
X268504Y27559D03*
Y59055D03*
Y90157D03*
Y123228D03*
G54D11*
X10669Y81437D03*
Y115492D03*
X27205Y81437D03*
Y115492D03*
G54D12*
X53937Y11811D03*
G54D13*
X126378Y9291D03*
Y19291D03*
Y35669D03*
Y45669D03*
Y88425D03*
Y98425D03*
Y115197D03*
Y125197D03*
X254331Y16929D03*
Y49213D03*
Y80315D03*
Y113386D03*
X260630Y10630D03*
Y23228D03*
Y42913D03*
Y55512D03*
Y74016D03*
Y86614D03*
Y107087D03*
Y119685D03*
X266929Y16929D03*
Y49213D03*
Y80315D03*
Y113386D03*
M02*
